  0
SECTION
  2
HEADER
  9
$ANGBASE
  50
0.0
  9
$ANGDIR
  70
  1
  9
$MEASUREMENT
  70
0
  0
ENDSEC
  0
SECTION
  2
TABLES
  0
TABLE
  2
LTYPE
  70
4
  0
LTYPE
  5
40F
  2
CONTINUOUS
  70
0
  3
Solid line
  72
65
  73
0
  40
0.0
  0
LTYPE
  5
410
  2
DASHDOT
 70
0
  3
Dash Dot ____ _ ____ _
 72
65
 73
4
 40
2.0
 49
1.25
 49
-0.25
 49
0.25
 49
-0.25
  0
LTYPE
  5
411
  2
DASHED
 70
0
  3
Dashed __ __ __ __ __
 72
65
 73
2
 40
0.75
 49
0.5
 49
-0.25
  0
LTYPE
  5
43B
  2
DOTTED
 70
0
  3
Dotted .  .  .  .
 72
65
 73
2
 40
0.2
 49
0.0
 49
-0.2
  0
ENDTAB
  0
TABLE
  2
STYLE
  70
4
  0
STYLE
  2
KICAD
  70
0
  40
0
  41
1
  42
1
  50
0
  71
0
  3
isocp.shx
  0
STYLE
  2
KICADB
  70
0
  40
0
  41
1
  42
1
  50
0
  71
0
  3
isocp.shx
  0
STYLE
  2
KICADI
  70
0
  40
0
  41
1
  42
1
  50
15
  71
0
  3
isocp.shx
  0
STYLE
  2
KICADBI
  70
0
  40
0
  41
1
  42
1
  50
15
  71
0
  3
isocp.shx
  0
ENDTAB
  0
TABLE
  2
LAYER
  70
30
  0
LAYER
  2
BLACK
  70
0
  62
7
  6
CONTINUOUS
  0
LAYER
  2
GRAY1
  70
0
  62
251
  6
CONTINUOUS
  0
LAYER
  2
GRAY2
  70
0
  62
8
  6
CONTINUOUS
  0
LAYER
  2
GRAY3
  70
0
  62
9
  6
CONTINUOUS
  0
LAYER
  2
WHITE
  70
0
  62
7
  6
CONTINUOUS
  0
LAYER
  2
LYELLOW
  70
0
  62
51
  6
CONTINUOUS
  0
LAYER
  2
BLUE1
  70
0
  62
178
  6
CONTINUOUS
  0
LAYER
  2
GREEN1
  70
0
  62
98
  6
CONTINUOUS
  0
LAYER
  2
CYAN1
  70
0
  62
138
  6
CONTINUOUS
  0
LAYER
  2
RED1
  70
0
  62
18
  6
CONTINUOUS
  0
LAYER
  2
MAGENTA1
  70
0
  62
228
  6
CONTINUOUS
  0
LAYER
  2
BROWN1
  70
0
  62
58
  6
CONTINUOUS
  0
LAYER
  2
BLUE2
  70
0
  62
5
  6
CONTINUOUS
  0
LAYER
  2
GREEN2
  70
0
  62
3
  6
CONTINUOUS
  0
LAYER
  2
CYAN2
  70
0
  62
4
  6
CONTINUOUS
  0
LAYER
  2
RED2
  70
0
  62
1
  6
CONTINUOUS
  0
LAYER
  2
MAGENTA2
  70
0
  62
6
  6
CONTINUOUS
  0
LAYER
  2
BROWN2
  70
0
  62
54
  6
CONTINUOUS
  0
LAYER
  2
BLUE3
  70
0
  62
171
  6
CONTINUOUS
  0
LAYER
  2
GREEN3
  70
0
  62
91
  6
CONTINUOUS
  0
LAYER
  2
CYAN3
  70
0
  62
131
  6
CONTINUOUS
  0
LAYER
  2
RED3
  70
0
  62
11
  6
CONTINUOUS
  0
LAYER
  2
MAGENTA3
  70
0
  62
221
  6
CONTINUOUS
  0
LAYER
  2
YELLOW3
  70
0
  62
2
  6
CONTINUOUS
  0
LAYER
  2
BLUE4
  70
0
  62
5
  6
CONTINUOUS
  0
LAYER
  2
GREEN4
  70
0
  62
3
  6
CONTINUOUS
  0
LAYER
  2
CYAN4
  70
0
  62
4
  6
CONTINUOUS
  0
LAYER
  2
RED4
  70
0
  62
1
  6
CONTINUOUS
  0
LAYER
  2
MAGENTA4
  70
0
  62
6
  6
CONTINUOUS
  0
LAYER
  2
YELLOW4
  70
0
  62
2
  6
CONTINUOUS
  0
ENDTAB
  0
ENDSEC
  0
SECTION
  2
ENTITIES
0
LINE
8
BLACK
6
CONTINUOUS
10
147.036
20
-88.0644
11
147.081
21
-88.0905
0
LINE
8
BLACK
6
CONTINUOUS
10
147.081
20
-88.0905
11
147.115
21
-88.1304
0
LINE
8
BLACK
6
CONTINUOUS
10
147.115
20
-88.1304
11
147.135
21
-88.2054
0
LINE
8
BLACK
6
CONTINUOUS
10
147.135
20
-88.2054
11
147.135
21
-89.7054
0
LINE
8
BLACK
6
CONTINUOUS
10
147.135
20
-89.7054
11
147.126
21
-89.7567
0
LINE
8
BLACK
6
CONTINUOUS
10
147.126
20
-89.7567
11
147.1
21
-89.8018
0
LINE
8
BLACK
6
CONTINUOUS
10
147.1
20
-89.8018
11
147.06
21
-89.8353
0
LINE
8
BLACK
6
CONTINUOUS
10
147.06
20
-89.8353
11
146.985
21
-89.8554
0
LINE
8
BLACK
6
CONTINUOUS
10
146.985
20
-89.8554
11
146.685
21
-89.8554
0
LINE
8
BLACK
6
CONTINUOUS
10
146.685
20
-89.8554
11
146.633
21
-89.8464
0
LINE
8
BLACK
6
CONTINUOUS
10
146.633
20
-89.8464
11
146.588
21
-89.8203
0
LINE
8
BLACK
6
CONTINUOUS
10
146.588
20
-89.8203
11
146.555
21
-89.7804
0
LINE
8
BLACK
6
CONTINUOUS
10
146.555
20
-89.7804
11
146.535
21
-89.7054
0
LINE
8
BLACK
6
CONTINUOUS
10
146.535
20
-89.7054
11
146.535
21
-88.2054
0
LINE
8
BLACK
6
CONTINUOUS
10
146.535
20
-88.2054
11
146.544
21
-88.1541
0
LINE
8
BLACK
6
CONTINUOUS
10
146.544
20
-88.1541
11
146.57
21
-88.109
0
LINE
8
BLACK
6
CONTINUOUS
10
146.57
20
-88.109
11
146.61
21
-88.0755
0
LINE
8
BLACK
6
CONTINUOUS
10
146.61
20
-88.0755
11
146.685
21
-88.0554
0
LINE
8
BLACK
6
CONTINUOUS
10
146.685
20
-88.0554
11
146.985
21
-88.0554
0
LINE
8
BLACK
6
CONTINUOUS
10
146.985
20
-88.0554
11
147.036
21
-88.0644
0
LINE
8
BLACK
6
CONTINUOUS
10
146.094
20
-88.0614
11
146.124
21
-88.0788
0
LINE
8
BLACK
6
CONTINUOUS
10
146.124
20
-88.0788
11
146.146
21
-88.1054
0
LINE
8
BLACK
6
CONTINUOUS
10
146.146
20
-88.1054
11
146.16
21
-88.1554
0
LINE
8
BLACK
6
CONTINUOUS
10
146.16
20
-88.1554
11
146.16
21
-89.7554
0
LINE
8
BLACK
6
CONTINUOUS
10
146.16
20
-89.7554
11
146.154
21
-89.7896
0
LINE
8
BLACK
6
CONTINUOUS
10
146.154
20
-89.7896
11
146.136
21
-89.8197
0
LINE
8
BLACK
6
CONTINUOUS
10
146.136
20
-89.8197
11
146.11
21
-89.842
0
LINE
8
BLACK
6
CONTINUOUS
10
146.11
20
-89.842
11
146.06
21
-89.8554
0
LINE
8
BLACK
6
CONTINUOUS
10
146.06
20
-89.8554
11
145.86
21
-89.8554
0
LINE
8
BLACK
6
CONTINUOUS
10
145.86
20
-89.8554
11
145.825
21
-89.8494
0
LINE
8
BLACK
6
CONTINUOUS
10
145.825
20
-89.8494
11
145.795
21
-89.832
0
LINE
8
BLACK
6
CONTINUOUS
10
145.795
20
-89.832
11
145.773
21
-89.8054
0
LINE
8
BLACK
6
CONTINUOUS
10
145.773
20
-89.8054
11
145.76
21
-89.7554
0
LINE
8
BLACK
6
CONTINUOUS
10
145.76
20
-89.7554
11
145.76
21
-88.1554
0
LINE
8
BLACK
6
CONTINUOUS
10
145.76
20
-88.1554
11
145.766
21
-88.1212
0
LINE
8
BLACK
6
CONTINUOUS
10
145.766
20
-88.1212
11
145.783
21
-88.0911
0
LINE
8
BLACK
6
CONTINUOUS
10
145.783
20
-88.0911
11
145.81
21
-88.0688
0
LINE
8
BLACK
6
CONTINUOUS
10
145.81
20
-88.0688
11
145.86
21
-88.0554
0
LINE
8
BLACK
6
CONTINUOUS
10
145.86
20
-88.0554
11
146.06
21
-88.0554
0
LINE
8
BLACK
6
CONTINUOUS
10
146.06
20
-88.0554
11
146.094
21
-88.0614
0
LINE
8
BLACK
6
CONTINUOUS
10
148.228
20
-88.0675
11
148.288
21
-88.1022
0
LINE
8
BLACK
6
CONTINUOUS
10
148.288
20
-88.1022
11
148.333
21
-88.1554
0
LINE
8
BLACK
6
CONTINUOUS
10
148.333
20
-88.1554
11
148.36
21
-88.2554
0
LINE
8
BLACK
6
CONTINUOUS
10
148.36
20
-88.2554
11
148.36
21
-89.6554
0
LINE
8
BLACK
6
CONTINUOUS
10
148.36
20
-89.6554
11
148.348
21
-89.7238
0
LINE
8
BLACK
6
CONTINUOUS
10
148.348
20
-89.7238
11
148.313
21
-89.784
0
LINE
8
BLACK
6
CONTINUOUS
10
148.313
20
-89.784
11
148.26
21
-89.8286
0
LINE
8
BLACK
6
CONTINUOUS
10
148.26
20
-89.8286
11
148.16
21
-89.8554
0
LINE
8
BLACK
6
CONTINUOUS
10
148.16
20
-89.8554
11
147.76
21
-89.8554
0
LINE
8
BLACK
6
CONTINUOUS
10
147.76
20
-89.8554
11
147.691
21
-89.8433
0
LINE
8
BLACK
6
CONTINUOUS
10
147.691
20
-89.8433
11
147.631
21
-89.8086
0
LINE
8
BLACK
6
CONTINUOUS
10
147.631
20
-89.8086
11
147.586
21
-89.7554
0
LINE
8
BLACK
6
CONTINUOUS
10
147.586
20
-89.7554
11
147.56
21
-89.6554
0
LINE
8
BLACK
6
CONTINUOUS
10
147.56
20
-89.6554
11
147.56
21
-88.2554
0
LINE
8
BLACK
6
CONTINUOUS
10
147.56
20
-88.2554
11
147.572
21
-88.187
0
LINE
8
BLACK
6
CONTINUOUS
10
147.572
20
-88.187
11
147.606
21
-88.1268
0
LINE
8
BLACK
6
CONTINUOUS
10
147.606
20
-88.1268
11
147.66
21
-88.0822
0
LINE
8
BLACK
6
CONTINUOUS
10
147.66
20
-88.0822
11
147.76
21
-88.0554
0
LINE
8
BLACK
6
CONTINUOUS
10
147.76
20
-88.0554
11
148.16
21
-88.0554
0
LINE
8
BLACK
6
CONTINUOUS
10
148.16
20
-88.0554
11
148.228
21
-88.0675
0
LINE
8
BLACK
6
CONTINUOUS
10
149.403
20
-88.0675
11
149.463
21
-88.1022
0
LINE
8
BLACK
6
CONTINUOUS
10
149.463
20
-88.1022
11
149.508
21
-88.1554
0
LINE
8
BLACK
6
CONTINUOUS
10
149.508
20
-88.1554
11
149.535
21
-88.2554
0
LINE
8
BLACK
6
CONTINUOUS
10
149.535
20
-88.2554
11
149.535
21
-89.6554
0
LINE
8
BLACK
6
CONTINUOUS
10
149.535
20
-89.6554
11
149.523
21
-89.7238
0
LINE
8
BLACK
6
CONTINUOUS
10
149.523
20
-89.7238
11
149.488
21
-89.784
0
LINE
8
BLACK
6
CONTINUOUS
10
149.488
20
-89.784
11
149.435
21
-89.8286
0
LINE
8
BLACK
6
CONTINUOUS
10
149.435
20
-89.8286
11
149.335
21
-89.8554
0
LINE
8
BLACK
6
CONTINUOUS
10
149.335
20
-89.8554
11
148.935
21
-89.8554
0
LINE
8
BLACK
6
CONTINUOUS
10
148.935
20
-89.8554
11
148.866
21
-89.8433
0
LINE
8
BLACK
6
CONTINUOUS
10
148.866
20
-89.8433
11
148.806
21
-89.8086
0
LINE
8
BLACK
6
CONTINUOUS
10
148.806
20
-89.8086
11
148.761
21
-89.7554
0
LINE
8
BLACK
6
CONTINUOUS
10
148.761
20
-89.7554
11
148.735
21
-89.6554
0
LINE
8
BLACK
6
CONTINUOUS
10
148.735
20
-89.6554
11
148.735
21
-88.2554
0
LINE
8
BLACK
6
CONTINUOUS
10
148.735
20
-88.2554
11
148.747
21
-88.187
0
LINE
8
BLACK
6
CONTINUOUS
10
148.747
20
-88.187
11
148.781
21
-88.1268
0
LINE
8
BLACK
6
CONTINUOUS
10
148.781
20
-88.1268
11
148.835
21
-88.0822
0
LINE
8
BLACK
6
CONTINUOUS
10
148.835
20
-88.0822
11
148.935
21
-88.0554
0
LINE
8
BLACK
6
CONTINUOUS
10
148.935
20
-88.0554
11
149.335
21
-88.0554
0
LINE
8
BLACK
6
CONTINUOUS
10
149.335
20
-88.0554
11
149.403
21
-88.0675
0
LINE
8
BLACK
6
CONTINUOUS
10
152.378
20
-88.0675
11
152.438
21
-88.1022
0
LINE
8
BLACK
6
CONTINUOUS
10
152.438
20
-88.1022
11
152.483
21
-88.1554
0
LINE
8
BLACK
6
CONTINUOUS
10
152.483
20
-88.1554
11
152.51
21
-88.2554
0
LINE
8
BLACK
6
CONTINUOUS
10
152.51
20
-88.2554
11
152.51
21
-89.6554
0
LINE
8
BLACK
6
CONTINUOUS
10
152.51
20
-89.6554
11
152.498
21
-89.7238
0
LINE
8
BLACK
6
CONTINUOUS
10
152.498
20
-89.7238
11
152.463
21
-89.784
0
LINE
8
BLACK
6
CONTINUOUS
10
152.463
20
-89.784
11
152.41
21
-89.8286
0
LINE
8
BLACK
6
CONTINUOUS
10
152.41
20
-89.8286
11
152.31
21
-89.8554
0
LINE
8
BLACK
6
CONTINUOUS
10
152.31
20
-89.8554
11
151.91
21
-89.8554
0
LINE
8
BLACK
6
CONTINUOUS
10
151.91
20
-89.8554
11
151.841
21
-89.8433
0
LINE
8
BLACK
6
CONTINUOUS
10
151.841
20
-89.8433
11
151.781
21
-89.8086
0
LINE
8
BLACK
6
CONTINUOUS
10
151.781
20
-89.8086
11
151.736
21
-89.7554
0
LINE
8
BLACK
6
CONTINUOUS
10
151.736
20
-89.7554
11
151.71
21
-89.6554
0
LINE
8
BLACK
6
CONTINUOUS
10
151.71
20
-89.6554
11
151.71
21
-88.2554
0
LINE
8
BLACK
6
CONTINUOUS
10
151.71
20
-88.2554
11
151.722
21
-88.187
0
LINE
8
BLACK
6
CONTINUOUS
10
151.722
20
-88.187
11
151.756
21
-88.1268
0
LINE
8
BLACK
6
CONTINUOUS
10
151.756
20
-88.1268
11
151.81
21
-88.0822
0
LINE
8
BLACK
6
CONTINUOUS
10
151.81
20
-88.0822
11
151.91
21
-88.0554
0
LINE
8
BLACK
6
CONTINUOUS
10
151.91
20
-88.0554
11
152.31
21
-88.0554
0
LINE
8
BLACK
6
CONTINUOUS
10
152.31
20
-88.0554
11
152.378
21
-88.0675
0
LINE
8
BLACK
6
CONTINUOUS
10
150.244
20
-88.0614
11
150.274
21
-88.0788
0
LINE
8
BLACK
6
CONTINUOUS
10
150.274
20
-88.0788
11
150.296
21
-88.1054
0
LINE
8
BLACK
6
CONTINUOUS
10
150.296
20
-88.1054
11
150.31
21
-88.1554
0
LINE
8
BLACK
6
CONTINUOUS
10
150.31
20
-88.1554
11
150.31
21
-89.7554
0
LINE
8
BLACK
6
CONTINUOUS
10
150.31
20
-89.7554
11
150.304
21
-89.7896
0
LINE
8
BLACK
6
CONTINUOUS
10
150.304
20
-89.7896
11
150.286
21
-89.8197
0
LINE
8
BLACK
6
CONTINUOUS
10
150.286
20
-89.8197
11
150.26
21
-89.842
0
LINE
8
BLACK
6
CONTINUOUS
10
150.26
20
-89.842
11
150.21
21
-89.8554
0
LINE
8
BLACK
6
CONTINUOUS
10
150.21
20
-89.8554
11
150.01
21
-89.8554
0
LINE
8
BLACK
6
CONTINUOUS
10
150.01
20
-89.8554
11
149.975
21
-89.8494
0
LINE
8
BLACK
6
CONTINUOUS
10
149.975
20
-89.8494
11
149.945
21
-89.832
0
LINE
8
BLACK
6
CONTINUOUS
10
149.945
20
-89.832
11
149.923
21
-89.8054
0
LINE
8
BLACK
6
CONTINUOUS
10
149.923
20
-89.8054
11
149.91
21
-89.7554
0
LINE
8
BLACK
6
CONTINUOUS
10
149.91
20
-89.7554
11
149.91
21
-88.1554
0
LINE
8
BLACK
6
CONTINUOUS
10
149.91
20
-88.1554
11
149.916
21
-88.1212
0
LINE
8
BLACK
6
CONTINUOUS
10
149.916
20
-88.1212
11
149.933
21
-88.0911
0
LINE
8
BLACK
6
CONTINUOUS
10
149.933
20
-88.0911
11
149.96
21
-88.0688
0
LINE
8
BLACK
6
CONTINUOUS
10
149.96
20
-88.0688
11
150.01
21
-88.0554
0
LINE
8
BLACK
6
CONTINUOUS
10
150.01
20
-88.0554
11
150.21
21
-88.0554
0
LINE
8
BLACK
6
CONTINUOUS
10
150.21
20
-88.0554
11
150.244
21
-88.0614
0
LINE
8
BLACK
6
CONTINUOUS
10
151.186
20
-88.0644
11
151.231
21
-88.0905
0
LINE
8
BLACK
6
CONTINUOUS
10
151.231
20
-88.0905
11
151.265
21
-88.1304
0
LINE
8
BLACK
6
CONTINUOUS
10
151.265
20
-88.1304
11
151.285
21
-88.2054
0
LINE
8
BLACK
6
CONTINUOUS
10
151.285
20
-88.2054
11
151.285
21
-89.7054
0
LINE
8
BLACK
6
CONTINUOUS
10
151.285
20
-89.7054
11
151.276
21
-89.7567
0
LINE
8
BLACK
6
CONTINUOUS
10
151.276
20
-89.7567
11
151.25
21
-89.8018
0
LINE
8
BLACK
6
CONTINUOUS
10
151.25
20
-89.8018
11
151.21
21
-89.8353
0
LINE
8
BLACK
6
CONTINUOUS
10
151.21
20
-89.8353
11
151.135
21
-89.8554
0
LINE
8
BLACK
6
CONTINUOUS
10
151.135
20
-89.8554
11
150.835
21
-89.8554
0
LINE
8
BLACK
6
CONTINUOUS
10
150.835
20
-89.8554
11
150.783
21
-89.8464
0
LINE
8
BLACK
6
CONTINUOUS
10
150.783
20
-89.8464
11
150.738
21
-89.8203
0
LINE
8
BLACK
6
CONTINUOUS
10
150.738
20
-89.8203
11
150.705
21
-89.7804
0
LINE
8
BLACK
6
CONTINUOUS
10
150.705
20
-89.7804
11
150.685
21
-89.7054
0
LINE
8
BLACK
6
CONTINUOUS
10
150.685
20
-89.7054
11
150.685
21
-88.2054
0
LINE
8
BLACK
6
CONTINUOUS
10
150.685
20
-88.2054
11
150.694
21
-88.1541
0
LINE
8
BLACK
6
CONTINUOUS
10
150.694
20
-88.1541
11
150.72
21
-88.109
0
LINE
8
BLACK
6
CONTINUOUS
10
150.72
20
-88.109
11
150.76
21
-88.0755
0
LINE
8
BLACK
6
CONTINUOUS
10
150.76
20
-88.0755
11
150.835
21
-88.0554
0
LINE
8
BLACK
6
CONTINUOUS
10
150.835
20
-88.0554
11
151.135
21
-88.0554
0
LINE
8
BLACK
6
CONTINUOUS
10
151.135
20
-88.0554
11
151.186
21
-88.0644
0
LINE
8
BLACK
6
CONTINUOUS
10
145.253
20
-88.0675
11
145.313
21
-88.1022
0
LINE
8
BLACK
6
CONTINUOUS
10
145.313
20
-88.1022
11
145.358
21
-88.1554
0
LINE
8
BLACK
6
CONTINUOUS
10
145.358
20
-88.1554
11
145.385
21
-88.2554
0
LINE
8
BLACK
6
CONTINUOUS
10
145.385
20
-88.2554
11
145.385
21
-89.6554
0
LINE
8
BLACK
6
CONTINUOUS
10
145.385
20
-89.6554
11
145.373
21
-89.7238
0
LINE
8
BLACK
6
CONTINUOUS
10
145.373
20
-89.7238
11
145.338
21
-89.784
0
LINE
8
BLACK
6
CONTINUOUS
10
145.338
20
-89.784
11
145.285
21
-89.8286
0
LINE
8
BLACK
6
CONTINUOUS
10
145.285
20
-89.8286
11
145.185
21
-89.8554
0
LINE
8
BLACK
6
CONTINUOUS
10
145.185
20
-89.8554
11
144.785
21
-89.8554
0
LINE
8
BLACK
6
CONTINUOUS
10
144.785
20
-89.8554
11
144.716
21
-89.8433
0
LINE
8
BLACK
6
CONTINUOUS
10
144.716
20
-89.8433
11
144.656
21
-89.8086
0
LINE
8
BLACK
6
CONTINUOUS
10
144.656
20
-89.8086
11
144.611
21
-89.7554
0
LINE
8
BLACK
6
CONTINUOUS
10
144.611
20
-89.7554
11
144.585
21
-89.6554
0
LINE
8
BLACK
6
CONTINUOUS
10
144.585
20
-89.6554
11
144.585
21
-88.2554
0
LINE
8
BLACK
6
CONTINUOUS
10
144.585
20
-88.2554
11
144.597
21
-88.187
0
LINE
8
BLACK
6
CONTINUOUS
10
144.597
20
-88.187
11
144.631
21
-88.1268
0
LINE
8
BLACK
6
CONTINUOUS
10
144.631
20
-88.1268
11
144.685
21
-88.0822
0
LINE
8
BLACK
6
CONTINUOUS
10
144.685
20
-88.0822
11
144.785
21
-88.0554
0
LINE
8
BLACK
6
CONTINUOUS
10
144.785
20
-88.0554
11
145.185
21
-88.0554
0
LINE
8
BLACK
6
CONTINUOUS
10
145.185
20
-88.0554
11
145.253
21
-88.0675
0
LINE
8
BLACK
6
CONTINUOUS
10
147.036
20
-85.2944
11
147.081
21
-85.3205
0
LINE
8
BLACK
6
CONTINUOUS
10
147.081
20
-85.3205
11
147.115
21
-85.3604
0
LINE
8
BLACK
6
CONTINUOUS
10
147.115
20
-85.3604
11
147.135
21
-85.4354
0
LINE
8
BLACK
6
CONTINUOUS
10
147.135
20
-85.4354
11
147.135
21
-86.9354
0
LINE
8
BLACK
6
CONTINUOUS
10
147.135
20
-86.9354
11
147.126
21
-86.9867
0
LINE
8
BLACK
6
CONTINUOUS
10
147.126
20
-86.9867
11
147.1
21
-87.0318
0
LINE
8
BLACK
6
CONTINUOUS
10
147.1
20
-87.0318
11
147.06
21
-87.0653
0
LINE
8
BLACK
6
CONTINUOUS
10
147.06
20
-87.0653
11
146.985
21
-87.0854
0
LINE
8
BLACK
6
CONTINUOUS
10
146.985
20
-87.0854
11
146.685
21
-87.0854
0
LINE
8
BLACK
6
CONTINUOUS
10
146.685
20
-87.0854
11
146.633
21
-87.0764
0
LINE
8
BLACK
6
CONTINUOUS
10
146.633
20
-87.0764
11
146.588
21
-87.0503
0
LINE
8
BLACK
6
CONTINUOUS
10
146.588
20
-87.0503
11
146.555
21
-87.0104
0
LINE
8
BLACK
6
CONTINUOUS
10
146.555
20
-87.0104
11
146.535
21
-86.9354
0
LINE
8
BLACK
6
CONTINUOUS
10
146.535
20
-86.9354
11
146.535
21
-85.4354
0
LINE
8
BLACK
6
CONTINUOUS
10
146.535
20
-85.4354
11
146.544
21
-85.3841
0
LINE
8
BLACK
6
CONTINUOUS
10
146.544
20
-85.3841
11
146.57
21
-85.339
0
LINE
8
BLACK
6
CONTINUOUS
10
146.57
20
-85.339
11
146.61
21
-85.3055
0
LINE
8
BLACK
6
CONTINUOUS
10
146.61
20
-85.3055
11
146.685
21
-85.2854
0
LINE
8
BLACK
6
CONTINUOUS
10
146.685
20
-85.2854
11
146.985
21
-85.2854
0
LINE
8
BLACK
6
CONTINUOUS
10
146.985
20
-85.2854
11
147.036
21
-85.2944
0
LINE
8
BLACK
6
CONTINUOUS
10
141.103
20
-85.2975
11
141.163
21
-85.3322
0
LINE
8
BLACK
6
CONTINUOUS
10
141.163
20
-85.3322
11
141.208
21
-85.3854
0
LINE
8
BLACK
6
CONTINUOUS
10
141.208
20
-85.3854
11
141.235
21
-85.4854
0
LINE
8
BLACK
6
CONTINUOUS
10
141.235
20
-85.4854
11
141.235
21
-86.8854
0
LINE
8
BLACK
6
CONTINUOUS
10
141.235
20
-86.8854
11
141.223
21
-86.9538
0
LINE
8
BLACK
6
CONTINUOUS
10
141.223
20
-86.9538
11
141.188
21
-87.014
0
LINE
8
BLACK
6
CONTINUOUS
10
141.188
20
-87.014
11
141.135
21
-87.0586
0
LINE
8
BLACK
6
CONTINUOUS
10
141.135
20
-87.0586
11
141.035
21
-87.0854
0
LINE
8
BLACK
6
CONTINUOUS
10
141.035
20
-87.0854
11
140.635
21
-87.0854
0
LINE
8
BLACK
6
CONTINUOUS
10
140.635
20
-87.0854
11
140.566
21
-87.0733
0
LINE
8
BLACK
6
CONTINUOUS
10
140.566
20
-87.0733
11
140.506
21
-87.0386
0
LINE
8
BLACK
6
CONTINUOUS
10
140.506
20
-87.0386
11
140.461
21
-86.9854
0
LINE
8
BLACK
6
CONTINUOUS
10
140.461
20
-86.9854
11
140.435
21
-86.8854
0
LINE
8
BLACK
6
CONTINUOUS
10
140.435
20
-86.8854
11
140.435
21
-85.4854
0
LINE
8
BLACK
6
CONTINUOUS
10
140.435
20
-85.4854
11
140.447
21
-85.417
0
LINE
8
BLACK
6
CONTINUOUS
10
140.447
20
-85.417
11
140.481
21
-85.3568
0
LINE
8
BLACK
6
CONTINUOUS
10
140.481
20
-85.3568
11
140.535
21
-85.3122
0
LINE
8
BLACK
6
CONTINUOUS
10
140.535
20
-85.3122
11
140.635
21
-85.2854
0
LINE
8
BLACK
6
CONTINUOUS
10
140.635
20
-85.2854
11
141.035
21
-85.2854
0
LINE
8
BLACK
6
CONTINUOUS
10
141.035
20
-85.2854
11
141.103
21
-85.2975
0
LINE
8
BLACK
6
CONTINUOUS
10
145.253
20
-85.2975
11
145.313
21
-85.3322
0
LINE
8
BLACK
6
CONTINUOUS
10
145.313
20
-85.3322
11
145.358
21
-85.3854
0
LINE
8
BLACK
6
CONTINUOUS
10
145.358
20
-85.3854
11
145.385
21
-85.4854
0
LINE
8
BLACK
6
CONTINUOUS
10
145.385
20
-85.4854
11
145.385
21
-86.8854
0
LINE
8
BLACK
6
CONTINUOUS
10
145.385
20
-86.8854
11
145.373
21
-86.9538
0
LINE
8
BLACK
6
CONTINUOUS
10
145.373
20
-86.9538
11
145.338
21
-87.014
0
LINE
8
BLACK
6
CONTINUOUS
10
145.338
20
-87.014
11
145.285
21
-87.0586
0
LINE
8
BLACK
6
CONTINUOUS
10
145.285
20
-87.0586
11
145.185
21
-87.0854
0
LINE
8
BLACK
6
CONTINUOUS
10
145.185
20
-87.0854
11
144.785
21
-87.0854
0
LINE
8
BLACK
6
CONTINUOUS
10
144.785
20
-87.0854
11
144.716
21
-87.0733
0
LINE
8
BLACK
6
CONTINUOUS
10
144.716
20
-87.0733
11
144.656
21
-87.0386
0
LINE
8
BLACK
6
CONTINUOUS
10
144.656
20
-87.0386
11
144.611
21
-86.9854
0
LINE
8
BLACK
6
CONTINUOUS
10
144.611
20
-86.9854
11
144.585
21
-86.8854
0
LINE
8
BLACK
6
CONTINUOUS
10
144.585
20
-86.8854
11
144.585
21
-85.4854
0
LINE
8
BLACK
6
CONTINUOUS
10
144.585
20
-85.4854
11
144.597
21
-85.417
0
LINE
8
BLACK
6
CONTINUOUS
10
144.597
20
-85.417
11
144.631
21
-85.3568
0
LINE
8
BLACK
6
CONTINUOUS
10
144.631
20
-85.3568
11
144.685
21
-85.3122
0
LINE
8
BLACK
6
CONTINUOUS
10
144.685
20
-85.3122
11
144.785
21
-85.2854
0
LINE
8
BLACK
6
CONTINUOUS
10
144.785
20
-85.2854
11
145.185
21
-85.2854
0
LINE
8
BLACK
6
CONTINUOUS
10
145.185
20
-85.2854
11
145.253
21
-85.2975
0
LINE
8
BLACK
6
CONTINUOUS
10
148.228
20
-85.2975
11
148.288
21
-85.3322
0
LINE
8
BLACK
6
CONTINUOUS
10
148.288
20
-85.3322
11
148.333
21
-85.3854
0
LINE
8
BLACK
6
CONTINUOUS
10
148.333
20
-85.3854
11
148.36
21
-85.4854
0
LINE
8
BLACK
6
CONTINUOUS
10
148.36
20
-85.4854
11
148.36
21
-86.8854
0
LINE
8
BLACK
6
CONTINUOUS
10
148.36
20
-86.8854
11
148.348
21
-86.9538
0
LINE
8
BLACK
6
CONTINUOUS
10
148.348
20
-86.9538
11
148.313
21
-87.014
0
LINE
8
BLACK
6
CONTINUOUS
10
148.313
20
-87.014
11
148.26
21
-87.0586
0
LINE
8
BLACK
6
CONTINUOUS
10
148.26
20
-87.0586
11
148.16
21
-87.0854
0
LINE
8
BLACK
6
CONTINUOUS
10
148.16
20
-87.0854
11
147.76
21
-87.0854
0
LINE
8
BLACK
6
CONTINUOUS
10
147.76
20
-87.0854
11
147.691
21
-87.0733
0
LINE
8
BLACK
6
CONTINUOUS
10
147.691
20
-87.0733
11
147.631
21
-87.0386
0
LINE
8
BLACK
6
CONTINUOUS
10
147.631
20
-87.0386
11
147.586
21
-86.9854
0
LINE
8
BLACK
6
CONTINUOUS
10
147.586
20
-86.9854
11
147.56
21
-86.8854
0
LINE
8
BLACK
6
CONTINUOUS
10
147.56
20
-86.8854
11
147.56
21
-85.4854
0
LINE
8
BLACK
6
CONTINUOUS
10
147.56
20
-85.4854
11
147.572
21
-85.417
0
LINE
8
BLACK
6
CONTINUOUS
10
147.572
20
-85.417
11
147.606
21
-85.3568
0
LINE
8
BLACK
6
CONTINUOUS
10
147.606
20
-85.3568
11
147.66
21
-85.3122
0
LINE
8
BLACK
6
CONTINUOUS
10
147.66
20
-85.3122
11
147.76
21
-85.2854
0
LINE
8
BLACK
6
CONTINUOUS
10
147.76
20
-85.2854
11
148.16
21
-85.2854
0
LINE
8
BLACK
6
CONTINUOUS
10
148.16
20
-85.2854
11
148.228
21
-85.2975
0
LINE
8
BLACK
6
CONTINUOUS
10
146.094
20
-85.2914
11
146.124
21
-85.3088
0
LINE
8
BLACK
6
CONTINUOUS
10
146.124
20
-85.3088
11
146.146
21
-85.3354
0
LINE
8
BLACK
6
CONTINUOUS
10
146.146
20
-85.3354
11
146.16
21
-85.3854
0
LINE
8
BLACK
6
CONTINUOUS
10
146.16
20
-85.3854
11
146.16
21
-86.9854
0
LINE
8
BLACK
6
CONTINUOUS
10
146.16
20
-86.9854
11
146.154
21
-87.0196
0
LINE
8
BLACK
6
CONTINUOUS
10
146.154
20
-87.0196
11
146.136
21
-87.0497
0
LINE
8
BLACK
6
CONTINUOUS
10
146.136
20
-87.0497
11
146.11
21
-87.072
0
LINE
8
BLACK
6
CONTINUOUS
10
146.11
20
-87.072
11
146.06
21
-87.0854
0
LINE
8
BLACK
6
CONTINUOUS
10
146.06
20
-87.0854
11
145.86
21
-87.0854
0
LINE
8
BLACK
6
CONTINUOUS
10
145.86
20
-87.0854
11
145.825
21
-87.0794
0
LINE
8
BLACK
6
CONTINUOUS
10
145.825
20
-87.0794
11
145.795
21
-87.062
0
LINE
8
BLACK
6
CONTINUOUS
10
145.795
20
-87.062
11
145.773
21
-87.0354
0
LINE
8
BLACK
6
CONTINUOUS
10
145.773
20
-87.0354
11
145.76
21
-86.9854
0
LINE
8
BLACK
6
CONTINUOUS
10
145.76
20
-86.9854
11
145.76
21
-85.3854
0
LINE
8
BLACK
6
CONTINUOUS
10
145.76
20
-85.3854
11
145.766
21
-85.3512
0
LINE
8
BLACK
6
CONTINUOUS
10
145.766
20
-85.3512
11
145.783
21
-85.3211
0
LINE
8
BLACK
6
CONTINUOUS
10
145.783
20
-85.3211
11
145.81
21
-85.2988
0
LINE
8
BLACK
6
CONTINUOUS
10
145.81
20
-85.2988
11
145.86
21
-85.2854
0
LINE
8
BLACK
6
CONTINUOUS
10
145.86
20
-85.2854
11
146.06
21
-85.2854
0
LINE
8
BLACK
6
CONTINUOUS
10
146.06
20
-85.2854
11
146.094
21
-85.2914
0
LINE
8
BLACK
6
CONTINUOUS
10
144.078
20
-85.2975
11
144.138
21
-85.3322
0
LINE
8
BLACK
6
CONTINUOUS
10
144.138
20
-85.3322
11
144.183
21
-85.3854
0
LINE
8
BLACK
6
CONTINUOUS
10
144.183
20
-85.3854
11
144.21
21
-85.4854
0
LINE
8
BLACK
6
CONTINUOUS
10
144.21
20
-85.4854
11
144.21
21
-86.8854
0
LINE
8
BLACK
6
CONTINUOUS
10
144.21
20
-86.8854
11
144.198
21
-86.9538
0
LINE
8
BLACK
6
CONTINUOUS
10
144.198
20
-86.9538
11
144.163
21
-87.014
0
LINE
8
BLACK
6
CONTINUOUS
10
144.163
20
-87.014
11
144.11
21
-87.0586
0
LINE
8
BLACK
6
CONTINUOUS
10
144.11
20
-87.0586
11
144.01
21
-87.0854
0
LINE
8
BLACK
6
CONTINUOUS
10
144.01
20
-87.0854
11
143.61
21
-87.0854
0
LINE
8
BLACK
6
CONTINUOUS
10
143.61
20
-87.0854
11
143.541
21
-87.0733
0
LINE
8
BLACK
6
CONTINUOUS
10
143.541
20
-87.0733
11
143.481
21
-87.0386
0
LINE
8
BLACK
6
CONTINUOUS
10
143.481
20
-87.0386
11
143.436
21
-86.9854
0
LINE
8
BLACK
6
CONTINUOUS
10
143.436
20
-86.9854
11
143.41
21
-86.8854
0
LINE
8
BLACK
6
CONTINUOUS
10
143.41
20
-86.8854
11
143.41
21
-85.4854
0
LINE
8
BLACK
6
CONTINUOUS
10
143.41
20
-85.4854
11
143.422
21
-85.417
0
LINE
8
BLACK
6
CONTINUOUS
10
143.422
20
-85.417
11
143.456
21
-85.3568
0
LINE
8
BLACK
6
CONTINUOUS
10
143.456
20
-85.3568
11
143.51
21
-85.3122
0
LINE
8
BLACK
6
CONTINUOUS
10
143.51
20
-85.3122
11
143.61
21
-85.2854
0
LINE
8
BLACK
6
CONTINUOUS
10
143.61
20
-85.2854
11
144.01
21
-85.2854
0
LINE
8
BLACK
6
CONTINUOUS
10
144.01
20
-85.2854
11
144.078
21
-85.2975
0
LINE
8
BLACK
6
CONTINUOUS
10
141.944
20
-85.2914
11
141.974
21
-85.3088
0
LINE
8
BLACK
6
CONTINUOUS
10
141.974
20
-85.3088
11
141.996
21
-85.3354
0
LINE
8
BLACK
6
CONTINUOUS
10
141.996
20
-85.3354
11
142.01
21
-85.3854
0
LINE
8
BLACK
6
CONTINUOUS
10
142.01
20
-85.3854
11
142.01
21
-86.9854
0
LINE
8
BLACK
6
CONTINUOUS
10
142.01
20
-86.9854
11
142.004
21
-87.0196
0
LINE
8
BLACK
6
CONTINUOUS
10
142.004
20
-87.0196
11
141.986
21
-87.0497
0
LINE
8
BLACK
6
CONTINUOUS
10
141.986
20
-87.0497
11
141.96
21
-87.072
0
LINE
8
BLACK
6
CONTINUOUS
10
141.96
20
-87.072
11
141.91
21
-87.0854
0
LINE
8
BLACK
6
CONTINUOUS
10
141.91
20
-87.0854
11
141.71
21
-87.0854
0
LINE
8
BLACK
6
CONTINUOUS
10
141.71
20
-87.0854
11
141.675
21
-87.0794
0
LINE
8
BLACK
6
CONTINUOUS
10
141.675
20
-87.0794
11
141.645
21
-87.062
0
LINE
8
BLACK
6
CONTINUOUS
10
141.645
20
-87.062
11
141.623
21
-87.0354
0
LINE
8
BLACK
6
CONTINUOUS
10
141.623
20
-87.0354
11
141.61
21
-86.9854
0
LINE
8
BLACK
6
CONTINUOUS
10
141.61
20
-86.9854
11
141.61
21
-85.3854
0
LINE
8
BLACK
6
CONTINUOUS
10
141.61
20
-85.3854
11
141.616
21
-85.3512
0
LINE
8
BLACK
6
CONTINUOUS
10
141.616
20
-85.3512
11
141.633
21
-85.3211
0
LINE
8
BLACK
6
CONTINUOUS
10
141.633
20
-85.3211
11
141.66
21
-85.2988
0
LINE
8
BLACK
6
CONTINUOUS
10
141.66
20
-85.2988
11
141.71
21
-85.2854
0
LINE
8
BLACK
6
CONTINUOUS
10
141.71
20
-85.2854
11
141.91
21
-85.2854
0
LINE
8
BLACK
6
CONTINUOUS
10
141.91
20
-85.2854
11
141.944
21
-85.2914
0
LINE
8
BLACK
6
CONTINUOUS
10
142.886
20
-85.2944
11
142.931
21
-85.3205
0
LINE
8
BLACK
6
CONTINUOUS
10
142.931
20
-85.3205
11
142.965
21
-85.3604
0
LINE
8
BLACK
6
CONTINUOUS
10
142.965
20
-85.3604
11
142.985
21
-85.4354
0
LINE
8
BLACK
6
CONTINUOUS
10
142.985
20
-85.4354
11
142.985
21
-86.9354
0
LINE
8
BLACK
6
CONTINUOUS
10
142.985
20
-86.9354
11
142.976
21
-86.9867
0
LINE
8
BLACK
6
CONTINUOUS
10
142.976
20
-86.9867
11
142.95
21
-87.0318
0
LINE
8
BLACK
6
CONTINUOUS
10
142.95
20
-87.0318
11
142.91
21
-87.0653
0
LINE
8
BLACK
6
CONTINUOUS
10
142.91
20
-87.0653
11
142.835
21
-87.0854
0
LINE
8
BLACK
6
CONTINUOUS
10
142.835
20
-87.0854
11
142.535
21
-87.0854
0
LINE
8
BLACK
6
CONTINUOUS
10
142.535
20
-87.0854
11
142.483
21
-87.0764
0
LINE
8
BLACK
6
CONTINUOUS
10
142.483
20
-87.0764
11
142.438
21
-87.0503
0
LINE
8
BLACK
6
CONTINUOUS
10
142.438
20
-87.0503
11
142.405
21
-87.0104
0
LINE
8
BLACK
6
CONTINUOUS
10
142.405
20
-87.0104
11
142.385
21
-86.9354
0
LINE
8
BLACK
6
CONTINUOUS
10
142.385
20
-86.9354
11
142.385
21
-85.4354
0
LINE
8
BLACK
6
CONTINUOUS
10
142.385
20
-85.4354
11
142.394
21
-85.3841
0
LINE
8
BLACK
6
CONTINUOUS
10
142.394
20
-85.3841
11
142.42
21
-85.339
0
LINE
8
BLACK
6
CONTINUOUS
10
142.42
20
-85.339
11
142.46
21
-85.3055
0
LINE
8
BLACK
6
CONTINUOUS
10
142.46
20
-85.3055
11
142.535
21
-85.2854
0
LINE
8
BLACK
6
CONTINUOUS
10
142.535
20
-85.2854
11
142.835
21
-85.2854
0
LINE
8
BLACK
6
CONTINUOUS
10
142.835
20
-85.2854
11
142.886
21
-85.2944
0
LINE
8
BLACK
6
CONTINUOUS
10
146.094
20
-82.5214
11
146.124
21
-82.5388
0
LINE
8
BLACK
6
CONTINUOUS
10
146.124
20
-82.5388
11
146.146
21
-82.5654
0
LINE
8
BLACK
6
CONTINUOUS
10
146.146
20
-82.5654
11
146.16
21
-82.6154
0
LINE
8
BLACK
6
CONTINUOUS
10
146.16
20
-82.6154
11
146.16
21
-84.2154
0
LINE
8
BLACK
6
CONTINUOUS
10
146.16
20
-84.2154
11
146.154
21
-84.2496
0
LINE
8
BLACK
6
CONTINUOUS
10
146.154
20
-84.2496
11
146.136
21
-84.2797
0
LINE
8
BLACK
6
CONTINUOUS
10
146.136
20
-84.2797
11
146.11
21
-84.302
0
LINE
8
BLACK
6
CONTINUOUS
10
146.11
20
-84.302
11
146.06
21
-84.3154
0
LINE
8
BLACK
6
CONTINUOUS
10
146.06
20
-84.3154
11
145.86
21
-84.3154
0
LINE
8
BLACK
6
CONTINUOUS
10
145.86
20
-84.3154
11
145.825
21
-84.3094
0
LINE
8
BLACK
6
CONTINUOUS
10
145.825
20
-84.3094
11
145.795
21
-84.292
0
LINE
8
BLACK
6
CONTINUOUS
10
145.795
20
-84.292
11
145.773
21
-84.2654
0
LINE
8
BLACK
6
CONTINUOUS
10
145.773
20
-84.2654
11
145.76
21
-84.2154
0
LINE
8
BLACK
6
CONTINUOUS
10
145.76
20
-84.2154
11
145.76
21
-82.6154
0
LINE
8
BLACK
6
CONTINUOUS
10
145.76
20
-82.6154
11
145.766
21
-82.5812
0
LINE
8
BLACK
6
CONTINUOUS
10
145.766
20
-82.5812
11
145.783
21
-82.5511
0
LINE
8
BLACK
6
CONTINUOUS
10
145.783
20
-82.5511
11
145.81
21
-82.5288
0
LINE
8
BLACK
6
CONTINUOUS
10
145.81
20
-82.5288
11
145.86
21
-82.5154
0
LINE
8
BLACK
6
CONTINUOUS
10
145.86
20
-82.5154
11
146.06
21
-82.5154
0
LINE
8
BLACK
6
CONTINUOUS
10
146.06
20
-82.5154
11
146.094
21
-82.5214
0
LINE
8
BLACK
6
CONTINUOUS
10
142.886
20
-82.5244
11
142.931
21
-82.5505
0
LINE
8
BLACK
6
CONTINUOUS
10
142.931
20
-82.5505
11
142.965
21
-82.5904
0
LINE
8
BLACK
6
CONTINUOUS
10
142.965
20
-82.5904
11
142.985
21
-82.6654
0
LINE
8
BLACK
6
CONTINUOUS
10
142.985
20
-82.6654
11
142.985
21
-84.1654
0
LINE
8
BLACK
6
CONTINUOUS
10
142.985
20
-84.1654
11
142.976
21
-84.2167
0
LINE
8
BLACK
6
CONTINUOUS
10
142.976
20
-84.2167
11
142.95
21
-84.2618
0
LINE
8
BLACK
6
CONTINUOUS
10
142.95
20
-84.2618
11
142.91
21
-84.2953
0
LINE
8
BLACK
6
CONTINUOUS
10
142.91
20
-84.2953
11
142.835
21
-84.3154
0
LINE
8
BLACK
6
CONTINUOUS
10
142.835
20
-84.3154
11
142.535
21
-84.3154
0
LINE
8
BLACK
6
CONTINUOUS
10
142.535
20
-84.3154
11
142.483
21
-84.3064
0
LINE
8
BLACK
6
CONTINUOUS
10
142.483
20
-84.3064
11
142.438
21
-84.2803
0
LINE
8
BLACK
6
CONTINUOUS
10
142.438
20
-84.2803
11
142.405
21
-84.2404
0
LINE
8
BLACK
6
CONTINUOUS
10
142.405
20
-84.2404
11
142.385
21
-84.1654
0
LINE
8
BLACK
6
CONTINUOUS
10
142.385
20
-84.1654
11
142.385
21
-82.6654
0
LINE
8
BLACK
6
CONTINUOUS
10
142.385
20
-82.6654
11
142.394
21
-82.6141
0
LINE
8
BLACK
6
CONTINUOUS
10
142.394
20
-82.6141
11
142.42
21
-82.569
0
LINE
8
BLACK
6
CONTINUOUS
10
142.42
20
-82.569
11
142.46
21
-82.5355
0
LINE
8
BLACK
6
CONTINUOUS
10
142.46
20
-82.5355
11
142.535
21
-82.5154
0
LINE
8
BLACK
6
CONTINUOUS
10
142.535
20
-82.5154
11
142.835
21
-82.5154
0
LINE
8
BLACK
6
CONTINUOUS
10
142.835
20
-82.5154
11
142.886
21
-82.5244
0
LINE
8
BLACK
6
CONTINUOUS
10
141.944
20
-82.5214
11
141.974
21
-82.5388
0
LINE
8
BLACK
6
CONTINUOUS
10
141.974
20
-82.5388
11
141.996
21
-82.5654
0
LINE
8
BLACK
6
CONTINUOUS
10
141.996
20
-82.5654
11
142.01
21
-82.6154
0
LINE
8
BLACK
6
CONTINUOUS
10
142.01
20
-82.6154
11
142.01
21
-84.2154
0
LINE
8
BLACK
6
CONTINUOUS
10
142.01
20
-84.2154
11
142.004
21
-84.2496
0
LINE
8
BLACK
6
CONTINUOUS
10
142.004
20
-84.2496
11
141.986
21
-84.2797
0
LINE
8
BLACK
6
CONTINUOUS
10
141.986
20
-84.2797
11
141.96
21
-84.302
0
LINE
8
BLACK
6
CONTINUOUS
10
141.96
20
-84.302
11
141.91
21
-84.3154
0
LINE
8
BLACK
6
CONTINUOUS
10
141.91
20
-84.3154
11
141.71
21
-84.3154
0
LINE
8
BLACK
6
CONTINUOUS
10
141.71
20
-84.3154
11
141.675
21
-84.3094
0
LINE
8
BLACK
6
CONTINUOUS
10
141.675
20
-84.3094
11
141.645
21
-84.292
0
LINE
8
BLACK
6
CONTINUOUS
10
141.645
20
-84.292
11
141.623
21
-84.2654
0
LINE
8
BLACK
6
CONTINUOUS
10
141.623
20
-84.2654
11
141.61
21
-84.2154
0
LINE
8
BLACK
6
CONTINUOUS
10
141.61
20
-84.2154
11
141.61
21
-82.6154
0
LINE
8
BLACK
6
CONTINUOUS
10
141.61
20
-82.6154
11
141.616
21
-82.5812
0
LINE
8
BLACK
6
CONTINUOUS
10
141.616
20
-82.5812
11
141.633
21
-82.5511
0
LINE
8
BLACK
6
CONTINUOUS
10
141.633
20
-82.5511
11
141.66
21
-82.5288
0
LINE
8
BLACK
6
CONTINUOUS
10
141.66
20
-82.5288
11
141.71
21
-82.5154
0
LINE
8
BLACK
6
CONTINUOUS
10
141.71
20
-82.5154
11
141.91
21
-82.5154
0
LINE
8
BLACK
6
CONTINUOUS
10
141.91
20
-82.5154
11
141.944
21
-82.5214
0
LINE
8
BLACK
6
CONTINUOUS
10
144.078
20
-82.5275
11
144.138
21
-82.5622
0
LINE
8
BLACK
6
CONTINUOUS
10
144.138
20
-82.5622
11
144.183
21
-82.6154
0
LINE
8
BLACK
6
CONTINUOUS
10
144.183
20
-82.6154
11
144.21
21
-82.7154
0
LINE
8
BLACK
6
CONTINUOUS
10
144.21
20
-82.7154
11
144.21
21
-84.1154
0
LINE
8
BLACK
6
CONTINUOUS
10
144.21
20
-84.1154
11
144.198
21
-84.1838
0
LINE
8
BLACK
6
CONTINUOUS
10
144.198
20
-84.1838
11
144.163
21
-84.244
0
LINE
8
BLACK
6
CONTINUOUS
10
144.163
20
-84.244
11
144.11
21
-84.2886
0
LINE
8
BLACK
6
CONTINUOUS
10
144.11
20
-84.2886
11
144.01
21
-84.3154
0
LINE
8
BLACK
6
CONTINUOUS
10
144.01
20
-84.3154
11
143.61
21
-84.3154
0
LINE
8
BLACK
6
CONTINUOUS
10
143.61
20
-84.3154
11
143.541
21
-84.3033
0
LINE
8
BLACK
6
CONTINUOUS
10
143.541
20
-84.3033
11
143.481
21
-84.2686
0
LINE
8
BLACK
6
CONTINUOUS
10
143.481
20
-84.2686
11
143.436
21
-84.2154
0
LINE
8
BLACK
6
CONTINUOUS
10
143.436
20
-84.2154
11
143.41
21
-84.1154
0
LINE
8
BLACK
6
CONTINUOUS
10
143.41
20
-84.1154
11
143.41
21
-82.7154
0
LINE
8
BLACK
6
CONTINUOUS
10
143.41
20
-82.7154
11
143.422
21
-82.647
0
LINE
8
BLACK
6
CONTINUOUS
10
143.422
20
-82.647
11
143.456
21
-82.5868
0
LINE
8
BLACK
6
CONTINUOUS
10
143.456
20
-82.5868
11
143.51
21
-82.5422
0
LINE
8
BLACK
6
CONTINUOUS
10
143.51
20
-82.5422
11
143.61
21
-82.5154
0
LINE
8
BLACK
6
CONTINUOUS
10
143.61
20
-82.5154
11
144.01
21
-82.5154
0
LINE
8
BLACK
6
CONTINUOUS
10
144.01
20
-82.5154
11
144.078
21
-82.5275
0
LINE
8
BLACK
6
CONTINUOUS
10
141.103
20
-82.5275
11
141.163
21
-82.5622
0
LINE
8
BLACK
6
CONTINUOUS
10
141.163
20
-82.5622
11
141.208
21
-82.6154
0
LINE
8
BLACK
6
CONTINUOUS
10
141.208
20
-82.6154
11
141.235
21
-82.7154
0
LINE
8
BLACK
6
CONTINUOUS
10
141.235
20
-82.7154
11
141.235
21
-84.1154
0
LINE
8
BLACK
6
CONTINUOUS
10
141.235
20
-84.1154
11
141.223
21
-84.1838
0
LINE
8
BLACK
6
CONTINUOUS
10
141.223
20
-84.1838
11
141.188
21
-84.244
0
LINE
8
BLACK
6
CONTINUOUS
10
141.188
20
-84.244
11
141.135
21
-84.2886
0
LINE
8
BLACK
6
CONTINUOUS
10
141.135
20
-84.2886
11
141.035
21
-84.3154
0
LINE
8
BLACK
6
CONTINUOUS
10
141.035
20
-84.3154
11
140.635
21
-84.3154
0
LINE
8
BLACK
6
CONTINUOUS
10
140.635
20
-84.3154
11
140.566
21
-84.3033
0
LINE
8
BLACK
6
CONTINUOUS
10
140.566
20
-84.3033
11
140.506
21
-84.2686
0
LINE
8
BLACK
6
CONTINUOUS
10
140.506
20
-84.2686
11
140.461
21
-84.2154
0
LINE
8
BLACK
6
CONTINUOUS
10
140.461
20
-84.2154
11
140.435
21
-84.1154
0
LINE
8
BLACK
6
CONTINUOUS
10
140.435
20
-84.1154
11
140.435
21
-82.7154
0
LINE
8
BLACK
6
CONTINUOUS
10
140.435
20
-82.7154
11
140.447
21
-82.647
0
LINE
8
BLACK
6
CONTINUOUS
10
140.447
20
-82.647
11
140.481
21
-82.5868
0
LINE
8
BLACK
6
CONTINUOUS
10
140.481
20
-82.5868
11
140.535
21
-82.5422
0
LINE
8
BLACK
6
CONTINUOUS
10
140.535
20
-82.5422
11
140.635
21
-82.5154
0
LINE
8
BLACK
6
CONTINUOUS
10
140.635
20
-82.5154
11
141.035
21
-82.5154
0
LINE
8
BLACK
6
CONTINUOUS
10
141.035
20
-82.5154
11
141.103
21
-82.5275
0
LINE
8
BLACK
6
CONTINUOUS
10
145.253
20
-82.5275
11
145.313
21
-82.5622
0
LINE
8
BLACK
6
CONTINUOUS
10
145.313
20
-82.5622
11
145.358
21
-82.6154
0
LINE
8
BLACK
6
CONTINUOUS
10
145.358
20
-82.6154
11
145.385
21
-82.7154
0
LINE
8
BLACK
6
CONTINUOUS
10
145.385
20
-82.7154
11
145.385
21
-84.1154
0
LINE
8
BLACK
6
CONTINUOUS
10
145.385
20
-84.1154
11
145.373
21
-84.1838
0
LINE
8
BLACK
6
CONTINUOUS
10
145.373
20
-84.1838
11
145.338
21
-84.244
0
LINE
8
BLACK
6
CONTINUOUS
10
145.338
20
-84.244
11
145.285
21
-84.2886
0
LINE
8
BLACK
6
CONTINUOUS
10
145.285
20
-84.2886
11
145.185
21
-84.3154
0
LINE
8
BLACK
6
CONTINUOUS
10
145.185
20
-84.3154
11
144.785
21
-84.3154
0
LINE
8
BLACK
6
CONTINUOUS
10
144.785
20
-84.3154
11
144.716
21
-84.3033
0
LINE
8
BLACK
6
CONTINUOUS
10
144.716
20
-84.3033
11
144.656
21
-84.2686
0
LINE
8
BLACK
6
CONTINUOUS
10
144.656
20
-84.2686
11
144.611
21
-84.2154
0
LINE
8
BLACK
6
CONTINUOUS
10
144.611
20
-84.2154
11
144.585
21
-84.1154
0
LINE
8
BLACK
6
CONTINUOUS
10
144.585
20
-84.1154
11
144.585
21
-82.7154
0
LINE
8
BLACK
6
CONTINUOUS
10
144.585
20
-82.7154
11
144.597
21
-82.647
0
LINE
8
BLACK
6
CONTINUOUS
10
144.597
20
-82.647
11
144.631
21
-82.5868
0
LINE
8
BLACK
6
CONTINUOUS
10
144.631
20
-82.5868
11
144.685
21
-82.5422
0
LINE
8
BLACK
6
CONTINUOUS
10
144.685
20
-82.5422
11
144.785
21
-82.5154
0
LINE
8
BLACK
6
CONTINUOUS
10
144.785
20
-82.5154
11
145.185
21
-82.5154
0
LINE
8
BLACK
6
CONTINUOUS
10
145.185
20
-82.5154
11
145.253
21
-82.5275
0
LINE
8
BLACK
6
CONTINUOUS
10
148.228
20
-82.5275
11
148.288
21
-82.5622
0
LINE
8
BLACK
6
CONTINUOUS
10
148.288
20
-82.5622
11
148.333
21
-82.6154
0
LINE
8
BLACK
6
CONTINUOUS
10
148.333
20
-82.6154
11
148.36
21
-82.7154
0
LINE
8
BLACK
6
CONTINUOUS
10
148.36
20
-82.7154
11
148.36
21
-84.1154
0
LINE
8
BLACK
6
CONTINUOUS
10
148.36
20
-84.1154
11
148.348
21
-84.1838
0
LINE
8
BLACK
6
CONTINUOUS
10
148.348
20
-84.1838
11
148.313
21
-84.244
0
LINE
8
BLACK
6
CONTINUOUS
10
148.313
20
-84.244
11
148.26
21
-84.2886
0
LINE
8
BLACK
6
CONTINUOUS
10
148.26
20
-84.2886
11
148.16
21
-84.3154
0
LINE
8
BLACK
6
CONTINUOUS
10
148.16
20
-84.3154
11
147.76
21
-84.3154
0
LINE
8
BLACK
6
CONTINUOUS
10
147.76
20
-84.3154
11
147.691
21
-84.3033
0
LINE
8
BLACK
6
CONTINUOUS
10
147.691
20
-84.3033
11
147.631
21
-84.2686
0
LINE
8
BLACK
6
CONTINUOUS
10
147.631
20
-84.2686
11
147.586
21
-84.2154
0
LINE
8
BLACK
6
CONTINUOUS
10
147.586
20
-84.2154
11
147.56
21
-84.1154
0
LINE
8
BLACK
6
CONTINUOUS
10
147.56
20
-84.1154
11
147.56
21
-82.7154
0
LINE
8
BLACK
6
CONTINUOUS
10
147.56
20
-82.7154
11
147.572
21
-82.647
0
LINE
8
BLACK
6
CONTINUOUS
10
147.572
20
-82.647
11
147.606
21
-82.5868
0
LINE
8
BLACK
6
CONTINUOUS
10
147.606
20
-82.5868
11
147.66
21
-82.5422
0
LINE
8
BLACK
6
CONTINUOUS
10
147.66
20
-82.5422
11
147.76
21
-82.5154
0
LINE
8
BLACK
6
CONTINUOUS
10
147.76
20
-82.5154
11
148.16
21
-82.5154
0
LINE
8
BLACK
6
CONTINUOUS
10
148.16
20
-82.5154
11
148.228
21
-82.5275
0
LINE
8
BLACK
6
CONTINUOUS
10
147.036
20
-82.5244
11
147.081
21
-82.5505
0
LINE
8
BLACK
6
CONTINUOUS
10
147.081
20
-82.5505
11
147.115
21
-82.5904
0
LINE
8
BLACK
6
CONTINUOUS
10
147.115
20
-82.5904
11
147.135
21
-82.6654
0
LINE
8
BLACK
6
CONTINUOUS
10
147.135
20
-82.6654
11
147.135
21
-84.1654
0
LINE
8
BLACK
6
CONTINUOUS
10
147.135
20
-84.1654
11
147.126
21
-84.2167
0
LINE
8
BLACK
6
CONTINUOUS
10
147.126
20
-84.2167
11
147.1
21
-84.2618
0
LINE
8
BLACK
6
CONTINUOUS
10
147.1
20
-84.2618
11
147.06
21
-84.2953
0
LINE
8
BLACK
6
CONTINUOUS
10
147.06
20
-84.2953
11
146.985
21
-84.3154
0
LINE
8
BLACK
6
CONTINUOUS
10
146.985
20
-84.3154
11
146.685
21
-84.3154
0
LINE
8
BLACK
6
CONTINUOUS
10
146.685
20
-84.3154
11
146.633
21
-84.3064
0
LINE
8
BLACK
6
CONTINUOUS
10
146.633
20
-84.3064
11
146.588
21
-84.2803
0
LINE
8
BLACK
6
CONTINUOUS
10
146.588
20
-84.2803
11
146.555
21
-84.2404
0
LINE
8
BLACK
6
CONTINUOUS
10
146.555
20
-84.2404
11
146.535
21
-84.1654
0
LINE
8
BLACK
6
CONTINUOUS
10
146.535
20
-84.1654
11
146.535
21
-82.6654
0
LINE
8
BLACK
6
CONTINUOUS
10
146.535
20
-82.6654
11
146.544
21
-82.6141
0
LINE
8
BLACK
6
CONTINUOUS
10
146.544
20
-82.6141
11
146.57
21
-82.569
0
LINE
8
BLACK
6
CONTINUOUS
10
146.57
20
-82.569
11
146.61
21
-82.5355
0
LINE
8
BLACK
6
CONTINUOUS
10
146.61
20
-82.5355
11
146.685
21
-82.5154
0
LINE
8
BLACK
6
CONTINUOUS
10
146.685
20
-82.5154
11
146.985
21
-82.5154
0
LINE
8
BLACK
6
CONTINUOUS
10
146.985
20
-82.5154
11
147.036
21
-82.5244
0
LINE
8
BLACK
6
CONTINUOUS
10
149.517
20
-67.9322
11
147.717
21
-67.9322
0
LINE
8
BLACK
6
CONTINUOUS
10
147.717
20
-67.9322
11
147.717
21
-66.1322
0
LINE
8
BLACK
6
CONTINUOUS
10
147.717
20
-66.1322
11
149.517
21
-66.1322
0
LINE
8
BLACK
6
CONTINUOUS
10
149.517
20
-66.1322
11
149.517
21
-67.9322
0
LINE
8
BLACK
6
CONTINUOUS
10
143.367
20
-67.9322
11
141.567
21
-67.9322
0
LINE
8
BLACK
6
CONTINUOUS
10
141.567
20
-67.9322
11
141.567
21
-66.1322
0
LINE
8
BLACK
6
CONTINUOUS
10
141.567
20
-66.1322
11
143.367
21
-66.1322
0
LINE
8
BLACK
6
CONTINUOUS
10
143.367
20
-66.1322
11
143.367
21
-67.9322
0
LINE
8
BLACK
6
CONTINUOUS
10
149.517
20
-61.7822
11
147.717
21
-61.7822
0
LINE
8
BLACK
6
CONTINUOUS
10
147.717
20
-61.7822
11
147.717
21
-59.9822
0
LINE
8
BLACK
6
CONTINUOUS
10
147.717
20
-59.9822
11
149.517
21
-59.9822
0
LINE
8
BLACK
6
CONTINUOUS
10
149.517
20
-59.9822
11
149.517
21
-61.7822
0
LINE
8
BLACK
6
CONTINUOUS
10
143.367
20
-61.7822
11
141.567
21
-61.7822
0
LINE
8
BLACK
6
CONTINUOUS
10
141.567
20
-61.7822
11
141.567
21
-59.9822
0
LINE
8
BLACK
6
CONTINUOUS
10
141.567
20
-59.9822
11
143.367
21
-59.9822
0
LINE
8
BLACK
6
CONTINUOUS
10
143.367
20
-59.9822
11
143.367
21
-61.7822
  0
ENDSEC
  0
EOF
