  0
SECTION
  2
HEADER
  9
$ANGBASE
  50
0.0
  9
$ANGDIR
  70
  1
  9
$MEASUREMENT
  70
0
  0
ENDSEC
  0
SECTION
  2
TABLES
  0
TABLE
  2
LTYPE
  70
4
  0
LTYPE
  5
40F
  2
CONTINUOUS
  70
0
  3
Solid line
  72
65
  73
0
  40
0.0
  0
LTYPE
  5
410
  2
DASHDOT
 70
0
  3
Dash Dot ____ _ ____ _
 72
65
 73
4
 40
2.0
 49
1.25
 49
-0.25
 49
0.25
 49
-0.25
  0
LTYPE
  5
411
  2
DASHED
 70
0
  3
Dashed __ __ __ __ __
 72
65
 73
2
 40
0.75
 49
0.5
 49
-0.25
  0
LTYPE
  5
43B
  2
DOTTED
 70
0
  3
Dotted .  .  .  .
 72
65
 73
2
 40
0.2
 49
0.0
 49
-0.2
  0
ENDTAB
  0
TABLE
  2
STYLE
  70
4
  0
STYLE
  2
KICAD
  70
0
  40
0
  41
1
  42
1
  50
0
  71
0
  3
isocp.shx
  0
STYLE
  2
KICADB
  70
0
  40
0
  41
1
  42
1
  50
0
  71
0
  3
isocp.shx
  0
STYLE
  2
KICADI
  70
0
  40
0
  41
1
  42
1
  50
15
  71
0
  3
isocp.shx
  0
STYLE
  2
KICADBI
  70
0
  40
0
  41
1
  42
1
  50
15
  71
0
  3
isocp.shx
  0
ENDTAB
  0
TABLE
  2
LAYER
  70
30
  0
LAYER
  2
BLACK
  70
0
  62
7
  6
CONTINUOUS
  0
LAYER
  2
GRAY1
  70
0
  62
251
  6
CONTINUOUS
  0
LAYER
  2
GRAY2
  70
0
  62
8
  6
CONTINUOUS
  0
LAYER
  2
GRAY3
  70
0
  62
9
  6
CONTINUOUS
  0
LAYER
  2
WHITE
  70
0
  62
7
  6
CONTINUOUS
  0
LAYER
  2
LYELLOW
  70
0
  62
51
  6
CONTINUOUS
  0
LAYER
  2
BLUE1
  70
0
  62
178
  6
CONTINUOUS
  0
LAYER
  2
GREEN1
  70
0
  62
98
  6
CONTINUOUS
  0
LAYER
  2
CYAN1
  70
0
  62
138
  6
CONTINUOUS
  0
LAYER
  2
RED1
  70
0
  62
18
  6
CONTINUOUS
  0
LAYER
  2
MAGENTA1
  70
0
  62
228
  6
CONTINUOUS
  0
LAYER
  2
BROWN1
  70
0
  62
58
  6
CONTINUOUS
  0
LAYER
  2
BLUE2
  70
0
  62
5
  6
CONTINUOUS
  0
LAYER
  2
GREEN2
  70
0
  62
3
  6
CONTINUOUS
  0
LAYER
  2
CYAN2
  70
0
  62
4
  6
CONTINUOUS
  0
LAYER
  2
RED2
  70
0
  62
1
  6
CONTINUOUS
  0
LAYER
  2
MAGENTA2
  70
0
  62
6
  6
CONTINUOUS
  0
LAYER
  2
BROWN2
  70
0
  62
54
  6
CONTINUOUS
  0
LAYER
  2
BLUE3
  70
0
  62
171
  6
CONTINUOUS
  0
LAYER
  2
GREEN3
  70
0
  62
91
  6
CONTINUOUS
  0
LAYER
  2
CYAN3
  70
0
  62
131
  6
CONTINUOUS
  0
LAYER
  2
RED3
  70
0
  62
11
  6
CONTINUOUS
  0
LAYER
  2
MAGENTA3
  70
0
  62
221
  6
CONTINUOUS
  0
LAYER
  2
YELLOW3
  70
0
  62
2
  6
CONTINUOUS
  0
LAYER
  2
BLUE4
  70
0
  62
5
  6
CONTINUOUS
  0
LAYER
  2
GREEN4
  70
0
  62
3
  6
CONTINUOUS
  0
LAYER
  2
CYAN4
  70
0
  62
4
  6
CONTINUOUS
  0
LAYER
  2
RED4
  70
0
  62
1
  6
CONTINUOUS
  0
LAYER
  2
MAGENTA4
  70
0
  62
6
  6
CONTINUOUS
  0
LAYER
  2
YELLOW4
  70
0
  62
2
  6
CONTINUOUS
  0
ENDTAB
  0
ENDSEC
  0
SECTION
  2
ENTITIES
0
LINE
8
BLACK
6
CONTINUOUS
10
149.398
20
-108.002
11
149.501
21
-108.033
0
LINE
8
BLACK
6
CONTINUOUS
10
149.501
20
-108.033
11
149.597
21
-108.084
0
LINE
8
BLACK
6
CONTINUOUS
10
149.597
20
-108.084
11
149.68
21
-108.153
0
LINE
8
BLACK
6
CONTINUOUS
10
149.68
20
-108.153
11
149.749
21
-108.236
0
LINE
8
BLACK
6
CONTINUOUS
10
149.749
20
-108.236
11
149.8
21
-108.332
0
LINE
8
BLACK
6
CONTINUOUS
10
149.8
20
-108.332
11
149.831
21
-108.435
0
LINE
8
BLACK
6
CONTINUOUS
10
149.831
20
-108.435
11
149.842
21
-108.542
0
LINE
8
BLACK
6
CONTINUOUS
10
149.842
20
-108.542
11
149.842
21
-109.242
0
LINE
8
BLACK
6
CONTINUOUS
10
149.842
20
-109.242
11
149.831
21
-109.35
0
LINE
8
BLACK
6
CONTINUOUS
10
149.831
20
-109.35
11
149.8
21
-109.453
0
LINE
8
BLACK
6
CONTINUOUS
10
149.8
20
-109.453
11
149.749
21
-109.549
0
LINE
8
BLACK
6
CONTINUOUS
10
149.749
20
-109.549
11
149.68
21
-109.632
0
LINE
8
BLACK
6
CONTINUOUS
10
149.68
20
-109.632
11
149.597
21
-109.701
0
LINE
8
BLACK
6
CONTINUOUS
10
149.597
20
-109.701
11
149.501
21
-109.752
0
LINE
8
BLACK
6
CONTINUOUS
10
149.501
20
-109.752
11
149.398
21
-109.783
0
LINE
8
BLACK
6
CONTINUOUS
10
149.398
20
-109.783
11
149.291
21
-109.793
0
LINE
8
BLACK
6
CONTINUOUS
10
149.291
20
-109.793
11
149.29
21
-109.793
0
LINE
8
BLACK
6
CONTINUOUS
10
149.29
20
-109.793
11
149.183
21
-109.783
0
LINE
8
BLACK
6
CONTINUOUS
10
149.183
20
-109.783
11
149.08
21
-109.752
0
LINE
8
BLACK
6
CONTINUOUS
10
149.08
20
-109.752
11
148.984
21
-109.701
0
LINE
8
BLACK
6
CONTINUOUS
10
148.984
20
-109.701
11
148.901
21
-109.632
0
LINE
8
BLACK
6
CONTINUOUS
10
148.901
20
-109.632
11
148.832
21
-109.549
0
LINE
8
BLACK
6
CONTINUOUS
10
148.832
20
-109.549
11
148.781
21
-109.453
0
LINE
8
BLACK
6
CONTINUOUS
10
148.781
20
-109.453
11
148.75
21
-109.35
0
LINE
8
BLACK
6
CONTINUOUS
10
148.75
20
-109.35
11
148.739
21
-109.242
0
LINE
8
BLACK
6
CONTINUOUS
10
148.739
20
-109.242
11
148.739
21
-108.542
0
LINE
8
BLACK
6
CONTINUOUS
10
148.739
20
-108.542
11
148.75
21
-108.435
0
LINE
8
BLACK
6
CONTINUOUS
10
148.75
20
-108.435
11
148.781
21
-108.332
0
LINE
8
BLACK
6
CONTINUOUS
10
148.781
20
-108.332
11
148.832
21
-108.236
0
LINE
8
BLACK
6
CONTINUOUS
10
148.832
20
-108.236
11
148.901
21
-108.153
0
LINE
8
BLACK
6
CONTINUOUS
10
148.901
20
-108.153
11
148.984
21
-108.084
0
LINE
8
BLACK
6
CONTINUOUS
10
148.984
20
-108.084
11
149.08
21
-108.033
0
LINE
8
BLACK
6
CONTINUOUS
10
149.08
20
-108.033
11
149.183
21
-108.002
0
LINE
8
BLACK
6
CONTINUOUS
10
149.183
20
-108.002
11
149.29
21
-107.992
0
LINE
8
BLACK
6
CONTINUOUS
10
149.29
20
-107.992
11
149.291
21
-107.992
0
LINE
8
BLACK
6
CONTINUOUS
10
149.291
20
-107.992
11
149.398
21
-108.002
0
LINE
8
BLACK
6
CONTINUOUS
10
140.758
20
-108.002
11
140.861
21
-108.033
0
LINE
8
BLACK
6
CONTINUOUS
10
140.861
20
-108.033
11
140.957
21
-108.084
0
LINE
8
BLACK
6
CONTINUOUS
10
140.957
20
-108.084
11
141.04
21
-108.153
0
LINE
8
BLACK
6
CONTINUOUS
10
141.04
20
-108.153
11
141.109
21
-108.236
0
LINE
8
BLACK
6
CONTINUOUS
10
141.109
20
-108.236
11
141.16
21
-108.332
0
LINE
8
BLACK
6
CONTINUOUS
10
141.16
20
-108.332
11
141.191
21
-108.435
0
LINE
8
BLACK
6
CONTINUOUS
10
141.191
20
-108.435
11
141.202
21
-108.542
0
LINE
8
BLACK
6
CONTINUOUS
10
141.202
20
-108.542
11
141.202
21
-109.242
0
LINE
8
BLACK
6
CONTINUOUS
10
141.202
20
-109.242
11
141.191
21
-109.35
0
LINE
8
BLACK
6
CONTINUOUS
10
141.191
20
-109.35
11
141.16
21
-109.453
0
LINE
8
BLACK
6
CONTINUOUS
10
141.16
20
-109.453
11
141.109
21
-109.549
0
LINE
8
BLACK
6
CONTINUOUS
10
141.109
20
-109.549
11
141.04
21
-109.632
0
LINE
8
BLACK
6
CONTINUOUS
10
141.04
20
-109.632
11
140.957
21
-109.701
0
LINE
8
BLACK
6
CONTINUOUS
10
140.957
20
-109.701
11
140.861
21
-109.752
0
LINE
8
BLACK
6
CONTINUOUS
10
140.861
20
-109.752
11
140.758
21
-109.783
0
LINE
8
BLACK
6
CONTINUOUS
10
140.758
20
-109.783
11
140.651
21
-109.793
0
LINE
8
BLACK
6
CONTINUOUS
10
140.651
20
-109.793
11
140.65
21
-109.793
0
LINE
8
BLACK
6
CONTINUOUS
10
140.65
20
-109.793
11
140.543
21
-109.783
0
LINE
8
BLACK
6
CONTINUOUS
10
140.543
20
-109.783
11
140.44
21
-109.752
0
LINE
8
BLACK
6
CONTINUOUS
10
140.44
20
-109.752
11
140.344
21
-109.701
0
LINE
8
BLACK
6
CONTINUOUS
10
140.344
20
-109.701
11
140.261
21
-109.632
0
LINE
8
BLACK
6
CONTINUOUS
10
140.261
20
-109.632
11
140.192
21
-109.549
0
LINE
8
BLACK
6
CONTINUOUS
10
140.192
20
-109.549
11
140.141
21
-109.453
0
LINE
8
BLACK
6
CONTINUOUS
10
140.141
20
-109.453
11
140.11
21
-109.35
0
LINE
8
BLACK
6
CONTINUOUS
10
140.11
20
-109.35
11
140.099
21
-109.242
0
LINE
8
BLACK
6
CONTINUOUS
10
140.099
20
-109.242
11
140.099
21
-108.542
0
LINE
8
BLACK
6
CONTINUOUS
10
140.099
20
-108.542
11
140.11
21
-108.435
0
LINE
8
BLACK
6
CONTINUOUS
10
140.11
20
-108.435
11
140.141
21
-108.332
0
LINE
8
BLACK
6
CONTINUOUS
10
140.141
20
-108.332
11
140.192
21
-108.236
0
LINE
8
BLACK
6
CONTINUOUS
10
140.192
20
-108.236
11
140.261
21
-108.153
0
LINE
8
BLACK
6
CONTINUOUS
10
140.261
20
-108.153
11
140.344
21
-108.084
0
LINE
8
BLACK
6
CONTINUOUS
10
140.344
20
-108.084
11
140.44
21
-108.033
0
LINE
8
BLACK
6
CONTINUOUS
10
140.44
20
-108.033
11
140.543
21
-108.002
0
LINE
8
BLACK
6
CONTINUOUS
10
140.543
20
-108.002
11
140.65
21
-107.992
0
LINE
8
BLACK
6
CONTINUOUS
10
140.65
20
-107.992
11
140.651
21
-107.992
0
LINE
8
BLACK
6
CONTINUOUS
10
140.651
20
-107.992
11
140.758
21
-108.002
0
LINE
8
BLACK
6
CONTINUOUS
10
140.758
20
-104.202
11
140.861
21
-104.233
0
LINE
8
BLACK
6
CONTINUOUS
10
140.861
20
-104.233
11
140.957
21
-104.284
0
LINE
8
BLACK
6
CONTINUOUS
10
140.957
20
-104.284
11
141.04
21
-104.353
0
LINE
8
BLACK
6
CONTINUOUS
10
141.04
20
-104.353
11
141.109
21
-104.436
0
LINE
8
BLACK
6
CONTINUOUS
10
141.109
20
-104.436
11
141.16
21
-104.532
0
LINE
8
BLACK
6
CONTINUOUS
10
141.16
20
-104.532
11
141.191
21
-104.635
0
LINE
8
BLACK
6
CONTINUOUS
10
141.191
20
-104.635
11
141.202
21
-104.742
0
LINE
8
BLACK
6
CONTINUOUS
10
141.202
20
-104.742
11
141.202
21
-105.442
0
LINE
8
BLACK
6
CONTINUOUS
10
141.202
20
-105.442
11
141.191
21
-105.55
0
LINE
8
BLACK
6
CONTINUOUS
10
141.191
20
-105.55
11
141.16
21
-105.653
0
LINE
8
BLACK
6
CONTINUOUS
10
141.16
20
-105.653
11
141.109
21
-105.749
0
LINE
8
BLACK
6
CONTINUOUS
10
141.109
20
-105.749
11
141.04
21
-105.832
0
LINE
8
BLACK
6
CONTINUOUS
10
141.04
20
-105.832
11
140.957
21
-105.901
0
LINE
8
BLACK
6
CONTINUOUS
10
140.957
20
-105.901
11
140.861
21
-105.952
0
LINE
8
BLACK
6
CONTINUOUS
10
140.861
20
-105.952
11
140.758
21
-105.983
0
LINE
8
BLACK
6
CONTINUOUS
10
140.758
20
-105.983
11
140.651
21
-105.993
0
LINE
8
BLACK
6
CONTINUOUS
10
140.651
20
-105.993
11
140.65
21
-105.993
0
LINE
8
BLACK
6
CONTINUOUS
10
140.65
20
-105.993
11
140.543
21
-105.983
0
LINE
8
BLACK
6
CONTINUOUS
10
140.543
20
-105.983
11
140.44
21
-105.952
0
LINE
8
BLACK
6
CONTINUOUS
10
140.44
20
-105.952
11
140.344
21
-105.901
0
LINE
8
BLACK
6
CONTINUOUS
10
140.344
20
-105.901
11
140.261
21
-105.832
0
LINE
8
BLACK
6
CONTINUOUS
10
140.261
20
-105.832
11
140.192
21
-105.749
0
LINE
8
BLACK
6
CONTINUOUS
10
140.192
20
-105.749
11
140.141
21
-105.653
0
LINE
8
BLACK
6
CONTINUOUS
10
140.141
20
-105.653
11
140.11
21
-105.55
0
LINE
8
BLACK
6
CONTINUOUS
10
140.11
20
-105.55
11
140.099
21
-105.442
0
LINE
8
BLACK
6
CONTINUOUS
10
140.099
20
-105.442
11
140.099
21
-104.742
0
LINE
8
BLACK
6
CONTINUOUS
10
140.099
20
-104.742
11
140.11
21
-104.635
0
LINE
8
BLACK
6
CONTINUOUS
10
140.11
20
-104.635
11
140.141
21
-104.532
0
LINE
8
BLACK
6
CONTINUOUS
10
140.141
20
-104.532
11
140.192
21
-104.436
0
LINE
8
BLACK
6
CONTINUOUS
10
140.192
20
-104.436
11
140.261
21
-104.353
0
LINE
8
BLACK
6
CONTINUOUS
10
140.261
20
-104.353
11
140.344
21
-104.284
0
LINE
8
BLACK
6
CONTINUOUS
10
140.344
20
-104.284
11
140.44
21
-104.233
0
LINE
8
BLACK
6
CONTINUOUS
10
140.44
20
-104.233
11
140.543
21
-104.202
0
LINE
8
BLACK
6
CONTINUOUS
10
140.543
20
-104.202
11
140.65
21
-104.191
0
LINE
8
BLACK
6
CONTINUOUS
10
140.65
20
-104.191
11
140.651
21
-104.191
0
LINE
8
BLACK
6
CONTINUOUS
10
140.651
20
-104.191
11
140.758
21
-104.202
0
LINE
8
BLACK
6
CONTINUOUS
10
149.398
20
-104.202
11
149.501
21
-104.233
0
LINE
8
BLACK
6
CONTINUOUS
10
149.501
20
-104.233
11
149.597
21
-104.284
0
LINE
8
BLACK
6
CONTINUOUS
10
149.597
20
-104.284
11
149.68
21
-104.353
0
LINE
8
BLACK
6
CONTINUOUS
10
149.68
20
-104.353
11
149.749
21
-104.436
0
LINE
8
BLACK
6
CONTINUOUS
10
149.749
20
-104.436
11
149.8
21
-104.532
0
LINE
8
BLACK
6
CONTINUOUS
10
149.8
20
-104.532
11
149.831
21
-104.635
0
LINE
8
BLACK
6
CONTINUOUS
10
149.831
20
-104.635
11
149.842
21
-104.742
0
LINE
8
BLACK
6
CONTINUOUS
10
149.842
20
-104.742
11
149.842
21
-105.442
0
LINE
8
BLACK
6
CONTINUOUS
10
149.842
20
-105.442
11
149.831
21
-105.55
0
LINE
8
BLACK
6
CONTINUOUS
10
149.831
20
-105.55
11
149.8
21
-105.653
0
LINE
8
BLACK
6
CONTINUOUS
10
149.8
20
-105.653
11
149.749
21
-105.749
0
LINE
8
BLACK
6
CONTINUOUS
10
149.749
20
-105.749
11
149.68
21
-105.832
0
LINE
8
BLACK
6
CONTINUOUS
10
149.68
20
-105.832
11
149.597
21
-105.901
0
LINE
8
BLACK
6
CONTINUOUS
10
149.597
20
-105.901
11
149.501
21
-105.952
0
LINE
8
BLACK
6
CONTINUOUS
10
149.501
20
-105.952
11
149.398
21
-105.983
0
LINE
8
BLACK
6
CONTINUOUS
10
149.398
20
-105.983
11
149.291
21
-105.993
0
LINE
8
BLACK
6
CONTINUOUS
10
149.291
20
-105.993
11
149.29
21
-105.993
0
LINE
8
BLACK
6
CONTINUOUS
10
149.29
20
-105.993
11
149.183
21
-105.983
0
LINE
8
BLACK
6
CONTINUOUS
10
149.183
20
-105.983
11
149.08
21
-105.952
0
LINE
8
BLACK
6
CONTINUOUS
10
149.08
20
-105.952
11
148.984
21
-105.901
0
LINE
8
BLACK
6
CONTINUOUS
10
148.984
20
-105.901
11
148.901
21
-105.832
0
LINE
8
BLACK
6
CONTINUOUS
10
148.901
20
-105.832
11
148.832
21
-105.749
0
LINE
8
BLACK
6
CONTINUOUS
10
148.832
20
-105.749
11
148.781
21
-105.653
0
LINE
8
BLACK
6
CONTINUOUS
10
148.781
20
-105.653
11
148.75
21
-105.55
0
LINE
8
BLACK
6
CONTINUOUS
10
148.75
20
-105.55
11
148.739
21
-105.442
0
LINE
8
BLACK
6
CONTINUOUS
10
148.739
20
-105.442
11
148.739
21
-104.742
0
LINE
8
BLACK
6
CONTINUOUS
10
148.739
20
-104.742
11
148.75
21
-104.635
0
LINE
8
BLACK
6
CONTINUOUS
10
148.75
20
-104.635
11
148.781
21
-104.532
0
LINE
8
BLACK
6
CONTINUOUS
10
148.781
20
-104.532
11
148.832
21
-104.436
0
LINE
8
BLACK
6
CONTINUOUS
10
148.832
20
-104.436
11
148.901
21
-104.353
0
LINE
8
BLACK
6
CONTINUOUS
10
148.901
20
-104.353
11
148.984
21
-104.284
0
LINE
8
BLACK
6
CONTINUOUS
10
148.984
20
-104.284
11
149.08
21
-104.233
0
LINE
8
BLACK
6
CONTINUOUS
10
149.08
20
-104.233
11
149.183
21
-104.202
0
LINE
8
BLACK
6
CONTINUOUS
10
149.183
20
-104.202
11
149.29
21
-104.191
0
LINE
8
BLACK
6
CONTINUOUS
10
149.29
20
-104.191
11
149.291
21
-104.191
0
LINE
8
BLACK
6
CONTINUOUS
10
149.291
20
-104.191
11
149.398
21
-104.202
0
LINE
8
BLACK
6
CONTINUOUS
10
162.55
20
-86.8662
11
162.602
21
-86.8764
0
LINE
8
BLACK
6
CONTINUOUS
10
162.602
20
-86.8764
11
162.675
21
-86.9067
0
LINE
8
BLACK
6
CONTINUOUS
10
162.675
20
-86.9067
11
162.74
21
-86.9506
0
LINE
8
BLACK
6
CONTINUOUS
10
162.74
20
-86.9506
11
162.796
21
-87.0064
0
LINE
8
BLACK
6
CONTINUOUS
10
162.796
20
-87.0064
11
162.796
21
-87.0064
0
LINE
8
BLACK
6
CONTINUOUS
10
162.796
20
-87.0064
11
162.84
21
-87.0721
0
LINE
8
BLACK
6
CONTINUOUS
10
162.84
20
-87.0721
11
162.87
21
-87.1451
0
LINE
8
BLACK
6
CONTINUOUS
10
162.87
20
-87.1451
11
162.87
21
-87.1451
0
LINE
8
BLACK
6
CONTINUOUS
10
162.87
20
-87.1451
11
162.886
21
-87.2225
0
LINE
8
BLACK
6
CONTINUOUS
10
162.886
20
-87.2225
11
162.886
21
-87.2853
0
LINE
8
BLACK
6
CONTINUOUS
10
162.886
20
-87.2853
11
162.888
21
-87.3097
0
LINE
8
BLACK
6
CONTINUOUS
10
162.888
20
-87.3097
11
162.895
21
-87.3332
0
LINE
8
BLACK
6
CONTINUOUS
10
162.895
20
-87.3332
11
162.907
21
-87.3548
0
LINE
8
BLACK
6
CONTINUOUS
10
162.907
20
-87.3548
11
162.922
21
-87.3737
0
LINE
8
BLACK
6
CONTINUOUS
10
162.922
20
-87.3737
11
162.941
21
-87.3893
0
LINE
8
BLACK
6
CONTINUOUS
10
162.941
20
-87.3893
11
162.963
21
-87.4008
0
LINE
8
BLACK
6
CONTINUOUS
10
162.963
20
-87.4008
11
162.986
21
-87.4079
0
LINE
8
BLACK
6
CONTINUOUS
10
162.986
20
-87.4079
11
163.011
21
-87.4103
0
LINE
8
BLACK
6
CONTINUOUS
10
163.011
20
-87.4103
11
163.035
21
-87.4079
0
LINE
8
BLACK
6
CONTINUOUS
10
163.035
20
-87.4079
11
163.059
21
-87.4008
0
LINE
8
BLACK
6
CONTINUOUS
10
163.059
20
-87.4008
11
163.08
21
-87.3893
0
LINE
8
BLACK
6
CONTINUOUS
10
163.08
20
-87.3893
11
163.093
21
-87.3795
0
LINE
8
BLACK
6
CONTINUOUS
10
163.093
20
-87.3795
11
163.12
21
-87.3561
0
LINE
8
BLACK
6
CONTINUOUS
10
163.12
20
-87.3561
11
163.149
21
-87.3307
0
LINE
8
BLACK
6
CONTINUOUS
10
163.149
20
-87.3307
11
163.155
21
-87.3272
0
LINE
8
BLACK
6
CONTINUOUS
10
163.155
20
-87.3272
11
163.226
21
-87.2865
0
LINE
8
BLACK
6
CONTINUOUS
10
163.226
20
-87.2865
11
163.273
21
-87.2705
0
LINE
8
BLACK
6
CONTINUOUS
10
163.273
20
-87.2705
11
163.289
21
-87.2652
0
LINE
8
BLACK
6
CONTINUOUS
10
163.289
20
-87.2652
11
163.754
21
-87.1579
0
LINE
8
BLACK
6
CONTINUOUS
10
163.754
20
-87.1579
11
164.014
21
-87.0978
0
LINE
8
BLACK
6
CONTINUOUS
10
164.014
20
-87.0978
11
164.08
21
-87.0892
0
LINE
8
BLACK
6
CONTINUOUS
10
164.08
20
-87.0892
11
164.127
21
-87.0924
0
LINE
8
BLACK
6
CONTINUOUS
10
164.127
20
-87.0924
11
164.169
21
-87.0952
0
LINE
8
BLACK
6
CONTINUOUS
10
164.169
20
-87.0952
11
164.197
21
-87.1029
0
LINE
8
BLACK
6
CONTINUOUS
10
164.197
20
-87.1029
11
164.254
21
-87.1184
0
LINE
8
BLACK
6
CONTINUOUS
10
164.254
20
-87.1184
11
164.287
21
-87.1346
0
LINE
8
BLACK
6
CONTINUOUS
10
164.287
20
-87.1346
11
164.334
21
-87.1579
0
LINE
8
BLACK
6
CONTINUOUS
10
164.334
20
-87.1579
11
164.404
21
-87.2121
0
LINE
8
BLACK
6
CONTINUOUS
10
164.404
20
-87.2121
11
164.463
21
-87.279
0
LINE
8
BLACK
6
CONTINUOUS
10
164.463
20
-87.279
11
164.463
21
-87.279
0
LINE
8
BLACK
6
CONTINUOUS
10
164.463
20
-87.279
11
164.507
21
-87.3561
0
LINE
8
BLACK
6
CONTINUOUS
10
164.507
20
-87.3561
11
164.536
21
-87.4403
0
LINE
8
BLACK
6
CONTINUOUS
10
164.536
20
-87.4403
11
164.547
21
-87.5284
0
LINE
8
BLACK
6
CONTINUOUS
10
164.547
20
-87.5284
11
164.545
21
-87.5538
0
LINE
8
BLACK
6
CONTINUOUS
10
164.545
20
-87.5538
11
164.541
21
-87.617
0
LINE
8
BLACK
6
CONTINUOUS
10
164.541
20
-87.617
11
164.533
21
-87.6476
0
LINE
8
BLACK
6
CONTINUOUS
10
164.533
20
-87.6476
11
164.518
21
-87.7028
0
LINE
8
BLACK
6
CONTINUOUS
10
164.518
20
-87.7028
11
164.512
21
-87.7135
0
LINE
8
BLACK
6
CONTINUOUS
10
164.512
20
-87.7135
11
164.478
21
-87.7824
0
LINE
8
BLACK
6
CONTINUOUS
10
164.478
20
-87.7824
11
164.478
21
-87.7824
0
LINE
8
BLACK
6
CONTINUOUS
10
164.478
20
-87.7824
11
164.478
21
-87.7824
0
LINE
8
BLACK
6
CONTINUOUS
10
164.478
20
-87.7824
11
164.424
21
-87.8527
0
LINE
8
BLACK
6
CONTINUOUS
10
164.424
20
-87.8527
11
164.424
21
-87.8527
0
LINE
8
BLACK
6
CONTINUOUS
10
164.424
20
-87.8527
11
164.357
21
-87.9111
0
LINE
8
BLACK
6
CONTINUOUS
10
164.357
20
-87.9111
11
164.357
21
-87.9111
0
LINE
8
BLACK
6
CONTINUOUS
10
164.357
20
-87.9111
11
164.28
21
-87.9554
0
LINE
8
BLACK
6
CONTINUOUS
10
164.28
20
-87.9554
11
164.226
21
-87.9736
0
LINE
8
BLACK
6
CONTINUOUS
10
164.226
20
-87.9736
11
164.217
21
-87.9767
0
LINE
8
BLACK
6
CONTINUOUS
10
164.217
20
-87.9767
11
163.855
21
-88.0602
0
LINE
8
BLACK
6
CONTINUOUS
10
163.855
20
-88.0602
11
163.492
21
-88.1441
0
LINE
8
BLACK
6
CONTINUOUS
10
163.492
20
-88.1441
11
163.426
21
-88.1526
0
LINE
8
BLACK
6
CONTINUOUS
10
163.426
20
-88.1526
11
163.378
21
-88.1494
0
LINE
8
BLACK
6
CONTINUOUS
10
163.378
20
-88.1494
11
163.337
21
-88.1466
0
LINE
8
BLACK
6
CONTINUOUS
10
163.337
20
-88.1466
11
163.306
21
-88.1382
0
LINE
8
BLACK
6
CONTINUOUS
10
163.306
20
-88.1382
11
163.268
21
-88.128
0
LINE
8
BLACK
6
CONTINUOUS
10
163.268
20
-88.128
11
163.244
21
-88.1239
0
LINE
8
BLACK
6
CONTINUOUS
10
163.244
20
-88.1239
11
163.219
21
-88.1247
0
LINE
8
BLACK
6
CONTINUOUS
10
163.219
20
-88.1247
11
163.195
21
-88.1302
0
LINE
8
BLACK
6
CONTINUOUS
10
163.195
20
-88.1302
11
163.173
21
-88.1402
0
LINE
8
BLACK
6
CONTINUOUS
10
163.173
20
-88.1402
11
163.153
21
-88.1545
0
LINE
8
BLACK
6
CONTINUOUS
10
163.153
20
-88.1545
11
163.136
21
-88.1723
0
LINE
8
BLACK
6
CONTINUOUS
10
163.136
20
-88.1723
11
163.123
21
-88.1931
0
LINE
8
BLACK
6
CONTINUOUS
10
163.123
20
-88.1931
11
163.115
21
-88.216
0
LINE
8
BLACK
6
CONTINUOUS
10
163.115
20
-88.216
11
163.111
21
-88.2402
0
LINE
8
BLACK
6
CONTINUOUS
10
163.111
20
-88.2402
11
163.111
21
-88.2647
0
LINE
8
BLACK
6
CONTINUOUS
10
163.111
20
-88.2647
11
163.117
21
-88.2886
0
LINE
8
BLACK
6
CONTINUOUS
10
163.117
20
-88.2886
11
163.122
21
-88.2979
0
LINE
8
BLACK
6
CONTINUOUS
10
163.122
20
-88.2979
11
163.121
21
-88.2982
0
LINE
8
BLACK
6
CONTINUOUS
10
163.121
20
-88.2982
11
163.126
21
-88.3095
0
LINE
8
BLACK
6
CONTINUOUS
10
163.126
20
-88.3095
11
163.126
21
-88.3095
0
LINE
8
BLACK
6
CONTINUOUS
10
163.126
20
-88.3095
11
163.156
21
-88.3825
0
LINE
8
BLACK
6
CONTINUOUS
10
163.156
20
-88.3825
11
163.156
21
-88.3825
0
LINE
8
BLACK
6
CONTINUOUS
10
163.156
20
-88.3825
11
163.171
21
-88.46
0
LINE
8
BLACK
6
CONTINUOUS
10
163.171
20
-88.46
11
163.171
21
-88.5228
0
LINE
8
BLACK
6
CONTINUOUS
10
163.171
20
-88.5228
11
163.174
21
-88.5472
0
LINE
8
BLACK
6
CONTINUOUS
10
163.174
20
-88.5472
11
163.181
21
-88.5706
0
LINE
8
BLACK
6
CONTINUOUS
10
163.181
20
-88.5706
11
163.192
21
-88.5922
0
LINE
8
BLACK
6
CONTINUOUS
10
163.192
20
-88.5922
11
163.208
21
-88.6112
0
LINE
8
BLACK
6
CONTINUOUS
10
163.208
20
-88.6112
11
163.227
21
-88.6267
0
LINE
8
BLACK
6
CONTINUOUS
10
163.227
20
-88.6267
11
163.249
21
-88.6383
0
LINE
8
BLACK
6
CONTINUOUS
10
163.249
20
-88.6383
11
163.272
21
-88.6454
0
LINE
8
BLACK
6
CONTINUOUS
10
163.272
20
-88.6454
11
163.296
21
-88.6478
0
LINE
8
BLACK
6
CONTINUOUS
10
163.296
20
-88.6478
11
163.321
21
-88.6454
0
LINE
8
BLACK
6
CONTINUOUS
10
163.321
20
-88.6454
11
163.344
21
-88.6383
0
LINE
8
BLACK
6
CONTINUOUS
10
163.344
20
-88.6383
11
163.366
21
-88.6267
0
LINE
8
BLACK
6
CONTINUOUS
10
163.366
20
-88.6267
11
163.379
21
-88.6169
0
LINE
8
BLACK
6
CONTINUOUS
10
163.379
20
-88.6169
11
163.405
21
-88.5935
0
LINE
8
BLACK
6
CONTINUOUS
10
163.405
20
-88.5935
11
163.434
21
-88.5682
0
LINE
8
BLACK
6
CONTINUOUS
10
163.434
20
-88.5682
11
163.441
21
-88.5647
0
LINE
8
BLACK
6
CONTINUOUS
10
163.441
20
-88.5647
11
163.511
21
-88.5239
0
LINE
8
BLACK
6
CONTINUOUS
10
163.511
20
-88.5239
11
163.559
21
-88.508
0
LINE
8
BLACK
6
CONTINUOUS
10
163.559
20
-88.508
11
163.575
21
-88.5027
0
LINE
8
BLACK
6
CONTINUOUS
10
163.575
20
-88.5027
11
164.039
21
-88.3953
0
LINE
8
BLACK
6
CONTINUOUS
10
164.039
20
-88.3953
11
164.3
21
-88.3352
0
LINE
8
BLACK
6
CONTINUOUS
10
164.3
20
-88.3352
11
164.366
21
-88.3267
0
LINE
8
BLACK
6
CONTINUOUS
10
164.366
20
-88.3267
11
164.413
21
-88.3299
0
LINE
8
BLACK
6
CONTINUOUS
10
164.413
20
-88.3299
11
164.454
21
-88.3327
0
LINE
8
BLACK
6
CONTINUOUS
10
164.454
20
-88.3327
11
164.483
21
-88.3404
0
LINE
8
BLACK
6
CONTINUOUS
10
164.483
20
-88.3404
11
164.54
21
-88.3559
0
LINE
8
BLACK
6
CONTINUOUS
10
164.54
20
-88.3559
11
164.593
21
-88.382
0
LINE
8
BLACK
6
CONTINUOUS
10
164.593
20
-88.382
11
164.62
21
-88.3953
0
LINE
8
BLACK
6
CONTINUOUS
10
164.62
20
-88.3953
11
164.69
21
-88.4496
0
LINE
8
BLACK
6
CONTINUOUS
10
164.69
20
-88.4496
11
164.749
21
-88.5165
0
LINE
8
BLACK
6
CONTINUOUS
10
164.749
20
-88.5165
11
164.749
21
-88.5165
0
LINE
8
BLACK
6
CONTINUOUS
10
164.749
20
-88.5165
11
164.793
21
-88.5935
0
LINE
8
BLACK
6
CONTINUOUS
10
164.793
20
-88.5935
11
164.821
21
-88.6777
0
LINE
8
BLACK
6
CONTINUOUS
10
164.821
20
-88.6777
11
164.833
21
-88.7658
0
LINE
8
BLACK
6
CONTINUOUS
10
164.833
20
-88.7658
11
164.831
21
-88.7913
0
LINE
8
BLACK
6
CONTINUOUS
10
164.831
20
-88.7913
11
164.827
21
-88.8545
0
LINE
8
BLACK
6
CONTINUOUS
10
164.827
20
-88.8545
11
164.818
21
-88.8851
0
LINE
8
BLACK
6
CONTINUOUS
10
164.818
20
-88.8851
11
164.803
21
-88.9402
0
LINE
8
BLACK
6
CONTINUOUS
10
164.803
20
-88.9402
11
164.798
21
-88.951
0
LINE
8
BLACK
6
CONTINUOUS
10
164.798
20
-88.951
11
164.764
21
-89.0198
0
LINE
8
BLACK
6
CONTINUOUS
10
164.764
20
-89.0198
11
164.764
21
-89.0198
0
LINE
8
BLACK
6
CONTINUOUS
10
164.764
20
-89.0198
11
164.764
21
-89.0198
0
LINE
8
BLACK
6
CONTINUOUS
10
164.764
20
-89.0198
11
164.71
21
-89.0902
0
LINE
8
BLACK
6
CONTINUOUS
10
164.71
20
-89.0902
11
164.71
21
-89.0902
0
LINE
8
BLACK
6
CONTINUOUS
10
164.71
20
-89.0902
11
164.643
21
-89.1486
0
LINE
8
BLACK
6
CONTINUOUS
10
164.643
20
-89.1486
11
164.643
21
-89.1486
0
LINE
8
BLACK
6
CONTINUOUS
10
164.643
20
-89.1486
11
164.566
21
-89.1928
0
LINE
8
BLACK
6
CONTINUOUS
10
164.566
20
-89.1928
11
164.512
21
-89.2111
0
LINE
8
BLACK
6
CONTINUOUS
10
164.512
20
-89.2111
11
164.503
21
-89.2141
0
LINE
8
BLACK
6
CONTINUOUS
10
164.503
20
-89.2141
11
164.229
21
-89.2773
0
LINE
8
BLACK
6
CONTINUOUS
10
164.229
20
-89.2773
11
163.777
21
-89.3815
0
LINE
8
BLACK
6
CONTINUOUS
10
163.777
20
-89.3815
11
163.711
21
-89.3901
0
LINE
8
BLACK
6
CONTINUOUS
10
163.711
20
-89.3901
11
163.664
21
-89.3869
0
LINE
8
BLACK
6
CONTINUOUS
10
163.664
20
-89.3869
11
163.623
21
-89.3841
0
LINE
8
BLACK
6
CONTINUOUS
10
163.623
20
-89.3841
11
163.592
21
-89.3757
0
LINE
8
BLACK
6
CONTINUOUS
10
163.592
20
-89.3757
11
163.554
21
-89.3654
0
LINE
8
BLACK
6
CONTINUOUS
10
163.554
20
-89.3654
11
163.529
21
-89.3614
0
LINE
8
BLACK
6
CONTINUOUS
10
163.529
20
-89.3614
11
163.505
21
-89.3621
0
LINE
8
BLACK
6
CONTINUOUS
10
163.505
20
-89.3621
11
163.481
21
-89.3676
0
LINE
8
BLACK
6
CONTINUOUS
10
163.481
20
-89.3676
11
163.459
21
-89.3777
0
LINE
8
BLACK
6
CONTINUOUS
10
163.459
20
-89.3777
11
163.439
21
-89.3919
0
LINE
8
BLACK
6
CONTINUOUS
10
163.439
20
-89.3919
11
163.422
21
-89.4098
0
LINE
8
BLACK
6
CONTINUOUS
10
163.422
20
-89.4098
11
163.409
21
-89.4305
0
LINE
8
BLACK
6
CONTINUOUS
10
163.409
20
-89.4305
11
163.4
21
-89.4535
0
LINE
8
BLACK
6
CONTINUOUS
10
163.4
20
-89.4535
11
163.396
21
-89.4776
0
LINE
8
BLACK
6
CONTINUOUS
10
163.396
20
-89.4776
11
163.397
21
-89.5021
0
LINE
8
BLACK
6
CONTINUOUS
10
163.397
20
-89.5021
11
163.403
21
-89.526
0
LINE
8
BLACK
6
CONTINUOUS
10
163.403
20
-89.526
11
163.407
21
-89.5354
0
LINE
8
BLACK
6
CONTINUOUS
10
163.407
20
-89.5354
11
163.407
21
-89.5356
0
LINE
8
BLACK
6
CONTINUOUS
10
163.407
20
-89.5356
11
163.411
21
-89.547
0
LINE
8
BLACK
6
CONTINUOUS
10
163.411
20
-89.547
11
163.411
21
-89.547
0
LINE
8
BLACK
6
CONTINUOUS
10
163.411
20
-89.547
11
163.442
21
-89.62
0
LINE
8
BLACK
6
CONTINUOUS
10
163.442
20
-89.62
11
163.442
21
-89.62
0
LINE
8
BLACK
6
CONTINUOUS
10
163.442
20
-89.62
11
163.457
21
-89.6974
0
LINE
8
BLACK
6
CONTINUOUS
10
163.457
20
-89.6974
11
163.457
21
-89.7602
0
LINE
8
BLACK
6
CONTINUOUS
10
163.457
20
-89.7602
11
163.459
21
-89.7846
0
LINE
8
BLACK
6
CONTINUOUS
10
163.459
20
-89.7846
11
163.467
21
-89.8081
0
LINE
8
BLACK
6
CONTINUOUS
10
163.467
20
-89.8081
11
163.478
21
-89.8297
0
LINE
8
BLACK
6
CONTINUOUS
10
163.478
20
-89.8297
11
163.494
21
-89.8486
0
LINE
8
BLACK
6
CONTINUOUS
10
163.494
20
-89.8486
11
163.513
21
-89.8642
0
LINE
8
BLACK
6
CONTINUOUS
10
163.513
20
-89.8642
11
163.534
21
-89.8757
0
LINE
8
BLACK
6
CONTINUOUS
10
163.534
20
-89.8757
11
163.558
21
-89.8828
0
LINE
8
BLACK
6
CONTINUOUS
10
163.558
20
-89.8828
11
163.582
21
-89.8852
0
LINE
8
BLACK
6
CONTINUOUS
10
163.582
20
-89.8852
11
163.606
21
-89.8828
0
LINE
8
BLACK
6
CONTINUOUS
10
163.606
20
-89.8828
11
163.63
21
-89.8757
0
LINE
8
BLACK
6
CONTINUOUS
10
163.63
20
-89.8757
11
163.651
21
-89.8642
0
LINE
8
BLACK
6
CONTINUOUS
10
163.651
20
-89.8642
11
163.664
21
-89.8544
0
LINE
8
BLACK
6
CONTINUOUS
10
163.664
20
-89.8544
11
163.691
21
-89.831
0
LINE
8
BLACK
6
CONTINUOUS
10
163.691
20
-89.831
11
163.72
21
-89.8056
0
LINE
8
BLACK
6
CONTINUOUS
10
163.72
20
-89.8056
11
163.733
21
-89.7981
0
LINE
8
BLACK
6
CONTINUOUS
10
163.733
20
-89.7981
11
163.797
21
-89.7614
0
LINE
8
BLACK
6
CONTINUOUS
10
163.797
20
-89.7614
11
163.844
21
-89.7454
0
LINE
8
BLACK
6
CONTINUOUS
10
163.844
20
-89.7454
11
163.86
21
-89.7401
0
LINE
8
BLACK
6
CONTINUOUS
10
163.86
20
-89.7401
11
164.325
21
-89.6328
0
LINE
8
BLACK
6
CONTINUOUS
10
164.325
20
-89.6328
11
164.585
21
-89.5727
0
LINE
8
BLACK
6
CONTINUOUS
10
164.585
20
-89.5727
11
164.651
21
-89.5641
0
LINE
8
BLACK
6
CONTINUOUS
10
164.651
20
-89.5641
11
164.699
21
-89.5673
0
LINE
8
BLACK
6
CONTINUOUS
10
164.699
20
-89.5673
11
164.74
21
-89.5701
0
LINE
8
BLACK
6
CONTINUOUS
10
164.74
20
-89.5701
11
164.769
21
-89.5779
0
LINE
8
BLACK
6
CONTINUOUS
10
164.769
20
-89.5779
11
164.826
21
-89.5933
0
LINE
8
BLACK
6
CONTINUOUS
10
164.826
20
-89.5933
11
164.879
21
-89.6195
0
LINE
8
BLACK
6
CONTINUOUS
10
164.879
20
-89.6195
11
164.905
21
-89.6328
0
LINE
8
BLACK
6
CONTINUOUS
10
164.905
20
-89.6328
11
164.976
21
-89.687
0
LINE
8
BLACK
6
CONTINUOUS
10
164.976
20
-89.687
11
165.034
21
-89.7539
0
LINE
8
BLACK
6
CONTINUOUS
10
165.034
20
-89.7539
11
165.034
21
-89.7539
0
LINE
8
BLACK
6
CONTINUOUS
10
165.034
20
-89.7539
11
165.079
21
-89.831
0
LINE
8
BLACK
6
CONTINUOUS
10
165.079
20
-89.831
11
165.107
21
-89.9152
0
LINE
8
BLACK
6
CONTINUOUS
10
165.107
20
-89.9152
11
165.118
21
-90.0033
0
LINE
8
BLACK
6
CONTINUOUS
10
165.118
20
-90.0033
11
165.115
21
-90.0484
0
LINE
8
BLACK
6
CONTINUOUS
10
165.115
20
-90.0484
11
165.112
21
-90.0919
0
LINE
8
BLACK
6
CONTINUOUS
10
165.112
20
-90.0919
11
165.104
21
-90.1225
0
LINE
8
BLACK
6
CONTINUOUS
10
165.104
20
-90.1225
11
165.089
21
-90.1777
0
LINE
8
BLACK
6
CONTINUOUS
10
165.089
20
-90.1777
11
165.084
21
-90.1884
0
LINE
8
BLACK
6
CONTINUOUS
10
165.084
20
-90.1884
11
165.05
21
-90.2573
0
LINE
8
BLACK
6
CONTINUOUS
10
165.05
20
-90.2573
11
165.05
21
-90.2573
0
LINE
8
BLACK
6
CONTINUOUS
10
165.05
20
-90.2573
11
165.05
21
-90.2573
0
LINE
8
BLACK
6
CONTINUOUS
10
165.05
20
-90.2573
11
164.995
21
-90.3276
0
LINE
8
BLACK
6
CONTINUOUS
10
164.995
20
-90.3276
11
164.995
21
-90.3276
0
LINE
8
BLACK
6
CONTINUOUS
10
164.995
20
-90.3276
11
164.928
21
-90.386
0
LINE
8
BLACK
6
CONTINUOUS
10
164.928
20
-90.386
11
164.928
21
-90.386
0
LINE
8
BLACK
6
CONTINUOUS
10
164.928
20
-90.386
11
164.851
21
-90.4303
0
LINE
8
BLACK
6
CONTINUOUS
10
164.851
20
-90.4303
11
164.797
21
-90.4485
0
LINE
8
BLACK
6
CONTINUOUS
10
164.797
20
-90.4485
11
164.788
21
-90.4516
0
LINE
8
BLACK
6
CONTINUOUS
10
164.788
20
-90.4516
11
164.514
21
-90.5148
0
LINE
8
BLACK
6
CONTINUOUS
10
164.514
20
-90.5148
11
164.063
21
-90.619
0
LINE
8
BLACK
6
CONTINUOUS
10
164.063
20
-90.619
11
163.997
21
-90.6275
0
LINE
8
BLACK
6
CONTINUOUS
10
163.997
20
-90.6275
11
163.951
21
-90.6244
0
LINE
8
BLACK
6
CONTINUOUS
10
163.951
20
-90.6244
11
163.908
21
-90.6215
0
LINE
8
BLACK
6
CONTINUOUS
10
163.908
20
-90.6215
11
163.839
21
-90.6029
0
LINE
8
BLACK
6
CONTINUOUS
10
163.839
20
-90.6029
11
163.815
21
-90.5988
0
LINE
8
BLACK
6
CONTINUOUS
10
163.815
20
-90.5988
11
163.791
21
-90.5996
0
LINE
8
BLACK
6
CONTINUOUS
10
163.791
20
-90.5996
11
163.767
21
-90.6051
0
LINE
8
BLACK
6
CONTINUOUS
10
163.767
20
-90.6051
11
163.744
21
-90.6151
0
LINE
8
BLACK
6
CONTINUOUS
10
163.744
20
-90.6151
11
163.725
21
-90.6294
0
LINE
8
BLACK
6
CONTINUOUS
10
163.725
20
-90.6294
11
163.708
21
-90.6472
0
LINE
8
BLACK
6
CONTINUOUS
10
163.708
20
-90.6472
11
163.695
21
-90.668
0
LINE
8
BLACK
6
CONTINUOUS
10
163.695
20
-90.668
11
163.686
21
-90.6909
0
LINE
8
BLACK
6
CONTINUOUS
10
163.686
20
-90.6909
11
163.682
21
-90.7151
0
LINE
8
BLACK
6
CONTINUOUS
10
163.682
20
-90.7151
11
163.683
21
-90.7396
0
LINE
8
BLACK
6
CONTINUOUS
10
163.683
20
-90.7396
11
163.688
21
-90.7634
0
LINE
8
BLACK
6
CONTINUOUS
10
163.688
20
-90.7634
11
163.693
21
-90.7728
0
LINE
8
BLACK
6
CONTINUOUS
10
163.693
20
-90.7728
11
163.692
21
-90.7731
0
LINE
8
BLACK
6
CONTINUOUS
10
163.692
20
-90.7731
11
163.697
21
-90.7844
0
LINE
8
BLACK
6
CONTINUOUS
10
163.697
20
-90.7844
11
163.697
21
-90.7844
0
LINE
8
BLACK
6
CONTINUOUS
10
163.697
20
-90.7844
11
163.727
21
-90.8574
0
LINE
8
BLACK
6
CONTINUOUS
10
163.727
20
-90.8574
11
163.727
21
-90.8574
0
LINE
8
BLACK
6
CONTINUOUS
10
163.727
20
-90.8574
11
163.743
21
-90.9349
0
LINE
8
BLACK
6
CONTINUOUS
10
163.743
20
-90.9349
11
163.743
21
-90.9977
0
LINE
8
BLACK
6
CONTINUOUS
10
163.743
20
-90.9977
11
163.745
21
-91.0221
0
LINE
8
BLACK
6
CONTINUOUS
10
163.745
20
-91.0221
11
163.752
21
-91.0455
0
LINE
8
BLACK
6
CONTINUOUS
10
163.752
20
-91.0455
11
163.764
21
-91.0671
0
LINE
8
BLACK
6
CONTINUOUS
10
163.764
20
-91.0671
11
163.779
21
-91.0861
0
LINE
8
BLACK
6
CONTINUOUS
10
163.779
20
-91.0861
11
163.798
21
-91.1016
0
LINE
8
BLACK
6
CONTINUOUS
10
163.798
20
-91.1016
11
163.82
21
-91.1132
0
LINE
8
BLACK
6
CONTINUOUS
10
163.82
20
-91.1132
11
163.843
21
-91.1203
0
LINE
8
BLACK
6
CONTINUOUS
10
163.843
20
-91.1203
11
163.868
21
-91.1227
0
LINE
8
BLACK
6
CONTINUOUS
10
163.868
20
-91.1227
11
163.892
21
-91.1203
0
LINE
8
BLACK
6
CONTINUOUS
10
163.892
20
-91.1203
11
163.916
21
-91.1132
0
LINE
8
BLACK
6
CONTINUOUS
10
163.916
20
-91.1132
11
163.937
21
-91.1016
0
LINE
8
BLACK
6
CONTINUOUS
10
163.937
20
-91.1016
11
163.95
21
-91.0918
0
LINE
8
BLACK
6
CONTINUOUS
10
163.95
20
-91.0918
11
163.977
21
-91.0684
0
LINE
8
BLACK
6
CONTINUOUS
10
163.977
20
-91.0684
11
164.006
21
-91.0431
0
LINE
8
BLACK
6
CONTINUOUS
10
164.006
20
-91.0431
11
164.012
21
-91.0396
0
LINE
8
BLACK
6
CONTINUOUS
10
164.012
20
-91.0396
11
164.083
21
-90.9988
0
LINE
8
BLACK
6
CONTINUOUS
10
164.083
20
-90.9988
11
164.13
21
-90.9829
0
LINE
8
BLACK
6
CONTINUOUS
10
164.13
20
-90.9829
11
164.146
21
-90.9776
0
LINE
8
BLACK
6
CONTINUOUS
10
164.146
20
-90.9776
11
164.611
21
-90.8702
0
LINE
8
BLACK
6
CONTINUOUS
10
164.611
20
-90.8702
11
164.871
21
-90.8101
0
LINE
8
BLACK
6
CONTINUOUS
10
164.871
20
-90.8101
11
164.937
21
-90.8016
0
LINE
8
BLACK
6
CONTINUOUS
10
164.937
20
-90.8016
11
164.984
21
-90.8048
0
LINE
8
BLACK
6
CONTINUOUS
10
164.984
20
-90.8048
11
165.026
21
-90.8076
0
LINE
8
BLACK
6
CONTINUOUS
10
165.026
20
-90.8076
11
165.054
21
-90.8153
0
LINE
8
BLACK
6
CONTINUOUS
10
165.054
20
-90.8153
11
165.112
21
-90.8308
0
LINE
8
BLACK
6
CONTINUOUS
10
165.112
20
-90.8308
11
165.164
21
-90.8569
0
LINE
8
BLACK
6
CONTINUOUS
10
165.164
20
-90.8569
11
165.191
21
-90.8702
0
LINE
8
BLACK
6
CONTINUOUS
10
165.191
20
-90.8702
11
165.262
21
-90.9245
0
LINE
8
BLACK
6
CONTINUOUS
10
165.262
20
-90.9245
11
165.32
21
-90.9914
0
LINE
8
BLACK
6
CONTINUOUS
10
165.32
20
-90.9914
11
165.32
21
-90.9914
0
LINE
8
BLACK
6
CONTINUOUS
10
165.32
20
-90.9914
11
165.364
21
-91.0684
0
LINE
8
BLACK
6
CONTINUOUS
10
165.364
20
-91.0684
11
165.393
21
-91.1526
0
LINE
8
BLACK
6
CONTINUOUS
10
165.393
20
-91.1526
11
165.404
21
-91.2407
0
LINE
8
BLACK
6
CONTINUOUS
10
165.404
20
-91.2407
11
165.401
21
-91.2859
0
LINE
8
BLACK
6
CONTINUOUS
10
165.401
20
-91.2859
11
165.398
21
-91.3294
0
LINE
8
BLACK
6
CONTINUOUS
10
165.398
20
-91.3294
11
165.39
21
-91.36
0
LINE
8
BLACK
6
CONTINUOUS
10
165.39
20
-91.36
11
165.375
21
-91.4151
0
LINE
8
BLACK
6
CONTINUOUS
10
165.375
20
-91.4151
11
165.369
21
-91.4259
0
LINE
8
BLACK
6
CONTINUOUS
10
165.369
20
-91.4259
11
165.335
21
-91.4947
0
LINE
8
BLACK
6
CONTINUOUS
10
165.335
20
-91.4947
11
165.335
21
-91.4947
0
LINE
8
BLACK
6
CONTINUOUS
10
165.335
20
-91.4947
11
165.335
21
-91.4947
0
LINE
8
BLACK
6
CONTINUOUS
10
165.335
20
-91.4947
11
165.281
21
-91.5651
0
LINE
8
BLACK
6
CONTINUOUS
10
165.281
20
-91.5651
11
165.281
21
-91.5651
0
LINE
8
BLACK
6
CONTINUOUS
10
165.281
20
-91.5651
11
165.214
21
-91.6235
0
LINE
8
BLACK
6
CONTINUOUS
10
165.214
20
-91.6235
11
165.214
21
-91.6235
0
LINE
8
BLACK
6
CONTINUOUS
10
165.214
20
-91.6235
11
165.137
21
-91.6677
0
LINE
8
BLACK
6
CONTINUOUS
10
165.137
20
-91.6677
11
165.083
21
-91.686
0
LINE
8
BLACK
6
CONTINUOUS
10
165.083
20
-91.686
11
165.074
21
-91.689
0
LINE
8
BLACK
6
CONTINUOUS
10
165.074
20
-91.689
11
164.8
21
-91.7522
0
LINE
8
BLACK
6
CONTINUOUS
10
164.8
20
-91.7522
11
164.349
21
-91.8564
0
LINE
8
BLACK
6
CONTINUOUS
10
164.349
20
-91.8564
11
164.283
21
-91.865
0
LINE
8
BLACK
6
CONTINUOUS
10
164.283
20
-91.865
11
164.237
21
-91.8619
0
LINE
8
BLACK
6
CONTINUOUS
10
164.237
20
-91.8619
11
164.194
21
-91.859
0
LINE
8
BLACK
6
CONTINUOUS
10
164.194
20
-91.859
11
164.125
21
-91.8403
0
LINE
8
BLACK
6
CONTINUOUS
10
164.125
20
-91.8403
11
164.101
21
-91.8363
0
LINE
8
BLACK
6
CONTINUOUS
10
164.101
20
-91.8363
11
164.076
21
-91.837
0
LINE
8
BLACK
6
CONTINUOUS
10
164.076
20
-91.837
11
164.052
21
-91.8425
0
LINE
8
BLACK
6
CONTINUOUS
10
164.052
20
-91.8425
11
164.03
21
-91.8526
0
LINE
8
BLACK
6
CONTINUOUS
10
164.03
20
-91.8526
11
164.01
21
-91.8668
0
LINE
8
BLACK
6
CONTINUOUS
10
164.01
20
-91.8668
11
163.993
21
-91.8847
0
LINE
8
BLACK
6
CONTINUOUS
10
163.993
20
-91.8847
11
163.98
21
-91.9054
0
LINE
8
BLACK
6
CONTINUOUS
10
163.98
20
-91.9054
11
163.972
21
-91.9284
0
LINE
8
BLACK
6
CONTINUOUS
10
163.972
20
-91.9284
11
163.968
21
-91.9525
0
LINE
8
BLACK
6
CONTINUOUS
10
163.968
20
-91.9525
11
163.968
21
-91.977
0
LINE
8
BLACK
6
CONTINUOUS
10
163.968
20
-91.977
11
163.974
21
-92.0009
0
LINE
8
BLACK
6
CONTINUOUS
10
163.974
20
-92.0009
11
163.979
21
-92.0103
0
LINE
8
BLACK
6
CONTINUOUS
10
163.979
20
-92.0103
11
163.978
21
-92.0105
0
LINE
8
BLACK
6
CONTINUOUS
10
163.978
20
-92.0105
11
163.983
21
-92.0219
0
LINE
8
BLACK
6
CONTINUOUS
10
163.983
20
-92.0219
11
163.983
21
-92.0219
0
LINE
8
BLACK
6
CONTINUOUS
10
163.983
20
-92.0219
11
164.013
21
-92.0949
0
LINE
8
BLACK
6
CONTINUOUS
10
164.013
20
-92.0949
11
164.028
21
-92.1723
0
LINE
8
BLACK
6
CONTINUOUS
10
164.028
20
-92.1723
11
164.028
21
-92.2513
0
LINE
8
BLACK
6
CONTINUOUS
10
164.028
20
-92.2513
11
164.013
21
-92.3288
0
LINE
8
BLACK
6
CONTINUOUS
10
164.013
20
-92.3288
11
163.983
21
-92.4018
0
LINE
8
BLACK
6
CONTINUOUS
10
163.983
20
-92.4018
11
163.939
21
-92.4675
0
LINE
8
BLACK
6
CONTINUOUS
10
163.939
20
-92.4675
11
163.883
21
-92.5233
0
LINE
8
BLACK
6
CONTINUOUS
10
163.883
20
-92.5233
11
163.883
21
-92.5233
0
LINE
8
BLACK
6
CONTINUOUS
10
163.883
20
-92.5233
11
163.817
21
-92.5672
0
LINE
8
BLACK
6
CONTINUOUS
10
163.817
20
-92.5672
11
163.744
21
-92.5974
0
LINE
8
BLACK
6
CONTINUOUS
10
163.744
20
-92.5974
11
163.693
21
-92.6077
0
LINE
8
BLACK
6
CONTINUOUS
10
163.693
20
-92.6077
11
163.667
21
-92.6128
0
LINE
8
BLACK
6
CONTINUOUS
10
163.667
20
-92.6128
11
163.588
21
-92.6128
0
LINE
8
BLACK
6
CONTINUOUS
10
163.588
20
-92.6128
11
163.562
21
-92.6077
0
LINE
8
BLACK
6
CONTINUOUS
10
163.562
20
-92.6077
11
163.51
21
-92.5974
0
LINE
8
BLACK
6
CONTINUOUS
10
163.51
20
-92.5974
11
163.437
21
-92.5672
0
LINE
8
BLACK
6
CONTINUOUS
10
163.437
20
-92.5672
11
163.372
21
-92.5233
0
LINE
8
BLACK
6
CONTINUOUS
10
163.372
20
-92.5233
11
163.372
21
-92.5233
0
LINE
8
BLACK
6
CONTINUOUS
10
163.372
20
-92.5233
11
163.316
21
-92.4675
0
LINE
8
BLACK
6
CONTINUOUS
10
163.316
20
-92.4675
11
163.272
21
-92.4018
0
LINE
8
BLACK
6
CONTINUOUS
10
163.272
20
-92.4018
11
163.242
21
-92.3288
0
LINE
8
BLACK
6
CONTINUOUS
10
163.242
20
-92.3288
11
163.226
21
-92.2513
0
LINE
8
BLACK
6
CONTINUOUS
10
163.226
20
-92.2513
11
163.226
21
-92.1723
0
LINE
8
BLACK
6
CONTINUOUS
10
163.226
20
-92.1723
11
163.242
21
-92.0949
0
LINE
8
BLACK
6
CONTINUOUS
10
163.242
20
-92.0949
11
163.272
21
-92.0219
0
LINE
8
BLACK
6
CONTINUOUS
10
163.272
20
-92.0219
11
163.316
21
-91.9562
0
LINE
8
BLACK
6
CONTINUOUS
10
163.316
20
-91.9562
11
163.316
21
-91.9562
0
LINE
8
BLACK
6
CONTINUOUS
10
163.316
20
-91.9562
11
163.372
21
-91.9004
0
LINE
8
BLACK
6
CONTINUOUS
10
163.372
20
-91.9004
11
163.437
21
-91.8565
0
LINE
8
BLACK
6
CONTINUOUS
10
163.437
20
-91.8565
11
163.447
21
-91.8526
0
LINE
8
BLACK
6
CONTINUOUS
10
163.447
20
-91.8526
11
163.51
21
-91.8262
0
LINE
8
BLACK
6
CONTINUOUS
10
163.51
20
-91.8262
11
163.562
21
-91.816
0
LINE
8
BLACK
6
CONTINUOUS
10
163.562
20
-91.816
11
163.588
21
-91.8108
0
LINE
8
BLACK
6
CONTINUOUS
10
163.588
20
-91.8108
11
163.667
21
-91.8108
0
LINE
8
BLACK
6
CONTINUOUS
10
163.667
20
-91.8108
11
163.744
21
-91.8262
0
LINE
8
BLACK
6
CONTINUOUS
10
163.744
20
-91.8262
11
163.744
21
-91.8262
0
LINE
8
BLACK
6
CONTINUOUS
10
163.744
20
-91.8262
11
163.748
21
-91.827
0
LINE
8
BLACK
6
CONTINUOUS
10
163.748
20
-91.827
11
163.773
21
-91.8294
0
LINE
8
BLACK
6
CONTINUOUS
10
163.773
20
-91.8294
11
163.797
21
-91.827
0
LINE
8
BLACK
6
CONTINUOUS
10
163.797
20
-91.827
11
163.82
21
-91.8199
0
LINE
8
BLACK
6
CONTINUOUS
10
163.82
20
-91.8199
11
163.842
21
-91.8083
0
LINE
8
BLACK
6
CONTINUOUS
10
163.842
20
-91.8083
11
163.861
21
-91.7928
0
LINE
8
BLACK
6
CONTINUOUS
10
163.861
20
-91.7928
11
163.877
21
-91.7739
0
LINE
8
BLACK
6
CONTINUOUS
10
163.877
20
-91.7739
11
163.888
21
-91.7522
0
LINE
8
BLACK
6
CONTINUOUS
10
163.888
20
-91.7522
11
163.895
21
-91.7288
0
LINE
8
BLACK
6
CONTINUOUS
10
163.895
20
-91.7288
11
163.898
21
-91.7044
0
LINE
8
BLACK
6
CONTINUOUS
10
163.898
20
-91.7044
11
163.895
21
-91.68
0
LINE
8
BLACK
6
CONTINUOUS
10
163.895
20
-91.68
11
163.888
21
-91.6566
0
LINE
8
BLACK
6
CONTINUOUS
10
163.888
20
-91.6566
11
163.881
21
-91.6421
0
LINE
8
BLACK
6
CONTINUOUS
10
163.881
20
-91.6421
11
163.856
21
-91.5982
0
LINE
8
BLACK
6
CONTINUOUS
10
163.856
20
-91.5982
11
163.827
21
-91.514
0
LINE
8
BLACK
6
CONTINUOUS
10
163.827
20
-91.514
11
163.816
21
-91.4259
0
LINE
8
BLACK
6
CONTINUOUS
10
163.816
20
-91.4259
11
163.82
21
-91.3736
0
LINE
8
BLACK
6
CONTINUOUS
10
163.82
20
-91.3736
11
163.819
21
-91.3491
0
LINE
8
BLACK
6
CONTINUOUS
10
163.819
20
-91.3491
11
163.813
21
-91.3253
0
LINE
8
BLACK
6
CONTINUOUS
10
163.813
20
-91.3253
11
163.803
21
-91.3029
0
LINE
8
BLACK
6
CONTINUOUS
10
163.803
20
-91.3029
11
163.789
21
-91.283
0
LINE
8
BLACK
6
CONTINUOUS
10
163.789
20
-91.283
11
163.771
21
-91.2662
0
LINE
8
BLACK
6
CONTINUOUS
10
163.771
20
-91.2662
11
163.75
21
-91.2532
0
LINE
8
BLACK
6
CONTINUOUS
10
163.75
20
-91.2532
11
163.727
21
-91.2445
0
LINE
8
BLACK
6
CONTINUOUS
10
163.727
20
-91.2445
11
163.703
21
-91.2405
0
LINE
8
BLACK
6
CONTINUOUS
10
163.703
20
-91.2405
11
163.679
21
-91.2412
0
LINE
8
BLACK
6
CONTINUOUS
10
163.679
20
-91.2412
11
163.655
21
-91.2467
0
LINE
8
BLACK
6
CONTINUOUS
10
163.655
20
-91.2467
11
163.633
21
-91.2568
0
LINE
8
BLACK
6
CONTINUOUS
10
163.633
20
-91.2568
11
163.606
21
-91.2768
0
LINE
8
BLACK
6
CONTINUOUS
10
163.606
20
-91.2768
11
163.597
21
-91.2859
0
LINE
8
BLACK
6
CONTINUOUS
10
163.597
20
-91.2859
11
163.597
21
-91.2859
0
LINE
8
BLACK
6
CONTINUOUS
10
163.597
20
-91.2859
11
163.532
21
-91.3297
0
LINE
8
BLACK
6
CONTINUOUS
10
163.532
20
-91.3297
11
163.459
21
-91.36
0
LINE
8
BLACK
6
CONTINUOUS
10
163.459
20
-91.36
11
163.407
21
-91.3702
0
LINE
8
BLACK
6
CONTINUOUS
10
163.407
20
-91.3702
11
163.381
21
-91.3754
0
LINE
8
BLACK
6
CONTINUOUS
10
163.381
20
-91.3754
11
163.302
21
-91.3754
0
LINE
8
BLACK
6
CONTINUOUS
10
163.302
20
-91.3754
11
163.276
21
-91.3702
0
LINE
8
BLACK
6
CONTINUOUS
10
163.276
20
-91.3702
11
163.225
21
-91.36
0
LINE
8
BLACK
6
CONTINUOUS
10
163.225
20
-91.36
11
163.152
21
-91.3297
0
LINE
8
BLACK
6
CONTINUOUS
10
163.152
20
-91.3297
11
163.086
21
-91.2859
0
LINE
8
BLACK
6
CONTINUOUS
10
163.086
20
-91.2859
11
163.086
21
-91.2859
0
LINE
8
BLACK
6
CONTINUOUS
10
163.086
20
-91.2859
11
163.03
21
-91.23
0
LINE
8
BLACK
6
CONTINUOUS
10
163.03
20
-91.23
11
162.986
21
-91.1643
0
LINE
8
BLACK
6
CONTINUOUS
10
162.986
20
-91.1643
11
162.956
21
-91.0913
0
LINE
8
BLACK
6
CONTINUOUS
10
162.956
20
-91.0913
11
162.941
21
-91.0139
0
LINE
8
BLACK
6
CONTINUOUS
10
162.941
20
-91.0139
11
162.941
21
-90.9349
0
LINE
8
BLACK
6
CONTINUOUS
10
162.941
20
-90.9349
11
162.956
21
-90.8574
0
LINE
8
BLACK
6
CONTINUOUS
10
162.956
20
-90.8574
11
162.986
21
-90.7844
0
LINE
8
BLACK
6
CONTINUOUS
10
162.986
20
-90.7844
11
163.03
21
-90.7188
0
LINE
8
BLACK
6
CONTINUOUS
10
163.03
20
-90.7188
11
163.03
21
-90.7188
0
LINE
8
BLACK
6
CONTINUOUS
10
163.03
20
-90.7188
11
163.086
21
-90.6629
0
LINE
8
BLACK
6
CONTINUOUS
10
163.086
20
-90.6629
11
163.152
21
-90.619
0
LINE
8
BLACK
6
CONTINUOUS
10
163.152
20
-90.619
11
163.161
21
-90.6151
0
LINE
8
BLACK
6
CONTINUOUS
10
163.161
20
-90.6151
11
163.225
21
-90.5888
0
LINE
8
BLACK
6
CONTINUOUS
10
163.225
20
-90.5888
11
163.276
21
-90.5785
0
LINE
8
BLACK
6
CONTINUOUS
10
163.276
20
-90.5785
11
163.302
21
-90.5734
0
LINE
8
BLACK
6
CONTINUOUS
10
163.302
20
-90.5734
11
163.381
21
-90.5734
0
LINE
8
BLACK
6
CONTINUOUS
10
163.381
20
-90.5734
11
163.459
21
-90.5888
0
LINE
8
BLACK
6
CONTINUOUS
10
163.459
20
-90.5888
11
163.459
21
-90.5888
0
LINE
8
BLACK
6
CONTINUOUS
10
163.459
20
-90.5888
11
163.463
21
-90.5896
0
LINE
8
BLACK
6
CONTINUOUS
10
163.463
20
-90.5896
11
163.487
21
-90.592
0
LINE
8
BLACK
6
CONTINUOUS
10
163.487
20
-90.592
11
163.511
21
-90.5896
0
LINE
8
BLACK
6
CONTINUOUS
10
163.511
20
-90.5896
11
163.535
21
-90.5824
0
LINE
8
BLACK
6
CONTINUOUS
10
163.535
20
-90.5824
11
163.556
21
-90.5709
0
LINE
8
BLACK
6
CONTINUOUS
10
163.556
20
-90.5709
11
163.575
21
-90.5554
0
LINE
8
BLACK
6
CONTINUOUS
10
163.575
20
-90.5554
11
163.591
21
-90.5364
0
LINE
8
BLACK
6
CONTINUOUS
10
163.591
20
-90.5364
11
163.602
21
-90.5148
0
LINE
8
BLACK
6
CONTINUOUS
10
163.602
20
-90.5148
11
163.61
21
-90.4913
0
LINE
8
BLACK
6
CONTINUOUS
10
163.61
20
-90.4913
11
163.612
21
-90.467
0
LINE
8
BLACK
6
CONTINUOUS
10
163.612
20
-90.467
11
163.61
21
-90.4426
0
LINE
8
BLACK
6
CONTINUOUS
10
163.61
20
-90.4426
11
163.602
21
-90.4191
0
LINE
8
BLACK
6
CONTINUOUS
10
163.602
20
-90.4191
11
163.595
21
-90.4047
0
LINE
8
BLACK
6
CONTINUOUS
10
163.595
20
-90.4047
11
163.57
21
-90.3607
0
LINE
8
BLACK
6
CONTINUOUS
10
163.57
20
-90.3607
11
163.542
21
-90.2765
0
LINE
8
BLACK
6
CONTINUOUS
10
163.542
20
-90.2765
11
163.53
21
-90.1884
0
LINE
8
BLACK
6
CONTINUOUS
10
163.53
20
-90.1884
11
163.534
21
-90.1362
0
LINE
8
BLACK
6
CONTINUOUS
10
163.534
20
-90.1362
11
163.533
21
-90.1117
0
LINE
8
BLACK
6
CONTINUOUS
10
163.533
20
-90.1117
11
163.528
21
-90.0878
0
LINE
8
BLACK
6
CONTINUOUS
10
163.528
20
-90.0878
11
163.518
21
-90.0655
0
LINE
8
BLACK
6
CONTINUOUS
10
163.518
20
-90.0655
11
163.503
21
-90.0455
0
LINE
8
BLACK
6
CONTINUOUS
10
163.503
20
-90.0455
11
163.485
21
-90.0287
0
LINE
8
BLACK
6
CONTINUOUS
10
163.485
20
-90.0287
11
163.465
21
-90.0158
0
LINE
8
BLACK
6
CONTINUOUS
10
163.465
20
-90.0158
11
163.442
21
-90.0071
0
LINE
8
BLACK
6
CONTINUOUS
10
163.442
20
-90.0071
11
163.418
21
-90.003
0
LINE
8
BLACK
6
CONTINUOUS
10
163.418
20
-90.003
11
163.393
21
-90.0038
0
LINE
8
BLACK
6
CONTINUOUS
10
163.393
20
-90.0038
11
163.369
21
-90.0093
0
LINE
8
BLACK
6
CONTINUOUS
10
163.369
20
-90.0093
11
163.347
21
-90.0194
0
LINE
8
BLACK
6
CONTINUOUS
10
163.347
20
-90.0194
11
163.321
21
-90.0394
0
LINE
8
BLACK
6
CONTINUOUS
10
163.321
20
-90.0394
11
163.312
21
-90.0484
0
LINE
8
BLACK
6
CONTINUOUS
10
163.312
20
-90.0484
11
163.312
21
-90.0484
0
LINE
8
BLACK
6
CONTINUOUS
10
163.312
20
-90.0484
11
163.246
21
-90.0923
0
LINE
8
BLACK
6
CONTINUOUS
10
163.246
20
-90.0923
11
163.173
21
-90.1225
0
LINE
8
BLACK
6
CONTINUOUS
10
163.173
20
-90.1225
11
163.121
21
-90.1328
0
LINE
8
BLACK
6
CONTINUOUS
10
163.121
20
-90.1328
11
163.096
21
-90.1379
0
LINE
8
BLACK
6
CONTINUOUS
10
163.096
20
-90.1379
11
163.017
21
-90.1379
0
LINE
8
BLACK
6
CONTINUOUS
10
163.017
20
-90.1379
11
162.991
21
-90.1328
0
LINE
8
BLACK
6
CONTINUOUS
10
162.991
20
-90.1328
11
162.939
21
-90.1225
0
LINE
8
BLACK
6
CONTINUOUS
10
162.939
20
-90.1225
11
162.866
21
-90.0923
0
LINE
8
BLACK
6
CONTINUOUS
10
162.866
20
-90.0923
11
162.8
21
-90.0484
0
LINE
8
BLACK
6
CONTINUOUS
10
162.8
20
-90.0484
11
162.8
21
-90.0484
0
LINE
8
BLACK
6
CONTINUOUS
10
162.8
20
-90.0484
11
162.745
21
-89.9926
0
LINE
8
BLACK
6
CONTINUOUS
10
162.745
20
-89.9926
11
162.701
21
-89.9269
0
LINE
8
BLACK
6
CONTINUOUS
10
162.701
20
-89.9269
11
162.67
21
-89.8539
0
LINE
8
BLACK
6
CONTINUOUS
10
162.67
20
-89.8539
11
162.659
21
-89.7981
0
LINE
8
BLACK
6
CONTINUOUS
10
162.659
20
-89.7981
11
162.655
21
-89.7764
0
LINE
8
BLACK
6
CONTINUOUS
10
162.655
20
-89.7764
11
162.655
21
-89.6974
0
LINE
8
BLACK
6
CONTINUOUS
10
162.655
20
-89.6974
11
162.67
21
-89.62
0
LINE
8
BLACK
6
CONTINUOUS
10
162.67
20
-89.62
11
162.67
21
-89.62
0
LINE
8
BLACK
6
CONTINUOUS
10
162.67
20
-89.62
11
162.701
21
-89.547
0
LINE
8
BLACK
6
CONTINUOUS
10
162.701
20
-89.547
11
162.745
21
-89.4813
0
LINE
8
BLACK
6
CONTINUOUS
10
162.745
20
-89.4813
11
162.745
21
-89.4813
0
LINE
8
BLACK
6
CONTINUOUS
10
162.745
20
-89.4813
11
162.8
21
-89.4255
0
LINE
8
BLACK
6
CONTINUOUS
10
162.8
20
-89.4255
11
162.866
21
-89.3816
0
LINE
8
BLACK
6
CONTINUOUS
10
162.866
20
-89.3816
11
162.875
21
-89.3777
0
LINE
8
BLACK
6
CONTINUOUS
10
162.875
20
-89.3777
11
162.939
21
-89.3513
0
LINE
8
BLACK
6
CONTINUOUS
10
162.939
20
-89.3513
11
162.991
21
-89.3411
0
LINE
8
BLACK
6
CONTINUOUS
10
162.991
20
-89.3411
11
163.017
21
-89.3359
0
LINE
8
BLACK
6
CONTINUOUS
10
163.017
20
-89.3359
11
163.096
21
-89.3359
0
LINE
8
BLACK
6
CONTINUOUS
10
163.096
20
-89.3359
11
163.177
21
-89.3521
0
LINE
8
BLACK
6
CONTINUOUS
10
163.177
20
-89.3521
11
163.201
21
-89.3545
0
LINE
8
BLACK
6
CONTINUOUS
10
163.201
20
-89.3545
11
163.226
21
-89.3521
0
LINE
8
BLACK
6
CONTINUOUS
10
163.226
20
-89.3521
11
163.249
21
-89.345
0
LINE
8
BLACK
6
CONTINUOUS
10
163.249
20
-89.345
11
163.271
21
-89.3334
0
LINE
8
BLACK
6
CONTINUOUS
10
163.271
20
-89.3334
11
163.29
21
-89.3179
0
LINE
8
BLACK
6
CONTINUOUS
10
163.29
20
-89.3179
11
163.305
21
-89.299
0
LINE
8
BLACK
6
CONTINUOUS
10
163.305
20
-89.299
11
163.317
21
-89.2773
0
LINE
8
BLACK
6
CONTINUOUS
10
163.317
20
-89.2773
11
163.324
21
-89.2539
0
LINE
8
BLACK
6
CONTINUOUS
10
163.324
20
-89.2539
11
163.326
21
-89.2295
0
LINE
8
BLACK
6
CONTINUOUS
10
163.326
20
-89.2295
11
163.324
21
-89.2051
0
LINE
8
BLACK
6
CONTINUOUS
10
163.324
20
-89.2051
11
163.317
21
-89.1817
0
LINE
8
BLACK
6
CONTINUOUS
10
163.317
20
-89.1817
11
163.31
21
-89.1672
0
LINE
8
BLACK
6
CONTINUOUS
10
163.31
20
-89.1672
11
163.284
21
-89.1233
0
LINE
8
BLACK
6
CONTINUOUS
10
163.284
20
-89.1233
11
163.256
21
-89.0391
0
LINE
8
BLACK
6
CONTINUOUS
10
163.256
20
-89.0391
11
163.245
21
-88.951
0
LINE
8
BLACK
6
CONTINUOUS
10
163.245
20
-88.951
11
163.248
21
-88.8987
0
LINE
8
BLACK
6
CONTINUOUS
10
163.248
20
-88.8987
11
163.247
21
-88.8742
0
LINE
8
BLACK
6
CONTINUOUS
10
163.247
20
-88.8742
11
163.242
21
-88.8504
0
LINE
8
BLACK
6
CONTINUOUS
10
163.242
20
-88.8504
11
163.232
21
-88.828
0
LINE
8
BLACK
6
CONTINUOUS
10
163.232
20
-88.828
11
163.218
21
-88.8081
0
LINE
8
BLACK
6
CONTINUOUS
10
163.218
20
-88.8081
11
163.2
21
-88.7913
0
LINE
8
BLACK
6
CONTINUOUS
10
163.2
20
-88.7913
11
163.179
21
-88.7783
0
LINE
8
BLACK
6
CONTINUOUS
10
163.179
20
-88.7783
11
163.156
21
-88.7696
0
LINE
8
BLACK
6
CONTINUOUS
10
163.156
20
-88.7696
11
163.132
21
-88.7656
0
LINE
8
BLACK
6
CONTINUOUS
10
163.132
20
-88.7656
11
163.107
21
-88.7663
0
LINE
8
BLACK
6
CONTINUOUS
10
163.107
20
-88.7663
11
163.084
21
-88.7718
0
LINE
8
BLACK
6
CONTINUOUS
10
163.084
20
-88.7718
11
163.061
21
-88.7819
0
LINE
8
BLACK
6
CONTINUOUS
10
163.061
20
-88.7819
11
163.035
21
-88.8019
0
LINE
8
BLACK
6
CONTINUOUS
10
163.035
20
-88.8019
11
163.026
21
-88.811
0
LINE
8
BLACK
6
CONTINUOUS
10
163.026
20
-88.811
11
163.026
21
-88.811
0
LINE
8
BLACK
6
CONTINUOUS
10
163.026
20
-88.811
11
162.96
21
-88.8548
0
LINE
8
BLACK
6
CONTINUOUS
10
162.96
20
-88.8548
11
162.887
21
-88.8851
0
LINE
8
BLACK
6
CONTINUOUS
10
162.887
20
-88.8851
11
162.836
21
-88.8953
0
LINE
8
BLACK
6
CONTINUOUS
10
162.836
20
-88.8953
11
162.81
21
-88.9005
0
LINE
8
BLACK
6
CONTINUOUS
10
162.81
20
-88.9005
11
162.731
21
-88.9005
0
LINE
8
BLACK
6
CONTINUOUS
10
162.731
20
-88.9005
11
162.705
21
-88.8953
0
LINE
8
BLACK
6
CONTINUOUS
10
162.705
20
-88.8953
11
162.653
21
-88.8851
0
LINE
8
BLACK
6
CONTINUOUS
10
162.653
20
-88.8851
11
162.58
21
-88.8548
0
LINE
8
BLACK
6
CONTINUOUS
10
162.58
20
-88.8548
11
162.515
21
-88.811
0
LINE
8
BLACK
6
CONTINUOUS
10
162.515
20
-88.811
11
162.515
21
-88.811
0
LINE
8
BLACK
6
CONTINUOUS
10
162.515
20
-88.811
11
162.459
21
-88.7551
0
LINE
8
BLACK
6
CONTINUOUS
10
162.459
20
-88.7551
11
162.415
21
-88.6894
0
LINE
8
BLACK
6
CONTINUOUS
10
162.415
20
-88.6894
11
162.385
21
-88.6164
0
LINE
8
BLACK
6
CONTINUOUS
10
162.385
20
-88.6164
11
162.369
21
-88.539
0
LINE
8
BLACK
6
CONTINUOUS
10
162.369
20
-88.539
11
162.369
21
-88.46
0
LINE
8
BLACK
6
CONTINUOUS
10
162.369
20
-88.46
11
162.385
21
-88.3825
0
LINE
8
BLACK
6
CONTINUOUS
10
162.385
20
-88.3825
11
162.415
21
-88.3095
0
LINE
8
BLACK
6
CONTINUOUS
10
162.415
20
-88.3095
11
162.459
21
-88.2439
0
LINE
8
BLACK
6
CONTINUOUS
10
162.459
20
-88.2439
11
162.459
21
-88.2439
0
LINE
8
BLACK
6
CONTINUOUS
10
162.459
20
-88.2439
11
162.515
21
-88.188
0
LINE
8
BLACK
6
CONTINUOUS
10
162.515
20
-88.188
11
162.58
21
-88.1441
0
LINE
8
BLACK
6
CONTINUOUS
10
162.58
20
-88.1441
11
162.59
21
-88.1402
0
LINE
8
BLACK
6
CONTINUOUS
10
162.59
20
-88.1402
11
162.653
21
-88.1139
0
LINE
8
BLACK
6
CONTINUOUS
10
162.653
20
-88.1139
11
162.705
21
-88.1036
0
LINE
8
BLACK
6
CONTINUOUS
10
162.705
20
-88.1036
11
162.731
21
-88.0985
0
LINE
8
BLACK
6
CONTINUOUS
10
162.731
20
-88.0985
11
162.81
21
-88.0985
0
LINE
8
BLACK
6
CONTINUOUS
10
162.81
20
-88.0985
11
162.891
21
-88.1147
0
LINE
8
BLACK
6
CONTINUOUS
10
162.891
20
-88.1147
11
162.916
21
-88.1171
0
LINE
8
BLACK
6
CONTINUOUS
10
162.916
20
-88.1171
11
162.94
21
-88.1147
0
LINE
8
BLACK
6
CONTINUOUS
10
162.94
20
-88.1147
11
162.963
21
-88.1075
0
LINE
8
BLACK
6
CONTINUOUS
10
162.963
20
-88.1075
11
162.985
21
-88.096
0
LINE
8
BLACK
6
CONTINUOUS
10
162.985
20
-88.096
11
163.004
21
-88.0804
0
LINE
8
BLACK
6
CONTINUOUS
10
163.004
20
-88.0804
11
163.02
21
-88.0615
0
LINE
8
BLACK
6
CONTINUOUS
10
163.02
20
-88.0615
11
163.031
21
-88.0399
0
LINE
8
BLACK
6
CONTINUOUS
10
163.031
20
-88.0399
11
163.038
21
-88.0164
0
LINE
8
BLACK
6
CONTINUOUS
10
163.038
20
-88.0164
11
163.041
21
-87.9921
0
LINE
8
BLACK
6
CONTINUOUS
10
163.041
20
-87.9921
11
163.038
21
-87.9677
0
LINE
8
BLACK
6
CONTINUOUS
10
163.038
20
-87.9677
11
163.031
21
-87.9442
0
LINE
8
BLACK
6
CONTINUOUS
10
163.031
20
-87.9442
11
163.024
21
-87.9298
0
LINE
8
BLACK
6
CONTINUOUS
10
163.024
20
-87.9298
11
162.999
21
-87.8858
0
LINE
8
BLACK
6
CONTINUOUS
10
162.999
20
-87.8858
11
162.97
21
-87.8016
0
LINE
8
BLACK
6
CONTINUOUS
10
162.97
20
-87.8016
11
162.959
21
-87.7135
0
LINE
8
BLACK
6
CONTINUOUS
10
162.959
20
-87.7135
11
162.962
21
-87.6613
0
LINE
8
BLACK
6
CONTINUOUS
10
162.962
20
-87.6613
11
162.962
21
-87.6368
0
LINE
8
BLACK
6
CONTINUOUS
10
162.962
20
-87.6368
11
162.956
21
-87.6129
0
LINE
8
BLACK
6
CONTINUOUS
10
162.956
20
-87.6129
11
162.946
21
-87.5906
0
LINE
8
BLACK
6
CONTINUOUS
10
162.946
20
-87.5906
11
162.932
21
-87.5706
0
LINE
8
BLACK
6
CONTINUOUS
10
162.932
20
-87.5706
11
162.914
21
-87.5538
0
LINE
8
BLACK
6
CONTINUOUS
10
162.914
20
-87.5538
11
162.893
21
-87.5409
0
LINE
8
BLACK
6
CONTINUOUS
10
162.893
20
-87.5409
11
162.87
21
-87.5322
0
LINE
8
BLACK
6
CONTINUOUS
10
162.87
20
-87.5322
11
162.846
21
-87.5281
0
LINE
8
BLACK
6
CONTINUOUS
10
162.846
20
-87.5281
11
162.822
21
-87.5289
0
LINE
8
BLACK
6
CONTINUOUS
10
162.822
20
-87.5289
11
162.798
21
-87.5344
0
LINE
8
BLACK
6
CONTINUOUS
10
162.798
20
-87.5344
11
162.775
21
-87.5445
0
LINE
8
BLACK
6
CONTINUOUS
10
162.775
20
-87.5445
11
162.749
21
-87.5645
0
LINE
8
BLACK
6
CONTINUOUS
10
162.749
20
-87.5645
11
162.74
21
-87.5735
0
LINE
8
BLACK
6
CONTINUOUS
10
162.74
20
-87.5735
11
162.74
21
-87.5735
0
LINE
8
BLACK
6
CONTINUOUS
10
162.74
20
-87.5735
11
162.675
21
-87.6174
0
LINE
8
BLACK
6
CONTINUOUS
10
162.675
20
-87.6174
11
162.602
21
-87.6476
0
LINE
8
BLACK
6
CONTINUOUS
10
162.602
20
-87.6476
11
162.55
21
-87.6579
0
LINE
8
BLACK
6
CONTINUOUS
10
162.55
20
-87.6579
11
162.524
21
-87.663
0
LINE
8
BLACK
6
CONTINUOUS
10
162.524
20
-87.663
11
162.445
21
-87.663
0
LINE
8
BLACK
6
CONTINUOUS
10
162.445
20
-87.663
11
162.419
21
-87.6579
0
LINE
8
BLACK
6
CONTINUOUS
10
162.419
20
-87.6579
11
162.368
21
-87.6476
0
LINE
8
BLACK
6
CONTINUOUS
10
162.368
20
-87.6476
11
162.295
21
-87.6174
0
LINE
8
BLACK
6
CONTINUOUS
10
162.295
20
-87.6174
11
162.229
21
-87.5735
0
LINE
8
BLACK
6
CONTINUOUS
10
162.229
20
-87.5735
11
162.229
21
-87.5735
0
LINE
8
BLACK
6
CONTINUOUS
10
162.229
20
-87.5735
11
162.173
21
-87.5177
0
LINE
8
BLACK
6
CONTINUOUS
10
162.173
20
-87.5177
11
162.129
21
-87.452
0
LINE
8
BLACK
6
CONTINUOUS
10
162.129
20
-87.452
11
162.099
21
-87.379
0
LINE
8
BLACK
6
CONTINUOUS
10
162.099
20
-87.379
11
162.084
21
-87.3015
0
LINE
8
BLACK
6
CONTINUOUS
10
162.084
20
-87.3015
11
162.084
21
-87.2225
0
LINE
8
BLACK
6
CONTINUOUS
10
162.084
20
-87.2225
11
162.099
21
-87.1451
0
LINE
8
BLACK
6
CONTINUOUS
10
162.099
20
-87.1451
11
162.129
21
-87.0721
0
LINE
8
BLACK
6
CONTINUOUS
10
162.129
20
-87.0721
11
162.173
21
-87.0064
0
LINE
8
BLACK
6
CONTINUOUS
10
162.173
20
-87.0064
11
162.173
21
-87.0064
0
LINE
8
BLACK
6
CONTINUOUS
10
162.173
20
-87.0064
11
162.229
21
-86.9506
0
LINE
8
BLACK
6
CONTINUOUS
10
162.229
20
-86.9506
11
162.295
21
-86.9067
0
LINE
8
BLACK
6
CONTINUOUS
10
162.295
20
-86.9067
11
162.368
21
-86.8764
0
LINE
8
BLACK
6
CONTINUOUS
10
162.368
20
-86.8764
11
162.419
21
-86.8662
0
LINE
8
BLACK
6
CONTINUOUS
10
162.419
20
-86.8662
11
162.445
21
-86.861
0
LINE
8
BLACK
6
CONTINUOUS
10
162.445
20
-86.861
11
162.524
21
-86.861
0
LINE
8
BLACK
6
CONTINUOUS
10
162.524
20
-86.861
11
162.55
21
-86.8662
0
LINE
8
BLACK
6
CONTINUOUS
10
149.454
20
-88.0081
11
149.485
21
-88.0174
0
LINE
8
BLACK
6
CONTINUOUS
10
149.485
20
-88.0174
11
149.513
21
-88.0324
0
LINE
8
BLACK
6
CONTINUOUS
10
149.513
20
-88.0324
11
149.537
21
-88.0526
0
LINE
8
BLACK
6
CONTINUOUS
10
149.537
20
-88.0526
11
149.558
21
-88.0772
0
LINE
8
BLACK
6
CONTINUOUS
10
149.558
20
-88.0772
11
149.573
21
-88.1053
0
LINE
8
BLACK
6
CONTINUOUS
10
149.573
20
-88.1053
11
149.582
21
-88.1357
0
LINE
8
BLACK
6
CONTINUOUS
10
149.582
20
-88.1357
11
149.586
21
-88.1735
0
LINE
8
BLACK
6
CONTINUOUS
10
149.586
20
-88.1735
11
149.586
21
-89.7373
0
LINE
8
BLACK
6
CONTINUOUS
10
149.586
20
-89.7373
11
149.582
21
-89.7751
0
LINE
8
BLACK
6
CONTINUOUS
10
149.582
20
-89.7751
11
149.573
21
-89.8055
0
LINE
8
BLACK
6
CONTINUOUS
10
149.573
20
-89.8055
11
149.558
21
-89.8336
0
LINE
8
BLACK
6
CONTINUOUS
10
149.558
20
-89.8336
11
149.537
21
-89.8582
0
LINE
8
BLACK
6
CONTINUOUS
10
149.537
20
-89.8582
11
149.513
21
-89.8784
0
LINE
8
BLACK
6
CONTINUOUS
10
149.513
20
-89.8784
11
149.485
21
-89.8934
0
LINE
8
BLACK
6
CONTINUOUS
10
149.485
20
-89.8934
11
149.454
21
-89.9027
0
LINE
8
BLACK
6
CONTINUOUS
10
149.454
20
-89.9027
11
149.416
21
-89.9064
0
LINE
8
BLACK
6
CONTINUOUS
10
149.416
20
-89.9064
11
148.853
21
-89.9064
0
LINE
8
BLACK
6
CONTINUOUS
10
148.853
20
-89.9064
11
148.815
21
-89.9027
0
LINE
8
BLACK
6
CONTINUOUS
10
148.815
20
-89.9027
11
148.784
21
-89.8934
0
LINE
8
BLACK
6
CONTINUOUS
10
148.784
20
-89.8934
11
148.756
21
-89.8784
0
LINE
8
BLACK
6
CONTINUOUS
10
148.756
20
-89.8784
11
148.732
21
-89.8582
0
LINE
8
BLACK
6
CONTINUOUS
10
148.732
20
-89.8582
11
148.712
21
-89.8336
0
LINE
8
BLACK
6
CONTINUOUS
10
148.712
20
-89.8336
11
148.697
21
-89.8055
0
LINE
8
BLACK
6
CONTINUOUS
10
148.697
20
-89.8055
11
148.687
21
-89.7751
0
LINE
8
BLACK
6
CONTINUOUS
10
148.687
20
-89.7751
11
148.684
21
-89.7373
0
LINE
8
BLACK
6
CONTINUOUS
10
148.684
20
-89.7373
11
148.684
21
-88.1735
0
LINE
8
BLACK
6
CONTINUOUS
10
148.684
20
-88.1735
11
148.687
21
-88.1357
0
LINE
8
BLACK
6
CONTINUOUS
10
148.687
20
-88.1357
11
148.697
21
-88.1053
0
LINE
8
BLACK
6
CONTINUOUS
10
148.697
20
-88.1053
11
148.712
21
-88.0772
0
LINE
8
BLACK
6
CONTINUOUS
10
148.712
20
-88.0772
11
148.732
21
-88.0526
0
LINE
8
BLACK
6
CONTINUOUS
10
148.732
20
-88.0526
11
148.756
21
-88.0324
0
LINE
8
BLACK
6
CONTINUOUS
10
148.756
20
-88.0324
11
148.784
21
-88.0174
0
LINE
8
BLACK
6
CONTINUOUS
10
148.784
20
-88.0174
11
148.815
21
-88.0081
0
LINE
8
BLACK
6
CONTINUOUS
10
148.815
20
-88.0081
11
148.853
21
-88.0044
0
LINE
8
BLACK
6
CONTINUOUS
10
148.853
20
-88.0044
11
149.416
21
-88.0044
0
LINE
8
BLACK
6
CONTINUOUS
10
149.416
20
-88.0044
11
149.454
21
-88.0081
0
LINE
8
BLACK
6
CONTINUOUS
10
150.31
20
-88.0062
11
150.321
21
-88.0098
0
LINE
8
BLACK
6
CONTINUOUS
10
150.321
20
-88.0098
11
150.332
21
-88.0155
0
LINE
8
BLACK
6
CONTINUOUS
10
150.332
20
-88.0155
11
150.342
21
-88.0233
0
LINE
8
BLACK
6
CONTINUOUS
10
150.342
20
-88.0233
11
150.349
21
-88.0327
0
LINE
8
BLACK
6
CONTINUOUS
10
150.349
20
-88.0327
11
150.355
21
-88.0435
0
LINE
8
BLACK
6
CONTINUOUS
10
150.355
20
-88.0435
11
150.359
21
-88.0552
0
LINE
8
BLACK
6
CONTINUOUS
10
150.359
20
-88.0552
11
150.361
21
-88.0735
0
LINE
8
BLACK
6
CONTINUOUS
10
150.361
20
-88.0735
11
150.361
21
-89.8373
0
LINE
8
BLACK
6
CONTINUOUS
10
150.361
20
-89.8373
11
150.359
21
-89.8556
0
LINE
8
BLACK
6
CONTINUOUS
10
150.359
20
-89.8556
11
150.355
21
-89.8673
0
LINE
8
BLACK
6
CONTINUOUS
10
150.355
20
-89.8673
11
150.349
21
-89.8781
0
LINE
8
BLACK
6
CONTINUOUS
10
150.349
20
-89.8781
11
150.342
21
-89.8875
0
LINE
8
BLACK
6
CONTINUOUS
10
150.342
20
-89.8875
11
150.332
21
-89.8953
0
LINE
8
BLACK
6
CONTINUOUS
10
150.332
20
-89.8953
11
150.321
21
-89.901
0
LINE
8
BLACK
6
CONTINUOUS
10
150.321
20
-89.901
11
150.31
21
-89.9046
0
LINE
8
BLACK
6
CONTINUOUS
10
150.31
20
-89.9046
11
150.291
21
-89.9064
0
LINE
8
BLACK
6
CONTINUOUS
10
150.291
20
-89.9064
11
149.928
21
-89.9064
0
LINE
8
BLACK
6
CONTINUOUS
10
149.928
20
-89.9064
11
149.909
21
-89.9046
0
LINE
8
BLACK
6
CONTINUOUS
10
149.909
20
-89.9046
11
149.898
21
-89.901
0
LINE
8
BLACK
6
CONTINUOUS
10
149.898
20
-89.901
11
149.887
21
-89.8953
0
LINE
8
BLACK
6
CONTINUOUS
10
149.887
20
-89.8953
11
149.877
21
-89.8875
0
LINE
8
BLACK
6
CONTINUOUS
10
149.877
20
-89.8875
11
149.87
21
-89.8781
0
LINE
8
BLACK
6
CONTINUOUS
10
149.87
20
-89.8781
11
149.864
21
-89.8673
0
LINE
8
BLACK
6
CONTINUOUS
10
149.864
20
-89.8673
11
149.86
21
-89.8556
0
LINE
8
BLACK
6
CONTINUOUS
10
149.86
20
-89.8556
11
149.859
21
-89.8373
0
LINE
8
BLACK
6
CONTINUOUS
10
149.859
20
-89.8373
11
149.859
21
-88.0735
0
LINE
8
BLACK
6
CONTINUOUS
10
149.859
20
-88.0735
11
149.86
21
-88.0552
0
LINE
8
BLACK
6
CONTINUOUS
10
149.86
20
-88.0552
11
149.864
21
-88.0435
0
LINE
8
BLACK
6
CONTINUOUS
10
149.864
20
-88.0435
11
149.87
21
-88.0327
0
LINE
8
BLACK
6
CONTINUOUS
10
149.87
20
-88.0327
11
149.877
21
-88.0233
0
LINE
8
BLACK
6
CONTINUOUS
10
149.877
20
-88.0233
11
149.887
21
-88.0155
0
LINE
8
BLACK
6
CONTINUOUS
10
149.887
20
-88.0155
11
149.898
21
-88.0098
0
LINE
8
BLACK
6
CONTINUOUS
10
149.898
20
-88.0098
11
149.909
21
-88.0062
0
LINE
8
BLACK
6
CONTINUOUS
10
149.909
20
-88.0062
11
149.928
21
-88.0044
0
LINE
8
BLACK
6
CONTINUOUS
10
149.928
20
-88.0044
11
150.291
21
-88.0044
0
LINE
8
BLACK
6
CONTINUOUS
10
150.291
20
-88.0044
11
150.31
21
-88.0062
0
LINE
8
BLACK
6
CONTINUOUS
10
151.245
20
-88.0072
11
151.266
21
-88.0136
0
LINE
8
BLACK
6
CONTINUOUS
10
151.266
20
-88.0136
11
151.285
21
-88.0239
0
LINE
8
BLACK
6
CONTINUOUS
10
151.285
20
-88.0239
11
151.302
21
-88.0379
0
LINE
8
BLACK
6
CONTINUOUS
10
151.302
20
-88.0379
11
151.316
21
-88.055
0
LINE
8
BLACK
6
CONTINUOUS
10
151.316
20
-88.055
11
151.326
21
-88.0744
0
LINE
8
BLACK
6
CONTINUOUS
10
151.326
20
-88.0744
11
151.333
21
-88.0955
0
LINE
8
BLACK
6
CONTINUOUS
10
151.333
20
-88.0955
11
151.336
21
-88.1235
0
LINE
8
BLACK
6
CONTINUOUS
10
151.336
20
-88.1235
11
151.336
21
-89.7873
0
LINE
8
BLACK
6
CONTINUOUS
10
151.336
20
-89.7873
11
151.333
21
-89.8153
0
LINE
8
BLACK
6
CONTINUOUS
10
151.333
20
-89.8153
11
151.326
21
-89.8364
0
LINE
8
BLACK
6
CONTINUOUS
10
151.326
20
-89.8364
11
151.316
21
-89.8558
0
LINE
8
BLACK
6
CONTINUOUS
10
151.316
20
-89.8558
11
151.302
21
-89.8729
0
LINE
8
BLACK
6
CONTINUOUS
10
151.302
20
-89.8729
11
151.285
21
-89.8869
0
LINE
8
BLACK
6
CONTINUOUS
10
151.285
20
-89.8869
11
151.266
21
-89.8972
0
LINE
8
BLACK
6
CONTINUOUS
10
151.266
20
-89.8972
11
151.245
21
-89.9036
0
LINE
8
BLACK
6
CONTINUOUS
10
151.245
20
-89.9036
11
151.216
21
-89.9064
0
LINE
8
BLACK
6
CONTINUOUS
10
151.216
20
-89.9064
11
150.753
21
-89.9064
0
LINE
8
BLACK
6
CONTINUOUS
10
150.753
20
-89.9064
11
150.725
21
-89.9036
0
LINE
8
BLACK
6
CONTINUOUS
10
150.725
20
-89.9036
11
150.704
21
-89.8972
0
LINE
8
BLACK
6
CONTINUOUS
10
150.704
20
-89.8972
11
150.684
21
-89.8869
0
LINE
8
BLACK
6
CONTINUOUS
10
150.684
20
-89.8869
11
150.667
21
-89.8729
0
LINE
8
BLACK
6
CONTINUOUS
10
150.667
20
-89.8729
11
150.653
21
-89.8558
0
LINE
8
BLACK
6
CONTINUOUS
10
150.653
20
-89.8558
11
150.643
21
-89.8364
0
LINE
8
BLACK
6
CONTINUOUS
10
150.643
20
-89.8364
11
150.636
21
-89.8153
0
LINE
8
BLACK
6
CONTINUOUS
10
150.636
20
-89.8153
11
150.634
21
-89.7873
0
LINE
8
BLACK
6
CONTINUOUS
10
150.634
20
-89.7873
11
150.634
21
-88.1235
0
LINE
8
BLACK
6
CONTINUOUS
10
150.634
20
-88.1235
11
150.636
21
-88.0955
0
LINE
8
BLACK
6
CONTINUOUS
10
150.636
20
-88.0955
11
150.643
21
-88.0744
0
LINE
8
BLACK
6
CONTINUOUS
10
150.643
20
-88.0744
11
150.653
21
-88.055
0
LINE
8
BLACK
6
CONTINUOUS
10
150.653
20
-88.055
11
150.667
21
-88.0379
0
LINE
8
BLACK
6
CONTINUOUS
10
150.667
20
-88.0379
11
150.684
21
-88.0239
0
LINE
8
BLACK
6
CONTINUOUS
10
150.684
20
-88.0239
11
150.704
21
-88.0136
0
LINE
8
BLACK
6
CONTINUOUS
10
150.704
20
-88.0136
11
150.725
21
-88.0072
0
LINE
8
BLACK
6
CONTINUOUS
10
150.725
20
-88.0072
11
150.753
21
-88.0044
0
LINE
8
BLACK
6
CONTINUOUS
10
150.753
20
-88.0044
11
151.216
21
-88.0044
0
LINE
8
BLACK
6
CONTINUOUS
10
151.216
20
-88.0044
11
151.245
21
-88.0072
0
LINE
8
BLACK
6
CONTINUOUS
10
145.304
20
-88.0081
11
145.335
21
-88.0174
0
LINE
8
BLACK
6
CONTINUOUS
10
145.335
20
-88.0174
11
145.363
21
-88.0324
0
LINE
8
BLACK
6
CONTINUOUS
10
145.363
20
-88.0324
11
145.387
21
-88.0526
0
LINE
8
BLACK
6
CONTINUOUS
10
145.387
20
-88.0526
11
145.408
21
-88.0772
0
LINE
8
BLACK
6
CONTINUOUS
10
145.408
20
-88.0772
11
145.423
21
-88.1053
0
LINE
8
BLACK
6
CONTINUOUS
10
145.423
20
-88.1053
11
145.432
21
-88.1357
0
LINE
8
BLACK
6
CONTINUOUS
10
145.432
20
-88.1357
11
145.436
21
-88.1735
0
LINE
8
BLACK
6
CONTINUOUS
10
145.436
20
-88.1735
11
145.436
21
-89.7373
0
LINE
8
BLACK
6
CONTINUOUS
10
145.436
20
-89.7373
11
145.432
21
-89.7751
0
LINE
8
BLACK
6
CONTINUOUS
10
145.432
20
-89.7751
11
145.423
21
-89.8055
0
LINE
8
BLACK
6
CONTINUOUS
10
145.423
20
-89.8055
11
145.408
21
-89.8336
0
LINE
8
BLACK
6
CONTINUOUS
10
145.408
20
-89.8336
11
145.387
21
-89.8582
0
LINE
8
BLACK
6
CONTINUOUS
10
145.387
20
-89.8582
11
145.363
21
-89.8784
0
LINE
8
BLACK
6
CONTINUOUS
10
145.363
20
-89.8784
11
145.335
21
-89.8934
0
LINE
8
BLACK
6
CONTINUOUS
10
145.335
20
-89.8934
11
145.304
21
-89.9027
0
LINE
8
BLACK
6
CONTINUOUS
10
145.304
20
-89.9027
11
145.266
21
-89.9064
0
LINE
8
BLACK
6
CONTINUOUS
10
145.266
20
-89.9064
11
144.703
21
-89.9064
0
LINE
8
BLACK
6
CONTINUOUS
10
144.703
20
-89.9064
11
144.665
21
-89.9027
0
LINE
8
BLACK
6
CONTINUOUS
10
144.665
20
-89.9027
11
144.634
21
-89.8934
0
LINE
8
BLACK
6
CONTINUOUS
10
144.634
20
-89.8934
11
144.606
21
-89.8784
0
LINE
8
BLACK
6
CONTINUOUS
10
144.606
20
-89.8784
11
144.582
21
-89.8582
0
LINE
8
BLACK
6
CONTINUOUS
10
144.582
20
-89.8582
11
144.562
21
-89.8336
0
LINE
8
BLACK
6
CONTINUOUS
10
144.562
20
-89.8336
11
144.547
21
-89.8055
0
LINE
8
BLACK
6
CONTINUOUS
10
144.547
20
-89.8055
11
144.537
21
-89.7751
0
LINE
8
BLACK
6
CONTINUOUS
10
144.537
20
-89.7751
11
144.534
21
-89.7373
0
LINE
8
BLACK
6
CONTINUOUS
10
144.534
20
-89.7373
11
144.534
21
-88.1735
0
LINE
8
BLACK
6
CONTINUOUS
10
144.534
20
-88.1735
11
144.537
21
-88.1357
0
LINE
8
BLACK
6
CONTINUOUS
10
144.537
20
-88.1357
11
144.547
21
-88.1053
0
LINE
8
BLACK
6
CONTINUOUS
10
144.547
20
-88.1053
11
144.562
21
-88.0772
0
LINE
8
BLACK
6
CONTINUOUS
10
144.562
20
-88.0772
11
144.582
21
-88.0526
0
LINE
8
BLACK
6
CONTINUOUS
10
144.582
20
-88.0526
11
144.606
21
-88.0324
0
LINE
8
BLACK
6
CONTINUOUS
10
144.606
20
-88.0324
11
144.634
21
-88.0174
0
LINE
8
BLACK
6
CONTINUOUS
10
144.634
20
-88.0174
11
144.665
21
-88.0081
0
LINE
8
BLACK
6
CONTINUOUS
10
144.665
20
-88.0081
11
144.703
21
-88.0044
0
LINE
8
BLACK
6
CONTINUOUS
10
144.703
20
-88.0044
11
145.266
21
-88.0044
0
LINE
8
BLACK
6
CONTINUOUS
10
145.266
20
-88.0044
11
145.304
21
-88.0081
0
LINE
8
BLACK
6
CONTINUOUS
10
147.095
20
-88.0072
11
147.116
21
-88.0136
0
LINE
8
BLACK
6
CONTINUOUS
10
147.116
20
-88.0136
11
147.135
21
-88.0239
0
LINE
8
BLACK
6
CONTINUOUS
10
147.135
20
-88.0239
11
147.152
21
-88.0379
0
LINE
8
BLACK
6
CONTINUOUS
10
147.152
20
-88.0379
11
147.166
21
-88.055
0
LINE
8
BLACK
6
CONTINUOUS
10
147.166
20
-88.055
11
147.176
21
-88.0744
0
LINE
8
BLACK
6
CONTINUOUS
10
147.176
20
-88.0744
11
147.183
21
-88.0955
0
LINE
8
BLACK
6
CONTINUOUS
10
147.183
20
-88.0955
11
147.186
21
-88.1235
0
LINE
8
BLACK
6
CONTINUOUS
10
147.186
20
-88.1235
11
147.186
21
-89.7873
0
LINE
8
BLACK
6
CONTINUOUS
10
147.186
20
-89.7873
11
147.183
21
-89.8153
0
LINE
8
BLACK
6
CONTINUOUS
10
147.183
20
-89.8153
11
147.176
21
-89.8364
0
LINE
8
BLACK
6
CONTINUOUS
10
147.176
20
-89.8364
11
147.166
21
-89.8558
0
LINE
8
BLACK
6
CONTINUOUS
10
147.166
20
-89.8558
11
147.152
21
-89.8729
0
LINE
8
BLACK
6
CONTINUOUS
10
147.152
20
-89.8729
11
147.135
21
-89.8869
0
LINE
8
BLACK
6
CONTINUOUS
10
147.135
20
-89.8869
11
147.116
21
-89.8972
0
LINE
8
BLACK
6
CONTINUOUS
10
147.116
20
-89.8972
11
147.095
21
-89.9036
0
LINE
8
BLACK
6
CONTINUOUS
10
147.095
20
-89.9036
11
147.066
21
-89.9064
0
LINE
8
BLACK
6
CONTINUOUS
10
147.066
20
-89.9064
11
146.603
21
-89.9064
0
LINE
8
BLACK
6
CONTINUOUS
10
146.603
20
-89.9064
11
146.575
21
-89.9036
0
LINE
8
BLACK
6
CONTINUOUS
10
146.575
20
-89.9036
11
146.554
21
-89.8972
0
LINE
8
BLACK
6
CONTINUOUS
10
146.554
20
-89.8972
11
146.534
21
-89.8869
0
LINE
8
BLACK
6
CONTINUOUS
10
146.534
20
-89.8869
11
146.517
21
-89.8729
0
LINE
8
BLACK
6
CONTINUOUS
10
146.517
20
-89.8729
11
146.503
21
-89.8558
0
LINE
8
BLACK
6
CONTINUOUS
10
146.503
20
-89.8558
11
146.493
21
-89.8364
0
LINE
8
BLACK
6
CONTINUOUS
10
146.493
20
-89.8364
11
146.486
21
-89.8153
0
LINE
8
BLACK
6
CONTINUOUS
10
146.486
20
-89.8153
11
146.484
21
-89.7873
0
LINE
8
BLACK
6
CONTINUOUS
10
146.484
20
-89.7873
11
146.484
21
-88.1235
0
LINE
8
BLACK
6
CONTINUOUS
10
146.484
20
-88.1235
11
146.486
21
-88.0955
0
LINE
8
BLACK
6
CONTINUOUS
10
146.486
20
-88.0955
11
146.493
21
-88.0744
0
LINE
8
BLACK
6
CONTINUOUS
10
146.493
20
-88.0744
11
146.503
21
-88.055
0
LINE
8
BLACK
6
CONTINUOUS
10
146.503
20
-88.055
11
146.517
21
-88.0379
0
LINE
8
BLACK
6
CONTINUOUS
10
146.517
20
-88.0379
11
146.534
21
-88.0239
0
LINE
8
BLACK
6
CONTINUOUS
10
146.534
20
-88.0239
11
146.554
21
-88.0136
0
LINE
8
BLACK
6
CONTINUOUS
10
146.554
20
-88.0136
11
146.575
21
-88.0072
0
LINE
8
BLACK
6
CONTINUOUS
10
146.575
20
-88.0072
11
146.603
21
-88.0044
0
LINE
8
BLACK
6
CONTINUOUS
10
146.603
20
-88.0044
11
147.066
21
-88.0044
0
LINE
8
BLACK
6
CONTINUOUS
10
147.066
20
-88.0044
11
147.095
21
-88.0072
0
LINE
8
BLACK
6
CONTINUOUS
10
146.16
20
-88.0062
11
146.171
21
-88.0098
0
LINE
8
BLACK
6
CONTINUOUS
10
146.171
20
-88.0098
11
146.182
21
-88.0155
0
LINE
8
BLACK
6
CONTINUOUS
10
146.182
20
-88.0155
11
146.192
21
-88.0233
0
LINE
8
BLACK
6
CONTINUOUS
10
146.192
20
-88.0233
11
146.199
21
-88.0327
0
LINE
8
BLACK
6
CONTINUOUS
10
146.199
20
-88.0327
11
146.205
21
-88.0435
0
LINE
8
BLACK
6
CONTINUOUS
10
146.205
20
-88.0435
11
146.209
21
-88.0552
0
LINE
8
BLACK
6
CONTINUOUS
10
146.209
20
-88.0552
11
146.211
21
-88.0735
0
LINE
8
BLACK
6
CONTINUOUS
10
146.211
20
-88.0735
11
146.211
21
-89.8373
0
LINE
8
BLACK
6
CONTINUOUS
10
146.211
20
-89.8373
11
146.209
21
-89.8556
0
LINE
8
BLACK
6
CONTINUOUS
10
146.209
20
-89.8556
11
146.205
21
-89.8673
0
LINE
8
BLACK
6
CONTINUOUS
10
146.205
20
-89.8673
11
146.199
21
-89.8781
0
LINE
8
BLACK
6
CONTINUOUS
10
146.199
20
-89.8781
11
146.192
21
-89.8875
0
LINE
8
BLACK
6
CONTINUOUS
10
146.192
20
-89.8875
11
146.182
21
-89.8953
0
LINE
8
BLACK
6
CONTINUOUS
10
146.182
20
-89.8953
11
146.171
21
-89.901
0
LINE
8
BLACK
6
CONTINUOUS
10
146.171
20
-89.901
11
146.16
21
-89.9046
0
LINE
8
BLACK
6
CONTINUOUS
10
146.16
20
-89.9046
11
146.141
21
-89.9064
0
LINE
8
BLACK
6
CONTINUOUS
10
146.141
20
-89.9064
11
145.778
21
-89.9064
0
LINE
8
BLACK
6
CONTINUOUS
10
145.778
20
-89.9064
11
145.759
21
-89.9046
0
LINE
8
BLACK
6
CONTINUOUS
10
145.759
20
-89.9046
11
145.748
21
-89.901
0
LINE
8
BLACK
6
CONTINUOUS
10
145.748
20
-89.901
11
145.737
21
-89.8953
0
LINE
8
BLACK
6
CONTINUOUS
10
145.737
20
-89.8953
11
145.727
21
-89.8875
0
LINE
8
BLACK
6
CONTINUOUS
10
145.727
20
-89.8875
11
145.72
21
-89.8781
0
LINE
8
BLACK
6
CONTINUOUS
10
145.72
20
-89.8781
11
145.714
21
-89.8673
0
LINE
8
BLACK
6
CONTINUOUS
10
145.714
20
-89.8673
11
145.71
21
-89.8556
0
LINE
8
BLACK
6
CONTINUOUS
10
145.71
20
-89.8556
11
145.709
21
-89.8373
0
LINE
8
BLACK
6
CONTINUOUS
10
145.709
20
-89.8373
11
145.709
21
-88.0735
0
LINE
8
BLACK
6
CONTINUOUS
10
145.709
20
-88.0735
11
145.71
21
-88.0552
0
LINE
8
BLACK
6
CONTINUOUS
10
145.71
20
-88.0552
11
145.714
21
-88.0435
0
LINE
8
BLACK
6
CONTINUOUS
10
145.714
20
-88.0435
11
145.72
21
-88.0327
0
LINE
8
BLACK
6
CONTINUOUS
10
145.72
20
-88.0327
11
145.727
21
-88.0233
0
LINE
8
BLACK
6
CONTINUOUS
10
145.727
20
-88.0233
11
145.737
21
-88.0155
0
LINE
8
BLACK
6
CONTINUOUS
10
145.737
20
-88.0155
11
145.748
21
-88.0098
0
LINE
8
BLACK
6
CONTINUOUS
10
145.748
20
-88.0098
11
145.759
21
-88.0062
0
LINE
8
BLACK
6
CONTINUOUS
10
145.759
20
-88.0062
11
145.778
21
-88.0044
0
LINE
8
BLACK
6
CONTINUOUS
10
145.778
20
-88.0044
11
146.141
21
-88.0044
0
LINE
8
BLACK
6
CONTINUOUS
10
146.141
20
-88.0044
11
146.16
21
-88.0062
0
LINE
8
BLACK
6
CONTINUOUS
10
152.429
20
-88.0081
11
152.46
21
-88.0174
0
LINE
8
BLACK
6
CONTINUOUS
10
152.46
20
-88.0174
11
152.488
21
-88.0324
0
LINE
8
BLACK
6
CONTINUOUS
10
152.488
20
-88.0324
11
152.512
21
-88.0526
0
LINE
8
BLACK
6
CONTINUOUS
10
152.512
20
-88.0526
11
152.533
21
-88.0772
0
LINE
8
BLACK
6
CONTINUOUS
10
152.533
20
-88.0772
11
152.548
21
-88.1053
0
LINE
8
BLACK
6
CONTINUOUS
10
152.548
20
-88.1053
11
152.557
21
-88.1357
0
LINE
8
BLACK
6
CONTINUOUS
10
152.557
20
-88.1357
11
152.561
21
-88.1735
0
LINE
8
BLACK
6
CONTINUOUS
10
152.561
20
-88.1735
11
152.561
21
-89.7373
0
LINE
8
BLACK
6
CONTINUOUS
10
152.561
20
-89.7373
11
152.557
21
-89.7751
0
LINE
8
BLACK
6
CONTINUOUS
10
152.557
20
-89.7751
11
152.548
21
-89.8055
0
LINE
8
BLACK
6
CONTINUOUS
10
152.548
20
-89.8055
11
152.533
21
-89.8336
0
LINE
8
BLACK
6
CONTINUOUS
10
152.533
20
-89.8336
11
152.512
21
-89.8582
0
LINE
8
BLACK
6
CONTINUOUS
10
152.512
20
-89.8582
11
152.488
21
-89.8784
0
LINE
8
BLACK
6
CONTINUOUS
10
152.488
20
-89.8784
11
152.46
21
-89.8934
0
LINE
8
BLACK
6
CONTINUOUS
10
152.46
20
-89.8934
11
152.429
21
-89.9027
0
LINE
8
BLACK
6
CONTINUOUS
10
152.429
20
-89.9027
11
152.391
21
-89.9064
0
LINE
8
BLACK
6
CONTINUOUS
10
152.391
20
-89.9064
11
151.828
21
-89.9064
0
LINE
8
BLACK
6
CONTINUOUS
10
151.828
20
-89.9064
11
151.79
21
-89.9027
0
LINE
8
BLACK
6
CONTINUOUS
10
151.79
20
-89.9027
11
151.759
21
-89.8934
0
LINE
8
BLACK
6
CONTINUOUS
10
151.759
20
-89.8934
11
151.731
21
-89.8784
0
LINE
8
BLACK
6
CONTINUOUS
10
151.731
20
-89.8784
11
151.707
21
-89.8582
0
LINE
8
BLACK
6
CONTINUOUS
10
151.707
20
-89.8582
11
151.687
21
-89.8336
0
LINE
8
BLACK
6
CONTINUOUS
10
151.687
20
-89.8336
11
151.672
21
-89.8055
0
LINE
8
BLACK
6
CONTINUOUS
10
151.672
20
-89.8055
11
151.662
21
-89.7751
0
LINE
8
BLACK
6
CONTINUOUS
10
151.662
20
-89.7751
11
151.659
21
-89.7373
0
LINE
8
BLACK
6
CONTINUOUS
10
151.659
20
-89.7373
11
151.659
21
-88.1735
0
LINE
8
BLACK
6
CONTINUOUS
10
151.659
20
-88.1735
11
151.662
21
-88.1357
0
LINE
8
BLACK
6
CONTINUOUS
10
151.662
20
-88.1357
11
151.672
21
-88.1053
0
LINE
8
BLACK
6
CONTINUOUS
10
151.672
20
-88.1053
11
151.687
21
-88.0772
0
LINE
8
BLACK
6
CONTINUOUS
10
151.687
20
-88.0772
11
151.707
21
-88.0526
0
LINE
8
BLACK
6
CONTINUOUS
10
151.707
20
-88.0526
11
151.731
21
-88.0324
0
LINE
8
BLACK
6
CONTINUOUS
10
151.731
20
-88.0324
11
151.759
21
-88.0174
0
LINE
8
BLACK
6
CONTINUOUS
10
151.759
20
-88.0174
11
151.79
21
-88.0081
0
LINE
8
BLACK
6
CONTINUOUS
10
151.79
20
-88.0081
11
151.828
21
-88.0044
0
LINE
8
BLACK
6
CONTINUOUS
10
151.828
20
-88.0044
11
152.391
21
-88.0044
0
LINE
8
BLACK
6
CONTINUOUS
10
152.391
20
-88.0044
11
152.429
21
-88.0081
0
LINE
8
BLACK
6
CONTINUOUS
10
148.279
20
-88.0081
11
148.31
21
-88.0174
0
LINE
8
BLACK
6
CONTINUOUS
10
148.31
20
-88.0174
11
148.338
21
-88.0324
0
LINE
8
BLACK
6
CONTINUOUS
10
148.338
20
-88.0324
11
148.362
21
-88.0526
0
LINE
8
BLACK
6
CONTINUOUS
10
148.362
20
-88.0526
11
148.383
21
-88.0772
0
LINE
8
BLACK
6
CONTINUOUS
10
148.383
20
-88.0772
11
148.398
21
-88.1053
0
LINE
8
BLACK
6
CONTINUOUS
10
148.398
20
-88.1053
11
148.407
21
-88.1357
0
LINE
8
BLACK
6
CONTINUOUS
10
148.407
20
-88.1357
11
148.411
21
-88.1735
0
LINE
8
BLACK
6
CONTINUOUS
10
148.411
20
-88.1735
11
148.411
21
-89.7373
0
LINE
8
BLACK
6
CONTINUOUS
10
148.411
20
-89.7373
11
148.407
21
-89.7751
0
LINE
8
BLACK
6
CONTINUOUS
10
148.407
20
-89.7751
11
148.398
21
-89.8055
0
LINE
8
BLACK
6
CONTINUOUS
10
148.398
20
-89.8055
11
148.383
21
-89.8336
0
LINE
8
BLACK
6
CONTINUOUS
10
148.383
20
-89.8336
11
148.362
21
-89.8582
0
LINE
8
BLACK
6
CONTINUOUS
10
148.362
20
-89.8582
11
148.338
21
-89.8784
0
LINE
8
BLACK
6
CONTINUOUS
10
148.338
20
-89.8784
11
148.31
21
-89.8934
0
LINE
8
BLACK
6
CONTINUOUS
10
148.31
20
-89.8934
11
148.279
21
-89.9027
0
LINE
8
BLACK
6
CONTINUOUS
10
148.279
20
-89.9027
11
148.241
21
-89.9064
0
LINE
8
BLACK
6
CONTINUOUS
10
148.241
20
-89.9064
11
147.678
21
-89.9064
0
LINE
8
BLACK
6
CONTINUOUS
10
147.678
20
-89.9064
11
147.64
21
-89.9027
0
LINE
8
BLACK
6
CONTINUOUS
10
147.64
20
-89.9027
11
147.609
21
-89.8934
0
LINE
8
BLACK
6
CONTINUOUS
10
147.609
20
-89.8934
11
147.581
21
-89.8784
0
LINE
8
BLACK
6
CONTINUOUS
10
147.581
20
-89.8784
11
147.557
21
-89.8582
0
LINE
8
BLACK
6
CONTINUOUS
10
147.557
20
-89.8582
11
147.537
21
-89.8336
0
LINE
8
BLACK
6
CONTINUOUS
10
147.537
20
-89.8336
11
147.522
21
-89.8055
0
LINE
8
BLACK
6
CONTINUOUS
10
147.522
20
-89.8055
11
147.512
21
-89.7751
0
LINE
8
BLACK
6
CONTINUOUS
10
147.512
20
-89.7751
11
147.509
21
-89.7373
0
LINE
8
BLACK
6
CONTINUOUS
10
147.509
20
-89.7373
11
147.509
21
-88.1735
0
LINE
8
BLACK
6
CONTINUOUS
10
147.509
20
-88.1735
11
147.512
21
-88.1357
0
LINE
8
BLACK
6
CONTINUOUS
10
147.512
20
-88.1357
11
147.522
21
-88.1053
0
LINE
8
BLACK
6
CONTINUOUS
10
147.522
20
-88.1053
11
147.537
21
-88.0772
0
LINE
8
BLACK
6
CONTINUOUS
10
147.537
20
-88.0772
11
147.557
21
-88.0526
0
LINE
8
BLACK
6
CONTINUOUS
10
147.557
20
-88.0526
11
147.581
21
-88.0324
0
LINE
8
BLACK
6
CONTINUOUS
10
147.581
20
-88.0324
11
147.609
21
-88.0174
0
LINE
8
BLACK
6
CONTINUOUS
10
147.609
20
-88.0174
11
147.64
21
-88.0081
0
LINE
8
BLACK
6
CONTINUOUS
10
147.64
20
-88.0081
11
147.678
21
-88.0044
0
LINE
8
BLACK
6
CONTINUOUS
10
147.678
20
-88.0044
11
148.241
21
-88.0044
0
LINE
8
BLACK
6
CONTINUOUS
10
148.241
20
-88.0044
11
148.279
21
-88.0081
0
LINE
8
BLACK
6
CONTINUOUS
10
145.304
20
-85.2381
11
145.335
21
-85.2474
0
LINE
8
BLACK
6
CONTINUOUS
10
145.335
20
-85.2474
11
145.363
21
-85.2624
0
LINE
8
BLACK
6
CONTINUOUS
10
145.363
20
-85.2624
11
145.387
21
-85.2826
0
LINE
8
BLACK
6
CONTINUOUS
10
145.387
20
-85.2826
11
145.408
21
-85.3072
0
LINE
8
BLACK
6
CONTINUOUS
10
145.408
20
-85.3072
11
145.423
21
-85.3353
0
LINE
8
BLACK
6
CONTINUOUS
10
145.423
20
-85.3353
11
145.432
21
-85.3657
0
LINE
8
BLACK
6
CONTINUOUS
10
145.432
20
-85.3657
11
145.436
21
-85.4035
0
LINE
8
BLACK
6
CONTINUOUS
10
145.436
20
-85.4035
11
145.436
21
-86.9673
0
LINE
8
BLACK
6
CONTINUOUS
10
145.436
20
-86.9673
11
145.432
21
-87.0051
0
LINE
8
BLACK
6
CONTINUOUS
10
145.432
20
-87.0051
11
145.423
21
-87.0355
0
LINE
8
BLACK
6
CONTINUOUS
10
145.423
20
-87.0355
11
145.408
21
-87.0636
0
LINE
8
BLACK
6
CONTINUOUS
10
145.408
20
-87.0636
11
145.387
21
-87.0882
0
LINE
8
BLACK
6
CONTINUOUS
10
145.387
20
-87.0882
11
145.363
21
-87.1084
0
LINE
8
BLACK
6
CONTINUOUS
10
145.363
20
-87.1084
11
145.335
21
-87.1234
0
LINE
8
BLACK
6
CONTINUOUS
10
145.335
20
-87.1234
11
145.304
21
-87.1327
0
LINE
8
BLACK
6
CONTINUOUS
10
145.304
20
-87.1327
11
145.266
21
-87.1364
0
LINE
8
BLACK
6
CONTINUOUS
10
145.266
20
-87.1364
11
144.703
21
-87.1364
0
LINE
8
BLACK
6
CONTINUOUS
10
144.703
20
-87.1364
11
144.665
21
-87.1327
0
LINE
8
BLACK
6
CONTINUOUS
10
144.665
20
-87.1327
11
144.634
21
-87.1234
0
LINE
8
BLACK
6
CONTINUOUS
10
144.634
20
-87.1234
11
144.606
21
-87.1084
0
LINE
8
BLACK
6
CONTINUOUS
10
144.606
20
-87.1084
11
144.582
21
-87.0882
0
LINE
8
BLACK
6
CONTINUOUS
10
144.582
20
-87.0882
11
144.562
21
-87.0636
0
LINE
8
BLACK
6
CONTINUOUS
10
144.562
20
-87.0636
11
144.547
21
-87.0355
0
LINE
8
BLACK
6
CONTINUOUS
10
144.547
20
-87.0355
11
144.537
21
-87.0051
0
LINE
8
BLACK
6
CONTINUOUS
10
144.537
20
-87.0051
11
144.534
21
-86.9673
0
LINE
8
BLACK
6
CONTINUOUS
10
144.534
20
-86.9673
11
144.534
21
-85.4035
0
LINE
8
BLACK
6
CONTINUOUS
10
144.534
20
-85.4035
11
144.537
21
-85.3657
0
LINE
8
BLACK
6
CONTINUOUS
10
144.537
20
-85.3657
11
144.547
21
-85.3353
0
LINE
8
BLACK
6
CONTINUOUS
10
144.547
20
-85.3353
11
144.562
21
-85.3072
0
LINE
8
BLACK
6
CONTINUOUS
10
144.562
20
-85.3072
11
144.582
21
-85.2826
0
LINE
8
BLACK
6
CONTINUOUS
10
144.582
20
-85.2826
11
144.606
21
-85.2624
0
LINE
8
BLACK
6
CONTINUOUS
10
144.606
20
-85.2624
11
144.634
21
-85.2474
0
LINE
8
BLACK
6
CONTINUOUS
10
144.634
20
-85.2474
11
144.665
21
-85.2381
0
LINE
8
BLACK
6
CONTINUOUS
10
144.665
20
-85.2381
11
144.703
21
-85.2344
0
LINE
8
BLACK
6
CONTINUOUS
10
144.703
20
-85.2344
11
145.266
21
-85.2344
0
LINE
8
BLACK
6
CONTINUOUS
10
145.266
20
-85.2344
11
145.304
21
-85.2381
0
LINE
8
BLACK
6
CONTINUOUS
10
142.945
20
-85.2372
11
142.966
21
-85.2436
0
LINE
8
BLACK
6
CONTINUOUS
10
142.966
20
-85.2436
11
142.985
21
-85.2539
0
LINE
8
BLACK
6
CONTINUOUS
10
142.985
20
-85.2539
11
143.002
21
-85.2679
0
LINE
8
BLACK
6
CONTINUOUS
10
143.002
20
-85.2679
11
143.016
21
-85.285
0
LINE
8
BLACK
6
CONTINUOUS
10
143.016
20
-85.285
11
143.026
21
-85.3044
0
LINE
8
BLACK
6
CONTINUOUS
10
143.026
20
-85.3044
11
143.033
21
-85.3255
0
LINE
8
BLACK
6
CONTINUOUS
10
143.033
20
-85.3255
11
143.036
21
-85.3535
0
LINE
8
BLACK
6
CONTINUOUS
10
143.036
20
-85.3535
11
143.036
21
-87.0173
0
LINE
8
BLACK
6
CONTINUOUS
10
143.036
20
-87.0173
11
143.033
21
-87.0453
0
LINE
8
BLACK
6
CONTINUOUS
10
143.033
20
-87.0453
11
143.026
21
-87.0664
0
LINE
8
BLACK
6
CONTINUOUS
10
143.026
20
-87.0664
11
143.016
21
-87.0858
0
LINE
8
BLACK
6
CONTINUOUS
10
143.016
20
-87.0858
11
143.002
21
-87.1029
0
LINE
8
BLACK
6
CONTINUOUS
10
143.002
20
-87.1029
11
142.985
21
-87.1169
0
LINE
8
BLACK
6
CONTINUOUS
10
142.985
20
-87.1169
11
142.966
21
-87.1272
0
LINE
8
BLACK
6
CONTINUOUS
10
142.966
20
-87.1272
11
142.945
21
-87.1336
0
LINE
8
BLACK
6
CONTINUOUS
10
142.945
20
-87.1336
11
142.916
21
-87.1364
0
LINE
8
BLACK
6
CONTINUOUS
10
142.916
20
-87.1364
11
142.453
21
-87.1364
0
LINE
8
BLACK
6
CONTINUOUS
10
142.453
20
-87.1364
11
142.425
21
-87.1336
0
LINE
8
BLACK
6
CONTINUOUS
10
142.425
20
-87.1336
11
142.404
21
-87.1272
0
LINE
8
BLACK
6
CONTINUOUS
10
142.404
20
-87.1272
11
142.384
21
-87.1169
0
LINE
8
BLACK
6
CONTINUOUS
10
142.384
20
-87.1169
11
142.367
21
-87.1029
0
LINE
8
BLACK
6
CONTINUOUS
10
142.367
20
-87.1029
11
142.353
21
-87.0858
0
LINE
8
BLACK
6
CONTINUOUS
10
142.353
20
-87.0858
11
142.343
21
-87.0664
0
LINE
8
BLACK
6
CONTINUOUS
10
142.343
20
-87.0664
11
142.336
21
-87.0453
0
LINE
8
BLACK
6
CONTINUOUS
10
142.336
20
-87.0453
11
142.334
21
-87.0173
0
LINE
8
BLACK
6
CONTINUOUS
10
142.334
20
-87.0173
11
142.334
21
-85.3535
0
LINE
8
BLACK
6
CONTINUOUS
10
142.334
20
-85.3535
11
142.336
21
-85.3255
0
LINE
8
BLACK
6
CONTINUOUS
10
142.336
20
-85.3255
11
142.343
21
-85.3044
0
LINE
8
BLACK
6
CONTINUOUS
10
142.343
20
-85.3044
11
142.353
21
-85.285
0
LINE
8
BLACK
6
CONTINUOUS
10
142.353
20
-85.285
11
142.367
21
-85.2679
0
LINE
8
BLACK
6
CONTINUOUS
10
142.367
20
-85.2679
11
142.384
21
-85.2539
0
LINE
8
BLACK
6
CONTINUOUS
10
142.384
20
-85.2539
11
142.404
21
-85.2436
0
LINE
8
BLACK
6
CONTINUOUS
10
142.404
20
-85.2436
11
142.425
21
-85.2372
0
LINE
8
BLACK
6
CONTINUOUS
10
142.425
20
-85.2372
11
142.453
21
-85.2344
0
LINE
8
BLACK
6
CONTINUOUS
10
142.453
20
-85.2344
11
142.916
21
-85.2344
0
LINE
8
BLACK
6
CONTINUOUS
10
142.916
20
-85.2344
11
142.945
21
-85.2372
0
LINE
8
BLACK
6
CONTINUOUS
10
142.01
20
-85.2362
11
142.021
21
-85.2398
0
LINE
8
BLACK
6
CONTINUOUS
10
142.021
20
-85.2398
11
142.032
21
-85.2455
0
LINE
8
BLACK
6
CONTINUOUS
10
142.032
20
-85.2455
11
142.042
21
-85.2533
0
LINE
8
BLACK
6
CONTINUOUS
10
142.042
20
-85.2533
11
142.049
21
-85.2627
0
LINE
8
BLACK
6
CONTINUOUS
10
142.049
20
-85.2627
11
142.055
21
-85.2735
0
LINE
8
BLACK
6
CONTINUOUS
10
142.055
20
-85.2735
11
142.059
21
-85.2852
0
LINE
8
BLACK
6
CONTINUOUS
10
142.059
20
-85.2852
11
142.061
21
-85.3035
0
LINE
8
BLACK
6
CONTINUOUS
10
142.061
20
-85.3035
11
142.061
21
-87.0673
0
LINE
8
BLACK
6
CONTINUOUS
10
142.061
20
-87.0673
11
142.059
21
-87.0856
0
LINE
8
BLACK
6
CONTINUOUS
10
142.059
20
-87.0856
11
142.055
21
-87.0973
0
LINE
8
BLACK
6
CONTINUOUS
10
142.055
20
-87.0973
11
142.049
21
-87.1081
0
LINE
8
BLACK
6
CONTINUOUS
10
142.049
20
-87.1081
11
142.042
21
-87.1175
0
LINE
8
BLACK
6
CONTINUOUS
10
142.042
20
-87.1175
11
142.032
21
-87.1253
0
LINE
8
BLACK
6
CONTINUOUS
10
142.032
20
-87.1253
11
142.021
21
-87.131
0
LINE
8
BLACK
6
CONTINUOUS
10
142.021
20
-87.131
11
142.01
21
-87.1346
0
LINE
8
BLACK
6
CONTINUOUS
10
142.01
20
-87.1346
11
141.991
21
-87.1364
0
LINE
8
BLACK
6
CONTINUOUS
10
141.991
20
-87.1364
11
141.628
21
-87.1364
0
LINE
8
BLACK
6
CONTINUOUS
10
141.628
20
-87.1364
11
141.609
21
-87.1346
0
LINE
8
BLACK
6
CONTINUOUS
10
141.609
20
-87.1346
11
141.598
21
-87.131
0
LINE
8
BLACK
6
CONTINUOUS
10
141.598
20
-87.131
11
141.587
21
-87.1253
0
LINE
8
BLACK
6
CONTINUOUS
10
141.587
20
-87.1253
11
141.577
21
-87.1175
0
LINE
8
BLACK
6
CONTINUOUS
10
141.577
20
-87.1175
11
141.57
21
-87.1081
0
LINE
8
BLACK
6
CONTINUOUS
10
141.57
20
-87.1081
11
141.564
21
-87.0973
0
LINE
8
BLACK
6
CONTINUOUS
10
141.564
20
-87.0973
11
141.56
21
-87.0856
0
LINE
8
BLACK
6
CONTINUOUS
10
141.56
20
-87.0856
11
141.559
21
-87.0673
0
LINE
8
BLACK
6
CONTINUOUS
10
141.559
20
-87.0673
11
141.559
21
-85.3035
0
LINE
8
BLACK
6
CONTINUOUS
10
141.559
20
-85.3035
11
141.56
21
-85.2852
0
LINE
8
BLACK
6
CONTINUOUS
10
141.56
20
-85.2852
11
141.564
21
-85.2735
0
LINE
8
BLACK
6
CONTINUOUS
10
141.564
20
-85.2735
11
141.57
21
-85.2627
0
LINE
8
BLACK
6
CONTINUOUS
10
141.57
20
-85.2627
11
141.577
21
-85.2533
0
LINE
8
BLACK
6
CONTINUOUS
10
141.577
20
-85.2533
11
141.587
21
-85.2455
0
LINE
8
BLACK
6
CONTINUOUS
10
141.587
20
-85.2455
11
141.598
21
-85.2398
0
LINE
8
BLACK
6
CONTINUOUS
10
141.598
20
-85.2398
11
141.609
21
-85.2362
0
LINE
8
BLACK
6
CONTINUOUS
10
141.609
20
-85.2362
11
141.628
21
-85.2344
0
LINE
8
BLACK
6
CONTINUOUS
10
141.628
20
-85.2344
11
141.991
21
-85.2344
0
LINE
8
BLACK
6
CONTINUOUS
10
141.991
20
-85.2344
11
142.01
21
-85.2362
0
LINE
8
BLACK
6
CONTINUOUS
10
148.279
20
-85.2381
11
148.31
21
-85.2474
0
LINE
8
BLACK
6
CONTINUOUS
10
148.31
20
-85.2474
11
148.338
21
-85.2624
0
LINE
8
BLACK
6
CONTINUOUS
10
148.338
20
-85.2624
11
148.362
21
-85.2826
0
LINE
8
BLACK
6
CONTINUOUS
10
148.362
20
-85.2826
11
148.383
21
-85.3072
0
LINE
8
BLACK
6
CONTINUOUS
10
148.383
20
-85.3072
11
148.398
21
-85.3353
0
LINE
8
BLACK
6
CONTINUOUS
10
148.398
20
-85.3353
11
148.407
21
-85.3657
0
LINE
8
BLACK
6
CONTINUOUS
10
148.407
20
-85.3657
11
148.411
21
-85.4035
0
LINE
8
BLACK
6
CONTINUOUS
10
148.411
20
-85.4035
11
148.411
21
-86.9673
0
LINE
8
BLACK
6
CONTINUOUS
10
148.411
20
-86.9673
11
148.407
21
-87.0051
0
LINE
8
BLACK
6
CONTINUOUS
10
148.407
20
-87.0051
11
148.398
21
-87.0355
0
LINE
8
BLACK
6
CONTINUOUS
10
148.398
20
-87.0355
11
148.383
21
-87.0636
0
LINE
8
BLACK
6
CONTINUOUS
10
148.383
20
-87.0636
11
148.362
21
-87.0882
0
LINE
8
BLACK
6
CONTINUOUS
10
148.362
20
-87.0882
11
148.338
21
-87.1084
0
LINE
8
BLACK
6
CONTINUOUS
10
148.338
20
-87.1084
11
148.31
21
-87.1234
0
LINE
8
BLACK
6
CONTINUOUS
10
148.31
20
-87.1234
11
148.279
21
-87.1327
0
LINE
8
BLACK
6
CONTINUOUS
10
148.279
20
-87.1327
11
148.241
21
-87.1364
0
LINE
8
BLACK
6
CONTINUOUS
10
148.241
20
-87.1364
11
147.678
21
-87.1364
0
LINE
8
BLACK
6
CONTINUOUS
10
147.678
20
-87.1364
11
147.64
21
-87.1327
0
LINE
8
BLACK
6
CONTINUOUS
10
147.64
20
-87.1327
11
147.609
21
-87.1234
0
LINE
8
BLACK
6
CONTINUOUS
10
147.609
20
-87.1234
11
147.581
21
-87.1084
0
LINE
8
BLACK
6
CONTINUOUS
10
147.581
20
-87.1084
11
147.557
21
-87.0882
0
LINE
8
BLACK
6
CONTINUOUS
10
147.557
20
-87.0882
11
147.537
21
-87.0636
0
LINE
8
BLACK
6
CONTINUOUS
10
147.537
20
-87.0636
11
147.522
21
-87.0355
0
LINE
8
BLACK
6
CONTINUOUS
10
147.522
20
-87.0355
11
147.512
21
-87.0051
0
LINE
8
BLACK
6
CONTINUOUS
10
147.512
20
-87.0051
11
147.509
21
-86.9673
0
LINE
8
BLACK
6
CONTINUOUS
10
147.509
20
-86.9673
11
147.509
21
-85.4035
0
LINE
8
BLACK
6
CONTINUOUS
10
147.509
20
-85.4035
11
147.512
21
-85.3657
0
LINE
8
BLACK
6
CONTINUOUS
10
147.512
20
-85.3657
11
147.522
21
-85.3353
0
LINE
8
BLACK
6
CONTINUOUS
10
147.522
20
-85.3353
11
147.537
21
-85.3072
0
LINE
8
BLACK
6
CONTINUOUS
10
147.537
20
-85.3072
11
147.557
21
-85.2826
0
LINE
8
BLACK
6
CONTINUOUS
10
147.557
20
-85.2826
11
147.581
21
-85.2624
0
LINE
8
BLACK
6
CONTINUOUS
10
147.581
20
-85.2624
11
147.609
21
-85.2474
0
LINE
8
BLACK
6
CONTINUOUS
10
147.609
20
-85.2474
11
147.64
21
-85.2381
0
LINE
8
BLACK
6
CONTINUOUS
10
147.64
20
-85.2381
11
147.678
21
-85.2344
0
LINE
8
BLACK
6
CONTINUOUS
10
147.678
20
-85.2344
11
148.241
21
-85.2344
0
LINE
8
BLACK
6
CONTINUOUS
10
148.241
20
-85.2344
11
148.279
21
-85.2381
0
LINE
8
BLACK
6
CONTINUOUS
10
147.095
20
-85.2372
11
147.116
21
-85.2436
0
LINE
8
BLACK
6
CONTINUOUS
10
147.116
20
-85.2436
11
147.135
21
-85.2539
0
LINE
8
BLACK
6
CONTINUOUS
10
147.135
20
-85.2539
11
147.152
21
-85.2679
0
LINE
8
BLACK
6
CONTINUOUS
10
147.152
20
-85.2679
11
147.166
21
-85.285
0
LINE
8
BLACK
6
CONTINUOUS
10
147.166
20
-85.285
11
147.176
21
-85.3044
0
LINE
8
BLACK
6
CONTINUOUS
10
147.176
20
-85.3044
11
147.183
21
-85.3255
0
LINE
8
BLACK
6
CONTINUOUS
10
147.183
20
-85.3255
11
147.186
21
-85.3535
0
LINE
8
BLACK
6
CONTINUOUS
10
147.186
20
-85.3535
11
147.186
21
-87.0173
0
LINE
8
BLACK
6
CONTINUOUS
10
147.186
20
-87.0173
11
147.183
21
-87.0453
0
LINE
8
BLACK
6
CONTINUOUS
10
147.183
20
-87.0453
11
147.176
21
-87.0664
0
LINE
8
BLACK
6
CONTINUOUS
10
147.176
20
-87.0664
11
147.166
21
-87.0858
0
LINE
8
BLACK
6
CONTINUOUS
10
147.166
20
-87.0858
11
147.152
21
-87.1029
0
LINE
8
BLACK
6
CONTINUOUS
10
147.152
20
-87.1029
11
147.135
21
-87.1169
0
LINE
8
BLACK
6
CONTINUOUS
10
147.135
20
-87.1169
11
147.116
21
-87.1272
0
LINE
8
BLACK
6
CONTINUOUS
10
147.116
20
-87.1272
11
147.095
21
-87.1336
0
LINE
8
BLACK
6
CONTINUOUS
10
147.095
20
-87.1336
11
147.066
21
-87.1364
0
LINE
8
BLACK
6
CONTINUOUS
10
147.066
20
-87.1364
11
146.603
21
-87.1364
0
LINE
8
BLACK
6
CONTINUOUS
10
146.603
20
-87.1364
11
146.575
21
-87.1336
0
LINE
8
BLACK
6
CONTINUOUS
10
146.575
20
-87.1336
11
146.554
21
-87.1272
0
LINE
8
BLACK
6
CONTINUOUS
10
146.554
20
-87.1272
11
146.534
21
-87.1169
0
LINE
8
BLACK
6
CONTINUOUS
10
146.534
20
-87.1169
11
146.517
21
-87.1029
0
LINE
8
BLACK
6
CONTINUOUS
10
146.517
20
-87.1029
11
146.503
21
-87.0858
0
LINE
8
BLACK
6
CONTINUOUS
10
146.503
20
-87.0858
11
146.493
21
-87.0664
0
LINE
8
BLACK
6
CONTINUOUS
10
146.493
20
-87.0664
11
146.486
21
-87.0453
0
LINE
8
BLACK
6
CONTINUOUS
10
146.486
20
-87.0453
11
146.484
21
-87.0173
0
LINE
8
BLACK
6
CONTINUOUS
10
146.484
20
-87.0173
11
146.484
21
-85.3535
0
LINE
8
BLACK
6
CONTINUOUS
10
146.484
20
-85.3535
11
146.486
21
-85.3255
0
LINE
8
BLACK
6
CONTINUOUS
10
146.486
20
-85.3255
11
146.493
21
-85.3044
0
LINE
8
BLACK
6
CONTINUOUS
10
146.493
20
-85.3044
11
146.503
21
-85.285
0
LINE
8
BLACK
6
CONTINUOUS
10
146.503
20
-85.285
11
146.517
21
-85.2679
0
LINE
8
BLACK
6
CONTINUOUS
10
146.517
20
-85.2679
11
146.534
21
-85.2539
0
LINE
8
BLACK
6
CONTINUOUS
10
146.534
20
-85.2539
11
146.554
21
-85.2436
0
LINE
8
BLACK
6
CONTINUOUS
10
146.554
20
-85.2436
11
146.575
21
-85.2372
0
LINE
8
BLACK
6
CONTINUOUS
10
146.575
20
-85.2372
11
146.603
21
-85.2344
0
LINE
8
BLACK
6
CONTINUOUS
10
146.603
20
-85.2344
11
147.066
21
-85.2344
0
LINE
8
BLACK
6
CONTINUOUS
10
147.066
20
-85.2344
11
147.095
21
-85.2372
0
LINE
8
BLACK
6
CONTINUOUS
10
146.16
20
-85.2362
11
146.171
21
-85.2398
0
LINE
8
BLACK
6
CONTINUOUS
10
146.171
20
-85.2398
11
146.182
21
-85.2455
0
LINE
8
BLACK
6
CONTINUOUS
10
146.182
20
-85.2455
11
146.192
21
-85.2533
0
LINE
8
BLACK
6
CONTINUOUS
10
146.192
20
-85.2533
11
146.199
21
-85.2627
0
LINE
8
BLACK
6
CONTINUOUS
10
146.199
20
-85.2627
11
146.205
21
-85.2735
0
LINE
8
BLACK
6
CONTINUOUS
10
146.205
20
-85.2735
11
146.209
21
-85.2852
0
LINE
8
BLACK
6
CONTINUOUS
10
146.209
20
-85.2852
11
146.211
21
-85.3035
0
LINE
8
BLACK
6
CONTINUOUS
10
146.211
20
-85.3035
11
146.211
21
-87.0673
0
LINE
8
BLACK
6
CONTINUOUS
10
146.211
20
-87.0673
11
146.209
21
-87.0856
0
LINE
8
BLACK
6
CONTINUOUS
10
146.209
20
-87.0856
11
146.205
21
-87.0973
0
LINE
8
BLACK
6
CONTINUOUS
10
146.205
20
-87.0973
11
146.199
21
-87.1081
0
LINE
8
BLACK
6
CONTINUOUS
10
146.199
20
-87.1081
11
146.192
21
-87.1175
0
LINE
8
BLACK
6
CONTINUOUS
10
146.192
20
-87.1175
11
146.182
21
-87.1253
0
LINE
8
BLACK
6
CONTINUOUS
10
146.182
20
-87.1253
11
146.171
21
-87.131
0
LINE
8
BLACK
6
CONTINUOUS
10
146.171
20
-87.131
11
146.16
21
-87.1346
0
LINE
8
BLACK
6
CONTINUOUS
10
146.16
20
-87.1346
11
146.141
21
-87.1364
0
LINE
8
BLACK
6
CONTINUOUS
10
146.141
20
-87.1364
11
145.778
21
-87.1364
0
LINE
8
BLACK
6
CONTINUOUS
10
145.778
20
-87.1364
11
145.759
21
-87.1346
0
LINE
8
BLACK
6
CONTINUOUS
10
145.759
20
-87.1346
11
145.748
21
-87.131
0
LINE
8
BLACK
6
CONTINUOUS
10
145.748
20
-87.131
11
145.737
21
-87.1253
0
LINE
8
BLACK
6
CONTINUOUS
10
145.737
20
-87.1253
11
145.727
21
-87.1175
0
LINE
8
BLACK
6
CONTINUOUS
10
145.727
20
-87.1175
11
145.72
21
-87.1081
0
LINE
8
BLACK
6
CONTINUOUS
10
145.72
20
-87.1081
11
145.714
21
-87.0973
0
LINE
8
BLACK
6
CONTINUOUS
10
145.714
20
-87.0973
11
145.71
21
-87.0856
0
LINE
8
BLACK
6
CONTINUOUS
10
145.71
20
-87.0856
11
145.709
21
-87.0673
0
LINE
8
BLACK
6
CONTINUOUS
10
145.709
20
-87.0673
11
145.709
21
-85.3035
0
LINE
8
BLACK
6
CONTINUOUS
10
145.709
20
-85.3035
11
145.71
21
-85.2852
0
LINE
8
BLACK
6
CONTINUOUS
10
145.71
20
-85.2852
11
145.714
21
-85.2735
0
LINE
8
BLACK
6
CONTINUOUS
10
145.714
20
-85.2735
11
145.72
21
-85.2627
0
LINE
8
BLACK
6
CONTINUOUS
10
145.72
20
-85.2627
11
145.727
21
-85.2533
0
LINE
8
BLACK
6
CONTINUOUS
10
145.727
20
-85.2533
11
145.737
21
-85.2455
0
LINE
8
BLACK
6
CONTINUOUS
10
145.737
20
-85.2455
11
145.748
21
-85.2398
0
LINE
8
BLACK
6
CONTINUOUS
10
145.748
20
-85.2398
11
145.759
21
-85.2362
0
LINE
8
BLACK
6
CONTINUOUS
10
145.759
20
-85.2362
11
145.778
21
-85.2344
0
LINE
8
BLACK
6
CONTINUOUS
10
145.778
20
-85.2344
11
146.141
21
-85.2344
0
LINE
8
BLACK
6
CONTINUOUS
10
146.141
20
-85.2344
11
146.16
21
-85.2362
0
LINE
8
BLACK
6
CONTINUOUS
10
141.154
20
-85.2381
11
141.185
21
-85.2474
0
LINE
8
BLACK
6
CONTINUOUS
10
141.185
20
-85.2474
11
141.213
21
-85.2624
0
LINE
8
BLACK
6
CONTINUOUS
10
141.213
20
-85.2624
11
141.237
21
-85.2826
0
LINE
8
BLACK
6
CONTINUOUS
10
141.237
20
-85.2826
11
141.258
21
-85.3072
0
LINE
8
BLACK
6
CONTINUOUS
10
141.258
20
-85.3072
11
141.273
21
-85.3353
0
LINE
8
BLACK
6
CONTINUOUS
10
141.273
20
-85.3353
11
141.282
21
-85.3657
0
LINE
8
BLACK
6
CONTINUOUS
10
141.282
20
-85.3657
11
141.286
21
-85.4035
0
LINE
8
BLACK
6
CONTINUOUS
10
141.286
20
-85.4035
11
141.286
21
-86.9673
0
LINE
8
BLACK
6
CONTINUOUS
10
141.286
20
-86.9673
11
141.282
21
-87.0051
0
LINE
8
BLACK
6
CONTINUOUS
10
141.282
20
-87.0051
11
141.273
21
-87.0355
0
LINE
8
BLACK
6
CONTINUOUS
10
141.273
20
-87.0355
11
141.258
21
-87.0636
0
LINE
8
BLACK
6
CONTINUOUS
10
141.258
20
-87.0636
11
141.237
21
-87.0882
0
LINE
8
BLACK
6
CONTINUOUS
10
141.237
20
-87.0882
11
141.213
21
-87.1084
0
LINE
8
BLACK
6
CONTINUOUS
10
141.213
20
-87.1084
11
141.185
21
-87.1234
0
LINE
8
BLACK
6
CONTINUOUS
10
141.185
20
-87.1234
11
141.154
21
-87.1327
0
LINE
8
BLACK
6
CONTINUOUS
10
141.154
20
-87.1327
11
141.116
21
-87.1364
0
LINE
8
BLACK
6
CONTINUOUS
10
141.116
20
-87.1364
11
140.553
21
-87.1364
0
LINE
8
BLACK
6
CONTINUOUS
10
140.553
20
-87.1364
11
140.515
21
-87.1327
0
LINE
8
BLACK
6
CONTINUOUS
10
140.515
20
-87.1327
11
140.484
21
-87.1234
0
LINE
8
BLACK
6
CONTINUOUS
10
140.484
20
-87.1234
11
140.456
21
-87.1084
0
LINE
8
BLACK
6
CONTINUOUS
10
140.456
20
-87.1084
11
140.432
21
-87.0882
0
LINE
8
BLACK
6
CONTINUOUS
10
140.432
20
-87.0882
11
140.412
21
-87.0636
0
LINE
8
BLACK
6
CONTINUOUS
10
140.412
20
-87.0636
11
140.397
21
-87.0355
0
LINE
8
BLACK
6
CONTINUOUS
10
140.397
20
-87.0355
11
140.387
21
-87.0051
0
LINE
8
BLACK
6
CONTINUOUS
10
140.387
20
-87.0051
11
140.384
21
-86.9673
0
LINE
8
BLACK
6
CONTINUOUS
10
140.384
20
-86.9673
11
140.384
21
-85.4035
0
LINE
8
BLACK
6
CONTINUOUS
10
140.384
20
-85.4035
11
140.387
21
-85.3657
0
LINE
8
BLACK
6
CONTINUOUS
10
140.387
20
-85.3657
11
140.397
21
-85.3353
0
LINE
8
BLACK
6
CONTINUOUS
10
140.397
20
-85.3353
11
140.412
21
-85.3072
0
LINE
8
BLACK
6
CONTINUOUS
10
140.412
20
-85.3072
11
140.432
21
-85.2826
0
LINE
8
BLACK
6
CONTINUOUS
10
140.432
20
-85.2826
11
140.456
21
-85.2624
0
LINE
8
BLACK
6
CONTINUOUS
10
140.456
20
-85.2624
11
140.484
21
-85.2474
0
LINE
8
BLACK
6
CONTINUOUS
10
140.484
20
-85.2474
11
140.515
21
-85.2381
0
LINE
8
BLACK
6
CONTINUOUS
10
140.515
20
-85.2381
11
140.553
21
-85.2344
0
LINE
8
BLACK
6
CONTINUOUS
10
140.553
20
-85.2344
11
141.116
21
-85.2344
0
LINE
8
BLACK
6
CONTINUOUS
10
141.116
20
-85.2344
11
141.154
21
-85.2381
0
LINE
8
BLACK
6
CONTINUOUS
10
144.129
20
-85.2381
11
144.16
21
-85.2474
0
LINE
8
BLACK
6
CONTINUOUS
10
144.16
20
-85.2474
11
144.188
21
-85.2624
0
LINE
8
BLACK
6
CONTINUOUS
10
144.188
20
-85.2624
11
144.212
21
-85.2826
0
LINE
8
BLACK
6
CONTINUOUS
10
144.212
20
-85.2826
11
144.233
21
-85.3072
0
LINE
8
BLACK
6
CONTINUOUS
10
144.233
20
-85.3072
11
144.248
21
-85.3353
0
LINE
8
BLACK
6
CONTINUOUS
10
144.248
20
-85.3353
11
144.257
21
-85.3657
0
LINE
8
BLACK
6
CONTINUOUS
10
144.257
20
-85.3657
11
144.261
21
-85.4035
0
LINE
8
BLACK
6
CONTINUOUS
10
144.261
20
-85.4035
11
144.261
21
-86.9673
0
LINE
8
BLACK
6
CONTINUOUS
10
144.261
20
-86.9673
11
144.257
21
-87.0051
0
LINE
8
BLACK
6
CONTINUOUS
10
144.257
20
-87.0051
11
144.248
21
-87.0355
0
LINE
8
BLACK
6
CONTINUOUS
10
144.248
20
-87.0355
11
144.233
21
-87.0636
0
LINE
8
BLACK
6
CONTINUOUS
10
144.233
20
-87.0636
11
144.212
21
-87.0882
0
LINE
8
BLACK
6
CONTINUOUS
10
144.212
20
-87.0882
11
144.188
21
-87.1084
0
LINE
8
BLACK
6
CONTINUOUS
10
144.188
20
-87.1084
11
144.16
21
-87.1234
0
LINE
8
BLACK
6
CONTINUOUS
10
144.16
20
-87.1234
11
144.129
21
-87.1327
0
LINE
8
BLACK
6
CONTINUOUS
10
144.129
20
-87.1327
11
144.091
21
-87.1364
0
LINE
8
BLACK
6
CONTINUOUS
10
144.091
20
-87.1364
11
143.528
21
-87.1364
0
LINE
8
BLACK
6
CONTINUOUS
10
143.528
20
-87.1364
11
143.49
21
-87.1327
0
LINE
8
BLACK
6
CONTINUOUS
10
143.49
20
-87.1327
11
143.459
21
-87.1234
0
LINE
8
BLACK
6
CONTINUOUS
10
143.459
20
-87.1234
11
143.431
21
-87.1084
0
LINE
8
BLACK
6
CONTINUOUS
10
143.431
20
-87.1084
11
143.407
21
-87.0882
0
LINE
8
BLACK
6
CONTINUOUS
10
143.407
20
-87.0882
11
143.387
21
-87.0636
0
LINE
8
BLACK
6
CONTINUOUS
10
143.387
20
-87.0636
11
143.372
21
-87.0355
0
LINE
8
BLACK
6
CONTINUOUS
10
143.372
20
-87.0355
11
143.362
21
-87.0051
0
LINE
8
BLACK
6
CONTINUOUS
10
143.362
20
-87.0051
11
143.359
21
-86.9673
0
LINE
8
BLACK
6
CONTINUOUS
10
143.359
20
-86.9673
11
143.359
21
-85.4035
0
LINE
8
BLACK
6
CONTINUOUS
10
143.359
20
-85.4035
11
143.362
21
-85.3657
0
LINE
8
BLACK
6
CONTINUOUS
10
143.362
20
-85.3657
11
143.372
21
-85.3353
0
LINE
8
BLACK
6
CONTINUOUS
10
143.372
20
-85.3353
11
143.387
21
-85.3072
0
LINE
8
BLACK
6
CONTINUOUS
10
143.387
20
-85.3072
11
143.407
21
-85.2826
0
LINE
8
BLACK
6
CONTINUOUS
10
143.407
20
-85.2826
11
143.431
21
-85.2624
0
LINE
8
BLACK
6
CONTINUOUS
10
143.431
20
-85.2624
11
143.459
21
-85.2474
0
LINE
8
BLACK
6
CONTINUOUS
10
143.459
20
-85.2474
11
143.49
21
-85.2381
0
LINE
8
BLACK
6
CONTINUOUS
10
143.49
20
-85.2381
11
143.528
21
-85.2344
0
LINE
8
BLACK
6
CONTINUOUS
10
143.528
20
-85.2344
11
144.091
21
-85.2344
0
LINE
8
BLACK
6
CONTINUOUS
10
144.091
20
-85.2344
11
144.129
21
-85.2381
0
LINE
8
BLACK
6
CONTINUOUS
10
145.304
20
-82.4681
11
145.335
21
-82.4774
0
LINE
8
BLACK
6
CONTINUOUS
10
145.335
20
-82.4774
11
145.363
21
-82.4924
0
LINE
8
BLACK
6
CONTINUOUS
10
145.363
20
-82.4924
11
145.387
21
-82.5126
0
LINE
8
BLACK
6
CONTINUOUS
10
145.387
20
-82.5126
11
145.408
21
-82.5372
0
LINE
8
BLACK
6
CONTINUOUS
10
145.408
20
-82.5372
11
145.423
21
-82.5653
0
LINE
8
BLACK
6
CONTINUOUS
10
145.423
20
-82.5653
11
145.432
21
-82.5957
0
LINE
8
BLACK
6
CONTINUOUS
10
145.432
20
-82.5957
11
145.436
21
-82.6335
0
LINE
8
BLACK
6
CONTINUOUS
10
145.436
20
-82.6335
11
145.436
21
-84.1973
0
LINE
8
BLACK
6
CONTINUOUS
10
145.436
20
-84.1973
11
145.432
21
-84.2351
0
LINE
8
BLACK
6
CONTINUOUS
10
145.432
20
-84.2351
11
145.423
21
-84.2655
0
LINE
8
BLACK
6
CONTINUOUS
10
145.423
20
-84.2655
11
145.408
21
-84.2936
0
LINE
8
BLACK
6
CONTINUOUS
10
145.408
20
-84.2936
11
145.387
21
-84.3182
0
LINE
8
BLACK
6
CONTINUOUS
10
145.387
20
-84.3182
11
145.363
21
-84.3384
0
LINE
8
BLACK
6
CONTINUOUS
10
145.363
20
-84.3384
11
145.335
21
-84.3534
0
LINE
8
BLACK
6
CONTINUOUS
10
145.335
20
-84.3534
11
145.304
21
-84.3627
0
LINE
8
BLACK
6
CONTINUOUS
10
145.304
20
-84.3627
11
145.266
21
-84.3664
0
LINE
8
BLACK
6
CONTINUOUS
10
145.266
20
-84.3664
11
144.703
21
-84.3664
0
LINE
8
BLACK
6
CONTINUOUS
10
144.703
20
-84.3664
11
144.665
21
-84.3627
0
LINE
8
BLACK
6
CONTINUOUS
10
144.665
20
-84.3627
11
144.634
21
-84.3534
0
LINE
8
BLACK
6
CONTINUOUS
10
144.634
20
-84.3534
11
144.606
21
-84.3384
0
LINE
8
BLACK
6
CONTINUOUS
10
144.606
20
-84.3384
11
144.582
21
-84.3182
0
LINE
8
BLACK
6
CONTINUOUS
10
144.582
20
-84.3182
11
144.562
21
-84.2936
0
LINE
8
BLACK
6
CONTINUOUS
10
144.562
20
-84.2936
11
144.547
21
-84.2655
0
LINE
8
BLACK
6
CONTINUOUS
10
144.547
20
-84.2655
11
144.537
21
-84.2351
0
LINE
8
BLACK
6
CONTINUOUS
10
144.537
20
-84.2351
11
144.534
21
-84.1973
0
LINE
8
BLACK
6
CONTINUOUS
10
144.534
20
-84.1973
11
144.534
21
-82.6335
0
LINE
8
BLACK
6
CONTINUOUS
10
144.534
20
-82.6335
11
144.537
21
-82.5957
0
LINE
8
BLACK
6
CONTINUOUS
10
144.537
20
-82.5957
11
144.547
21
-82.5653
0
LINE
8
BLACK
6
CONTINUOUS
10
144.547
20
-82.5653
11
144.562
21
-82.5372
0
LINE
8
BLACK
6
CONTINUOUS
10
144.562
20
-82.5372
11
144.582
21
-82.5126
0
LINE
8
BLACK
6
CONTINUOUS
10
144.582
20
-82.5126
11
144.606
21
-82.4924
0
LINE
8
BLACK
6
CONTINUOUS
10
144.606
20
-82.4924
11
144.634
21
-82.4774
0
LINE
8
BLACK
6
CONTINUOUS
10
144.634
20
-82.4774
11
144.665
21
-82.4681
0
LINE
8
BLACK
6
CONTINUOUS
10
144.665
20
-82.4681
11
144.703
21
-82.4644
0
LINE
8
BLACK
6
CONTINUOUS
10
144.703
20
-82.4644
11
145.266
21
-82.4644
0
LINE
8
BLACK
6
CONTINUOUS
10
145.266
20
-82.4644
11
145.304
21
-82.4681
0
LINE
8
BLACK
6
CONTINUOUS
10
142.01
20
-82.4662
11
142.021
21
-82.4698
0
LINE
8
BLACK
6
CONTINUOUS
10
142.021
20
-82.4698
11
142.032
21
-82.4755
0
LINE
8
BLACK
6
CONTINUOUS
10
142.032
20
-82.4755
11
142.042
21
-82.4833
0
LINE
8
BLACK
6
CONTINUOUS
10
142.042
20
-82.4833
11
142.049
21
-82.4927
0
LINE
8
BLACK
6
CONTINUOUS
10
142.049
20
-82.4927
11
142.055
21
-82.5035
0
LINE
8
BLACK
6
CONTINUOUS
10
142.055
20
-82.5035
11
142.059
21
-82.5152
0
LINE
8
BLACK
6
CONTINUOUS
10
142.059
20
-82.5152
11
142.061
21
-82.5335
0
LINE
8
BLACK
6
CONTINUOUS
10
142.061
20
-82.5335
11
142.061
21
-84.2973
0
LINE
8
BLACK
6
CONTINUOUS
10
142.061
20
-84.2973
11
142.059
21
-84.3156
0
LINE
8
BLACK
6
CONTINUOUS
10
142.059
20
-84.3156
11
142.055
21
-84.3273
0
LINE
8
BLACK
6
CONTINUOUS
10
142.055
20
-84.3273
11
142.049
21
-84.3381
0
LINE
8
BLACK
6
CONTINUOUS
10
142.049
20
-84.3381
11
142.042
21
-84.3475
0
LINE
8
BLACK
6
CONTINUOUS
10
142.042
20
-84.3475
11
142.032
21
-84.3553
0
LINE
8
BLACK
6
CONTINUOUS
10
142.032
20
-84.3553
11
142.021
21
-84.361
0
LINE
8
BLACK
6
CONTINUOUS
10
142.021
20
-84.361
11
142.01
21
-84.3646
0
LINE
8
BLACK
6
CONTINUOUS
10
142.01
20
-84.3646
11
141.991
21
-84.3664
0
LINE
8
BLACK
6
CONTINUOUS
10
141.991
20
-84.3664
11
141.628
21
-84.3664
0
LINE
8
BLACK
6
CONTINUOUS
10
141.628
20
-84.3664
11
141.609
21
-84.3646
0
LINE
8
BLACK
6
CONTINUOUS
10
141.609
20
-84.3646
11
141.598
21
-84.361
0
LINE
8
BLACK
6
CONTINUOUS
10
141.598
20
-84.361
11
141.587
21
-84.3553
0
LINE
8
BLACK
6
CONTINUOUS
10
141.587
20
-84.3553
11
141.577
21
-84.3475
0
LINE
8
BLACK
6
CONTINUOUS
10
141.577
20
-84.3475
11
141.57
21
-84.3381
0
LINE
8
BLACK
6
CONTINUOUS
10
141.57
20
-84.3381
11
141.564
21
-84.3273
0
LINE
8
BLACK
6
CONTINUOUS
10
141.564
20
-84.3273
11
141.56
21
-84.3156
0
LINE
8
BLACK
6
CONTINUOUS
10
141.56
20
-84.3156
11
141.559
21
-84.2973
0
LINE
8
BLACK
6
CONTINUOUS
10
141.559
20
-84.2973
11
141.559
21
-82.5335
0
LINE
8
BLACK
6
CONTINUOUS
10
141.559
20
-82.5335
11
141.56
21
-82.5152
0
LINE
8
BLACK
6
CONTINUOUS
10
141.56
20
-82.5152
11
141.564
21
-82.5035
0
LINE
8
BLACK
6
CONTINUOUS
10
141.564
20
-82.5035
11
141.57
21
-82.4927
0
LINE
8
BLACK
6
CONTINUOUS
10
141.57
20
-82.4927
11
141.577
21
-82.4833
0
LINE
8
BLACK
6
CONTINUOUS
10
141.577
20
-82.4833
11
141.587
21
-82.4755
0
LINE
8
BLACK
6
CONTINUOUS
10
141.587
20
-82.4755
11
141.598
21
-82.4698
0
LINE
8
BLACK
6
CONTINUOUS
10
141.598
20
-82.4698
11
141.609
21
-82.4662
0
LINE
8
BLACK
6
CONTINUOUS
10
141.609
20
-82.4662
11
141.628
21
-82.4644
0
LINE
8
BLACK
6
CONTINUOUS
10
141.628
20
-82.4644
11
141.991
21
-82.4644
0
LINE
8
BLACK
6
CONTINUOUS
10
141.991
20
-82.4644
11
142.01
21
-82.4662
0
LINE
8
BLACK
6
CONTINUOUS
10
148.279
20
-82.4681
11
148.31
21
-82.4774
0
LINE
8
BLACK
6
CONTINUOUS
10
148.31
20
-82.4774
11
148.338
21
-82.4924
0
LINE
8
BLACK
6
CONTINUOUS
10
148.338
20
-82.4924
11
148.362
21
-82.5126
0
LINE
8
BLACK
6
CONTINUOUS
10
148.362
20
-82.5126
11
148.383
21
-82.5372
0
LINE
8
BLACK
6
CONTINUOUS
10
148.383
20
-82.5372
11
148.398
21
-82.5653
0
LINE
8
BLACK
6
CONTINUOUS
10
148.398
20
-82.5653
11
148.407
21
-82.5957
0
LINE
8
BLACK
6
CONTINUOUS
10
148.407
20
-82.5957
11
148.411
21
-82.6335
0
LINE
8
BLACK
6
CONTINUOUS
10
148.411
20
-82.6335
11
148.411
21
-84.1973
0
LINE
8
BLACK
6
CONTINUOUS
10
148.411
20
-84.1973
11
148.407
21
-84.2351
0
LINE
8
BLACK
6
CONTINUOUS
10
148.407
20
-84.2351
11
148.398
21
-84.2655
0
LINE
8
BLACK
6
CONTINUOUS
10
148.398
20
-84.2655
11
148.383
21
-84.2936
0
LINE
8
BLACK
6
CONTINUOUS
10
148.383
20
-84.2936
11
148.362
21
-84.3182
0
LINE
8
BLACK
6
CONTINUOUS
10
148.362
20
-84.3182
11
148.338
21
-84.3384
0
LINE
8
BLACK
6
CONTINUOUS
10
148.338
20
-84.3384
11
148.31
21
-84.3534
0
LINE
8
BLACK
6
CONTINUOUS
10
148.31
20
-84.3534
11
148.279
21
-84.3627
0
LINE
8
BLACK
6
CONTINUOUS
10
148.279
20
-84.3627
11
148.241
21
-84.3664
0
LINE
8
BLACK
6
CONTINUOUS
10
148.241
20
-84.3664
11
147.678
21
-84.3664
0
LINE
8
BLACK
6
CONTINUOUS
10
147.678
20
-84.3664
11
147.64
21
-84.3627
0
LINE
8
BLACK
6
CONTINUOUS
10
147.64
20
-84.3627
11
147.609
21
-84.3534
0
LINE
8
BLACK
6
CONTINUOUS
10
147.609
20
-84.3534
11
147.581
21
-84.3384
0
LINE
8
BLACK
6
CONTINUOUS
10
147.581
20
-84.3384
11
147.557
21
-84.3182
0
LINE
8
BLACK
6
CONTINUOUS
10
147.557
20
-84.3182
11
147.537
21
-84.2936
0
LINE
8
BLACK
6
CONTINUOUS
10
147.537
20
-84.2936
11
147.522
21
-84.2655
0
LINE
8
BLACK
6
CONTINUOUS
10
147.522
20
-84.2655
11
147.512
21
-84.2351
0
LINE
8
BLACK
6
CONTINUOUS
10
147.512
20
-84.2351
11
147.509
21
-84.1973
0
LINE
8
BLACK
6
CONTINUOUS
10
147.509
20
-84.1973
11
147.509
21
-82.6335
0
LINE
8
BLACK
6
CONTINUOUS
10
147.509
20
-82.6335
11
147.512
21
-82.5957
0
LINE
8
BLACK
6
CONTINUOUS
10
147.512
20
-82.5957
11
147.522
21
-82.5653
0
LINE
8
BLACK
6
CONTINUOUS
10
147.522
20
-82.5653
11
147.537
21
-82.5372
0
LINE
8
BLACK
6
CONTINUOUS
10
147.537
20
-82.5372
11
147.557
21
-82.5126
0
LINE
8
BLACK
6
CONTINUOUS
10
147.557
20
-82.5126
11
147.581
21
-82.4924
0
LINE
8
BLACK
6
CONTINUOUS
10
147.581
20
-82.4924
11
147.609
21
-82.4774
0
LINE
8
BLACK
6
CONTINUOUS
10
147.609
20
-82.4774
11
147.64
21
-82.4681
0
LINE
8
BLACK
6
CONTINUOUS
10
147.64
20
-82.4681
11
147.678
21
-82.4644
0
LINE
8
BLACK
6
CONTINUOUS
10
147.678
20
-82.4644
11
148.241
21
-82.4644
0
LINE
8
BLACK
6
CONTINUOUS
10
148.241
20
-82.4644
11
148.279
21
-82.4681
0
LINE
8
BLACK
6
CONTINUOUS
10
147.095
20
-82.4672
11
147.116
21
-82.4736
0
LINE
8
BLACK
6
CONTINUOUS
10
147.116
20
-82.4736
11
147.135
21
-82.4839
0
LINE
8
BLACK
6
CONTINUOUS
10
147.135
20
-82.4839
11
147.152
21
-82.4979
0
LINE
8
BLACK
6
CONTINUOUS
10
147.152
20
-82.4979
11
147.166
21
-82.515
0
LINE
8
BLACK
6
CONTINUOUS
10
147.166
20
-82.515
11
147.176
21
-82.5344
0
LINE
8
BLACK
6
CONTINUOUS
10
147.176
20
-82.5344
11
147.183
21
-82.5555
0
LINE
8
BLACK
6
CONTINUOUS
10
147.183
20
-82.5555
11
147.186
21
-82.5835
0
LINE
8
BLACK
6
CONTINUOUS
10
147.186
20
-82.5835
11
147.186
21
-84.2473
0
LINE
8
BLACK
6
CONTINUOUS
10
147.186
20
-84.2473
11
147.183
21
-84.2753
0
LINE
8
BLACK
6
CONTINUOUS
10
147.183
20
-84.2753
11
147.176
21
-84.2964
0
LINE
8
BLACK
6
CONTINUOUS
10
147.176
20
-84.2964
11
147.166
21
-84.3158
0
LINE
8
BLACK
6
CONTINUOUS
10
147.166
20
-84.3158
11
147.152
21
-84.3329
0
LINE
8
BLACK
6
CONTINUOUS
10
147.152
20
-84.3329
11
147.135
21
-84.3469
0
LINE
8
BLACK
6
CONTINUOUS
10
147.135
20
-84.3469
11
147.116
21
-84.3572
0
LINE
8
BLACK
6
CONTINUOUS
10
147.116
20
-84.3572
11
147.095
21
-84.3636
0
LINE
8
BLACK
6
CONTINUOUS
10
147.095
20
-84.3636
11
147.066
21
-84.3664
0
LINE
8
BLACK
6
CONTINUOUS
10
147.066
20
-84.3664
11
146.603
21
-84.3664
0
LINE
8
BLACK
6
CONTINUOUS
10
146.603
20
-84.3664
11
146.575
21
-84.3636
0
LINE
8
BLACK
6
CONTINUOUS
10
146.575
20
-84.3636
11
146.554
21
-84.3572
0
LINE
8
BLACK
6
CONTINUOUS
10
146.554
20
-84.3572
11
146.534
21
-84.3469
0
LINE
8
BLACK
6
CONTINUOUS
10
146.534
20
-84.3469
11
146.517
21
-84.3329
0
LINE
8
BLACK
6
CONTINUOUS
10
146.517
20
-84.3329
11
146.503
21
-84.3158
0
LINE
8
BLACK
6
CONTINUOUS
10
146.503
20
-84.3158
11
146.493
21
-84.2964
0
LINE
8
BLACK
6
CONTINUOUS
10
146.493
20
-84.2964
11
146.486
21
-84.2753
0
LINE
8
BLACK
6
CONTINUOUS
10
146.486
20
-84.2753
11
146.484
21
-84.2473
0
LINE
8
BLACK
6
CONTINUOUS
10
146.484
20
-84.2473
11
146.484
21
-82.5835
0
LINE
8
BLACK
6
CONTINUOUS
10
146.484
20
-82.5835
11
146.486
21
-82.5555
0
LINE
8
BLACK
6
CONTINUOUS
10
146.486
20
-82.5555
11
146.493
21
-82.5344
0
LINE
8
BLACK
6
CONTINUOUS
10
146.493
20
-82.5344
11
146.503
21
-82.515
0
LINE
8
BLACK
6
CONTINUOUS
10
146.503
20
-82.515
11
146.517
21
-82.4979
0
LINE
8
BLACK
6
CONTINUOUS
10
146.517
20
-82.4979
11
146.534
21
-82.4839
0
LINE
8
BLACK
6
CONTINUOUS
10
146.534
20
-82.4839
11
146.554
21
-82.4736
0
LINE
8
BLACK
6
CONTINUOUS
10
146.554
20
-82.4736
11
146.575
21
-82.4672
0
LINE
8
BLACK
6
CONTINUOUS
10
146.575
20
-82.4672
11
146.603
21
-82.4644
0
LINE
8
BLACK
6
CONTINUOUS
10
146.603
20
-82.4644
11
147.066
21
-82.4644
0
LINE
8
BLACK
6
CONTINUOUS
10
147.066
20
-82.4644
11
147.095
21
-82.4672
0
LINE
8
BLACK
6
CONTINUOUS
10
146.16
20
-82.4662
11
146.171
21
-82.4698
0
LINE
8
BLACK
6
CONTINUOUS
10
146.171
20
-82.4698
11
146.182
21
-82.4755
0
LINE
8
BLACK
6
CONTINUOUS
10
146.182
20
-82.4755
11
146.192
21
-82.4833
0
LINE
8
BLACK
6
CONTINUOUS
10
146.192
20
-82.4833
11
146.199
21
-82.4927
0
LINE
8
BLACK
6
CONTINUOUS
10
146.199
20
-82.4927
11
146.205
21
-82.5035
0
LINE
8
BLACK
6
CONTINUOUS
10
146.205
20
-82.5035
11
146.209
21
-82.5152
0
LINE
8
BLACK
6
CONTINUOUS
10
146.209
20
-82.5152
11
146.211
21
-82.5335
0
LINE
8
BLACK
6
CONTINUOUS
10
146.211
20
-82.5335
11
146.211
21
-84.2973
0
LINE
8
BLACK
6
CONTINUOUS
10
146.211
20
-84.2973
11
146.209
21
-84.3156
0
LINE
8
BLACK
6
CONTINUOUS
10
146.209
20
-84.3156
11
146.205
21
-84.3273
0
LINE
8
BLACK
6
CONTINUOUS
10
146.205
20
-84.3273
11
146.199
21
-84.3381
0
LINE
8
BLACK
6
CONTINUOUS
10
146.199
20
-84.3381
11
146.192
21
-84.3475
0
LINE
8
BLACK
6
CONTINUOUS
10
146.192
20
-84.3475
11
146.182
21
-84.3553
0
LINE
8
BLACK
6
CONTINUOUS
10
146.182
20
-84.3553
11
146.171
21
-84.361
0
LINE
8
BLACK
6
CONTINUOUS
10
146.171
20
-84.361
11
146.16
21
-84.3646
0
LINE
8
BLACK
6
CONTINUOUS
10
146.16
20
-84.3646
11
146.141
21
-84.3664
0
LINE
8
BLACK
6
CONTINUOUS
10
146.141
20
-84.3664
11
145.778
21
-84.3664
0
LINE
8
BLACK
6
CONTINUOUS
10
145.778
20
-84.3664
11
145.759
21
-84.3646
0
LINE
8
BLACK
6
CONTINUOUS
10
145.759
20
-84.3646
11
145.748
21
-84.361
0
LINE
8
BLACK
6
CONTINUOUS
10
145.748
20
-84.361
11
145.737
21
-84.3553
0
LINE
8
BLACK
6
CONTINUOUS
10
145.737
20
-84.3553
11
145.727
21
-84.3475
0
LINE
8
BLACK
6
CONTINUOUS
10
145.727
20
-84.3475
11
145.72
21
-84.3381
0
LINE
8
BLACK
6
CONTINUOUS
10
145.72
20
-84.3381
11
145.714
21
-84.3273
0
LINE
8
BLACK
6
CONTINUOUS
10
145.714
20
-84.3273
11
145.71
21
-84.3156
0
LINE
8
BLACK
6
CONTINUOUS
10
145.71
20
-84.3156
11
145.709
21
-84.2973
0
LINE
8
BLACK
6
CONTINUOUS
10
145.709
20
-84.2973
11
145.709
21
-82.5335
0
LINE
8
BLACK
6
CONTINUOUS
10
145.709
20
-82.5335
11
145.71
21
-82.5152
0
LINE
8
BLACK
6
CONTINUOUS
10
145.71
20
-82.5152
11
145.714
21
-82.5035
0
LINE
8
BLACK
6
CONTINUOUS
10
145.714
20
-82.5035
11
145.72
21
-82.4927
0
LINE
8
BLACK
6
CONTINUOUS
10
145.72
20
-82.4927
11
145.727
21
-82.4833
0
LINE
8
BLACK
6
CONTINUOUS
10
145.727
20
-82.4833
11
145.737
21
-82.4755
0
LINE
8
BLACK
6
CONTINUOUS
10
145.737
20
-82.4755
11
145.748
21
-82.4698
0
LINE
8
BLACK
6
CONTINUOUS
10
145.748
20
-82.4698
11
145.759
21
-82.4662
0
LINE
8
BLACK
6
CONTINUOUS
10
145.759
20
-82.4662
11
145.778
21
-82.4644
0
LINE
8
BLACK
6
CONTINUOUS
10
145.778
20
-82.4644
11
146.141
21
-82.4644
0
LINE
8
BLACK
6
CONTINUOUS
10
146.141
20
-82.4644
11
146.16
21
-82.4662
0
LINE
8
BLACK
6
CONTINUOUS
10
144.129
20
-82.4681
11
144.16
21
-82.4774
0
LINE
8
BLACK
6
CONTINUOUS
10
144.16
20
-82.4774
11
144.188
21
-82.4924
0
LINE
8
BLACK
6
CONTINUOUS
10
144.188
20
-82.4924
11
144.212
21
-82.5126
0
LINE
8
BLACK
6
CONTINUOUS
10
144.212
20
-82.5126
11
144.233
21
-82.5372
0
LINE
8
BLACK
6
CONTINUOUS
10
144.233
20
-82.5372
11
144.248
21
-82.5653
0
LINE
8
BLACK
6
CONTINUOUS
10
144.248
20
-82.5653
11
144.257
21
-82.5957
0
LINE
8
BLACK
6
CONTINUOUS
10
144.257
20
-82.5957
11
144.261
21
-82.6335
0
LINE
8
BLACK
6
CONTINUOUS
10
144.261
20
-82.6335
11
144.261
21
-84.1973
0
LINE
8
BLACK
6
CONTINUOUS
10
144.261
20
-84.1973
11
144.257
21
-84.2351
0
LINE
8
BLACK
6
CONTINUOUS
10
144.257
20
-84.2351
11
144.248
21
-84.2655
0
LINE
8
BLACK
6
CONTINUOUS
10
144.248
20
-84.2655
11
144.233
21
-84.2936
0
LINE
8
BLACK
6
CONTINUOUS
10
144.233
20
-84.2936
11
144.212
21
-84.3182
0
LINE
8
BLACK
6
CONTINUOUS
10
144.212
20
-84.3182
11
144.188
21
-84.3384
0
LINE
8
BLACK
6
CONTINUOUS
10
144.188
20
-84.3384
11
144.16
21
-84.3534
0
LINE
8
BLACK
6
CONTINUOUS
10
144.16
20
-84.3534
11
144.129
21
-84.3627
0
LINE
8
BLACK
6
CONTINUOUS
10
144.129
20
-84.3627
11
144.091
21
-84.3664
0
LINE
8
BLACK
6
CONTINUOUS
10
144.091
20
-84.3664
11
143.528
21
-84.3664
0
LINE
8
BLACK
6
CONTINUOUS
10
143.528
20
-84.3664
11
143.49
21
-84.3627
0
LINE
8
BLACK
6
CONTINUOUS
10
143.49
20
-84.3627
11
143.459
21
-84.3534
0
LINE
8
BLACK
6
CONTINUOUS
10
143.459
20
-84.3534
11
143.431
21
-84.3384
0
LINE
8
BLACK
6
CONTINUOUS
10
143.431
20
-84.3384
11
143.407
21
-84.3182
0
LINE
8
BLACK
6
CONTINUOUS
10
143.407
20
-84.3182
11
143.387
21
-84.2936
0
LINE
8
BLACK
6
CONTINUOUS
10
143.387
20
-84.2936
11
143.372
21
-84.2655
0
LINE
8
BLACK
6
CONTINUOUS
10
143.372
20
-84.2655
11
143.362
21
-84.2351
0
LINE
8
BLACK
6
CONTINUOUS
10
143.362
20
-84.2351
11
143.359
21
-84.1973
0
LINE
8
BLACK
6
CONTINUOUS
10
143.359
20
-84.1973
11
143.359
21
-82.6335
0
LINE
8
BLACK
6
CONTINUOUS
10
143.359
20
-82.6335
11
143.362
21
-82.5957
0
LINE
8
BLACK
6
CONTINUOUS
10
143.362
20
-82.5957
11
143.372
21
-82.5653
0
LINE
8
BLACK
6
CONTINUOUS
10
143.372
20
-82.5653
11
143.387
21
-82.5372
0
LINE
8
BLACK
6
CONTINUOUS
10
143.387
20
-82.5372
11
143.407
21
-82.5126
0
LINE
8
BLACK
6
CONTINUOUS
10
143.407
20
-82.5126
11
143.431
21
-82.4924
0
LINE
8
BLACK
6
CONTINUOUS
10
143.431
20
-82.4924
11
143.459
21
-82.4774
0
LINE
8
BLACK
6
CONTINUOUS
10
143.459
20
-82.4774
11
143.49
21
-82.4681
0
LINE
8
BLACK
6
CONTINUOUS
10
143.49
20
-82.4681
11
143.528
21
-82.4644
0
LINE
8
BLACK
6
CONTINUOUS
10
143.528
20
-82.4644
11
144.091
21
-82.4644
0
LINE
8
BLACK
6
CONTINUOUS
10
144.091
20
-82.4644
11
144.129
21
-82.4681
0
LINE
8
BLACK
6
CONTINUOUS
10
142.945
20
-82.4672
11
142.966
21
-82.4736
0
LINE
8
BLACK
6
CONTINUOUS
10
142.966
20
-82.4736
11
142.985
21
-82.4839
0
LINE
8
BLACK
6
CONTINUOUS
10
142.985
20
-82.4839
11
143.002
21
-82.4979
0
LINE
8
BLACK
6
CONTINUOUS
10
143.002
20
-82.4979
11
143.016
21
-82.515
0
LINE
8
BLACK
6
CONTINUOUS
10
143.016
20
-82.515
11
143.026
21
-82.5344
0
LINE
8
BLACK
6
CONTINUOUS
10
143.026
20
-82.5344
11
143.033
21
-82.5555
0
LINE
8
BLACK
6
CONTINUOUS
10
143.033
20
-82.5555
11
143.036
21
-82.5835
0
LINE
8
BLACK
6
CONTINUOUS
10
143.036
20
-82.5835
11
143.036
21
-84.2473
0
LINE
8
BLACK
6
CONTINUOUS
10
143.036
20
-84.2473
11
143.033
21
-84.2753
0
LINE
8
BLACK
6
CONTINUOUS
10
143.033
20
-84.2753
11
143.026
21
-84.2964
0
LINE
8
BLACK
6
CONTINUOUS
10
143.026
20
-84.2964
11
143.016
21
-84.3158
0
LINE
8
BLACK
6
CONTINUOUS
10
143.016
20
-84.3158
11
143.002
21
-84.3329
0
LINE
8
BLACK
6
CONTINUOUS
10
143.002
20
-84.3329
11
142.985
21
-84.3469
0
LINE
8
BLACK
6
CONTINUOUS
10
142.985
20
-84.3469
11
142.966
21
-84.3572
0
LINE
8
BLACK
6
CONTINUOUS
10
142.966
20
-84.3572
11
142.945
21
-84.3636
0
LINE
8
BLACK
6
CONTINUOUS
10
142.945
20
-84.3636
11
142.916
21
-84.3664
0
LINE
8
BLACK
6
CONTINUOUS
10
142.916
20
-84.3664
11
142.453
21
-84.3664
0
LINE
8
BLACK
6
CONTINUOUS
10
142.453
20
-84.3664
11
142.425
21
-84.3636
0
LINE
8
BLACK
6
CONTINUOUS
10
142.425
20
-84.3636
11
142.404
21
-84.3572
0
LINE
8
BLACK
6
CONTINUOUS
10
142.404
20
-84.3572
11
142.384
21
-84.3469
0
LINE
8
BLACK
6
CONTINUOUS
10
142.384
20
-84.3469
11
142.367
21
-84.3329
0
LINE
8
BLACK
6
CONTINUOUS
10
142.367
20
-84.3329
11
142.353
21
-84.3158
0
LINE
8
BLACK
6
CONTINUOUS
10
142.353
20
-84.3158
11
142.343
21
-84.2964
0
LINE
8
BLACK
6
CONTINUOUS
10
142.343
20
-84.2964
11
142.336
21
-84.2753
0
LINE
8
BLACK
6
CONTINUOUS
10
142.336
20
-84.2753
11
142.334
21
-84.2473
0
LINE
8
BLACK
6
CONTINUOUS
10
142.334
20
-84.2473
11
142.334
21
-82.5835
0
LINE
8
BLACK
6
CONTINUOUS
10
142.334
20
-82.5835
11
142.336
21
-82.5555
0
LINE
8
BLACK
6
CONTINUOUS
10
142.336
20
-82.5555
11
142.343
21
-82.5344
0
LINE
8
BLACK
6
CONTINUOUS
10
142.343
20
-82.5344
11
142.353
21
-82.515
0
LINE
8
BLACK
6
CONTINUOUS
10
142.353
20
-82.515
11
142.367
21
-82.4979
0
LINE
8
BLACK
6
CONTINUOUS
10
142.367
20
-82.4979
11
142.384
21
-82.4839
0
LINE
8
BLACK
6
CONTINUOUS
10
142.384
20
-82.4839
11
142.404
21
-82.4736
0
LINE
8
BLACK
6
CONTINUOUS
10
142.404
20
-82.4736
11
142.425
21
-82.4672
0
LINE
8
BLACK
6
CONTINUOUS
10
142.425
20
-82.4672
11
142.453
21
-82.4644
0
LINE
8
BLACK
6
CONTINUOUS
10
142.453
20
-82.4644
11
142.916
21
-82.4644
0
LINE
8
BLACK
6
CONTINUOUS
10
142.916
20
-82.4644
11
142.945
21
-82.4672
0
LINE
8
BLACK
6
CONTINUOUS
10
141.154
20
-82.4681
11
141.185
21
-82.4774
0
LINE
8
BLACK
6
CONTINUOUS
10
141.185
20
-82.4774
11
141.213
21
-82.4924
0
LINE
8
BLACK
6
CONTINUOUS
10
141.213
20
-82.4924
11
141.237
21
-82.5126
0
LINE
8
BLACK
6
CONTINUOUS
10
141.237
20
-82.5126
11
141.258
21
-82.5372
0
LINE
8
BLACK
6
CONTINUOUS
10
141.258
20
-82.5372
11
141.273
21
-82.5653
0
LINE
8
BLACK
6
CONTINUOUS
10
141.273
20
-82.5653
11
141.282
21
-82.5957
0
LINE
8
BLACK
6
CONTINUOUS
10
141.282
20
-82.5957
11
141.286
21
-82.6335
0
LINE
8
BLACK
6
CONTINUOUS
10
141.286
20
-82.6335
11
141.286
21
-84.1973
0
LINE
8
BLACK
6
CONTINUOUS
10
141.286
20
-84.1973
11
141.282
21
-84.2351
0
LINE
8
BLACK
6
CONTINUOUS
10
141.282
20
-84.2351
11
141.273
21
-84.2655
0
LINE
8
BLACK
6
CONTINUOUS
10
141.273
20
-84.2655
11
141.258
21
-84.2936
0
LINE
8
BLACK
6
CONTINUOUS
10
141.258
20
-84.2936
11
141.237
21
-84.3182
0
LINE
8
BLACK
6
CONTINUOUS
10
141.237
20
-84.3182
11
141.213
21
-84.3384
0
LINE
8
BLACK
6
CONTINUOUS
10
141.213
20
-84.3384
11
141.185
21
-84.3534
0
LINE
8
BLACK
6
CONTINUOUS
10
141.185
20
-84.3534
11
141.154
21
-84.3627
0
LINE
8
BLACK
6
CONTINUOUS
10
141.154
20
-84.3627
11
141.116
21
-84.3664
0
LINE
8
BLACK
6
CONTINUOUS
10
141.116
20
-84.3664
11
140.553
21
-84.3664
0
LINE
8
BLACK
6
CONTINUOUS
10
140.553
20
-84.3664
11
140.515
21
-84.3627
0
LINE
8
BLACK
6
CONTINUOUS
10
140.515
20
-84.3627
11
140.484
21
-84.3534
0
LINE
8
BLACK
6
CONTINUOUS
10
140.484
20
-84.3534
11
140.456
21
-84.3384
0
LINE
8
BLACK
6
CONTINUOUS
10
140.456
20
-84.3384
11
140.432
21
-84.3182
0
LINE
8
BLACK
6
CONTINUOUS
10
140.432
20
-84.3182
11
140.412
21
-84.2936
0
LINE
8
BLACK
6
CONTINUOUS
10
140.412
20
-84.2936
11
140.397
21
-84.2655
0
LINE
8
BLACK
6
CONTINUOUS
10
140.397
20
-84.2655
11
140.387
21
-84.2351
0
LINE
8
BLACK
6
CONTINUOUS
10
140.387
20
-84.2351
11
140.384
21
-84.1973
0
LINE
8
BLACK
6
CONTINUOUS
10
140.384
20
-84.1973
11
140.384
21
-82.6335
0
LINE
8
BLACK
6
CONTINUOUS
10
140.384
20
-82.6335
11
140.387
21
-82.5957
0
LINE
8
BLACK
6
CONTINUOUS
10
140.387
20
-82.5957
11
140.397
21
-82.5653
0
LINE
8
BLACK
6
CONTINUOUS
10
140.397
20
-82.5653
11
140.412
21
-82.5372
0
LINE
8
BLACK
6
CONTINUOUS
10
140.412
20
-82.5372
11
140.432
21
-82.5126
0
LINE
8
BLACK
6
CONTINUOUS
10
140.432
20
-82.5126
11
140.456
21
-82.4924
0
LINE
8
BLACK
6
CONTINUOUS
10
140.456
20
-82.4924
11
140.484
21
-82.4774
0
LINE
8
BLACK
6
CONTINUOUS
10
140.484
20
-82.4774
11
140.515
21
-82.4681
0
LINE
8
BLACK
6
CONTINUOUS
10
140.515
20
-82.4681
11
140.553
21
-82.4644
0
LINE
8
BLACK
6
CONTINUOUS
10
140.553
20
-82.4644
11
141.116
21
-82.4644
0
LINE
8
BLACK
6
CONTINUOUS
10
141.116
20
-82.4644
11
141.154
21
-82.4681
0
LINE
8
BLACK
6
CONTINUOUS
10
149.568
20
-67.9832
11
147.666
21
-67.9832
0
LINE
8
BLACK
6
CONTINUOUS
10
147.666
20
-67.9832
11
147.666
21
-66.0812
0
LINE
8
BLACK
6
CONTINUOUS
10
147.666
20
-66.0812
11
149.568
21
-66.0812
0
LINE
8
BLACK
6
CONTINUOUS
10
149.568
20
-66.0812
11
149.568
21
-67.9832
0
LINE
8
BLACK
6
CONTINUOUS
10
143.418
20
-67.9832
11
141.516
21
-67.9832
0
LINE
8
BLACK
6
CONTINUOUS
10
141.516
20
-67.9832
11
141.516
21
-66.0812
0
LINE
8
BLACK
6
CONTINUOUS
10
141.516
20
-66.0812
11
143.418
21
-66.0812
0
LINE
8
BLACK
6
CONTINUOUS
10
143.418
20
-66.0812
11
143.418
21
-67.9832
0
LINE
8
BLACK
6
CONTINUOUS
10
143.418
20
-61.8332
11
141.516
21
-61.8332
0
LINE
8
BLACK
6
CONTINUOUS
10
141.516
20
-61.8332
11
141.516
21
-59.9312
0
LINE
8
BLACK
6
CONTINUOUS
10
141.516
20
-59.9312
11
143.418
21
-59.9312
0
LINE
8
BLACK
6
CONTINUOUS
10
143.418
20
-59.9312
11
143.418
21
-61.8332
0
LINE
8
BLACK
6
CONTINUOUS
10
149.568
20
-61.8332
11
147.666
21
-61.8332
0
LINE
8
BLACK
6
CONTINUOUS
10
147.666
20
-61.8332
11
147.666
21
-59.9312
0
LINE
8
BLACK
6
CONTINUOUS
10
147.666
20
-59.9312
11
149.568
21
-59.9312
0
LINE
8
BLACK
6
CONTINUOUS
10
149.568
20
-59.9312
11
149.568
21
-61.8332
  0
ENDSEC
  0
EOF
