  0
SECTION
  2
HEADER
  9
$ANGBASE
  50
0.0
  9
$ANGDIR
  70
  1
  9
$MEASUREMENT
  70
0
  0
ENDSEC
  0
SECTION
  2
TABLES
  0
TABLE
  2
LTYPE
  70
4
  0
LTYPE
  5
40F
  2
CONTINUOUS
  70
0
  3
Solid line
  72
65
  73
0
  40
0.0
  0
LTYPE
  5
410
  2
DASHDOT
 70
0
  3
Dash Dot ____ _ ____ _
 72
65
 73
4
 40
2.0
 49
1.25
 49
-0.25
 49
0.25
 49
-0.25
  0
LTYPE
  5
411
  2
DASHED
 70
0
  3
Dashed __ __ __ __ __
 72
65
 73
2
 40
0.75
 49
0.5
 49
-0.25
  0
LTYPE
  5
43B
  2
DOTTED
 70
0
  3
Dotted .  .  .  .
 72
65
 73
2
 40
0.2
 49
0.0
 49
-0.2
  0
ENDTAB
  0
TABLE
  2
STYLE
  70
4
  0
STYLE
  2
KICAD
  70
0
  40
0
  41
1
  42
1
  50
0
  71
0
  3
isocp.shx
  0
STYLE
  2
KICADB
  70
0
  40
0
  41
1
  42
1
  50
0
  71
0
  3
isocp.shx
  0
STYLE
  2
KICADI
  70
0
  40
0
  41
1
  42
1
  50
15
  71
0
  3
isocp.shx
  0
STYLE
  2
KICADBI
  70
0
  40
0
  41
1
  42
1
  50
15
  71
0
  3
isocp.shx
  0
ENDTAB
  0
TABLE
  2
LAYER
  70
30
  0
LAYER
  2
BLACK
  70
0
  62
7
  6
CONTINUOUS
  0
LAYER
  2
GRAY1
  70
0
  62
251
  6
CONTINUOUS
  0
LAYER
  2
GRAY2
  70
0
  62
8
  6
CONTINUOUS
  0
LAYER
  2
GRAY3
  70
0
  62
9
  6
CONTINUOUS
  0
LAYER
  2
WHITE
  70
0
  62
7
  6
CONTINUOUS
  0
LAYER
  2
LYELLOW
  70
0
  62
51
  6
CONTINUOUS
  0
LAYER
  2
BLUE1
  70
0
  62
178
  6
CONTINUOUS
  0
LAYER
  2
GREEN1
  70
0
  62
98
  6
CONTINUOUS
  0
LAYER
  2
CYAN1
  70
0
  62
138
  6
CONTINUOUS
  0
LAYER
  2
RED1
  70
0
  62
18
  6
CONTINUOUS
  0
LAYER
  2
MAGENTA1
  70
0
  62
228
  6
CONTINUOUS
  0
LAYER
  2
BROWN1
  70
0
  62
58
  6
CONTINUOUS
  0
LAYER
  2
BLUE2
  70
0
  62
5
  6
CONTINUOUS
  0
LAYER
  2
GREEN2
  70
0
  62
3
  6
CONTINUOUS
  0
LAYER
  2
CYAN2
  70
0
  62
4
  6
CONTINUOUS
  0
LAYER
  2
RED2
  70
0
  62
1
  6
CONTINUOUS
  0
LAYER
  2
MAGENTA2
  70
0
  62
6
  6
CONTINUOUS
  0
LAYER
  2
BROWN2
  70
0
  62
54
  6
CONTINUOUS
  0
LAYER
  2
BLUE3
  70
0
  62
171
  6
CONTINUOUS
  0
LAYER
  2
GREEN3
  70
0
  62
91
  6
CONTINUOUS
  0
LAYER
  2
CYAN3
  70
0
  62
131
  6
CONTINUOUS
  0
LAYER
  2
RED3
  70
0
  62
11
  6
CONTINUOUS
  0
LAYER
  2
MAGENTA3
  70
0
  62
221
  6
CONTINUOUS
  0
LAYER
  2
YELLOW3
  70
0
  62
2
  6
CONTINUOUS
  0
LAYER
  2
BLUE4
  70
0
  62
5
  6
CONTINUOUS
  0
LAYER
  2
GREEN4
  70
0
  62
3
  6
CONTINUOUS
  0
LAYER
  2
CYAN4
  70
0
  62
4
  6
CONTINUOUS
  0
LAYER
  2
RED4
  70
0
  62
1
  6
CONTINUOUS
  0
LAYER
  2
MAGENTA4
  70
0
  62
6
  6
CONTINUOUS
  0
LAYER
  2
YELLOW4
  70
0
  62
2
  6
CONTINUOUS
  0
ENDTAB
  0
ENDSEC
  0
SECTION
  2
ENTITIES
0
LINE
8
BLACK
6
CONTINUOUS
10
149.462
20
-108.073
11
149.612
21
-108.159
0
LINE
8
BLACK
6
CONTINUOUS
10
149.612
20
-108.159
11
149.724
21
-108.292
0
LINE
8
BLACK
6
CONTINUOUS
10
149.724
20
-108.292
11
149.791
21
-108.542
0
LINE
8
BLACK
6
CONTINUOUS
10
149.791
20
-108.542
11
149.791
21
-109.242
0
LINE
8
BLACK
6
CONTINUOUS
10
149.791
20
-109.242
11
149.76
21
-109.414
0
LINE
8
BLACK
6
CONTINUOUS
10
149.76
20
-109.414
11
149.674
21
-109.564
0
LINE
8
BLACK
6
CONTINUOUS
10
149.674
20
-109.564
11
149.541
21
-109.676
0
LINE
8
BLACK
6
CONTINUOUS
10
149.541
20
-109.676
11
149.291
21
-109.742
0
LINE
8
BLACK
6
CONTINUOUS
10
149.291
20
-109.742
11
149.29
21
-109.742
0
LINE
8
BLACK
6
CONTINUOUS
10
149.29
20
-109.742
11
149.119
21
-109.712
0
LINE
8
BLACK
6
CONTINUOUS
10
149.119
20
-109.712
11
148.969
21
-109.626
0
LINE
8
BLACK
6
CONTINUOUS
10
148.969
20
-109.626
11
148.857
21
-109.492
0
LINE
8
BLACK
6
CONTINUOUS
10
148.857
20
-109.492
11
148.79
21
-109.242
0
LINE
8
BLACK
6
CONTINUOUS
10
148.79
20
-109.242
11
148.79
21
-108.542
0
LINE
8
BLACK
6
CONTINUOUS
10
148.79
20
-108.542
11
148.821
21
-108.371
0
LINE
8
BLACK
6
CONTINUOUS
10
148.821
20
-108.371
11
148.907
21
-108.221
0
LINE
8
BLACK
6
CONTINUOUS
10
148.907
20
-108.221
11
149.04
21
-108.109
0
LINE
8
BLACK
6
CONTINUOUS
10
149.04
20
-108.109
11
149.29
21
-108.042
0
LINE
8
BLACK
6
CONTINUOUS
10
149.29
20
-108.042
11
149.291
21
-108.042
0
LINE
8
BLACK
6
CONTINUOUS
10
149.291
20
-108.042
11
149.462
21
-108.073
0
LINE
8
BLACK
6
CONTINUOUS
10
140.822
20
-108.073
11
140.972
21
-108.159
0
LINE
8
BLACK
6
CONTINUOUS
10
140.972
20
-108.159
11
141.084
21
-108.292
0
LINE
8
BLACK
6
CONTINUOUS
10
141.084
20
-108.292
11
141.151
21
-108.542
0
LINE
8
BLACK
6
CONTINUOUS
10
141.151
20
-108.542
11
141.151
21
-109.242
0
LINE
8
BLACK
6
CONTINUOUS
10
141.151
20
-109.242
11
141.12
21
-109.414
0
LINE
8
BLACK
6
CONTINUOUS
10
141.12
20
-109.414
11
141.034
21
-109.564
0
LINE
8
BLACK
6
CONTINUOUS
10
141.034
20
-109.564
11
140.901
21
-109.676
0
LINE
8
BLACK
6
CONTINUOUS
10
140.901
20
-109.676
11
140.651
21
-109.742
0
LINE
8
BLACK
6
CONTINUOUS
10
140.651
20
-109.742
11
140.65
21
-109.742
0
LINE
8
BLACK
6
CONTINUOUS
10
140.65
20
-109.742
11
140.479
21
-109.712
0
LINE
8
BLACK
6
CONTINUOUS
10
140.479
20
-109.712
11
140.329
21
-109.626
0
LINE
8
BLACK
6
CONTINUOUS
10
140.329
20
-109.626
11
140.217
21
-109.492
0
LINE
8
BLACK
6
CONTINUOUS
10
140.217
20
-109.492
11
140.15
21
-109.242
0
LINE
8
BLACK
6
CONTINUOUS
10
140.15
20
-109.242
11
140.15
21
-108.542
0
LINE
8
BLACK
6
CONTINUOUS
10
140.15
20
-108.542
11
140.181
21
-108.371
0
LINE
8
BLACK
6
CONTINUOUS
10
140.181
20
-108.371
11
140.267
21
-108.221
0
LINE
8
BLACK
6
CONTINUOUS
10
140.267
20
-108.221
11
140.4
21
-108.109
0
LINE
8
BLACK
6
CONTINUOUS
10
140.4
20
-108.109
11
140.65
21
-108.042
0
LINE
8
BLACK
6
CONTINUOUS
10
140.65
20
-108.042
11
140.651
21
-108.042
0
LINE
8
BLACK
6
CONTINUOUS
10
140.651
20
-108.042
11
140.822
21
-108.073
0
LINE
8
BLACK
6
CONTINUOUS
10
140.822
20
-104.273
11
140.972
21
-104.359
0
LINE
8
BLACK
6
CONTINUOUS
10
140.972
20
-104.359
11
141.084
21
-104.492
0
LINE
8
BLACK
6
CONTINUOUS
10
141.084
20
-104.492
11
141.151
21
-104.742
0
LINE
8
BLACK
6
CONTINUOUS
10
141.151
20
-104.742
11
141.151
21
-105.442
0
LINE
8
BLACK
6
CONTINUOUS
10
141.151
20
-105.442
11
141.12
21
-105.614
0
LINE
8
BLACK
6
CONTINUOUS
10
141.12
20
-105.614
11
141.034
21
-105.764
0
LINE
8
BLACK
6
CONTINUOUS
10
141.034
20
-105.764
11
140.901
21
-105.876
0
LINE
8
BLACK
6
CONTINUOUS
10
140.901
20
-105.876
11
140.651
21
-105.942
0
LINE
8
BLACK
6
CONTINUOUS
10
140.651
20
-105.942
11
140.65
21
-105.942
0
LINE
8
BLACK
6
CONTINUOUS
10
140.65
20
-105.942
11
140.479
21
-105.912
0
LINE
8
BLACK
6
CONTINUOUS
10
140.479
20
-105.912
11
140.329
21
-105.826
0
LINE
8
BLACK
6
CONTINUOUS
10
140.329
20
-105.826
11
140.217
21
-105.692
0
LINE
8
BLACK
6
CONTINUOUS
10
140.217
20
-105.692
11
140.15
21
-105.442
0
LINE
8
BLACK
6
CONTINUOUS
10
140.15
20
-105.442
11
140.15
21
-104.742
0
LINE
8
BLACK
6
CONTINUOUS
10
140.15
20
-104.742
11
140.181
21
-104.571
0
LINE
8
BLACK
6
CONTINUOUS
10
140.181
20
-104.571
11
140.267
21
-104.421
0
LINE
8
BLACK
6
CONTINUOUS
10
140.267
20
-104.421
11
140.4
21
-104.309
0
LINE
8
BLACK
6
CONTINUOUS
10
140.4
20
-104.309
11
140.65
21
-104.242
0
LINE
8
BLACK
6
CONTINUOUS
10
140.65
20
-104.242
11
140.651
21
-104.242
0
LINE
8
BLACK
6
CONTINUOUS
10
140.651
20
-104.242
11
140.822
21
-104.273
0
LINE
8
BLACK
6
CONTINUOUS
10
149.462
20
-104.273
11
149.612
21
-104.359
0
LINE
8
BLACK
6
CONTINUOUS
10
149.612
20
-104.359
11
149.724
21
-104.492
0
LINE
8
BLACK
6
CONTINUOUS
10
149.724
20
-104.492
11
149.791
21
-104.742
0
LINE
8
BLACK
6
CONTINUOUS
10
149.791
20
-104.742
11
149.791
21
-105.442
0
LINE
8
BLACK
6
CONTINUOUS
10
149.791
20
-105.442
11
149.76
21
-105.614
0
LINE
8
BLACK
6
CONTINUOUS
10
149.76
20
-105.614
11
149.674
21
-105.764
0
LINE
8
BLACK
6
CONTINUOUS
10
149.674
20
-105.764
11
149.541
21
-105.876
0
LINE
8
BLACK
6
CONTINUOUS
10
149.541
20
-105.876
11
149.291
21
-105.942
0
LINE
8
BLACK
6
CONTINUOUS
10
149.291
20
-105.942
11
149.29
21
-105.942
0
LINE
8
BLACK
6
CONTINUOUS
10
149.29
20
-105.942
11
149.119
21
-105.912
0
LINE
8
BLACK
6
CONTINUOUS
10
149.119
20
-105.912
11
148.969
21
-105.826
0
LINE
8
BLACK
6
CONTINUOUS
10
148.969
20
-105.826
11
148.857
21
-105.692
0
LINE
8
BLACK
6
CONTINUOUS
10
148.857
20
-105.692
11
148.79
21
-105.442
0
LINE
8
BLACK
6
CONTINUOUS
10
148.79
20
-105.442
11
148.79
21
-104.742
0
LINE
8
BLACK
6
CONTINUOUS
10
148.79
20
-104.742
11
148.821
21
-104.571
0
LINE
8
BLACK
6
CONTINUOUS
10
148.821
20
-104.571
11
148.907
21
-104.421
0
LINE
8
BLACK
6
CONTINUOUS
10
148.907
20
-104.421
11
149.04
21
-104.309
0
LINE
8
BLACK
6
CONTINUOUS
10
149.04
20
-104.309
11
149.29
21
-104.242
0
LINE
8
BLACK
6
CONTINUOUS
10
149.29
20
-104.242
11
149.291
21
-104.242
0
LINE
8
BLACK
6
CONTINUOUS
10
149.291
20
-104.242
11
149.462
21
-104.273
0
LINE
8
BLACK
6
CONTINUOUS
10
138.233
20
-105.41
11
138.294
21
-105.445
0
LINE
8
BLACK
6
CONTINUOUS
10
138.294
20
-105.445
11
138.339
21
-105.499
0
LINE
8
BLACK
6
CONTINUOUS
10
138.339
20
-105.499
11
138.363
21
-105.565
0
LINE
8
BLACK
6
CONTINUOUS
10
138.363
20
-105.565
11
138.363
21
-105.636
0
LINE
8
BLACK
6
CONTINUOUS
10
138.363
20
-105.636
11
138.339
21
-105.702
0
LINE
8
BLACK
6
CONTINUOUS
10
138.339
20
-105.702
11
138.294
21
-105.756
0
LINE
8
BLACK
6
CONTINUOUS
10
138.294
20
-105.756
11
138.233
21
-105.791
0
LINE
8
BLACK
6
CONTINUOUS
10
138.233
20
-105.791
11
138.163
21
-105.804
0
LINE
8
BLACK
6
CONTINUOUS
10
138.163
20
-105.804
11
138.094
21
-105.791
0
LINE
8
BLACK
6
CONTINUOUS
10
138.094
20
-105.791
11
138.033
21
-105.756
0
LINE
8
BLACK
6
CONTINUOUS
10
138.033
20
-105.756
11
137.987
21
-105.702
0
LINE
8
BLACK
6
CONTINUOUS
10
137.987
20
-105.702
11
137.963
21
-105.636
0
LINE
8
BLACK
6
CONTINUOUS
10
137.963
20
-105.636
11
137.963
21
-105.565
0
LINE
8
BLACK
6
CONTINUOUS
10
137.963
20
-105.565
11
137.987
21
-105.499
0
LINE
8
BLACK
6
CONTINUOUS
10
137.987
20
-105.499
11
138.033
21
-105.445
0
LINE
8
BLACK
6
CONTINUOUS
10
138.033
20
-105.445
11
138.094
21
-105.41
0
LINE
8
BLACK
6
CONTINUOUS
10
138.094
20
-105.41
11
138.163
21
-105.397
0
LINE
8
BLACK
6
CONTINUOUS
10
138.163
20
-105.397
11
138.233
21
-105.41
0
LINE
8
BLACK
6
CONTINUOUS
10
163.749
20
-91.8779
11
163.856
21
-91.9396
0
LINE
8
BLACK
6
CONTINUOUS
10
163.856
20
-91.9396
11
163.935
21
-92.0341
0
LINE
8
BLACK
6
CONTINUOUS
10
163.935
20
-92.0341
11
163.977
21
-92.1501
0
LINE
8
BLACK
6
CONTINUOUS
10
163.977
20
-92.1501
11
163.977
21
-92.2735
0
LINE
8
BLACK
6
CONTINUOUS
10
163.977
20
-92.2735
11
163.935
21
-92.3895
0
LINE
8
BLACK
6
CONTINUOUS
10
163.935
20
-92.3895
11
163.856
21
-92.4841
0
LINE
8
BLACK
6
CONTINUOUS
10
163.856
20
-92.4841
11
163.749
21
-92.5458
0
LINE
8
BLACK
6
CONTINUOUS
10
163.749
20
-92.5458
11
163.627
21
-92.5672
0
LINE
8
BLACK
6
CONTINUOUS
10
163.627
20
-92.5672
11
163.506
21
-92.5458
0
LINE
8
BLACK
6
CONTINUOUS
10
163.506
20
-92.5458
11
163.399
21
-92.4841
0
LINE
8
BLACK
6
CONTINUOUS
10
163.399
20
-92.4841
11
163.32
21
-92.3895
0
LINE
8
BLACK
6
CONTINUOUS
10
163.32
20
-92.3895
11
163.277
21
-92.2735
0
LINE
8
BLACK
6
CONTINUOUS
10
163.277
20
-92.2735
11
163.277
21
-92.1501
0
LINE
8
BLACK
6
CONTINUOUS
10
163.277
20
-92.1501
11
163.32
21
-92.0341
0
LINE
8
BLACK
6
CONTINUOUS
10
163.32
20
-92.0341
11
163.399
21
-91.9396
0
LINE
8
BLACK
6
CONTINUOUS
10
163.399
20
-91.9396
11
163.506
21
-91.8779
0
LINE
8
BLACK
6
CONTINUOUS
10
163.506
20
-91.8779
11
163.627
21
-91.8564
0
LINE
8
BLACK
6
CONTINUOUS
10
163.627
20
-91.8564
11
163.749
21
-91.8779
0
LINE
8
BLACK
6
CONTINUOUS
10
165.135
20
-90.8927
11
165.248
21
-90.9775
0
LINE
8
BLACK
6
CONTINUOUS
10
165.248
20
-90.9775
11
165.325
21
-91.0959
0
LINE
8
BLACK
6
CONTINUOUS
10
165.325
20
-91.0959
11
165.357
21
-91.2333
0
LINE
8
BLACK
6
CONTINUOUS
10
165.357
20
-91.2333
11
165.339
21
-91.3733
0
LINE
8
BLACK
6
CONTINUOUS
10
165.339
20
-91.3733
11
165.275
21
-91.499
0
LINE
8
BLACK
6
CONTINUOUS
10
165.275
20
-91.499
11
165.172
21
-91.5952
0
LINE
8
BLACK
6
CONTINUOUS
10
165.172
20
-91.5952
11
165.075
21
-91.6364
0
LINE
8
BLACK
6
CONTINUOUS
10
165.075
20
-91.6364
11
164.325
21
-91.8096
0
LINE
8
BLACK
6
CONTINUOUS
10
164.325
20
-91.8096
11
164.219
21
-91.8152
0
LINE
8
BLACK
6
CONTINUOUS
10
164.219
20
-91.8152
11
164.085
21
-91.7739
0
LINE
8
BLACK
6
CONTINUOUS
10
164.085
20
-91.7739
11
163.972
21
-91.689
0
LINE
8
BLACK
6
CONTINUOUS
10
163.972
20
-91.689
11
163.895
21
-91.5707
0
LINE
8
BLACK
6
CONTINUOUS
10
163.895
20
-91.5707
11
163.863
21
-91.4333
0
LINE
8
BLACK
6
CONTINUOUS
10
163.863
20
-91.4333
11
163.881
21
-91.2933
0
LINE
8
BLACK
6
CONTINUOUS
10
163.881
20
-91.2933
11
163.945
21
-91.1676
0
LINE
8
BLACK
6
CONTINUOUS
10
163.945
20
-91.1676
11
164.048
21
-91.0714
0
LINE
8
BLACK
6
CONTINUOUS
10
164.048
20
-91.0714
11
164.145
21
-91.0301
0
LINE
8
BLACK
6
CONTINUOUS
10
164.145
20
-91.0301
11
164.895
21
-90.8569
0
LINE
8
BLACK
6
CONTINUOUS
10
164.895
20
-90.8569
11
165.001
21
-90.8514
0
LINE
8
BLACK
6
CONTINUOUS
10
165.001
20
-90.8514
11
165.135
21
-90.8927
0
LINE
8
BLACK
6
CONTINUOUS
10
163.463
20
-90.6404
11
163.57
21
-90.7021
0
LINE
8
BLACK
6
CONTINUOUS
10
163.57
20
-90.7021
11
163.65
21
-90.7967
0
LINE
8
BLACK
6
CONTINUOUS
10
163.65
20
-90.7967
11
163.692
21
-90.9127
0
LINE
8
BLACK
6
CONTINUOUS
10
163.692
20
-90.9127
11
163.692
21
-91.0361
0
LINE
8
BLACK
6
CONTINUOUS
10
163.692
20
-91.0361
11
163.65
21
-91.1521
0
LINE
8
BLACK
6
CONTINUOUS
10
163.65
20
-91.1521
11
163.57
21
-91.2466
0
LINE
8
BLACK
6
CONTINUOUS
10
163.57
20
-91.2466
11
163.463
21
-91.3083
0
LINE
8
BLACK
6
CONTINUOUS
10
163.463
20
-91.3083
11
163.342
21
-91.3298
0
LINE
8
BLACK
6
CONTINUOUS
10
163.342
20
-91.3298
11
163.22
21
-91.3083
0
LINE
8
BLACK
6
CONTINUOUS
10
163.22
20
-91.3083
11
163.113
21
-91.2466
0
LINE
8
BLACK
6
CONTINUOUS
10
163.113
20
-91.2466
11
163.034
21
-91.1521
0
LINE
8
BLACK
6
CONTINUOUS
10
163.034
20
-91.1521
11
162.992
21
-91.0361
0
LINE
8
BLACK
6
CONTINUOUS
10
162.992
20
-91.0361
11
162.992
21
-90.9127
0
LINE
8
BLACK
6
CONTINUOUS
10
162.992
20
-90.9127
11
163.034
21
-90.7967
0
LINE
8
BLACK
6
CONTINUOUS
10
163.034
20
-90.7967
11
163.113
21
-90.7021
0
LINE
8
BLACK
6
CONTINUOUS
10
163.113
20
-90.7021
11
163.22
21
-90.6404
0
LINE
8
BLACK
6
CONTINUOUS
10
163.22
20
-90.6404
11
163.342
21
-90.619
0
LINE
8
BLACK
6
CONTINUOUS
10
163.342
20
-90.619
11
163.463
21
-90.6404
0
LINE
8
BLACK
6
CONTINUOUS
10
164.85
20
-89.6552
11
164.962
21
-89.7401
0
LINE
8
BLACK
6
CONTINUOUS
10
164.962
20
-89.7401
11
165.039
21
-89.8584
0
LINE
8
BLACK
6
CONTINUOUS
10
165.039
20
-89.8584
11
165.071
21
-89.9958
0
LINE
8
BLACK
6
CONTINUOUS
10
165.071
20
-89.9958
11
165.054
21
-90.1359
0
LINE
8
BLACK
6
CONTINUOUS
10
165.054
20
-90.1359
11
164.99
21
-90.2615
0
LINE
8
BLACK
6
CONTINUOUS
10
164.99
20
-90.2615
11
164.887
21
-90.3577
0
LINE
8
BLACK
6
CONTINUOUS
10
164.887
20
-90.3577
11
164.789
21
-90.399
0
LINE
8
BLACK
6
CONTINUOUS
10
164.789
20
-90.399
11
164.039
21
-90.5722
0
LINE
8
BLACK
6
CONTINUOUS
10
164.039
20
-90.5722
11
163.934
21
-90.5777
0
LINE
8
BLACK
6
CONTINUOUS
10
163.934
20
-90.5777
11
163.799
21
-90.5365
0
LINE
8
BLACK
6
CONTINUOUS
10
163.799
20
-90.5365
11
163.686
21
-90.4516
0
LINE
8
BLACK
6
CONTINUOUS
10
163.686
20
-90.4516
11
163.609
21
-90.3333
0
LINE
8
BLACK
6
CONTINUOUS
10
163.609
20
-90.3333
11
163.578
21
-90.1958
0
LINE
8
BLACK
6
CONTINUOUS
10
163.578
20
-90.1958
11
163.595
21
-90.0558
0
LINE
8
BLACK
6
CONTINUOUS
10
163.595
20
-90.0558
11
163.659
21
-89.9301
0
LINE
8
BLACK
6
CONTINUOUS
10
163.659
20
-89.9301
11
163.762
21
-89.8339
0
LINE
8
BLACK
6
CONTINUOUS
10
163.762
20
-89.8339
11
163.859
21
-89.7927
0
LINE
8
BLACK
6
CONTINUOUS
10
163.859
20
-89.7927
11
164.609
21
-89.6195
0
LINE
8
BLACK
6
CONTINUOUS
10
164.609
20
-89.6195
11
164.715
21
-89.614
0
LINE
8
BLACK
6
CONTINUOUS
10
164.715
20
-89.614
11
164.85
21
-89.6552
0
LINE
8
BLACK
6
CONTINUOUS
10
163.178
20
-89.403
11
163.284
21
-89.4647
0
LINE
8
BLACK
6
CONTINUOUS
10
163.284
20
-89.4647
11
163.364
21
-89.5592
0
LINE
8
BLACK
6
CONTINUOUS
10
163.364
20
-89.5592
11
163.406
21
-89.6752
0
LINE
8
BLACK
6
CONTINUOUS
10
163.406
20
-89.6752
11
163.406
21
-89.7986
0
LINE
8
BLACK
6
CONTINUOUS
10
163.406
20
-89.7986
11
163.364
21
-89.9146
0
LINE
8
BLACK
6
CONTINUOUS
10
163.364
20
-89.9146
11
163.284
21
-90.0092
0
LINE
8
BLACK
6
CONTINUOUS
10
163.284
20
-90.0092
11
163.178
21
-90.0709
0
LINE
8
BLACK
6
CONTINUOUS
10
163.178
20
-90.0709
11
163.056
21
-90.0923
0
LINE
8
BLACK
6
CONTINUOUS
10
163.056
20
-90.0923
11
162.934
21
-90.0709
0
LINE
8
BLACK
6
CONTINUOUS
10
162.934
20
-90.0709
11
162.828
21
-90.0092
0
LINE
8
BLACK
6
CONTINUOUS
10
162.828
20
-90.0092
11
162.748
21
-89.9146
0
LINE
8
BLACK
6
CONTINUOUS
10
162.748
20
-89.9146
11
162.706
21
-89.7986
0
LINE
8
BLACK
6
CONTINUOUS
10
162.706
20
-89.7986
11
162.706
21
-89.6752
0
LINE
8
BLACK
6
CONTINUOUS
10
162.706
20
-89.6752
11
162.748
21
-89.5592
0
LINE
8
BLACK
6
CONTINUOUS
10
162.748
20
-89.5592
11
162.828
21
-89.4647
0
LINE
8
BLACK
6
CONTINUOUS
10
162.828
20
-89.4647
11
162.934
21
-89.403
0
LINE
8
BLACK
6
CONTINUOUS
10
162.934
20
-89.403
11
163.056
21
-89.3815
0
LINE
8
BLACK
6
CONTINUOUS
10
163.056
20
-89.3815
11
163.178
21
-89.403
0
LINE
8
BLACK
6
CONTINUOUS
10
151.186
20
-88.0644
11
151.231
21
-88.0905
0
LINE
8
BLACK
6
CONTINUOUS
10
151.231
20
-88.0905
11
151.265
21
-88.1304
0
LINE
8
BLACK
6
CONTINUOUS
10
151.265
20
-88.1304
11
151.285
21
-88.2054
0
LINE
8
BLACK
6
CONTINUOUS
10
151.285
20
-88.2054
11
151.285
21
-89.7054
0
LINE
8
BLACK
6
CONTINUOUS
10
151.285
20
-89.7054
11
151.276
21
-89.7567
0
LINE
8
BLACK
6
CONTINUOUS
10
151.276
20
-89.7567
11
151.25
21
-89.8018
0
LINE
8
BLACK
6
CONTINUOUS
10
151.25
20
-89.8018
11
151.21
21
-89.8353
0
LINE
8
BLACK
6
CONTINUOUS
10
151.21
20
-89.8353
11
151.135
21
-89.8554
0
LINE
8
BLACK
6
CONTINUOUS
10
151.135
20
-89.8554
11
150.835
21
-89.8554
0
LINE
8
BLACK
6
CONTINUOUS
10
150.835
20
-89.8554
11
150.783
21
-89.8464
0
LINE
8
BLACK
6
CONTINUOUS
10
150.783
20
-89.8464
11
150.738
21
-89.8203
0
LINE
8
BLACK
6
CONTINUOUS
10
150.738
20
-89.8203
11
150.705
21
-89.7804
0
LINE
8
BLACK
6
CONTINUOUS
10
150.705
20
-89.7804
11
150.685
21
-89.7054
0
LINE
8
BLACK
6
CONTINUOUS
10
150.685
20
-89.7054
11
150.685
21
-88.2054
0
LINE
8
BLACK
6
CONTINUOUS
10
150.685
20
-88.2054
11
150.694
21
-88.1541
0
LINE
8
BLACK
6
CONTINUOUS
10
150.694
20
-88.1541
11
150.72
21
-88.109
0
LINE
8
BLACK
6
CONTINUOUS
10
150.72
20
-88.109
11
150.76
21
-88.0755
0
LINE
8
BLACK
6
CONTINUOUS
10
150.76
20
-88.0755
11
150.835
21
-88.0554
0
LINE
8
BLACK
6
CONTINUOUS
10
150.835
20
-88.0554
11
151.135
21
-88.0554
0
LINE
8
BLACK
6
CONTINUOUS
10
151.135
20
-88.0554
11
151.186
21
-88.0644
0
LINE
8
BLACK
6
CONTINUOUS
10
150.244
20
-88.0614
11
150.274
21
-88.0788
0
LINE
8
BLACK
6
CONTINUOUS
10
150.274
20
-88.0788
11
150.296
21
-88.1054
0
LINE
8
BLACK
6
CONTINUOUS
10
150.296
20
-88.1054
11
150.31
21
-88.1554
0
LINE
8
BLACK
6
CONTINUOUS
10
150.31
20
-88.1554
11
150.31
21
-89.7554
0
LINE
8
BLACK
6
CONTINUOUS
10
150.31
20
-89.7554
11
150.304
21
-89.7896
0
LINE
8
BLACK
6
CONTINUOUS
10
150.304
20
-89.7896
11
150.286
21
-89.8197
0
LINE
8
BLACK
6
CONTINUOUS
10
150.286
20
-89.8197
11
150.26
21
-89.842
0
LINE
8
BLACK
6
CONTINUOUS
10
150.26
20
-89.842
11
150.21
21
-89.8554
0
LINE
8
BLACK
6
CONTINUOUS
10
150.21
20
-89.8554
11
150.01
21
-89.8554
0
LINE
8
BLACK
6
CONTINUOUS
10
150.01
20
-89.8554
11
149.975
21
-89.8494
0
LINE
8
BLACK
6
CONTINUOUS
10
149.975
20
-89.8494
11
149.945
21
-89.832
0
LINE
8
BLACK
6
CONTINUOUS
10
149.945
20
-89.832
11
149.923
21
-89.8054
0
LINE
8
BLACK
6
CONTINUOUS
10
149.923
20
-89.8054
11
149.91
21
-89.7554
0
LINE
8
BLACK
6
CONTINUOUS
10
149.91
20
-89.7554
11
149.91
21
-88.1554
0
LINE
8
BLACK
6
CONTINUOUS
10
149.91
20
-88.1554
11
149.916
21
-88.1212
0
LINE
8
BLACK
6
CONTINUOUS
10
149.916
20
-88.1212
11
149.933
21
-88.0911
0
LINE
8
BLACK
6
CONTINUOUS
10
149.933
20
-88.0911
11
149.96
21
-88.0688
0
LINE
8
BLACK
6
CONTINUOUS
10
149.96
20
-88.0688
11
150.01
21
-88.0554
0
LINE
8
BLACK
6
CONTINUOUS
10
150.01
20
-88.0554
11
150.21
21
-88.0554
0
LINE
8
BLACK
6
CONTINUOUS
10
150.21
20
-88.0554
11
150.244
21
-88.0614
0
LINE
8
BLACK
6
CONTINUOUS
10
147.036
20
-88.0644
11
147.081
21
-88.0905
0
LINE
8
BLACK
6
CONTINUOUS
10
147.081
20
-88.0905
11
147.115
21
-88.1304
0
LINE
8
BLACK
6
CONTINUOUS
10
147.115
20
-88.1304
11
147.135
21
-88.2054
0
LINE
8
BLACK
6
CONTINUOUS
10
147.135
20
-88.2054
11
147.135
21
-89.7054
0
LINE
8
BLACK
6
CONTINUOUS
10
147.135
20
-89.7054
11
147.126
21
-89.7567
0
LINE
8
BLACK
6
CONTINUOUS
10
147.126
20
-89.7567
11
147.1
21
-89.8018
0
LINE
8
BLACK
6
CONTINUOUS
10
147.1
20
-89.8018
11
147.06
21
-89.8353
0
LINE
8
BLACK
6
CONTINUOUS
10
147.06
20
-89.8353
11
146.985
21
-89.8554
0
LINE
8
BLACK
6
CONTINUOUS
10
146.985
20
-89.8554
11
146.685
21
-89.8554
0
LINE
8
BLACK
6
CONTINUOUS
10
146.685
20
-89.8554
11
146.633
21
-89.8464
0
LINE
8
BLACK
6
CONTINUOUS
10
146.633
20
-89.8464
11
146.588
21
-89.8203
0
LINE
8
BLACK
6
CONTINUOUS
10
146.588
20
-89.8203
11
146.555
21
-89.7804
0
LINE
8
BLACK
6
CONTINUOUS
10
146.555
20
-89.7804
11
146.535
21
-89.7054
0
LINE
8
BLACK
6
CONTINUOUS
10
146.535
20
-89.7054
11
146.535
21
-88.2054
0
LINE
8
BLACK
6
CONTINUOUS
10
146.535
20
-88.2054
11
146.544
21
-88.1541
0
LINE
8
BLACK
6
CONTINUOUS
10
146.544
20
-88.1541
11
146.57
21
-88.109
0
LINE
8
BLACK
6
CONTINUOUS
10
146.57
20
-88.109
11
146.61
21
-88.0755
0
LINE
8
BLACK
6
CONTINUOUS
10
146.61
20
-88.0755
11
146.685
21
-88.0554
0
LINE
8
BLACK
6
CONTINUOUS
10
146.685
20
-88.0554
11
146.985
21
-88.0554
0
LINE
8
BLACK
6
CONTINUOUS
10
146.985
20
-88.0554
11
147.036
21
-88.0644
0
LINE
8
BLACK
6
CONTINUOUS
10
146.094
20
-88.0614
11
146.124
21
-88.0788
0
LINE
8
BLACK
6
CONTINUOUS
10
146.124
20
-88.0788
11
146.146
21
-88.1054
0
LINE
8
BLACK
6
CONTINUOUS
10
146.146
20
-88.1054
11
146.16
21
-88.1554
0
LINE
8
BLACK
6
CONTINUOUS
10
146.16
20
-88.1554
11
146.16
21
-89.7554
0
LINE
8
BLACK
6
CONTINUOUS
10
146.16
20
-89.7554
11
146.154
21
-89.7896
0
LINE
8
BLACK
6
CONTINUOUS
10
146.154
20
-89.7896
11
146.136
21
-89.8197
0
LINE
8
BLACK
6
CONTINUOUS
10
146.136
20
-89.8197
11
146.11
21
-89.842
0
LINE
8
BLACK
6
CONTINUOUS
10
146.11
20
-89.842
11
146.06
21
-89.8554
0
LINE
8
BLACK
6
CONTINUOUS
10
146.06
20
-89.8554
11
145.86
21
-89.8554
0
LINE
8
BLACK
6
CONTINUOUS
10
145.86
20
-89.8554
11
145.825
21
-89.8494
0
LINE
8
BLACK
6
CONTINUOUS
10
145.825
20
-89.8494
11
145.795
21
-89.832
0
LINE
8
BLACK
6
CONTINUOUS
10
145.795
20
-89.832
11
145.773
21
-89.8054
0
LINE
8
BLACK
6
CONTINUOUS
10
145.773
20
-89.8054
11
145.76
21
-89.7554
0
LINE
8
BLACK
6
CONTINUOUS
10
145.76
20
-89.7554
11
145.76
21
-88.1554
0
LINE
8
BLACK
6
CONTINUOUS
10
145.76
20
-88.1554
11
145.766
21
-88.1212
0
LINE
8
BLACK
6
CONTINUOUS
10
145.766
20
-88.1212
11
145.783
21
-88.0911
0
LINE
8
BLACK
6
CONTINUOUS
10
145.783
20
-88.0911
11
145.81
21
-88.0688
0
LINE
8
BLACK
6
CONTINUOUS
10
145.81
20
-88.0688
11
145.86
21
-88.0554
0
LINE
8
BLACK
6
CONTINUOUS
10
145.86
20
-88.0554
11
146.06
21
-88.0554
0
LINE
8
BLACK
6
CONTINUOUS
10
146.06
20
-88.0554
11
146.094
21
-88.0614
0
LINE
8
BLACK
6
CONTINUOUS
10
148.228
20
-88.0675
11
148.288
21
-88.1022
0
LINE
8
BLACK
6
CONTINUOUS
10
148.288
20
-88.1022
11
148.333
21
-88.1554
0
LINE
8
BLACK
6
CONTINUOUS
10
148.333
20
-88.1554
11
148.36
21
-88.2554
0
LINE
8
BLACK
6
CONTINUOUS
10
148.36
20
-88.2554
11
148.36
21
-89.6554
0
LINE
8
BLACK
6
CONTINUOUS
10
148.36
20
-89.6554
11
148.348
21
-89.7238
0
LINE
8
BLACK
6
CONTINUOUS
10
148.348
20
-89.7238
11
148.313
21
-89.784
0
LINE
8
BLACK
6
CONTINUOUS
10
148.313
20
-89.784
11
148.26
21
-89.8286
0
LINE
8
BLACK
6
CONTINUOUS
10
148.26
20
-89.8286
11
148.16
21
-89.8554
0
LINE
8
BLACK
6
CONTINUOUS
10
148.16
20
-89.8554
11
147.76
21
-89.8554
0
LINE
8
BLACK
6
CONTINUOUS
10
147.76
20
-89.8554
11
147.691
21
-89.8433
0
LINE
8
BLACK
6
CONTINUOUS
10
147.691
20
-89.8433
11
147.631
21
-89.8086
0
LINE
8
BLACK
6
CONTINUOUS
10
147.631
20
-89.8086
11
147.586
21
-89.7554
0
LINE
8
BLACK
6
CONTINUOUS
10
147.586
20
-89.7554
11
147.56
21
-89.6554
0
LINE
8
BLACK
6
CONTINUOUS
10
147.56
20
-89.6554
11
147.56
21
-88.2554
0
LINE
8
BLACK
6
CONTINUOUS
10
147.56
20
-88.2554
11
147.572
21
-88.187
0
LINE
8
BLACK
6
CONTINUOUS
10
147.572
20
-88.187
11
147.606
21
-88.1268
0
LINE
8
BLACK
6
CONTINUOUS
10
147.606
20
-88.1268
11
147.66
21
-88.0822
0
LINE
8
BLACK
6
CONTINUOUS
10
147.66
20
-88.0822
11
147.76
21
-88.0554
0
LINE
8
BLACK
6
CONTINUOUS
10
147.76
20
-88.0554
11
148.16
21
-88.0554
0
LINE
8
BLACK
6
CONTINUOUS
10
148.16
20
-88.0554
11
148.228
21
-88.0675
0
LINE
8
BLACK
6
CONTINUOUS
10
145.253
20
-88.0675
11
145.313
21
-88.1022
0
LINE
8
BLACK
6
CONTINUOUS
10
145.313
20
-88.1022
11
145.358
21
-88.1554
0
LINE
8
BLACK
6
CONTINUOUS
10
145.358
20
-88.1554
11
145.385
21
-88.2554
0
LINE
8
BLACK
6
CONTINUOUS
10
145.385
20
-88.2554
11
145.385
21
-89.6554
0
LINE
8
BLACK
6
CONTINUOUS
10
145.385
20
-89.6554
11
145.373
21
-89.7238
0
LINE
8
BLACK
6
CONTINUOUS
10
145.373
20
-89.7238
11
145.338
21
-89.784
0
LINE
8
BLACK
6
CONTINUOUS
10
145.338
20
-89.784
11
145.285
21
-89.8286
0
LINE
8
BLACK
6
CONTINUOUS
10
145.285
20
-89.8286
11
145.185
21
-89.8554
0
LINE
8
BLACK
6
CONTINUOUS
10
145.185
20
-89.8554
11
144.785
21
-89.8554
0
LINE
8
BLACK
6
CONTINUOUS
10
144.785
20
-89.8554
11
144.716
21
-89.8433
0
LINE
8
BLACK
6
CONTINUOUS
10
144.716
20
-89.8433
11
144.656
21
-89.8086
0
LINE
8
BLACK
6
CONTINUOUS
10
144.656
20
-89.8086
11
144.611
21
-89.7554
0
LINE
8
BLACK
6
CONTINUOUS
10
144.611
20
-89.7554
11
144.585
21
-89.6554
0
LINE
8
BLACK
6
CONTINUOUS
10
144.585
20
-89.6554
11
144.585
21
-88.2554
0
LINE
8
BLACK
6
CONTINUOUS
10
144.585
20
-88.2554
11
144.597
21
-88.187
0
LINE
8
BLACK
6
CONTINUOUS
10
144.597
20
-88.187
11
144.631
21
-88.1268
0
LINE
8
BLACK
6
CONTINUOUS
10
144.631
20
-88.1268
11
144.685
21
-88.0822
0
LINE
8
BLACK
6
CONTINUOUS
10
144.685
20
-88.0822
11
144.785
21
-88.0554
0
LINE
8
BLACK
6
CONTINUOUS
10
144.785
20
-88.0554
11
145.185
21
-88.0554
0
LINE
8
BLACK
6
CONTINUOUS
10
145.185
20
-88.0554
11
145.253
21
-88.0675
0
LINE
8
BLACK
6
CONTINUOUS
10
149.403
20
-88.0675
11
149.463
21
-88.1022
0
LINE
8
BLACK
6
CONTINUOUS
10
149.463
20
-88.1022
11
149.508
21
-88.1554
0
LINE
8
BLACK
6
CONTINUOUS
10
149.508
20
-88.1554
11
149.535
21
-88.2554
0
LINE
8
BLACK
6
CONTINUOUS
10
149.535
20
-88.2554
11
149.535
21
-89.6554
0
LINE
8
BLACK
6
CONTINUOUS
10
149.535
20
-89.6554
11
149.523
21
-89.7238
0
LINE
8
BLACK
6
CONTINUOUS
10
149.523
20
-89.7238
11
149.488
21
-89.784
0
LINE
8
BLACK
6
CONTINUOUS
10
149.488
20
-89.784
11
149.435
21
-89.8286
0
LINE
8
BLACK
6
CONTINUOUS
10
149.435
20
-89.8286
11
149.335
21
-89.8554
0
LINE
8
BLACK
6
CONTINUOUS
10
149.335
20
-89.8554
11
148.935
21
-89.8554
0
LINE
8
BLACK
6
CONTINUOUS
10
148.935
20
-89.8554
11
148.866
21
-89.8433
0
LINE
8
BLACK
6
CONTINUOUS
10
148.866
20
-89.8433
11
148.806
21
-89.8086
0
LINE
8
BLACK
6
CONTINUOUS
10
148.806
20
-89.8086
11
148.761
21
-89.7554
0
LINE
8
BLACK
6
CONTINUOUS
10
148.761
20
-89.7554
11
148.735
21
-89.6554
0
LINE
8
BLACK
6
CONTINUOUS
10
148.735
20
-89.6554
11
148.735
21
-88.2554
0
LINE
8
BLACK
6
CONTINUOUS
10
148.735
20
-88.2554
11
148.747
21
-88.187
0
LINE
8
BLACK
6
CONTINUOUS
10
148.747
20
-88.187
11
148.781
21
-88.1268
0
LINE
8
BLACK
6
CONTINUOUS
10
148.781
20
-88.1268
11
148.835
21
-88.0822
0
LINE
8
BLACK
6
CONTINUOUS
10
148.835
20
-88.0822
11
148.935
21
-88.0554
0
LINE
8
BLACK
6
CONTINUOUS
10
148.935
20
-88.0554
11
149.335
21
-88.0554
0
LINE
8
BLACK
6
CONTINUOUS
10
149.335
20
-88.0554
11
149.403
21
-88.0675
0
LINE
8
BLACK
6
CONTINUOUS
10
152.378
20
-88.0675
11
152.438
21
-88.1022
0
LINE
8
BLACK
6
CONTINUOUS
10
152.438
20
-88.1022
11
152.483
21
-88.1554
0
LINE
8
BLACK
6
CONTINUOUS
10
152.483
20
-88.1554
11
152.51
21
-88.2554
0
LINE
8
BLACK
6
CONTINUOUS
10
152.51
20
-88.2554
11
152.51
21
-89.6554
0
LINE
8
BLACK
6
CONTINUOUS
10
152.51
20
-89.6554
11
152.498
21
-89.7238
0
LINE
8
BLACK
6
CONTINUOUS
10
152.498
20
-89.7238
11
152.463
21
-89.784
0
LINE
8
BLACK
6
CONTINUOUS
10
152.463
20
-89.784
11
152.41
21
-89.8286
0
LINE
8
BLACK
6
CONTINUOUS
10
152.41
20
-89.8286
11
152.31
21
-89.8554
0
LINE
8
BLACK
6
CONTINUOUS
10
152.31
20
-89.8554
11
151.91
21
-89.8554
0
LINE
8
BLACK
6
CONTINUOUS
10
151.91
20
-89.8554
11
151.841
21
-89.8433
0
LINE
8
BLACK
6
CONTINUOUS
10
151.841
20
-89.8433
11
151.781
21
-89.8086
0
LINE
8
BLACK
6
CONTINUOUS
10
151.781
20
-89.8086
11
151.736
21
-89.7554
0
LINE
8
BLACK
6
CONTINUOUS
10
151.736
20
-89.7554
11
151.71
21
-89.6554
0
LINE
8
BLACK
6
CONTINUOUS
10
151.71
20
-89.6554
11
151.71
21
-88.2554
0
LINE
8
BLACK
6
CONTINUOUS
10
151.71
20
-88.2554
11
151.722
21
-88.187
0
LINE
8
BLACK
6
CONTINUOUS
10
151.722
20
-88.187
11
151.756
21
-88.1268
0
LINE
8
BLACK
6
CONTINUOUS
10
151.756
20
-88.1268
11
151.81
21
-88.0822
0
LINE
8
BLACK
6
CONTINUOUS
10
151.81
20
-88.0822
11
151.91
21
-88.0554
0
LINE
8
BLACK
6
CONTINUOUS
10
151.91
20
-88.0554
11
152.31
21
-88.0554
0
LINE
8
BLACK
6
CONTINUOUS
10
152.31
20
-88.0554
11
152.378
21
-88.0675
0
LINE
8
BLACK
6
CONTINUOUS
10
164.564
20
-88.4178
11
164.677
21
-88.5026
0
LINE
8
BLACK
6
CONTINUOUS
10
164.677
20
-88.5026
11
164.754
21
-88.621
0
LINE
8
BLACK
6
CONTINUOUS
10
164.754
20
-88.621
11
164.785
21
-88.7584
0
LINE
8
BLACK
6
CONTINUOUS
10
164.785
20
-88.7584
11
164.768
21
-88.8984
0
LINE
8
BLACK
6
CONTINUOUS
10
164.768
20
-88.8984
11
164.704
21
-89.0241
0
LINE
8
BLACK
6
CONTINUOUS
10
164.704
20
-89.0241
11
164.601
21
-89.1203
0
LINE
8
BLACK
6
CONTINUOUS
10
164.601
20
-89.1203
11
164.504
21
-89.1615
0
LINE
8
BLACK
6
CONTINUOUS
10
164.504
20
-89.1615
11
163.753
21
-89.3347
0
LINE
8
BLACK
6
CONTINUOUS
10
163.753
20
-89.3347
11
163.648
21
-89.3403
0
LINE
8
BLACK
6
CONTINUOUS
10
163.648
20
-89.3403
11
163.513
21
-89.299
0
LINE
8
BLACK
6
CONTINUOUS
10
163.513
20
-89.299
11
163.401
21
-89.2141
0
LINE
8
BLACK
6
CONTINUOUS
10
163.401
20
-89.2141
11
163.324
21
-89.0958
0
LINE
8
BLACK
6
CONTINUOUS
10
163.324
20
-89.0958
11
163.292
21
-88.9584
0
LINE
8
BLACK
6
CONTINUOUS
10
163.292
20
-88.9584
11
163.309
21
-88.8184
0
LINE
8
BLACK
6
CONTINUOUS
10
163.309
20
-88.8184
11
163.373
21
-88.6927
0
LINE
8
BLACK
6
CONTINUOUS
10
163.373
20
-88.6927
11
163.476
21
-88.5965
0
LINE
8
BLACK
6
CONTINUOUS
10
163.476
20
-88.5965
11
163.573
21
-88.5552
0
LINE
8
BLACK
6
CONTINUOUS
10
163.573
20
-88.5552
11
164.324
21
-88.382
0
LINE
8
BLACK
6
CONTINUOUS
10
164.324
20
-88.382
11
164.429
21
-88.3765
0
LINE
8
BLACK
6
CONTINUOUS
10
164.429
20
-88.3765
11
164.564
21
-88.4178
0
LINE
8
BLACK
6
CONTINUOUS
10
162.892
20
-88.1655
11
162.999
21
-88.2272
0
LINE
8
BLACK
6
CONTINUOUS
10
162.999
20
-88.2272
11
163.078
21
-88.3218
0
LINE
8
BLACK
6
CONTINUOUS
10
163.078
20
-88.3218
11
163.12
21
-88.4378
0
LINE
8
BLACK
6
CONTINUOUS
10
163.12
20
-88.4378
11
163.12
21
-88.5612
0
LINE
8
BLACK
6
CONTINUOUS
10
163.12
20
-88.5612
11
163.078
21
-88.6772
0
LINE
8
BLACK
6
CONTINUOUS
10
163.078
20
-88.6772
11
162.999
21
-88.7717
0
LINE
8
BLACK
6
CONTINUOUS
10
162.999
20
-88.7717
11
162.892
21
-88.8334
0
LINE
8
BLACK
6
CONTINUOUS
10
162.892
20
-88.8334
11
162.77
21
-88.8549
0
LINE
8
BLACK
6
CONTINUOUS
10
162.77
20
-88.8549
11
162.649
21
-88.8334
0
LINE
8
BLACK
6
CONTINUOUS
10
162.649
20
-88.8334
11
162.542
21
-88.7717
0
LINE
8
BLACK
6
CONTINUOUS
10
162.542
20
-88.7717
11
162.463
21
-88.6772
0
LINE
8
BLACK
6
CONTINUOUS
10
162.463
20
-88.6772
11
162.42
21
-88.5612
0
LINE
8
BLACK
6
CONTINUOUS
10
162.42
20
-88.5612
11
162.42
21
-88.4378
0
LINE
8
BLACK
6
CONTINUOUS
10
162.42
20
-88.4378
11
162.463
21
-88.3218
0
LINE
8
BLACK
6
CONTINUOUS
10
162.463
20
-88.3218
11
162.542
21
-88.2272
0
LINE
8
BLACK
6
CONTINUOUS
10
162.542
20
-88.2272
11
162.649
21
-88.1655
0
LINE
8
BLACK
6
CONTINUOUS
10
162.649
20
-88.1655
11
162.77
21
-88.1441
0
LINE
8
BLACK
6
CONTINUOUS
10
162.77
20
-88.1441
11
162.892
21
-88.1655
0
LINE
8
BLACK
6
CONTINUOUS
10
164.278
20
-87.1803
11
164.391
21
-87.2652
0
LINE
8
BLACK
6
CONTINUOUS
10
164.391
20
-87.2652
11
164.468
21
-87.3835
0
LINE
8
BLACK
6
CONTINUOUS
10
164.468
20
-87.3835
11
164.5
21
-87.5209
0
LINE
8
BLACK
6
CONTINUOUS
10
164.5
20
-87.5209
11
164.482
21
-87.661
0
LINE
8
BLACK
6
CONTINUOUS
10
164.482
20
-87.661
11
164.418
21
-87.7866
0
LINE
8
BLACK
6
CONTINUOUS
10
164.418
20
-87.7866
11
164.315
21
-87.8828
0
LINE
8
BLACK
6
CONTINUOUS
10
164.315
20
-87.8828
11
164.218
21
-87.9241
0
LINE
8
BLACK
6
CONTINUOUS
10
164.218
20
-87.9241
11
163.468
21
-88.0973
0
LINE
8
BLACK
6
CONTINUOUS
10
163.468
20
-88.0973
11
163.362
21
-88.1028
0
LINE
8
BLACK
6
CONTINUOUS
10
163.362
20
-88.1028
11
163.227
21
-88.0616
0
LINE
8
BLACK
6
CONTINUOUS
10
163.227
20
-88.0616
11
163.115
21
-87.9767
0
LINE
8
BLACK
6
CONTINUOUS
10
163.115
20
-87.9767
11
163.038
21
-87.8584
0
LINE
8
BLACK
6
CONTINUOUS
10
163.038
20
-87.8584
11
163.006
21
-87.7209
0
LINE
8
BLACK
6
CONTINUOUS
10
163.006
20
-87.7209
11
163.023
21
-87.5809
0
LINE
8
BLACK
6
CONTINUOUS
10
163.023
20
-87.5809
11
163.088
21
-87.4552
0
LINE
8
BLACK
6
CONTINUOUS
10
163.088
20
-87.4552
11
163.191
21
-87.359
0
LINE
8
BLACK
6
CONTINUOUS
10
163.191
20
-87.359
11
163.288
21
-87.3178
0
LINE
8
BLACK
6
CONTINUOUS
10
163.288
20
-87.3178
11
164.038
21
-87.1446
0
LINE
8
BLACK
6
CONTINUOUS
10
164.038
20
-87.1446
11
164.143
21
-87.1391
0
LINE
8
BLACK
6
CONTINUOUS
10
164.143
20
-87.1391
11
164.278
21
-87.1803
0
LINE
8
BLACK
6
CONTINUOUS
10
162.606
20
-86.9281
11
162.713
21
-86.9898
0
LINE
8
BLACK
6
CONTINUOUS
10
162.713
20
-86.9898
11
162.792
21
-87.0843
0
LINE
8
BLACK
6
CONTINUOUS
10
162.792
20
-87.0843
11
162.835
21
-87.2003
0
LINE
8
BLACK
6
CONTINUOUS
10
162.835
20
-87.2003
11
162.835
21
-87.3237
0
LINE
8
BLACK
6
CONTINUOUS
10
162.835
20
-87.3237
11
162.792
21
-87.4397
0
LINE
8
BLACK
6
CONTINUOUS
10
162.792
20
-87.4397
11
162.713
21
-87.5343
0
LINE
8
BLACK
6
CONTINUOUS
10
162.713
20
-87.5343
11
162.606
21
-87.596
0
LINE
8
BLACK
6
CONTINUOUS
10
162.606
20
-87.596
11
162.485
21
-87.6174
0
LINE
8
BLACK
6
CONTINUOUS
10
162.485
20
-87.6174
11
162.363
21
-87.596
0
LINE
8
BLACK
6
CONTINUOUS
10
162.363
20
-87.596
11
162.256
21
-87.5343
0
LINE
8
BLACK
6
CONTINUOUS
10
162.256
20
-87.5343
11
162.177
21
-87.4397
0
LINE
8
BLACK
6
CONTINUOUS
10
162.177
20
-87.4397
11
162.135
21
-87.3237
0
LINE
8
BLACK
6
CONTINUOUS
10
162.135
20
-87.3237
11
162.135
21
-87.2003
0
LINE
8
BLACK
6
CONTINUOUS
10
162.135
20
-87.2003
11
162.177
21
-87.0843
0
LINE
8
BLACK
6
CONTINUOUS
10
162.177
20
-87.0843
11
162.256
21
-86.9898
0
LINE
8
BLACK
6
CONTINUOUS
10
162.256
20
-86.9898
11
162.363
21
-86.9281
0
LINE
8
BLACK
6
CONTINUOUS
10
162.363
20
-86.9281
11
162.485
21
-86.9066
0
LINE
8
BLACK
6
CONTINUOUS
10
162.485
20
-86.9066
11
162.606
21
-86.9281
0
LINE
8
BLACK
6
CONTINUOUS
10
146.094
20
-85.2914
11
146.124
21
-85.3088
0
LINE
8
BLACK
6
CONTINUOUS
10
146.124
20
-85.3088
11
146.146
21
-85.3354
0
LINE
8
BLACK
6
CONTINUOUS
10
146.146
20
-85.3354
11
146.16
21
-85.3854
0
LINE
8
BLACK
6
CONTINUOUS
10
146.16
20
-85.3854
11
146.16
21
-86.9854
0
LINE
8
BLACK
6
CONTINUOUS
10
146.16
20
-86.9854
11
146.154
21
-87.0196
0
LINE
8
BLACK
6
CONTINUOUS
10
146.154
20
-87.0196
11
146.136
21
-87.0497
0
LINE
8
BLACK
6
CONTINUOUS
10
146.136
20
-87.0497
11
146.11
21
-87.072
0
LINE
8
BLACK
6
CONTINUOUS
10
146.11
20
-87.072
11
146.06
21
-87.0854
0
LINE
8
BLACK
6
CONTINUOUS
10
146.06
20
-87.0854
11
145.86
21
-87.0854
0
LINE
8
BLACK
6
CONTINUOUS
10
145.86
20
-87.0854
11
145.825
21
-87.0794
0
LINE
8
BLACK
6
CONTINUOUS
10
145.825
20
-87.0794
11
145.795
21
-87.062
0
LINE
8
BLACK
6
CONTINUOUS
10
145.795
20
-87.062
11
145.773
21
-87.0354
0
LINE
8
BLACK
6
CONTINUOUS
10
145.773
20
-87.0354
11
145.76
21
-86.9854
0
LINE
8
BLACK
6
CONTINUOUS
10
145.76
20
-86.9854
11
145.76
21
-85.3854
0
LINE
8
BLACK
6
CONTINUOUS
10
145.76
20
-85.3854
11
145.766
21
-85.3512
0
LINE
8
BLACK
6
CONTINUOUS
10
145.766
20
-85.3512
11
145.783
21
-85.3211
0
LINE
8
BLACK
6
CONTINUOUS
10
145.783
20
-85.3211
11
145.81
21
-85.2988
0
LINE
8
BLACK
6
CONTINUOUS
10
145.81
20
-85.2988
11
145.86
21
-85.2854
0
LINE
8
BLACK
6
CONTINUOUS
10
145.86
20
-85.2854
11
146.06
21
-85.2854
0
LINE
8
BLACK
6
CONTINUOUS
10
146.06
20
-85.2854
11
146.094
21
-85.2914
0
LINE
8
BLACK
6
CONTINUOUS
10
142.886
20
-85.2944
11
142.931
21
-85.3205
0
LINE
8
BLACK
6
CONTINUOUS
10
142.931
20
-85.3205
11
142.965
21
-85.3604
0
LINE
8
BLACK
6
CONTINUOUS
10
142.965
20
-85.3604
11
142.985
21
-85.4354
0
LINE
8
BLACK
6
CONTINUOUS
10
142.985
20
-85.4354
11
142.985
21
-86.9354
0
LINE
8
BLACK
6
CONTINUOUS
10
142.985
20
-86.9354
11
142.976
21
-86.9867
0
LINE
8
BLACK
6
CONTINUOUS
10
142.976
20
-86.9867
11
142.95
21
-87.0318
0
LINE
8
BLACK
6
CONTINUOUS
10
142.95
20
-87.0318
11
142.91
21
-87.0653
0
LINE
8
BLACK
6
CONTINUOUS
10
142.91
20
-87.0653
11
142.835
21
-87.0854
0
LINE
8
BLACK
6
CONTINUOUS
10
142.835
20
-87.0854
11
142.535
21
-87.0854
0
LINE
8
BLACK
6
CONTINUOUS
10
142.535
20
-87.0854
11
142.483
21
-87.0764
0
LINE
8
BLACK
6
CONTINUOUS
10
142.483
20
-87.0764
11
142.438
21
-87.0503
0
LINE
8
BLACK
6
CONTINUOUS
10
142.438
20
-87.0503
11
142.405
21
-87.0104
0
LINE
8
BLACK
6
CONTINUOUS
10
142.405
20
-87.0104
11
142.385
21
-86.9354
0
LINE
8
BLACK
6
CONTINUOUS
10
142.385
20
-86.9354
11
142.385
21
-85.4354
0
LINE
8
BLACK
6
CONTINUOUS
10
142.385
20
-85.4354
11
142.394
21
-85.3841
0
LINE
8
BLACK
6
CONTINUOUS
10
142.394
20
-85.3841
11
142.42
21
-85.339
0
LINE
8
BLACK
6
CONTINUOUS
10
142.42
20
-85.339
11
142.46
21
-85.3055
0
LINE
8
BLACK
6
CONTINUOUS
10
142.46
20
-85.3055
11
142.535
21
-85.2854
0
LINE
8
BLACK
6
CONTINUOUS
10
142.535
20
-85.2854
11
142.835
21
-85.2854
0
LINE
8
BLACK
6
CONTINUOUS
10
142.835
20
-85.2854
11
142.886
21
-85.2944
0
LINE
8
BLACK
6
CONTINUOUS
10
141.944
20
-85.2914
11
141.974
21
-85.3088
0
LINE
8
BLACK
6
CONTINUOUS
10
141.974
20
-85.3088
11
141.996
21
-85.3354
0
LINE
8
BLACK
6
CONTINUOUS
10
141.996
20
-85.3354
11
142.01
21
-85.3854
0
LINE
8
BLACK
6
CONTINUOUS
10
142.01
20
-85.3854
11
142.01
21
-86.9854
0
LINE
8
BLACK
6
CONTINUOUS
10
142.01
20
-86.9854
11
142.004
21
-87.0196
0
LINE
8
BLACK
6
CONTINUOUS
10
142.004
20
-87.0196
11
141.986
21
-87.0497
0
LINE
8
BLACK
6
CONTINUOUS
10
141.986
20
-87.0497
11
141.96
21
-87.072
0
LINE
8
BLACK
6
CONTINUOUS
10
141.96
20
-87.072
11
141.91
21
-87.0854
0
LINE
8
BLACK
6
CONTINUOUS
10
141.91
20
-87.0854
11
141.71
21
-87.0854
0
LINE
8
BLACK
6
CONTINUOUS
10
141.71
20
-87.0854
11
141.675
21
-87.0794
0
LINE
8
BLACK
6
CONTINUOUS
10
141.675
20
-87.0794
11
141.645
21
-87.062
0
LINE
8
BLACK
6
CONTINUOUS
10
141.645
20
-87.062
11
141.623
21
-87.0354
0
LINE
8
BLACK
6
CONTINUOUS
10
141.623
20
-87.0354
11
141.61
21
-86.9854
0
LINE
8
BLACK
6
CONTINUOUS
10
141.61
20
-86.9854
11
141.61
21
-85.3854
0
LINE
8
BLACK
6
CONTINUOUS
10
141.61
20
-85.3854
11
141.616
21
-85.3512
0
LINE
8
BLACK
6
CONTINUOUS
10
141.616
20
-85.3512
11
141.633
21
-85.3211
0
LINE
8
BLACK
6
CONTINUOUS
10
141.633
20
-85.3211
11
141.66
21
-85.2988
0
LINE
8
BLACK
6
CONTINUOUS
10
141.66
20
-85.2988
11
141.71
21
-85.2854
0
LINE
8
BLACK
6
CONTINUOUS
10
141.71
20
-85.2854
11
141.91
21
-85.2854
0
LINE
8
BLACK
6
CONTINUOUS
10
141.91
20
-85.2854
11
141.944
21
-85.2914
0
LINE
8
BLACK
6
CONTINUOUS
10
144.078
20
-85.2975
11
144.138
21
-85.3322
0
LINE
8
BLACK
6
CONTINUOUS
10
144.138
20
-85.3322
11
144.183
21
-85.3854
0
LINE
8
BLACK
6
CONTINUOUS
10
144.183
20
-85.3854
11
144.21
21
-85.4854
0
LINE
8
BLACK
6
CONTINUOUS
10
144.21
20
-85.4854
11
144.21
21
-86.8854
0
LINE
8
BLACK
6
CONTINUOUS
10
144.21
20
-86.8854
11
144.198
21
-86.9538
0
LINE
8
BLACK
6
CONTINUOUS
10
144.198
20
-86.9538
11
144.163
21
-87.014
0
LINE
8
BLACK
6
CONTINUOUS
10
144.163
20
-87.014
11
144.11
21
-87.0586
0
LINE
8
BLACK
6
CONTINUOUS
10
144.11
20
-87.0586
11
144.01
21
-87.0854
0
LINE
8
BLACK
6
CONTINUOUS
10
144.01
20
-87.0854
11
143.61
21
-87.0854
0
LINE
8
BLACK
6
CONTINUOUS
10
143.61
20
-87.0854
11
143.541
21
-87.0733
0
LINE
8
BLACK
6
CONTINUOUS
10
143.541
20
-87.0733
11
143.481
21
-87.0386
0
LINE
8
BLACK
6
CONTINUOUS
10
143.481
20
-87.0386
11
143.436
21
-86.9854
0
LINE
8
BLACK
6
CONTINUOUS
10
143.436
20
-86.9854
11
143.41
21
-86.8854
0
LINE
8
BLACK
6
CONTINUOUS
10
143.41
20
-86.8854
11
143.41
21
-85.4854
0
LINE
8
BLACK
6
CONTINUOUS
10
143.41
20
-85.4854
11
143.422
21
-85.417
0
LINE
8
BLACK
6
CONTINUOUS
10
143.422
20
-85.417
11
143.456
21
-85.3568
0
LINE
8
BLACK
6
CONTINUOUS
10
143.456
20
-85.3568
11
143.51
21
-85.3122
0
LINE
8
BLACK
6
CONTINUOUS
10
143.51
20
-85.3122
11
143.61
21
-85.2854
0
LINE
8
BLACK
6
CONTINUOUS
10
143.61
20
-85.2854
11
144.01
21
-85.2854
0
LINE
8
BLACK
6
CONTINUOUS
10
144.01
20
-85.2854
11
144.078
21
-85.2975
0
LINE
8
BLACK
6
CONTINUOUS
10
141.103
20
-85.2975
11
141.163
21
-85.3322
0
LINE
8
BLACK
6
CONTINUOUS
10
141.163
20
-85.3322
11
141.208
21
-85.3854
0
LINE
8
BLACK
6
CONTINUOUS
10
141.208
20
-85.3854
11
141.235
21
-85.4854
0
LINE
8
BLACK
6
CONTINUOUS
10
141.235
20
-85.4854
11
141.235
21
-86.8854
0
LINE
8
BLACK
6
CONTINUOUS
10
141.235
20
-86.8854
11
141.223
21
-86.9538
0
LINE
8
BLACK
6
CONTINUOUS
10
141.223
20
-86.9538
11
141.188
21
-87.014
0
LINE
8
BLACK
6
CONTINUOUS
10
141.188
20
-87.014
11
141.135
21
-87.0586
0
LINE
8
BLACK
6
CONTINUOUS
10
141.135
20
-87.0586
11
141.035
21
-87.0854
0
LINE
8
BLACK
6
CONTINUOUS
10
141.035
20
-87.0854
11
140.635
21
-87.0854
0
LINE
8
BLACK
6
CONTINUOUS
10
140.635
20
-87.0854
11
140.566
21
-87.0733
0
LINE
8
BLACK
6
CONTINUOUS
10
140.566
20
-87.0733
11
140.506
21
-87.0386
0
LINE
8
BLACK
6
CONTINUOUS
10
140.506
20
-87.0386
11
140.461
21
-86.9854
0
LINE
8
BLACK
6
CONTINUOUS
10
140.461
20
-86.9854
11
140.435
21
-86.8854
0
LINE
8
BLACK
6
CONTINUOUS
10
140.435
20
-86.8854
11
140.435
21
-85.4854
0
LINE
8
BLACK
6
CONTINUOUS
10
140.435
20
-85.4854
11
140.447
21
-85.417
0
LINE
8
BLACK
6
CONTINUOUS
10
140.447
20
-85.417
11
140.481
21
-85.3568
0
LINE
8
BLACK
6
CONTINUOUS
10
140.481
20
-85.3568
11
140.535
21
-85.3122
0
LINE
8
BLACK
6
CONTINUOUS
10
140.535
20
-85.3122
11
140.635
21
-85.2854
0
LINE
8
BLACK
6
CONTINUOUS
10
140.635
20
-85.2854
11
141.035
21
-85.2854
0
LINE
8
BLACK
6
CONTINUOUS
10
141.035
20
-85.2854
11
141.103
21
-85.2975
0
LINE
8
BLACK
6
CONTINUOUS
10
145.253
20
-85.2975
11
145.313
21
-85.3322
0
LINE
8
BLACK
6
CONTINUOUS
10
145.313
20
-85.3322
11
145.358
21
-85.3854
0
LINE
8
BLACK
6
CONTINUOUS
10
145.358
20
-85.3854
11
145.385
21
-85.4854
0
LINE
8
BLACK
6
CONTINUOUS
10
145.385
20
-85.4854
11
145.385
21
-86.8854
0
LINE
8
BLACK
6
CONTINUOUS
10
145.385
20
-86.8854
11
145.373
21
-86.9538
0
LINE
8
BLACK
6
CONTINUOUS
10
145.373
20
-86.9538
11
145.338
21
-87.014
0
LINE
8
BLACK
6
CONTINUOUS
10
145.338
20
-87.014
11
145.285
21
-87.0586
0
LINE
8
BLACK
6
CONTINUOUS
10
145.285
20
-87.0586
11
145.185
21
-87.0854
0
LINE
8
BLACK
6
CONTINUOUS
10
145.185
20
-87.0854
11
144.785
21
-87.0854
0
LINE
8
BLACK
6
CONTINUOUS
10
144.785
20
-87.0854
11
144.716
21
-87.0733
0
LINE
8
BLACK
6
CONTINUOUS
10
144.716
20
-87.0733
11
144.656
21
-87.0386
0
LINE
8
BLACK
6
CONTINUOUS
10
144.656
20
-87.0386
11
144.611
21
-86.9854
0
LINE
8
BLACK
6
CONTINUOUS
10
144.611
20
-86.9854
11
144.585
21
-86.8854
0
LINE
8
BLACK
6
CONTINUOUS
10
144.585
20
-86.8854
11
144.585
21
-85.4854
0
LINE
8
BLACK
6
CONTINUOUS
10
144.585
20
-85.4854
11
144.597
21
-85.417
0
LINE
8
BLACK
6
CONTINUOUS
10
144.597
20
-85.417
11
144.631
21
-85.3568
0
LINE
8
BLACK
6
CONTINUOUS
10
144.631
20
-85.3568
11
144.685
21
-85.3122
0
LINE
8
BLACK
6
CONTINUOUS
10
144.685
20
-85.3122
11
144.785
21
-85.2854
0
LINE
8
BLACK
6
CONTINUOUS
10
144.785
20
-85.2854
11
145.185
21
-85.2854
0
LINE
8
BLACK
6
CONTINUOUS
10
145.185
20
-85.2854
11
145.253
21
-85.2975
0
LINE
8
BLACK
6
CONTINUOUS
10
148.228
20
-85.2975
11
148.288
21
-85.3322
0
LINE
8
BLACK
6
CONTINUOUS
10
148.288
20
-85.3322
11
148.333
21
-85.3854
0
LINE
8
BLACK
6
CONTINUOUS
10
148.333
20
-85.3854
11
148.36
21
-85.4854
0
LINE
8
BLACK
6
CONTINUOUS
10
148.36
20
-85.4854
11
148.36
21
-86.8854
0
LINE
8
BLACK
6
CONTINUOUS
10
148.36
20
-86.8854
11
148.348
21
-86.9538
0
LINE
8
BLACK
6
CONTINUOUS
10
148.348
20
-86.9538
11
148.313
21
-87.014
0
LINE
8
BLACK
6
CONTINUOUS
10
148.313
20
-87.014
11
148.26
21
-87.0586
0
LINE
8
BLACK
6
CONTINUOUS
10
148.26
20
-87.0586
11
148.16
21
-87.0854
0
LINE
8
BLACK
6
CONTINUOUS
10
148.16
20
-87.0854
11
147.76
21
-87.0854
0
LINE
8
BLACK
6
CONTINUOUS
10
147.76
20
-87.0854
11
147.691
21
-87.0733
0
LINE
8
BLACK
6
CONTINUOUS
10
147.691
20
-87.0733
11
147.631
21
-87.0386
0
LINE
8
BLACK
6
CONTINUOUS
10
147.631
20
-87.0386
11
147.586
21
-86.9854
0
LINE
8
BLACK
6
CONTINUOUS
10
147.586
20
-86.9854
11
147.56
21
-86.8854
0
LINE
8
BLACK
6
CONTINUOUS
10
147.56
20
-86.8854
11
147.56
21
-85.4854
0
LINE
8
BLACK
6
CONTINUOUS
10
147.56
20
-85.4854
11
147.572
21
-85.417
0
LINE
8
BLACK
6
CONTINUOUS
10
147.572
20
-85.417
11
147.606
21
-85.3568
0
LINE
8
BLACK
6
CONTINUOUS
10
147.606
20
-85.3568
11
147.66
21
-85.3122
0
LINE
8
BLACK
6
CONTINUOUS
10
147.66
20
-85.3122
11
147.76
21
-85.2854
0
LINE
8
BLACK
6
CONTINUOUS
10
147.76
20
-85.2854
11
148.16
21
-85.2854
0
LINE
8
BLACK
6
CONTINUOUS
10
148.16
20
-85.2854
11
148.228
21
-85.2975
0
LINE
8
BLACK
6
CONTINUOUS
10
147.036
20
-85.2944
11
147.081
21
-85.3205
0
LINE
8
BLACK
6
CONTINUOUS
10
147.081
20
-85.3205
11
147.115
21
-85.3604
0
LINE
8
BLACK
6
CONTINUOUS
10
147.115
20
-85.3604
11
147.135
21
-85.4354
0
LINE
8
BLACK
6
CONTINUOUS
10
147.135
20
-85.4354
11
147.135
21
-86.9354
0
LINE
8
BLACK
6
CONTINUOUS
10
147.135
20
-86.9354
11
147.126
21
-86.9867
0
LINE
8
BLACK
6
CONTINUOUS
10
147.126
20
-86.9867
11
147.1
21
-87.0318
0
LINE
8
BLACK
6
CONTINUOUS
10
147.1
20
-87.0318
11
147.06
21
-87.0653
0
LINE
8
BLACK
6
CONTINUOUS
10
147.06
20
-87.0653
11
146.985
21
-87.0854
0
LINE
8
BLACK
6
CONTINUOUS
10
146.985
20
-87.0854
11
146.685
21
-87.0854
0
LINE
8
BLACK
6
CONTINUOUS
10
146.685
20
-87.0854
11
146.633
21
-87.0764
0
LINE
8
BLACK
6
CONTINUOUS
10
146.633
20
-87.0764
11
146.588
21
-87.0503
0
LINE
8
BLACK
6
CONTINUOUS
10
146.588
20
-87.0503
11
146.555
21
-87.0104
0
LINE
8
BLACK
6
CONTINUOUS
10
146.555
20
-87.0104
11
146.535
21
-86.9354
0
LINE
8
BLACK
6
CONTINUOUS
10
146.535
20
-86.9354
11
146.535
21
-85.4354
0
LINE
8
BLACK
6
CONTINUOUS
10
146.535
20
-85.4354
11
146.544
21
-85.3841
0
LINE
8
BLACK
6
CONTINUOUS
10
146.544
20
-85.3841
11
146.57
21
-85.339
0
LINE
8
BLACK
6
CONTINUOUS
10
146.57
20
-85.339
11
146.61
21
-85.3055
0
LINE
8
BLACK
6
CONTINUOUS
10
146.61
20
-85.3055
11
146.685
21
-85.2854
0
LINE
8
BLACK
6
CONTINUOUS
10
146.685
20
-85.2854
11
146.985
21
-85.2854
0
LINE
8
BLACK
6
CONTINUOUS
10
146.985
20
-85.2854
11
147.036
21
-85.2944
0
LINE
8
BLACK
6
CONTINUOUS
10
147.036
20
-82.5244
11
147.081
21
-82.5505
0
LINE
8
BLACK
6
CONTINUOUS
10
147.081
20
-82.5505
11
147.115
21
-82.5904
0
LINE
8
BLACK
6
CONTINUOUS
10
147.115
20
-82.5904
11
147.135
21
-82.6654
0
LINE
8
BLACK
6
CONTINUOUS
10
147.135
20
-82.6654
11
147.135
21
-84.1654
0
LINE
8
BLACK
6
CONTINUOUS
10
147.135
20
-84.1654
11
147.126
21
-84.2167
0
LINE
8
BLACK
6
CONTINUOUS
10
147.126
20
-84.2167
11
147.1
21
-84.2618
0
LINE
8
BLACK
6
CONTINUOUS
10
147.1
20
-84.2618
11
147.06
21
-84.2953
0
LINE
8
BLACK
6
CONTINUOUS
10
147.06
20
-84.2953
11
146.985
21
-84.3154
0
LINE
8
BLACK
6
CONTINUOUS
10
146.985
20
-84.3154
11
146.685
21
-84.3154
0
LINE
8
BLACK
6
CONTINUOUS
10
146.685
20
-84.3154
11
146.633
21
-84.3064
0
LINE
8
BLACK
6
CONTINUOUS
10
146.633
20
-84.3064
11
146.588
21
-84.2803
0
LINE
8
BLACK
6
CONTINUOUS
10
146.588
20
-84.2803
11
146.555
21
-84.2404
0
LINE
8
BLACK
6
CONTINUOUS
10
146.555
20
-84.2404
11
146.535
21
-84.1654
0
LINE
8
BLACK
6
CONTINUOUS
10
146.535
20
-84.1654
11
146.535
21
-82.6654
0
LINE
8
BLACK
6
CONTINUOUS
10
146.535
20
-82.6654
11
146.544
21
-82.6141
0
LINE
8
BLACK
6
CONTINUOUS
10
146.544
20
-82.6141
11
146.57
21
-82.569
0
LINE
8
BLACK
6
CONTINUOUS
10
146.57
20
-82.569
11
146.61
21
-82.5355
0
LINE
8
BLACK
6
CONTINUOUS
10
146.61
20
-82.5355
11
146.685
21
-82.5154
0
LINE
8
BLACK
6
CONTINUOUS
10
146.685
20
-82.5154
11
146.985
21
-82.5154
0
LINE
8
BLACK
6
CONTINUOUS
10
146.985
20
-82.5154
11
147.036
21
-82.5244
0
LINE
8
BLACK
6
CONTINUOUS
10
142.886
20
-82.5244
11
142.931
21
-82.5505
0
LINE
8
BLACK
6
CONTINUOUS
10
142.931
20
-82.5505
11
142.965
21
-82.5904
0
LINE
8
BLACK
6
CONTINUOUS
10
142.965
20
-82.5904
11
142.985
21
-82.6654
0
LINE
8
BLACK
6
CONTINUOUS
10
142.985
20
-82.6654
11
142.985
21
-84.1654
0
LINE
8
BLACK
6
CONTINUOUS
10
142.985
20
-84.1654
11
142.976
21
-84.2167
0
LINE
8
BLACK
6
CONTINUOUS
10
142.976
20
-84.2167
11
142.95
21
-84.2618
0
LINE
8
BLACK
6
CONTINUOUS
10
142.95
20
-84.2618
11
142.91
21
-84.2953
0
LINE
8
BLACK
6
CONTINUOUS
10
142.91
20
-84.2953
11
142.835
21
-84.3154
0
LINE
8
BLACK
6
CONTINUOUS
10
142.835
20
-84.3154
11
142.535
21
-84.3154
0
LINE
8
BLACK
6
CONTINUOUS
10
142.535
20
-84.3154
11
142.483
21
-84.3064
0
LINE
8
BLACK
6
CONTINUOUS
10
142.483
20
-84.3064
11
142.438
21
-84.2803
0
LINE
8
BLACK
6
CONTINUOUS
10
142.438
20
-84.2803
11
142.405
21
-84.2404
0
LINE
8
BLACK
6
CONTINUOUS
10
142.405
20
-84.2404
11
142.385
21
-84.1654
0
LINE
8
BLACK
6
CONTINUOUS
10
142.385
20
-84.1654
11
142.385
21
-82.6654
0
LINE
8
BLACK
6
CONTINUOUS
10
142.385
20
-82.6654
11
142.394
21
-82.6141
0
LINE
8
BLACK
6
CONTINUOUS
10
142.394
20
-82.6141
11
142.42
21
-82.569
0
LINE
8
BLACK
6
CONTINUOUS
10
142.42
20
-82.569
11
142.46
21
-82.5355
0
LINE
8
BLACK
6
CONTINUOUS
10
142.46
20
-82.5355
11
142.535
21
-82.5154
0
LINE
8
BLACK
6
CONTINUOUS
10
142.535
20
-82.5154
11
142.835
21
-82.5154
0
LINE
8
BLACK
6
CONTINUOUS
10
142.835
20
-82.5154
11
142.886
21
-82.5244
0
LINE
8
BLACK
6
CONTINUOUS
10
141.944
20
-82.5214
11
141.974
21
-82.5388
0
LINE
8
BLACK
6
CONTINUOUS
10
141.974
20
-82.5388
11
141.996
21
-82.5654
0
LINE
8
BLACK
6
CONTINUOUS
10
141.996
20
-82.5654
11
142.01
21
-82.6154
0
LINE
8
BLACK
6
CONTINUOUS
10
142.01
20
-82.6154
11
142.01
21
-84.2154
0
LINE
8
BLACK
6
CONTINUOUS
10
142.01
20
-84.2154
11
142.004
21
-84.2496
0
LINE
8
BLACK
6
CONTINUOUS
10
142.004
20
-84.2496
11
141.986
21
-84.2797
0
LINE
8
BLACK
6
CONTINUOUS
10
141.986
20
-84.2797
11
141.96
21
-84.302
0
LINE
8
BLACK
6
CONTINUOUS
10
141.96
20
-84.302
11
141.91
21
-84.3154
0
LINE
8
BLACK
6
CONTINUOUS
10
141.91
20
-84.3154
11
141.71
21
-84.3154
0
LINE
8
BLACK
6
CONTINUOUS
10
141.71
20
-84.3154
11
141.675
21
-84.3094
0
LINE
8
BLACK
6
CONTINUOUS
10
141.675
20
-84.3094
11
141.645
21
-84.292
0
LINE
8
BLACK
6
CONTINUOUS
10
141.645
20
-84.292
11
141.623
21
-84.2654
0
LINE
8
BLACK
6
CONTINUOUS
10
141.623
20
-84.2654
11
141.61
21
-84.2154
0
LINE
8
BLACK
6
CONTINUOUS
10
141.61
20
-84.2154
11
141.61
21
-82.6154
0
LINE
8
BLACK
6
CONTINUOUS
10
141.61
20
-82.6154
11
141.616
21
-82.5812
0
LINE
8
BLACK
6
CONTINUOUS
10
141.616
20
-82.5812
11
141.633
21
-82.5511
0
LINE
8
BLACK
6
CONTINUOUS
10
141.633
20
-82.5511
11
141.66
21
-82.5288
0
LINE
8
BLACK
6
CONTINUOUS
10
141.66
20
-82.5288
11
141.71
21
-82.5154
0
LINE
8
BLACK
6
CONTINUOUS
10
141.71
20
-82.5154
11
141.91
21
-82.5154
0
LINE
8
BLACK
6
CONTINUOUS
10
141.91
20
-82.5154
11
141.944
21
-82.5214
0
LINE
8
BLACK
6
CONTINUOUS
10
144.078
20
-82.5275
11
144.138
21
-82.5622
0
LINE
8
BLACK
6
CONTINUOUS
10
144.138
20
-82.5622
11
144.183
21
-82.6154
0
LINE
8
BLACK
6
CONTINUOUS
10
144.183
20
-82.6154
11
144.21
21
-82.7154
0
LINE
8
BLACK
6
CONTINUOUS
10
144.21
20
-82.7154
11
144.21
21
-84.1154
0
LINE
8
BLACK
6
CONTINUOUS
10
144.21
20
-84.1154
11
144.198
21
-84.1838
0
LINE
8
BLACK
6
CONTINUOUS
10
144.198
20
-84.1838
11
144.163
21
-84.244
0
LINE
8
BLACK
6
CONTINUOUS
10
144.163
20
-84.244
11
144.11
21
-84.2886
0
LINE
8
BLACK
6
CONTINUOUS
10
144.11
20
-84.2886
11
144.01
21
-84.3154
0
LINE
8
BLACK
6
CONTINUOUS
10
144.01
20
-84.3154
11
143.61
21
-84.3154
0
LINE
8
BLACK
6
CONTINUOUS
10
143.61
20
-84.3154
11
143.541
21
-84.3033
0
LINE
8
BLACK
6
CONTINUOUS
10
143.541
20
-84.3033
11
143.481
21
-84.2686
0
LINE
8
BLACK
6
CONTINUOUS
10
143.481
20
-84.2686
11
143.436
21
-84.2154
0
LINE
8
BLACK
6
CONTINUOUS
10
143.436
20
-84.2154
11
143.41
21
-84.1154
0
LINE
8
BLACK
6
CONTINUOUS
10
143.41
20
-84.1154
11
143.41
21
-82.7154
0
LINE
8
BLACK
6
CONTINUOUS
10
143.41
20
-82.7154
11
143.422
21
-82.647
0
LINE
8
BLACK
6
CONTINUOUS
10
143.422
20
-82.647
11
143.456
21
-82.5868
0
LINE
8
BLACK
6
CONTINUOUS
10
143.456
20
-82.5868
11
143.51
21
-82.5422
0
LINE
8
BLACK
6
CONTINUOUS
10
143.51
20
-82.5422
11
143.61
21
-82.5154
0
LINE
8
BLACK
6
CONTINUOUS
10
143.61
20
-82.5154
11
144.01
21
-82.5154
0
LINE
8
BLACK
6
CONTINUOUS
10
144.01
20
-82.5154
11
144.078
21
-82.5275
0
LINE
8
BLACK
6
CONTINUOUS
10
141.103
20
-82.5275
11
141.163
21
-82.5622
0
LINE
8
BLACK
6
CONTINUOUS
10
141.163
20
-82.5622
11
141.208
21
-82.6154
0
LINE
8
BLACK
6
CONTINUOUS
10
141.208
20
-82.6154
11
141.235
21
-82.7154
0
LINE
8
BLACK
6
CONTINUOUS
10
141.235
20
-82.7154
11
141.235
21
-84.1154
0
LINE
8
BLACK
6
CONTINUOUS
10
141.235
20
-84.1154
11
141.223
21
-84.1838
0
LINE
8
BLACK
6
CONTINUOUS
10
141.223
20
-84.1838
11
141.188
21
-84.244
0
LINE
8
BLACK
6
CONTINUOUS
10
141.188
20
-84.244
11
141.135
21
-84.2886
0
LINE
8
BLACK
6
CONTINUOUS
10
141.135
20
-84.2886
11
141.035
21
-84.3154
0
LINE
8
BLACK
6
CONTINUOUS
10
141.035
20
-84.3154
11
140.635
21
-84.3154
0
LINE
8
BLACK
6
CONTINUOUS
10
140.635
20
-84.3154
11
140.566
21
-84.3033
0
LINE
8
BLACK
6
CONTINUOUS
10
140.566
20
-84.3033
11
140.506
21
-84.2686
0
LINE
8
BLACK
6
CONTINUOUS
10
140.506
20
-84.2686
11
140.461
21
-84.2154
0
LINE
8
BLACK
6
CONTINUOUS
10
140.461
20
-84.2154
11
140.435
21
-84.1154
0
LINE
8
BLACK
6
CONTINUOUS
10
140.435
20
-84.1154
11
140.435
21
-82.7154
0
LINE
8
BLACK
6
CONTINUOUS
10
140.435
20
-82.7154
11
140.447
21
-82.647
0
LINE
8
BLACK
6
CONTINUOUS
10
140.447
20
-82.647
11
140.481
21
-82.5868
0
LINE
8
BLACK
6
CONTINUOUS
10
140.481
20
-82.5868
11
140.535
21
-82.5422
0
LINE
8
BLACK
6
CONTINUOUS
10
140.535
20
-82.5422
11
140.635
21
-82.5154
0
LINE
8
BLACK
6
CONTINUOUS
10
140.635
20
-82.5154
11
141.035
21
-82.5154
0
LINE
8
BLACK
6
CONTINUOUS
10
141.035
20
-82.5154
11
141.103
21
-82.5275
0
LINE
8
BLACK
6
CONTINUOUS
10
145.253
20
-82.5275
11
145.313
21
-82.5622
0
LINE
8
BLACK
6
CONTINUOUS
10
145.313
20
-82.5622
11
145.358
21
-82.6154
0
LINE
8
BLACK
6
CONTINUOUS
10
145.358
20
-82.6154
11
145.385
21
-82.7154
0
LINE
8
BLACK
6
CONTINUOUS
10
145.385
20
-82.7154
11
145.385
21
-84.1154
0
LINE
8
BLACK
6
CONTINUOUS
10
145.385
20
-84.1154
11
145.373
21
-84.1838
0
LINE
8
BLACK
6
CONTINUOUS
10
145.373
20
-84.1838
11
145.338
21
-84.244
0
LINE
8
BLACK
6
CONTINUOUS
10
145.338
20
-84.244
11
145.285
21
-84.2886
0
LINE
8
BLACK
6
CONTINUOUS
10
145.285
20
-84.2886
11
145.185
21
-84.3154
0
LINE
8
BLACK
6
CONTINUOUS
10
145.185
20
-84.3154
11
144.785
21
-84.3154
0
LINE
8
BLACK
6
CONTINUOUS
10
144.785
20
-84.3154
11
144.716
21
-84.3033
0
LINE
8
BLACK
6
CONTINUOUS
10
144.716
20
-84.3033
11
144.656
21
-84.2686
0
LINE
8
BLACK
6
CONTINUOUS
10
144.656
20
-84.2686
11
144.611
21
-84.2154
0
LINE
8
BLACK
6
CONTINUOUS
10
144.611
20
-84.2154
11
144.585
21
-84.1154
0
LINE
8
BLACK
6
CONTINUOUS
10
144.585
20
-84.1154
11
144.585
21
-82.7154
0
LINE
8
BLACK
6
CONTINUOUS
10
144.585
20
-82.7154
11
144.597
21
-82.647
0
LINE
8
BLACK
6
CONTINUOUS
10
144.597
20
-82.647
11
144.631
21
-82.5868
0
LINE
8
BLACK
6
CONTINUOUS
10
144.631
20
-82.5868
11
144.685
21
-82.5422
0
LINE
8
BLACK
6
CONTINUOUS
10
144.685
20
-82.5422
11
144.785
21
-82.5154
0
LINE
8
BLACK
6
CONTINUOUS
10
144.785
20
-82.5154
11
145.185
21
-82.5154
0
LINE
8
BLACK
6
CONTINUOUS
10
145.185
20
-82.5154
11
145.253
21
-82.5275
0
LINE
8
BLACK
6
CONTINUOUS
10
148.228
20
-82.5275
11
148.288
21
-82.5622
0
LINE
8
BLACK
6
CONTINUOUS
10
148.288
20
-82.5622
11
148.333
21
-82.6154
0
LINE
8
BLACK
6
CONTINUOUS
10
148.333
20
-82.6154
11
148.36
21
-82.7154
0
LINE
8
BLACK
6
CONTINUOUS
10
148.36
20
-82.7154
11
148.36
21
-84.1154
0
LINE
8
BLACK
6
CONTINUOUS
10
148.36
20
-84.1154
11
148.348
21
-84.1838
0
LINE
8
BLACK
6
CONTINUOUS
10
148.348
20
-84.1838
11
148.313
21
-84.244
0
LINE
8
BLACK
6
CONTINUOUS
10
148.313
20
-84.244
11
148.26
21
-84.2886
0
LINE
8
BLACK
6
CONTINUOUS
10
148.26
20
-84.2886
11
148.16
21
-84.3154
0
LINE
8
BLACK
6
CONTINUOUS
10
148.16
20
-84.3154
11
147.76
21
-84.3154
0
LINE
8
BLACK
6
CONTINUOUS
10
147.76
20
-84.3154
11
147.691
21
-84.3033
0
LINE
8
BLACK
6
CONTINUOUS
10
147.691
20
-84.3033
11
147.631
21
-84.2686
0
LINE
8
BLACK
6
CONTINUOUS
10
147.631
20
-84.2686
11
147.586
21
-84.2154
0
LINE
8
BLACK
6
CONTINUOUS
10
147.586
20
-84.2154
11
147.56
21
-84.1154
0
LINE
8
BLACK
6
CONTINUOUS
10
147.56
20
-84.1154
11
147.56
21
-82.7154
0
LINE
8
BLACK
6
CONTINUOUS
10
147.56
20
-82.7154
11
147.572
21
-82.647
0
LINE
8
BLACK
6
CONTINUOUS
10
147.572
20
-82.647
11
147.606
21
-82.5868
0
LINE
8
BLACK
6
CONTINUOUS
10
147.606
20
-82.5868
11
147.66
21
-82.5422
0
LINE
8
BLACK
6
CONTINUOUS
10
147.66
20
-82.5422
11
147.76
21
-82.5154
0
LINE
8
BLACK
6
CONTINUOUS
10
147.76
20
-82.5154
11
148.16
21
-82.5154
0
LINE
8
BLACK
6
CONTINUOUS
10
148.16
20
-82.5154
11
148.228
21
-82.5275
0
LINE
8
BLACK
6
CONTINUOUS
10
146.094
20
-82.5214
11
146.124
21
-82.5388
0
LINE
8
BLACK
6
CONTINUOUS
10
146.124
20
-82.5388
11
146.146
21
-82.5654
0
LINE
8
BLACK
6
CONTINUOUS
10
146.146
20
-82.5654
11
146.16
21
-82.6154
0
LINE
8
BLACK
6
CONTINUOUS
10
146.16
20
-82.6154
11
146.16
21
-84.2154
0
LINE
8
BLACK
6
CONTINUOUS
10
146.16
20
-84.2154
11
146.154
21
-84.2496
0
LINE
8
BLACK
6
CONTINUOUS
10
146.154
20
-84.2496
11
146.136
21
-84.2797
0
LINE
8
BLACK
6
CONTINUOUS
10
146.136
20
-84.2797
11
146.11
21
-84.302
0
LINE
8
BLACK
6
CONTINUOUS
10
146.11
20
-84.302
11
146.06
21
-84.3154
0
LINE
8
BLACK
6
CONTINUOUS
10
146.06
20
-84.3154
11
145.86
21
-84.3154
0
LINE
8
BLACK
6
CONTINUOUS
10
145.86
20
-84.3154
11
145.825
21
-84.3094
0
LINE
8
BLACK
6
CONTINUOUS
10
145.825
20
-84.3094
11
145.795
21
-84.292
0
LINE
8
BLACK
6
CONTINUOUS
10
145.795
20
-84.292
11
145.773
21
-84.2654
0
LINE
8
BLACK
6
CONTINUOUS
10
145.773
20
-84.2654
11
145.76
21
-84.2154
0
LINE
8
BLACK
6
CONTINUOUS
10
145.76
20
-84.2154
11
145.76
21
-82.6154
0
LINE
8
BLACK
6
CONTINUOUS
10
145.76
20
-82.6154
11
145.766
21
-82.5812
0
LINE
8
BLACK
6
CONTINUOUS
10
145.766
20
-82.5812
11
145.783
21
-82.5511
0
LINE
8
BLACK
6
CONTINUOUS
10
145.783
20
-82.5511
11
145.81
21
-82.5288
0
LINE
8
BLACK
6
CONTINUOUS
10
145.81
20
-82.5288
11
145.86
21
-82.5154
0
LINE
8
BLACK
6
CONTINUOUS
10
145.86
20
-82.5154
11
146.06
21
-82.5154
0
LINE
8
BLACK
6
CONTINUOUS
10
146.06
20
-82.5154
11
146.094
21
-82.5214
0
LINE
8
BLACK
6
CONTINUOUS
10
149.517
20
-67.9322
11
147.717
21
-67.9322
0
LINE
8
BLACK
6
CONTINUOUS
10
147.717
20
-67.9322
11
147.717
21
-66.1322
0
LINE
8
BLACK
6
CONTINUOUS
10
147.717
20
-66.1322
11
149.517
21
-66.1322
0
LINE
8
BLACK
6
CONTINUOUS
10
149.517
20
-66.1322
11
149.517
21
-67.9322
0
LINE
8
BLACK
6
CONTINUOUS
10
143.367
20
-67.9322
11
141.567
21
-67.9322
0
LINE
8
BLACK
6
CONTINUOUS
10
141.567
20
-67.9322
11
141.567
21
-66.1322
0
LINE
8
BLACK
6
CONTINUOUS
10
141.567
20
-66.1322
11
143.367
21
-66.1322
0
LINE
8
BLACK
6
CONTINUOUS
10
143.367
20
-66.1322
11
143.367
21
-67.9322
0
LINE
8
BLACK
6
CONTINUOUS
10
149.517
20
-61.7822
11
147.717
21
-61.7822
0
LINE
8
BLACK
6
CONTINUOUS
10
147.717
20
-61.7822
11
147.717
21
-59.9822
0
LINE
8
BLACK
6
CONTINUOUS
10
147.717
20
-59.9822
11
149.517
21
-59.9822
0
LINE
8
BLACK
6
CONTINUOUS
10
149.517
20
-59.9822
11
149.517
21
-61.7822
0
LINE
8
BLACK
6
CONTINUOUS
10
143.367
20
-61.7822
11
141.567
21
-61.7822
0
LINE
8
BLACK
6
CONTINUOUS
10
141.567
20
-61.7822
11
141.567
21
-59.9822
0
LINE
8
BLACK
6
CONTINUOUS
10
141.567
20
-59.9822
11
143.367
21
-59.9822
0
LINE
8
BLACK
6
CONTINUOUS
10
143.367
20
-59.9822
11
143.367
21
-61.7822
0
CIRCLE
8
BLACK
10
138.163
20
-105.6
40
0.1
  0
ENDSEC
  0
EOF
