  0
SECTION
  2
HEADER
  9
$ANGBASE
  50
0.0
  9
$ANGDIR
  70
  1
  9
$MEASUREMENT
  70
0
  0
ENDSEC
  0
SECTION
  2
TABLES
  0
TABLE
  2
LTYPE
  70
4
  0
LTYPE
  5
40F
  2
CONTINUOUS
  70
0
  3
Solid line
  72
65
  73
0
  40
0.0
  0
LTYPE
  5
410
  2
DASHDOT
 70
0
  3
Dash Dot ____ _ ____ _
 72
65
 73
4
 40
2.0
 49
1.25
 49
-0.25
 49
0.25
 49
-0.25
  0
LTYPE
  5
411
  2
DASHED
 70
0
  3
Dashed __ __ __ __ __
 72
65
 73
2
 40
0.75
 49
0.5
 49
-0.25
  0
LTYPE
  5
43B
  2
DOTTED
 70
0
  3
Dotted .  .  .  .
 72
65
 73
2
 40
0.2
 49
0.0
 49
-0.2
  0
ENDTAB
  0
TABLE
  2
STYLE
  70
4
  0
STYLE
  2
KICAD
  70
0
  40
0
  41
1
  42
1
  50
0
  71
0
  3
isocp.shx
  0
STYLE
  2
KICADB
  70
0
  40
0
  41
1
  42
1
  50
0
  71
0
  3
isocp.shx
  0
STYLE
  2
KICADI
  70
0
  40
0
  41
1
  42
1
  50
15
  71
0
  3
isocp.shx
  0
STYLE
  2
KICADBI
  70
0
  40
0
  41
1
  42
1
  50
15
  71
0
  3
isocp.shx
  0
ENDTAB
  0
TABLE
  2
LAYER
  70
30
  0
LAYER
  2
BLACK
  70
0
  62
7
  6
CONTINUOUS
  0
LAYER
  2
GRAY1
  70
0
  62
251
  6
CONTINUOUS
  0
LAYER
  2
GRAY2
  70
0
  62
8
  6
CONTINUOUS
  0
LAYER
  2
GRAY3
  70
0
  62
9
  6
CONTINUOUS
  0
LAYER
  2
WHITE
  70
0
  62
7
  6
CONTINUOUS
  0
LAYER
  2
LYELLOW
  70
0
  62
51
  6
CONTINUOUS
  0
LAYER
  2
BLUE1
  70
0
  62
178
  6
CONTINUOUS
  0
LAYER
  2
GREEN1
  70
0
  62
98
  6
CONTINUOUS
  0
LAYER
  2
CYAN1
  70
0
  62
138
  6
CONTINUOUS
  0
LAYER
  2
RED1
  70
0
  62
18
  6
CONTINUOUS
  0
LAYER
  2
MAGENTA1
  70
0
  62
228
  6
CONTINUOUS
  0
LAYER
  2
BROWN1
  70
0
  62
58
  6
CONTINUOUS
  0
LAYER
  2
BLUE2
  70
0
  62
5
  6
CONTINUOUS
  0
LAYER
  2
GREEN2
  70
0
  62
3
  6
CONTINUOUS
  0
LAYER
  2
CYAN2
  70
0
  62
4
  6
CONTINUOUS
  0
LAYER
  2
RED2
  70
0
  62
1
  6
CONTINUOUS
  0
LAYER
  2
MAGENTA2
  70
0
  62
6
  6
CONTINUOUS
  0
LAYER
  2
BROWN2
  70
0
  62
54
  6
CONTINUOUS
  0
LAYER
  2
BLUE3
  70
0
  62
171
  6
CONTINUOUS
  0
LAYER
  2
GREEN3
  70
0
  62
91
  6
CONTINUOUS
  0
LAYER
  2
CYAN3
  70
0
  62
131
  6
CONTINUOUS
  0
LAYER
  2
RED3
  70
0
  62
11
  6
CONTINUOUS
  0
LAYER
  2
MAGENTA3
  70
0
  62
221
  6
CONTINUOUS
  0
LAYER
  2
YELLOW3
  70
0
  62
2
  6
CONTINUOUS
  0
LAYER
  2
BLUE4
  70
0
  62
5
  6
CONTINUOUS
  0
LAYER
  2
GREEN4
  70
0
  62
3
  6
CONTINUOUS
  0
LAYER
  2
CYAN4
  70
0
  62
4
  6
CONTINUOUS
  0
LAYER
  2
RED4
  70
0
  62
1
  6
CONTINUOUS
  0
LAYER
  2
MAGENTA4
  70
0
  62
6
  6
CONTINUOUS
  0
LAYER
  2
YELLOW4
  70
0
  62
2
  6
CONTINUOUS
  0
ENDTAB
  0
ENDSEC
  0
SECTION
  2
ENTITIES
0
LINE
8
BLACK
6
CONTINUOUS
10
147.479
20
-58.0048
11
147.482
21
-58.005
0
LINE
8
BLACK
6
CONTINUOUS
10
147.482
20
-58.005
11
147.485
21
-58.0052
0
LINE
8
BLACK
6
CONTINUOUS
10
147.485
20
-58.0052
11
147.485
21
-58.0052
0
LINE
8
BLACK
6
CONTINUOUS
10
147.485
20
-58.0052
11
147.485
21
-58.0052
0
LINE
8
BLACK
6
CONTINUOUS
10
147.485
20
-58.0052
11
147.485
21
-58.0052
0
LINE
8
BLACK
6
CONTINUOUS
10
147.485
20
-58.0052
11
149.915
21
-58.2348
0
LINE
8
BLACK
6
CONTINUOUS
10
149.915
20
-58.2348
11
149.921
21
-58.2356
0
LINE
8
BLACK
6
CONTINUOUS
10
149.921
20
-58.2356
11
149.924
21
-58.2361
0
LINE
8
BLACK
6
CONTINUOUS
10
149.924
20
-58.2361
11
149.925
21
-58.2363
0
LINE
8
BLACK
6
CONTINUOUS
10
149.925
20
-58.2363
11
150.979
21
-58.4469
0
LINE
8
BLACK
6
CONTINUOUS
10
150.979
20
-58.4469
11
150.979
21
-58.4469
0
LINE
8
BLACK
6
CONTINUOUS
10
150.979
20
-58.4469
11
150.979
21
-58.4469
0
LINE
8
BLACK
6
CONTINUOUS
10
150.979
20
-58.4469
11
150.989
21
-58.4493
0
LINE
8
BLACK
6
CONTINUOUS
10
150.989
20
-58.4493
11
150.991
21
-58.4501
0
LINE
8
BLACK
6
CONTINUOUS
10
150.991
20
-58.4501
11
150.993
21
-58.4507
0
LINE
8
BLACK
6
CONTINUOUS
10
150.993
20
-58.4507
11
152.006
21
-58.8112
0
LINE
8
BLACK
6
CONTINUOUS
10
152.006
20
-58.8112
11
152.015
21
-58.815
0
LINE
8
BLACK
6
CONTINUOUS
10
152.015
20
-58.815
11
152.017
21
-58.8161
0
LINE
8
BLACK
6
CONTINUOUS
10
152.017
20
-58.8161
11
152.019
21
-58.817
0
LINE
8
BLACK
6
CONTINUOUS
10
152.019
20
-58.817
11
152.969
21
-59.3198
0
LINE
8
BLACK
6
CONTINUOUS
10
152.969
20
-59.3198
11
152.969
21
-59.3198
0
LINE
8
BLACK
6
CONTINUOUS
10
152.969
20
-59.3198
11
152.969
21
-59.3198
0
LINE
8
BLACK
6
CONTINUOUS
10
152.969
20
-59.3198
11
152.977
21
-59.3249
0
LINE
8
BLACK
6
CONTINUOUS
10
152.977
20
-59.3249
11
152.979
21
-59.3263
0
LINE
8
BLACK
6
CONTINUOUS
10
152.979
20
-59.3263
11
152.981
21
-59.3275
0
LINE
8
BLACK
6
CONTINUOUS
10
152.981
20
-59.3275
11
153.848
21
-59.9621
0
LINE
8
BLACK
6
CONTINUOUS
10
153.848
20
-59.9621
11
153.856
21
-59.9684
0
LINE
8
BLACK
6
CONTINUOUS
10
153.856
20
-59.9684
11
153.857
21
-59.97
0
LINE
8
BLACK
6
CONTINUOUS
10
153.857
20
-59.97
11
153.859
21
-59.9715
0
LINE
8
BLACK
6
CONTINUOUS
10
153.859
20
-59.9715
11
154.625
21
-60.7247
0
LINE
8
BLACK
6
CONTINUOUS
10
154.625
20
-60.7247
11
154.626
21
-60.7247
0
LINE
8
BLACK
6
CONTINUOUS
10
154.626
20
-60.7247
11
154.626
21
-60.7247
0
LINE
8
BLACK
6
CONTINUOUS
10
154.626
20
-60.7247
11
154.632
21
-60.732
0
LINE
8
BLACK
6
CONTINUOUS
10
154.632
20
-60.732
11
154.634
21
-60.7339
0
LINE
8
BLACK
6
CONTINUOUS
10
154.634
20
-60.7339
11
154.635
21
-60.7356
0
LINE
8
BLACK
6
CONTINUOUS
10
154.635
20
-60.7356
11
155.285
21
-61.5915
0
LINE
8
BLACK
6
CONTINUOUS
10
155.285
20
-61.5915
11
155.29
21
-61.5997
0
LINE
8
BLACK
6
CONTINUOUS
10
155.29
20
-61.5997
11
155.291
21
-61.5999
0
LINE
8
BLACK
6
CONTINUOUS
10
155.291
20
-61.5999
11
155.291
21
-61.6001
0
LINE
8
BLACK
6
CONTINUOUS
10
155.291
20
-61.6001
11
155.539
21
-62.0107
0
LINE
8
BLACK
6
CONTINUOUS
10
155.539
20
-62.0107
11
155.541
21
-62.0138
0
LINE
8
BLACK
6
CONTINUOUS
10
155.541
20
-62.0138
11
155.542
21
-62.0158
0
LINE
8
BLACK
6
CONTINUOUS
10
155.542
20
-62.0158
11
157.32
21
-65.3396
0
LINE
8
BLACK
6
CONTINUOUS
10
157.32
20
-65.3396
11
157.321
21
-65.3413
0
LINE
8
BLACK
6
CONTINUOUS
10
157.321
20
-65.3413
11
157.322
21
-65.3433
0
LINE
8
BLACK
6
CONTINUOUS
10
157.322
20
-65.3433
11
158.96
21
-68.7387
0
LINE
8
BLACK
6
CONTINUOUS
10
158.96
20
-68.7387
11
158.962
21
-68.7425
0
LINE
8
BLACK
6
CONTINUOUS
10
158.962
20
-68.7425
11
160.455
21
-72.2035
0
LINE
8
BLACK
6
CONTINUOUS
10
160.455
20
-72.2035
11
160.455
21
-72.2035
0
LINE
8
BLACK
6
CONTINUOUS
10
160.455
20
-72.2035
11
160.457
21
-72.2074
0
LINE
8
BLACK
6
CONTINUOUS
10
160.457
20
-72.2074
11
161.805
21
-75.7279
0
LINE
8
BLACK
6
CONTINUOUS
10
161.805
20
-75.7279
11
161.806
21
-75.7318
0
LINE
8
BLACK
6
CONTINUOUS
10
161.806
20
-75.7318
11
163.005
21
-79.3057
0
LINE
8
BLACK
6
CONTINUOUS
10
163.005
20
-79.3057
11
163.005
21
-79.3057
0
LINE
8
BLACK
6
CONTINUOUS
10
163.005
20
-79.3057
11
163.006
21
-79.3097
0
LINE
8
BLACK
6
CONTINUOUS
10
163.006
20
-79.3097
11
164.055
21
-82.9306
0
LINE
8
BLACK
6
CONTINUOUS
10
164.055
20
-82.9306
11
164.055
21
-82.9306
0
LINE
8
BLACK
6
CONTINUOUS
10
164.055
20
-82.9306
11
164.056
21
-82.9346
0
LINE
8
BLACK
6
CONTINUOUS
10
164.056
20
-82.9346
11
164.952
21
-86.5963
0
LINE
8
BLACK
6
CONTINUOUS
10
164.952
20
-86.5963
11
164.953
21
-86.6004
0
LINE
8
BLACK
6
CONTINUOUS
10
164.953
20
-86.6004
11
165.694
21
-90.2963
0
LINE
8
BLACK
6
CONTINUOUS
10
165.694
20
-90.2963
11
165.695
21
-90.3005
0
LINE
8
BLACK
6
CONTINUOUS
10
165.695
20
-90.3005
11
166.281
21
-94.0242
0
LINE
8
BLACK
6
CONTINUOUS
10
166.281
20
-94.0242
11
166.281
21
-94.0242
0
LINE
8
BLACK
6
CONTINUOUS
10
166.281
20
-94.0242
11
166.282
21
-94.0284
0
LINE
8
BLACK
6
CONTINUOUS
10
166.282
20
-94.0284
11
166.712
21
-97.7734
0
LINE
8
BLACK
6
CONTINUOUS
10
166.712
20
-97.7734
11
166.712
21
-97.7734
0
LINE
8
BLACK
6
CONTINUOUS
10
166.712
20
-97.7734
11
166.712
21
-97.7776
0
LINE
8
BLACK
6
CONTINUOUS
10
166.712
20
-97.7776
11
166.985
21
-101.537
0
LINE
8
BLACK
6
CONTINUOUS
10
166.985
20
-101.537
11
166.985
21
-101.539
0
LINE
8
BLACK
6
CONTINUOUS
10
166.985
20
-101.539
11
166.985
21
-101.54
0
LINE
8
BLACK
6
CONTINUOUS
10
166.985
20
-101.54
11
167.022
21
-102.337
0
LINE
8
BLACK
6
CONTINUOUS
10
167.022
20
-102.337
11
167.022
21
-102.341
0
LINE
8
BLACK
6
CONTINUOUS
10
167.022
20
-102.341
11
167.022
21
-102.345
0
LINE
8
BLACK
6
CONTINUOUS
10
167.022
20
-102.345
11
167.022
21
-102.349
0
LINE
8
BLACK
6
CONTINUOUS
10
167.022
20
-102.349
11
167.022
21
-102.353
0
LINE
8
BLACK
6
CONTINUOUS
10
167.022
20
-102.353
11
167.021
21
-102.355
0
LINE
8
BLACK
6
CONTINUOUS
10
167.021
20
-102.355
11
166.991
21
-103.474
0
LINE
8
BLACK
6
CONTINUOUS
10
166.991
20
-103.474
11
166.991
21
-103.481
0
LINE
8
BLACK
6
CONTINUOUS
10
166.991
20
-103.481
11
166.99
21
-103.485
0
LINE
8
BLACK
6
CONTINUOUS
10
166.99
20
-103.485
11
166.99
21
-103.488
0
LINE
8
BLACK
6
CONTINUOUS
10
166.99
20
-103.488
11
166.802
21
-104.604
0
LINE
8
BLACK
6
CONTINUOUS
10
166.802
20
-104.604
11
166.8
21
-104.611
0
LINE
8
BLACK
6
CONTINUOUS
10
166.8
20
-104.611
11
166.799
21
-104.614
0
LINE
8
BLACK
6
CONTINUOUS
10
166.799
20
-104.614
11
166.798
21
-104.618
0
LINE
8
BLACK
6
CONTINUOUS
10
166.798
20
-104.618
11
166.457
21
-105.696
0
LINE
8
BLACK
6
CONTINUOUS
10
166.457
20
-105.696
11
166.455
21
-105.703
0
LINE
8
BLACK
6
CONTINUOUS
10
166.455
20
-105.703
11
166.453
21
-105.706
0
LINE
8
BLACK
6
CONTINUOUS
10
166.453
20
-105.706
11
166.452
21
-105.709
0
LINE
8
BLACK
6
CONTINUOUS
10
166.452
20
-105.709
11
165.964
21
-106.73
0
LINE
8
BLACK
6
CONTINUOUS
10
165.964
20
-106.73
11
165.961
21
-106.736
0
LINE
8
BLACK
6
CONTINUOUS
10
165.961
20
-106.736
11
165.959
21
-106.739
0
LINE
8
BLACK
6
CONTINUOUS
10
165.959
20
-106.739
11
165.957
21
-106.742
0
LINE
8
BLACK
6
CONTINUOUS
10
165.957
20
-106.742
11
165.332
21
-107.685
0
LINE
8
BLACK
6
CONTINUOUS
10
165.332
20
-107.685
11
165.327
21
-107.69
0
LINE
8
BLACK
6
CONTINUOUS
10
165.327
20
-107.69
11
165.325
21
-107.693
0
LINE
8
BLACK
6
CONTINUOUS
10
165.325
20
-107.693
11
165.323
21
-107.696
0
LINE
8
BLACK
6
CONTINUOUS
10
165.323
20
-107.696
11
164.572
21
-108.542
0
LINE
8
BLACK
6
CONTINUOUS
10
164.572
20
-108.542
11
164.572
21
-108.542
0
LINE
8
BLACK
6
CONTINUOUS
10
164.572
20
-108.542
11
164.572
21
-108.542
0
LINE
8
BLACK
6
CONTINUOUS
10
164.572
20
-108.542
11
164.568
21
-108.547
0
LINE
8
BLACK
6
CONTINUOUS
10
164.568
20
-108.547
11
164.565
21
-108.55
0
LINE
8
BLACK
6
CONTINUOUS
10
164.565
20
-108.55
11
164.563
21
-108.552
0
LINE
8
BLACK
6
CONTINUOUS
10
164.563
20
-108.552
11
163.701
21
-109.286
0
LINE
8
BLACK
6
CONTINUOUS
10
163.701
20
-109.286
11
163.701
21
-109.286
0
LINE
8
BLACK
6
CONTINUOUS
10
163.701
20
-109.286
11
163.701
21
-109.286
0
LINE
8
BLACK
6
CONTINUOUS
10
163.701
20
-109.286
11
163.696
21
-109.29
0
LINE
8
BLACK
6
CONTINUOUS
10
163.696
20
-109.29
11
163.693
21
-109.292
0
LINE
8
BLACK
6
CONTINUOUS
10
163.693
20
-109.292
11
163.69
21
-109.294
0
LINE
8
BLACK
6
CONTINUOUS
10
163.69
20
-109.294
11
162.735
21
-109.901
0
LINE
8
BLACK
6
CONTINUOUS
10
162.735
20
-109.901
11
162.729
21
-109.904
0
LINE
8
BLACK
6
CONTINUOUS
10
162.729
20
-109.904
11
162.726
21
-109.906
0
LINE
8
BLACK
6
CONTINUOUS
10
162.726
20
-109.906
11
162.723
21
-109.908
0
LINE
8
BLACK
6
CONTINUOUS
10
162.723
20
-109.908
11
161.693
21
-110.376
0
LINE
8
BLACK
6
CONTINUOUS
10
161.693
20
-110.376
11
161.687
21
-110.378
0
LINE
8
BLACK
6
CONTINUOUS
10
161.687
20
-110.378
11
161.683
21
-110.379
0
LINE
8
BLACK
6
CONTINUOUS
10
161.683
20
-110.379
11
161.68
21
-110.381
0
LINE
8
BLACK
6
CONTINUOUS
10
161.68
20
-110.381
11
160.595
21
-110.701
0
LINE
8
BLACK
6
CONTINUOUS
10
160.595
20
-110.701
11
160.588
21
-110.702
0
LINE
8
BLACK
6
CONTINUOUS
10
160.588
20
-110.702
11
160.585
21
-110.703
0
LINE
8
BLACK
6
CONTINUOUS
10
160.585
20
-110.703
11
160.582
21
-110.704
0
LINE
8
BLACK
6
CONTINUOUS
10
160.582
20
-110.704
11
159.636
21
-110.854
0
LINE
8
BLACK
6
CONTINUOUS
10
159.636
20
-110.854
11
159.635
21
-110.854
0
LINE
8
BLACK
6
CONTINUOUS
10
159.635
20
-110.854
11
159.632
21
-110.855
0
LINE
8
BLACK
6
CONTINUOUS
10
159.632
20
-110.855
11
159.629
21
-110.855
0
LINE
8
BLACK
6
CONTINUOUS
10
159.629
20
-110.855
11
159.626
21
-110.856
0
LINE
8
BLACK
6
CONTINUOUS
10
159.626
20
-110.856
11
159.622
21
-110.856
0
LINE
8
BLACK
6
CONTINUOUS
10
159.622
20
-110.856
11
154.926
21
-111.244
0
LINE
8
BLACK
6
CONTINUOUS
10
154.926
20
-111.244
11
154.926
21
-111.244
0
LINE
8
BLACK
6
CONTINUOUS
10
154.926
20
-111.244
11
154.926
21
-111.244
0
LINE
8
BLACK
6
CONTINUOUS
10
154.926
20
-111.244
11
154.923
21
-111.244
0
LINE
8
BLACK
6
CONTINUOUS
10
154.923
20
-111.244
11
154.923
21
-111.244
0
LINE
8
BLACK
6
CONTINUOUS
10
154.923
20
-111.244
11
150.217
21
-111.484
0
LINE
8
BLACK
6
CONTINUOUS
10
150.217
20
-111.484
11
150.217
21
-111.484
0
LINE
8
BLACK
6
CONTINUOUS
10
150.217
20
-111.484
11
150.214
21
-111.484
0
LINE
8
BLACK
6
CONTINUOUS
10
150.214
20
-111.484
11
145.503
21
-111.576
0
LINE
8
BLACK
6
CONTINUOUS
10
145.503
20
-111.576
11
145.499
21
-111.576
0
LINE
8
BLACK
6
CONTINUOUS
10
145.499
20
-111.576
11
140.788
21
-111.52
0
LINE
8
BLACK
6
CONTINUOUS
10
140.788
20
-111.52
11
140.784
21
-111.52
0
LINE
8
BLACK
6
CONTINUOUS
10
140.784
20
-111.52
11
140.784
21
-111.52
0
LINE
8
BLACK
6
CONTINUOUS
10
140.784
20
-111.52
11
136.077
21
-111.316
0
LINE
8
BLACK
6
CONTINUOUS
10
136.077
20
-111.316
11
136.077
21
-111.316
0
LINE
8
BLACK
6
CONTINUOUS
10
136.077
20
-111.316
11
136.073
21
-111.316
0
LINE
8
BLACK
6
CONTINUOUS
10
136.073
20
-111.316
11
131.374
21
-110.964
0
LINE
8
BLACK
6
CONTINUOUS
10
131.374
20
-110.964
11
131.373
21
-110.964
0
LINE
8
BLACK
6
CONTINUOUS
10
131.373
20
-110.964
11
131.372
21
-110.964
0
LINE
8
BLACK
6
CONTINUOUS
10
131.372
20
-110.964
11
130.232
21
-110.856
0
LINE
8
BLACK
6
CONTINUOUS
10
130.232
20
-110.856
11
130.229
21
-110.856
0
LINE
8
BLACK
6
CONTINUOUS
10
130.229
20
-110.856
11
130.226
21
-110.855
0
LINE
8
BLACK
6
CONTINUOUS
10
130.226
20
-110.855
11
130.223
21
-110.855
0
LINE
8
BLACK
6
CONTINUOUS
10
130.223
20
-110.855
11
130.22
21
-110.854
0
LINE
8
BLACK
6
CONTINUOUS
10
130.22
20
-110.854
11
130.219
21
-110.854
0
LINE
8
BLACK
6
CONTINUOUS
10
130.219
20
-110.854
11
129.11
21
-110.666
0
LINE
8
BLACK
6
CONTINUOUS
10
129.11
20
-110.666
11
129.11
21
-110.666
0
LINE
8
BLACK
6
CONTINUOUS
10
129.11
20
-110.666
11
129.11
21
-110.666
0
LINE
8
BLACK
6
CONTINUOUS
10
129.11
20
-110.666
11
129.103
21
-110.664
0
LINE
8
BLACK
6
CONTINUOUS
10
129.103
20
-110.664
11
129.1
21
-110.663
0
LINE
8
BLACK
6
CONTINUOUS
10
129.1
20
-110.663
11
129.096
21
-110.662
0
LINE
8
BLACK
6
CONTINUOUS
10
129.096
20
-110.662
11
128.018
21
-110.32
0
LINE
8
BLACK
6
CONTINUOUS
10
128.018
20
-110.32
11
128.018
21
-110.32
0
LINE
8
BLACK
6
CONTINUOUS
10
128.018
20
-110.32
11
128.018
21
-110.32
0
LINE
8
BLACK
6
CONTINUOUS
10
128.018
20
-110.32
11
128.012
21
-110.318
0
LINE
8
BLACK
6
CONTINUOUS
10
128.012
20
-110.318
11
128.008
21
-110.316
0
LINE
8
BLACK
6
CONTINUOUS
10
128.008
20
-110.316
11
128.005
21
-110.315
0
LINE
8
BLACK
6
CONTINUOUS
10
128.005
20
-110.315
11
126.985
21
-109.826
0
LINE
8
BLACK
6
CONTINUOUS
10
126.985
20
-109.826
11
126.979
21
-109.822
0
LINE
8
BLACK
6
CONTINUOUS
10
126.979
20
-109.822
11
126.976
21
-109.821
0
LINE
8
BLACK
6
CONTINUOUS
10
126.976
20
-109.821
11
126.973
21
-109.819
0
LINE
8
BLACK
6
CONTINUOUS
10
126.973
20
-109.819
11
126.031
21
-109.192
0
LINE
8
BLACK
6
CONTINUOUS
10
126.031
20
-109.192
11
126.031
21
-109.192
0
LINE
8
BLACK
6
CONTINUOUS
10
126.031
20
-109.192
11
126.031
21
-109.192
0
LINE
8
BLACK
6
CONTINUOUS
10
126.031
20
-109.192
11
126.025
21
-109.188
0
LINE
8
BLACK
6
CONTINUOUS
10
126.025
20
-109.188
11
126.023
21
-109.186
0
LINE
8
BLACK
6
CONTINUOUS
10
126.023
20
-109.186
11
126.02
21
-109.184
0
LINE
8
BLACK
6
CONTINUOUS
10
126.02
20
-109.184
11
125.174
21
-108.433
0
LINE
8
BLACK
6
CONTINUOUS
10
125.174
20
-108.433
11
125.169
21
-108.428
0
LINE
8
BLACK
6
CONTINUOUS
10
125.169
20
-108.428
11
125.167
21
-108.425
0
LINE
8
BLACK
6
CONTINUOUS
10
125.167
20
-108.425
11
125.164
21
-108.423
0
LINE
8
BLACK
6
CONTINUOUS
10
125.164
20
-108.423
11
124.431
21
-107.561
0
LINE
8
BLACK
6
CONTINUOUS
10
124.431
20
-107.561
11
124.427
21
-107.555
0
LINE
8
BLACK
6
CONTINUOUS
10
124.427
20
-107.555
11
124.425
21
-107.552
0
LINE
8
BLACK
6
CONTINUOUS
10
124.425
20
-107.552
11
124.423
21
-107.55
0
LINE
8
BLACK
6
CONTINUOUS
10
124.423
20
-107.55
11
123.817
21
-106.594
0
LINE
8
BLACK
6
CONTINUOUS
10
123.817
20
-106.594
11
123.814
21
-106.588
0
LINE
8
BLACK
6
CONTINUOUS
10
123.814
20
-106.588
11
123.812
21
-106.585
0
LINE
8
BLACK
6
CONTINUOUS
10
123.812
20
-106.585
11
123.81
21
-106.582
0
LINE
8
BLACK
6
CONTINUOUS
10
123.81
20
-106.582
11
123.343
21
-105.551
0
LINE
8
BLACK
6
CONTINUOUS
10
123.343
20
-105.551
11
123.341
21
-105.545
0
LINE
8
BLACK
6
CONTINUOUS
10
123.341
20
-105.545
11
123.34
21
-105.542
0
LINE
8
BLACK
6
CONTINUOUS
10
123.34
20
-105.542
11
123.339
21
-105.538
0
LINE
8
BLACK
6
CONTINUOUS
10
123.339
20
-105.538
11
123.02
21
-104.453
0
LINE
8
BLACK
6
CONTINUOUS
10
123.02
20
-104.453
11
123.018
21
-104.446
0
LINE
8
BLACK
6
CONTINUOUS
10
123.018
20
-104.446
11
123.017
21
-104.443
0
LINE
8
BLACK
6
CONTINUOUS
10
123.017
20
-104.443
11
123.017
21
-104.439
0
LINE
8
BLACK
6
CONTINUOUS
10
123.017
20
-104.439
11
122.852
21
-103.32
0
LINE
8
BLACK
6
CONTINUOUS
10
122.852
20
-103.32
11
122.851
21
-103.313
0
LINE
8
BLACK
6
CONTINUOUS
10
122.851
20
-103.313
11
122.851
21
-103.31
0
LINE
8
BLACK
6
CONTINUOUS
10
122.851
20
-103.31
11
122.851
21
-103.307
0
LINE
8
BLACK
6
CONTINUOUS
10
122.851
20
-103.307
11
122.834
21
-102.355
0
LINE
8
BLACK
6
CONTINUOUS
10
122.834
20
-102.355
11
122.834
21
-102.352
0
LINE
8
BLACK
6
CONTINUOUS
10
122.834
20
-102.352
11
122.834
21
-102.348
0
LINE
8
BLACK
6
CONTINUOUS
10
122.834
20
-102.348
11
122.834
21
-102.344
0
LINE
8
BLACK
6
CONTINUOUS
10
122.834
20
-102.344
11
122.834
21
-102.34
0
LINE
8
BLACK
6
CONTINUOUS
10
122.834
20
-102.34
11
122.834
21
-102.336
0
LINE
8
BLACK
6
CONTINUOUS
10
122.834
20
-102.336
11
123.073
21
-98.5736
0
LINE
8
BLACK
6
CONTINUOUS
10
123.073
20
-98.5736
11
123.073
21
-98.5736
0
LINE
8
BLACK
6
CONTINUOUS
10
123.073
20
-98.5736
11
123.073
21
-98.5694
0
LINE
8
BLACK
6
CONTINUOUS
10
123.073
20
-98.5694
11
123.47
21
-94.8207
0
LINE
8
BLACK
6
CONTINUOUS
10
123.47
20
-94.8207
11
123.47
21
-94.8166
0
LINE
8
BLACK
6
CONTINUOUS
10
123.47
20
-94.8166
11
124.024
21
-91.0877
0
LINE
8
BLACK
6
CONTINUOUS
10
124.024
20
-91.0877
11
124.024
21
-91.0836
0
LINE
8
BLACK
6
CONTINUOUS
10
124.024
20
-91.0836
11
124.733
21
-87.3812
0
LINE
8
BLACK
6
CONTINUOUS
10
124.733
20
-87.3812
11
124.734
21
-87.3771
0
LINE
8
BLACK
6
CONTINUOUS
10
124.734
20
-87.3771
11
125.597
21
-83.7077
0
LINE
8
BLACK
6
CONTINUOUS
10
125.597
20
-83.7077
11
125.598
21
-83.7068
0
LINE
8
BLACK
6
CONTINUOUS
10
125.598
20
-83.7068
11
125.598
21
-83.7036
0
LINE
8
BLACK
6
CONTINUOUS
10
125.598
20
-83.7036
11
126.615
21
-80.0735
0
LINE
8
BLACK
6
CONTINUOUS
10
126.615
20
-80.0735
11
126.615
21
-80.0723
0
LINE
8
BLACK
6
CONTINUOUS
10
126.615
20
-80.0723
11
126.616
21
-80.0695
0
LINE
8
BLACK
6
CONTINUOUS
10
126.616
20
-80.0695
11
127.783
21
-76.4852
0
LINE
8
BLACK
6
CONTINUOUS
10
127.783
20
-76.4852
11
127.785
21
-76.4812
0
LINE
8
BLACK
6
CONTINUOUS
10
127.785
20
-76.4812
11
129.101
21
-72.9489
0
LINE
8
BLACK
6
CONTINUOUS
10
129.101
20
-72.9489
11
129.103
21
-72.945
0
LINE
8
BLACK
6
CONTINUOUS
10
129.103
20
-72.945
11
130.566
21
-69.4709
0
LINE
8
BLACK
6
CONTINUOUS
10
130.566
20
-69.4709
11
130.567
21
-69.4671
0
LINE
8
BLACK
6
CONTINUOUS
10
130.567
20
-69.4671
11
132.175
21
-66.0573
0
LINE
8
BLACK
6
CONTINUOUS
10
132.175
20
-66.0573
11
132.176
21
-66.0555
0
LINE
8
BLACK
6
CONTINUOUS
10
132.176
20
-66.0555
11
132.177
21
-66.0536
0
LINE
8
BLACK
6
CONTINUOUS
10
132.177
20
-66.0536
11
133.925
21
-62.7141
0
LINE
8
BLACK
6
CONTINUOUS
10
133.925
20
-62.7141
11
133.926
21
-62.713
0
LINE
8
BLACK
6
CONTINUOUS
10
133.926
20
-62.713
11
133.927
21
-62.7119
0
LINE
8
BLACK
6
CONTINUOUS
10
133.927
20
-62.7119
11
134.315
21
-62.0146
0
LINE
8
BLACK
6
CONTINUOUS
10
134.315
20
-62.0146
11
134.317
21
-62.011
0
LINE
8
BLACK
6
CONTINUOUS
10
134.317
20
-62.011
11
134.318
21
-62.0095
0
LINE
8
BLACK
6
CONTINUOUS
10
134.318
20
-62.0095
11
134.319
21
-62.0073
0
LINE
8
BLACK
6
CONTINUOUS
10
134.319
20
-62.0073
11
134.912
21
-61.1112
0
LINE
8
BLACK
6
CONTINUOUS
10
134.912
20
-61.1112
11
134.918
21
-61.1032
0
LINE
8
BLACK
6
CONTINUOUS
10
134.918
20
-61.1032
11
134.919
21
-61.1015
0
LINE
8
BLACK
6
CONTINUOUS
10
134.919
20
-61.1015
11
134.921
21
-61.0997
0
LINE
8
BLACK
6
CONTINUOUS
10
134.921
20
-61.0997
11
135.637
21
-60.2986
0
LINE
8
BLACK
6
CONTINUOUS
10
135.637
20
-60.2986
11
135.644
21
-60.2915
0
LINE
8
BLACK
6
CONTINUOUS
10
135.644
20
-60.2915
11
135.646
21
-60.2901
0
LINE
8
BLACK
6
CONTINUOUS
10
135.646
20
-60.2901
11
135.647
21
-60.2885
0
LINE
8
BLACK
6
CONTINUOUS
10
135.647
20
-60.2885
11
136.472
21
-59.5992
0
LINE
8
BLACK
6
CONTINUOUS
10
136.472
20
-59.5992
11
136.48
21
-59.5932
0
LINE
8
BLACK
6
CONTINUOUS
10
136.48
20
-59.5932
11
136.482
21
-59.5921
0
LINE
8
BLACK
6
CONTINUOUS
10
136.482
20
-59.5921
11
136.483
21
-59.5907
0
LINE
8
BLACK
6
CONTINUOUS
10
136.483
20
-59.5907
11
137.399
21
-59.0276
0
LINE
8
BLACK
6
CONTINUOUS
10
137.399
20
-59.0276
11
137.399
21
-59.0276
0
LINE
8
BLACK
6
CONTINUOUS
10
137.399
20
-59.0276
11
137.399
21
-59.0276
0
LINE
8
BLACK
6
CONTINUOUS
10
137.399
20
-59.0276
11
137.407
21
-59.0228
0
LINE
8
BLACK
6
CONTINUOUS
10
137.407
20
-59.0228
11
137.41
21
-59.022
0
LINE
8
BLACK
6
CONTINUOUS
10
137.41
20
-59.022
11
137.412
21
-59.0209
0
LINE
8
BLACK
6
CONTINUOUS
10
137.412
20
-59.0209
11
138.398
21
-58.5958
0
LINE
8
BLACK
6
CONTINUOUS
10
138.398
20
-58.5958
11
138.398
21
-58.5958
0
LINE
8
BLACK
6
CONTINUOUS
10
138.398
20
-58.5958
11
138.399
21
-58.5958
0
LINE
8
BLACK
6
CONTINUOUS
10
138.399
20
-58.5958
11
138.408
21
-58.5924
0
LINE
8
BLACK
6
CONTINUOUS
10
138.408
20
-58.5924
11
138.41
21
-58.5918
0
LINE
8
BLACK
6
CONTINUOUS
10
138.41
20
-58.5918
11
138.412
21
-58.5911
0
LINE
8
BLACK
6
CONTINUOUS
10
138.412
20
-58.5911
11
139.45
21
-58.3129
0
LINE
8
BLACK
6
CONTINUOUS
10
139.45
20
-58.3129
11
139.46
21
-58.3108
0
LINE
8
BLACK
6
CONTINUOUS
10
139.46
20
-58.3108
11
139.46
21
-58.3108
0
LINE
8
BLACK
6
CONTINUOUS
10
139.46
20
-58.3108
11
139.46
21
-58.3107
0
LINE
8
BLACK
6
CONTINUOUS
10
139.46
20
-58.3107
11
139.934
21
-58.2356
0
LINE
8
BLACK
6
CONTINUOUS
10
139.934
20
-58.2356
11
139.937
21
-58.2353
0
LINE
8
BLACK
6
CONTINUOUS
10
139.937
20
-58.2353
11
139.941
21
-58.2348
0
LINE
8
BLACK
6
CONTINUOUS
10
139.941
20
-58.2348
11
142.443
21
-58.0006
0
LINE
8
BLACK
6
CONTINUOUS
10
142.443
20
-58.0006
11
142.449
21
-58.0002
0
LINE
8
BLACK
6
CONTINUOUS
10
142.449
20
-58.0002
11
142.449
21
-58.0002
0
LINE
8
BLACK
6
CONTINUOUS
10
142.449
20
-58.0002
11
144.961
21
-57.9236
0
LINE
8
BLACK
6
CONTINUOUS
10
144.961
20
-57.9236
11
144.961
21
-57.9236
0
LINE
8
BLACK
6
CONTINUOUS
10
144.961
20
-57.9236
11
144.967
21
-57.9236
0
LINE
8
BLACK
6
CONTINUOUS
10
144.967
20
-57.9236
11
147.479
21
-58.0048
0
LINE
8
BLACK
6
CONTINUOUS
10
147.479
20
-58.0048
11
147.479
21
-58.0048
0
LINE
8
BLACK
6
CONTINUOUS
10
147.479
20
-58.0048
11
147.479
21
-58.0048
0
LINE
8
BLACK
6
CONTINUOUS
10
142.459
20
-58.2
11
139.962
21
-58.4338
0
LINE
8
BLACK
6
CONTINUOUS
10
139.962
20
-58.4338
11
139.497
21
-58.5074
0
LINE
8
BLACK
6
CONTINUOUS
10
139.497
20
-58.5074
11
138.471
21
-58.7824
0
LINE
8
BLACK
6
CONTINUOUS
10
138.471
20
-58.7824
11
137.497
21
-59.2018
0
LINE
8
BLACK
6
CONTINUOUS
10
137.497
20
-59.2018
11
136.594
21
-59.7573
0
LINE
8
BLACK
6
CONTINUOUS
10
136.594
20
-59.7573
11
135.781
21
-60.4373
0
LINE
8
BLACK
6
CONTINUOUS
10
135.781
20
-60.4373
11
135.075
21
-61.2276
0
LINE
8
BLACK
6
CONTINUOUS
10
135.075
20
-61.2276
11
134.488
21
-62.1135
0
LINE
8
BLACK
6
CONTINUOUS
10
134.488
20
-62.1135
11
134.102
21
-62.808
0
LINE
8
BLACK
6
CONTINUOUS
10
134.102
20
-62.808
11
132.355
21
-66.1445
0
LINE
8
BLACK
6
CONTINUOUS
10
132.355
20
-66.1445
11
130.749
21
-69.5505
0
LINE
8
BLACK
6
CONTINUOUS
10
130.749
20
-69.5505
11
129.288
21
-73.0207
0
LINE
8
BLACK
6
CONTINUOUS
10
129.288
20
-73.0207
11
127.973
21
-76.5491
0
LINE
8
BLACK
6
CONTINUOUS
10
127.973
20
-76.5491
11
126.807
21
-80.1295
0
LINE
8
BLACK
6
CONTINUOUS
10
126.807
20
-80.1295
11
125.792
21
-83.7555
0
LINE
8
BLACK
6
CONTINUOUS
10
125.792
20
-83.7555
11
124.929
21
-87.4209
0
LINE
8
BLACK
6
CONTINUOUS
10
124.929
20
-87.4209
11
124.221
21
-91.1192
0
LINE
8
BLACK
6
CONTINUOUS
10
124.221
20
-91.1192
11
123.669
21
-94.8438
0
LINE
8
BLACK
6
CONTINUOUS
10
123.669
20
-94.8438
11
123.272
21
-98.5884
0
LINE
8
BLACK
6
CONTINUOUS
10
123.272
20
-98.5884
11
123.034
21
-102.337
0
LINE
8
BLACK
6
CONTINUOUS
10
123.034
20
-102.337
11
123.034
21
-102.339
0
LINE
8
BLACK
6
CONTINUOUS
10
123.034
20
-102.339
11
123.05
21
-103.297
0
LINE
8
BLACK
6
CONTINUOUS
10
123.05
20
-103.297
11
123.213
21
-104.403
0
LINE
8
BLACK
6
CONTINUOUS
10
123.213
20
-104.403
11
123.528
21
-105.475
0
LINE
8
BLACK
6
CONTINUOUS
10
123.528
20
-105.475
11
123.99
21
-106.493
0
LINE
8
BLACK
6
CONTINUOUS
10
123.99
20
-106.493
11
124.588
21
-107.437
0
LINE
8
BLACK
6
CONTINUOUS
10
124.588
20
-107.437
11
125.312
21
-108.288
0
LINE
8
BLACK
6
CONTINUOUS
10
125.312
20
-108.288
11
126.147
21
-109.03
0
LINE
8
BLACK
6
CONTINUOUS
10
126.147
20
-109.03
11
127.078
21
-109.648
0
LINE
8
BLACK
6
CONTINUOUS
10
127.078
20
-109.648
11
128.085
21
-110.132
0
LINE
8
BLACK
6
CONTINUOUS
10
128.085
20
-110.132
11
129.15
21
-110.47
0
LINE
8
BLACK
6
CONTINUOUS
10
129.15
20
-110.47
11
130.257
21
-110.657
0
LINE
8
BLACK
6
CONTINUOUS
10
130.257
20
-110.657
11
131.39
21
-110.764
0
LINE
8
BLACK
6
CONTINUOUS
10
131.39
20
-110.764
11
136.087
21
-111.116
0
LINE
8
BLACK
6
CONTINUOUS
10
136.087
20
-111.116
11
140.791
21
-111.32
0
LINE
8
BLACK
6
CONTINUOUS
10
140.791
20
-111.32
11
145.5
21
-111.376
0
LINE
8
BLACK
6
CONTINUOUS
10
145.5
20
-111.376
11
150.208
21
-111.284
0
LINE
8
BLACK
6
CONTINUOUS
10
150.208
20
-111.284
11
154.911
21
-111.044
0
LINE
8
BLACK
6
CONTINUOUS
10
154.911
20
-111.044
11
159.6
21
-110.657
0
LINE
8
BLACK
6
CONTINUOUS
10
159.6
20
-110.657
11
160.545
21
-110.507
0
LINE
8
BLACK
6
CONTINUOUS
10
160.545
20
-110.507
11
161.617
21
-110.191
0
LINE
8
BLACK
6
CONTINUOUS
10
161.617
20
-110.191
11
162.634
21
-109.728
0
LINE
8
BLACK
6
CONTINUOUS
10
162.634
20
-109.728
11
163.577
21
-109.129
0
LINE
8
BLACK
6
CONTINUOUS
10
163.577
20
-109.129
11
164.427
21
-108.404
0
LINE
8
BLACK
6
CONTINUOUS
10
164.427
20
-108.404
11
165.169
21
-107.568
0
LINE
8
BLACK
6
CONTINUOUS
10
165.169
20
-107.568
11
165.786
21
-106.637
0
LINE
8
BLACK
6
CONTINUOUS
10
165.786
20
-106.637
11
166.269
21
-105.629
0
LINE
8
BLACK
6
CONTINUOUS
10
166.269
20
-105.629
11
166.606
21
-104.564
0
LINE
8
BLACK
6
CONTINUOUS
10
166.606
20
-104.564
11
166.791
21
-103.462
0
LINE
8
BLACK
6
CONTINUOUS
10
166.791
20
-103.462
11
166.822
21
-102.338
0
LINE
8
BLACK
6
CONTINUOUS
10
166.822
20
-102.338
11
166.822
21
-102.335
0
LINE
8
BLACK
6
CONTINUOUS
10
166.822
20
-102.335
11
166.785
21
-101.551
0
LINE
8
BLACK
6
CONTINUOUS
10
166.785
20
-101.551
11
166.513
21
-97.7942
0
LINE
8
BLACK
6
CONTINUOUS
10
166.513
20
-97.7942
11
166.083
21
-94.0533
0
LINE
8
BLACK
6
CONTINUOUS
10
166.083
20
-94.0533
11
165.498
21
-90.3336
0
LINE
8
BLACK
6
CONTINUOUS
10
165.498
20
-90.3336
11
164.757
21
-86.6418
0
LINE
8
BLACK
6
CONTINUOUS
10
164.757
20
-86.6418
11
163.862
21
-82.9842
0
LINE
8
BLACK
6
CONTINUOUS
10
163.862
20
-82.9842
11
162.815
21
-79.3673
0
LINE
8
BLACK
6
CONTINUOUS
10
162.815
20
-79.3673
11
161.617
21
-75.7974
0
LINE
8
BLACK
6
CONTINUOUS
10
161.617
20
-75.7974
11
160.271
21
-72.2808
0
LINE
8
BLACK
6
CONTINUOUS
10
160.271
20
-72.2808
11
158.779
21
-68.8237
0
LINE
8
BLACK
6
CONTINUOUS
10
158.779
20
-68.8237
11
157.143
21
-65.4321
0
LINE
8
BLACK
6
CONTINUOUS
10
157.143
20
-65.4321
11
155.366
21
-62.1107
0
LINE
8
BLACK
6
CONTINUOUS
10
155.366
20
-62.1107
11
155.122
21
-61.7082
0
LINE
8
BLACK
6
CONTINUOUS
10
155.122
20
-61.7082
11
154.48
21
-60.8623
0
LINE
8
BLACK
6
CONTINUOUS
10
154.48
20
-60.8623
11
153.724
21
-60.1192
0
LINE
8
BLACK
6
CONTINUOUS
10
153.724
20
-60.1192
11
152.869
21
-59.4932
0
LINE
8
BLACK
6
CONTINUOUS
10
152.869
20
-59.4932
11
151.932
21
-58.9972
0
LINE
8
BLACK
6
CONTINUOUS
10
151.932
20
-58.9972
11
150.933
21
-58.6416
0
LINE
8
BLACK
6
CONTINUOUS
10
150.933
20
-58.6416
11
149.892
21
-58.4335
0
LINE
8
BLACK
6
CONTINUOUS
10
149.892
20
-58.4335
11
147.469
21
-58.2046
0
LINE
8
BLACK
6
CONTINUOUS
10
147.469
20
-58.2046
11
144.964
21
-58.1236
0
LINE
8
BLACK
6
CONTINUOUS
10
144.964
20
-58.1236
11
142.459
21
-58.2
  0
ENDSEC
  0
EOF
