  0
SECTION
  2
HEADER
  9
$ANGBASE
  50
0.0
  9
$ANGDIR
  70
  1
  9
$MEASUREMENT
  70
0
  0
ENDSEC
  0
SECTION
  2
TABLES
  0
TABLE
  2
LTYPE
  70
4
  0
LTYPE
  5
40F
  2
CONTINUOUS
  70
0
  3
Solid line
  72
65
  73
0
  40
0.0
  0
LTYPE
  5
410
  2
DASHDOT
 70
0
  3
Dash Dot ____ _ ____ _
 72
65
 73
4
 40
2.0
 49
1.25
 49
-0.25
 49
0.25
 49
-0.25
  0
LTYPE
  5
411
  2
DASHED
 70
0
  3
Dashed __ __ __ __ __
 72
65
 73
2
 40
0.75
 49
0.5
 49
-0.25
  0
LTYPE
  5
43B
  2
DOTTED
 70
0
  3
Dotted .  .  .  .
 72
65
 73
2
 40
0.2
 49
0.0
 49
-0.2
  0
ENDTAB
  0
TABLE
  2
STYLE
  70
4
  0
STYLE
  2
KICAD
  70
0
  40
0
  41
1
  42
1
  50
0
  71
0
  3
isocp.shx
  0
STYLE
  2
KICADB
  70
0
  40
0
  41
1
  42
1
  50
0
  71
0
  3
isocp.shx
  0
STYLE
  2
KICADI
  70
0
  40
0
  41
1
  42
1
  50
15
  71
0
  3
isocp.shx
  0
STYLE
  2
KICADBI
  70
0
  40
0
  41
1
  42
1
  50
15
  71
0
  3
isocp.shx
  0
ENDTAB
  0
TABLE
  2
LAYER
  70
30
  0
LAYER
  2
BLACK
  70
0
  62
7
  6
CONTINUOUS
  0
LAYER
  2
GRAY1
  70
0
  62
251
  6
CONTINUOUS
  0
LAYER
  2
GRAY2
  70
0
  62
8
  6
CONTINUOUS
  0
LAYER
  2
GRAY3
  70
0
  62
9
  6
CONTINUOUS
  0
LAYER
  2
WHITE
  70
0
  62
7
  6
CONTINUOUS
  0
LAYER
  2
LYELLOW
  70
0
  62
51
  6
CONTINUOUS
  0
LAYER
  2
BLUE1
  70
0
  62
178
  6
CONTINUOUS
  0
LAYER
  2
GREEN1
  70
0
  62
98
  6
CONTINUOUS
  0
LAYER
  2
CYAN1
  70
0
  62
138
  6
CONTINUOUS
  0
LAYER
  2
RED1
  70
0
  62
18
  6
CONTINUOUS
  0
LAYER
  2
MAGENTA1
  70
0
  62
228
  6
CONTINUOUS
  0
LAYER
  2
BROWN1
  70
0
  62
58
  6
CONTINUOUS
  0
LAYER
  2
BLUE2
  70
0
  62
5
  6
CONTINUOUS
  0
LAYER
  2
GREEN2
  70
0
  62
3
  6
CONTINUOUS
  0
LAYER
  2
CYAN2
  70
0
  62
4
  6
CONTINUOUS
  0
LAYER
  2
RED2
  70
0
  62
1
  6
CONTINUOUS
  0
LAYER
  2
MAGENTA2
  70
0
  62
6
  6
CONTINUOUS
  0
LAYER
  2
BROWN2
  70
0
  62
54
  6
CONTINUOUS
  0
LAYER
  2
BLUE3
  70
0
  62
171
  6
CONTINUOUS
  0
LAYER
  2
GREEN3
  70
0
  62
91
  6
CONTINUOUS
  0
LAYER
  2
CYAN3
  70
0
  62
131
  6
CONTINUOUS
  0
LAYER
  2
RED3
  70
0
  62
11
  6
CONTINUOUS
  0
LAYER
  2
MAGENTA3
  70
0
  62
221
  6
CONTINUOUS
  0
LAYER
  2
YELLOW3
  70
0
  62
2
  6
CONTINUOUS
  0
LAYER
  2
BLUE4
  70
0
  62
5
  6
CONTINUOUS
  0
LAYER
  2
GREEN4
  70
0
  62
3
  6
CONTINUOUS
  0
LAYER
  2
CYAN4
  70
0
  62
4
  6
CONTINUOUS
  0
LAYER
  2
RED4
  70
0
  62
1
  6
CONTINUOUS
  0
LAYER
  2
MAGENTA4
  70
0
  62
6
  6
CONTINUOUS
  0
LAYER
  2
YELLOW4
  70
0
  62
2
  6
CONTINUOUS
  0
ENDTAB
  0
ENDSEC
  0
SECTION
  2
ENTITIES
0
LINE
8
BLACK
6
CONTINUOUS
10
140.822
20
-108.073
11
140.972
21
-108.159
0
LINE
8
BLACK
6
CONTINUOUS
10
140.972
20
-108.159
11
141.084
21
-108.292
0
LINE
8
BLACK
6
CONTINUOUS
10
141.084
20
-108.292
11
141.151
21
-108.542
0
LINE
8
BLACK
6
CONTINUOUS
10
141.151
20
-108.542
11
141.151
21
-109.242
0
LINE
8
BLACK
6
CONTINUOUS
10
141.151
20
-109.242
11
141.12
21
-109.414
0
LINE
8
BLACK
6
CONTINUOUS
10
141.12
20
-109.414
11
141.034
21
-109.564
0
LINE
8
BLACK
6
CONTINUOUS
10
141.034
20
-109.564
11
140.901
21
-109.676
0
LINE
8
BLACK
6
CONTINUOUS
10
140.901
20
-109.676
11
140.651
21
-109.742
0
LINE
8
BLACK
6
CONTINUOUS
10
140.651
20
-109.742
11
140.65
21
-109.742
0
LINE
8
BLACK
6
CONTINUOUS
10
140.65
20
-109.742
11
140.479
21
-109.712
0
LINE
8
BLACK
6
CONTINUOUS
10
140.479
20
-109.712
11
140.329
21
-109.626
0
LINE
8
BLACK
6
CONTINUOUS
10
140.329
20
-109.626
11
140.217
21
-109.492
0
LINE
8
BLACK
6
CONTINUOUS
10
140.217
20
-109.492
11
140.15
21
-109.242
0
LINE
8
BLACK
6
CONTINUOUS
10
140.15
20
-109.242
11
140.15
21
-108.542
0
LINE
8
BLACK
6
CONTINUOUS
10
140.15
20
-108.542
11
140.181
21
-108.371
0
LINE
8
BLACK
6
CONTINUOUS
10
140.181
20
-108.371
11
140.267
21
-108.221
0
LINE
8
BLACK
6
CONTINUOUS
10
140.267
20
-108.221
11
140.4
21
-108.109
0
LINE
8
BLACK
6
CONTINUOUS
10
140.4
20
-108.109
11
140.65
21
-108.042
0
LINE
8
BLACK
6
CONTINUOUS
10
140.65
20
-108.042
11
140.651
21
-108.042
0
LINE
8
BLACK
6
CONTINUOUS
10
140.651
20
-108.042
11
140.822
21
-108.073
0
LINE
8
BLACK
6
CONTINUOUS
10
149.462
20
-108.073
11
149.612
21
-108.159
0
LINE
8
BLACK
6
CONTINUOUS
10
149.612
20
-108.159
11
149.724
21
-108.292
0
LINE
8
BLACK
6
CONTINUOUS
10
149.724
20
-108.292
11
149.791
21
-108.542
0
LINE
8
BLACK
6
CONTINUOUS
10
149.791
20
-108.542
11
149.791
21
-109.242
0
LINE
8
BLACK
6
CONTINUOUS
10
149.791
20
-109.242
11
149.76
21
-109.414
0
LINE
8
BLACK
6
CONTINUOUS
10
149.76
20
-109.414
11
149.674
21
-109.564
0
LINE
8
BLACK
6
CONTINUOUS
10
149.674
20
-109.564
11
149.541
21
-109.676
0
LINE
8
BLACK
6
CONTINUOUS
10
149.541
20
-109.676
11
149.291
21
-109.742
0
LINE
8
BLACK
6
CONTINUOUS
10
149.291
20
-109.742
11
149.29
21
-109.742
0
LINE
8
BLACK
6
CONTINUOUS
10
149.29
20
-109.742
11
149.119
21
-109.712
0
LINE
8
BLACK
6
CONTINUOUS
10
149.119
20
-109.712
11
148.969
21
-109.626
0
LINE
8
BLACK
6
CONTINUOUS
10
148.969
20
-109.626
11
148.857
21
-109.492
0
LINE
8
BLACK
6
CONTINUOUS
10
148.857
20
-109.492
11
148.79
21
-109.242
0
LINE
8
BLACK
6
CONTINUOUS
10
148.79
20
-109.242
11
148.79
21
-108.542
0
LINE
8
BLACK
6
CONTINUOUS
10
148.79
20
-108.542
11
148.821
21
-108.371
0
LINE
8
BLACK
6
CONTINUOUS
10
148.821
20
-108.371
11
148.907
21
-108.221
0
LINE
8
BLACK
6
CONTINUOUS
10
148.907
20
-108.221
11
149.04
21
-108.109
0
LINE
8
BLACK
6
CONTINUOUS
10
149.04
20
-108.109
11
149.29
21
-108.042
0
LINE
8
BLACK
6
CONTINUOUS
10
149.29
20
-108.042
11
149.291
21
-108.042
0
LINE
8
BLACK
6
CONTINUOUS
10
149.291
20
-108.042
11
149.462
21
-108.073
0
LINE
8
BLACK
6
CONTINUOUS
10
149.462
20
-104.273
11
149.612
21
-104.359
0
LINE
8
BLACK
6
CONTINUOUS
10
149.612
20
-104.359
11
149.724
21
-104.492
0
LINE
8
BLACK
6
CONTINUOUS
10
149.724
20
-104.492
11
149.791
21
-104.742
0
LINE
8
BLACK
6
CONTINUOUS
10
149.791
20
-104.742
11
149.791
21
-105.442
0
LINE
8
BLACK
6
CONTINUOUS
10
149.791
20
-105.442
11
149.76
21
-105.614
0
LINE
8
BLACK
6
CONTINUOUS
10
149.76
20
-105.614
11
149.674
21
-105.764
0
LINE
8
BLACK
6
CONTINUOUS
10
149.674
20
-105.764
11
149.541
21
-105.876
0
LINE
8
BLACK
6
CONTINUOUS
10
149.541
20
-105.876
11
149.291
21
-105.942
0
LINE
8
BLACK
6
CONTINUOUS
10
149.291
20
-105.942
11
149.29
21
-105.942
0
LINE
8
BLACK
6
CONTINUOUS
10
149.29
20
-105.942
11
149.119
21
-105.912
0
LINE
8
BLACK
6
CONTINUOUS
10
149.119
20
-105.912
11
148.969
21
-105.826
0
LINE
8
BLACK
6
CONTINUOUS
10
148.969
20
-105.826
11
148.857
21
-105.692
0
LINE
8
BLACK
6
CONTINUOUS
10
148.857
20
-105.692
11
148.79
21
-105.442
0
LINE
8
BLACK
6
CONTINUOUS
10
148.79
20
-105.442
11
148.79
21
-104.742
0
LINE
8
BLACK
6
CONTINUOUS
10
148.79
20
-104.742
11
148.821
21
-104.571
0
LINE
8
BLACK
6
CONTINUOUS
10
148.821
20
-104.571
11
148.907
21
-104.421
0
LINE
8
BLACK
6
CONTINUOUS
10
148.907
20
-104.421
11
149.04
21
-104.309
0
LINE
8
BLACK
6
CONTINUOUS
10
149.04
20
-104.309
11
149.29
21
-104.242
0
LINE
8
BLACK
6
CONTINUOUS
10
149.29
20
-104.242
11
149.291
21
-104.242
0
LINE
8
BLACK
6
CONTINUOUS
10
149.291
20
-104.242
11
149.462
21
-104.273
0
LINE
8
BLACK
6
CONTINUOUS
10
140.822
20
-104.273
11
140.972
21
-104.359
0
LINE
8
BLACK
6
CONTINUOUS
10
140.972
20
-104.359
11
141.084
21
-104.492
0
LINE
8
BLACK
6
CONTINUOUS
10
141.084
20
-104.492
11
141.151
21
-104.742
0
LINE
8
BLACK
6
CONTINUOUS
10
141.151
20
-104.742
11
141.151
21
-105.442
0
LINE
8
BLACK
6
CONTINUOUS
10
141.151
20
-105.442
11
141.12
21
-105.614
0
LINE
8
BLACK
6
CONTINUOUS
10
141.12
20
-105.614
11
141.034
21
-105.764
0
LINE
8
BLACK
6
CONTINUOUS
10
141.034
20
-105.764
11
140.901
21
-105.876
0
LINE
8
BLACK
6
CONTINUOUS
10
140.901
20
-105.876
11
140.651
21
-105.942
0
LINE
8
BLACK
6
CONTINUOUS
10
140.651
20
-105.942
11
140.65
21
-105.942
0
LINE
8
BLACK
6
CONTINUOUS
10
140.65
20
-105.942
11
140.479
21
-105.912
0
LINE
8
BLACK
6
CONTINUOUS
10
140.479
20
-105.912
11
140.329
21
-105.826
0
LINE
8
BLACK
6
CONTINUOUS
10
140.329
20
-105.826
11
140.217
21
-105.692
0
LINE
8
BLACK
6
CONTINUOUS
10
140.217
20
-105.692
11
140.15
21
-105.442
0
LINE
8
BLACK
6
CONTINUOUS
10
140.15
20
-105.442
11
140.15
21
-104.742
0
LINE
8
BLACK
6
CONTINUOUS
10
140.15
20
-104.742
11
140.181
21
-104.571
0
LINE
8
BLACK
6
CONTINUOUS
10
140.181
20
-104.571
11
140.267
21
-104.421
0
LINE
8
BLACK
6
CONTINUOUS
10
140.267
20
-104.421
11
140.4
21
-104.309
0
LINE
8
BLACK
6
CONTINUOUS
10
140.4
20
-104.309
11
140.65
21
-104.242
0
LINE
8
BLACK
6
CONTINUOUS
10
140.65
20
-104.242
11
140.651
21
-104.242
0
LINE
8
BLACK
6
CONTINUOUS
10
140.651
20
-104.242
11
140.822
21
-104.273
0
LINE
8
BLACK
6
CONTINUOUS
10
138.233
20
-105.41
11
138.294
21
-105.445
0
LINE
8
BLACK
6
CONTINUOUS
10
138.294
20
-105.445
11
138.339
21
-105.499
0
LINE
8
BLACK
6
CONTINUOUS
10
138.339
20
-105.499
11
138.363
21
-105.565
0
LINE
8
BLACK
6
CONTINUOUS
10
138.363
20
-105.565
11
138.363
21
-105.636
0
LINE
8
BLACK
6
CONTINUOUS
10
138.363
20
-105.636
11
138.339
21
-105.702
0
LINE
8
BLACK
6
CONTINUOUS
10
138.339
20
-105.702
11
138.294
21
-105.756
0
LINE
8
BLACK
6
CONTINUOUS
10
138.294
20
-105.756
11
138.233
21
-105.791
0
LINE
8
BLACK
6
CONTINUOUS
10
138.233
20
-105.791
11
138.163
21
-105.804
0
LINE
8
BLACK
6
CONTINUOUS
10
138.163
20
-105.804
11
138.094
21
-105.791
0
LINE
8
BLACK
6
CONTINUOUS
10
138.094
20
-105.791
11
138.033
21
-105.756
0
LINE
8
BLACK
6
CONTINUOUS
10
138.033
20
-105.756
11
137.987
21
-105.702
0
LINE
8
BLACK
6
CONTINUOUS
10
137.987
20
-105.702
11
137.963
21
-105.636
0
LINE
8
BLACK
6
CONTINUOUS
10
137.963
20
-105.636
11
137.963
21
-105.565
0
LINE
8
BLACK
6
CONTINUOUS
10
137.963
20
-105.565
11
137.987
21
-105.499
0
LINE
8
BLACK
6
CONTINUOUS
10
137.987
20
-105.499
11
138.033
21
-105.445
0
LINE
8
BLACK
6
CONTINUOUS
10
138.033
20
-105.445
11
138.094
21
-105.41
0
LINE
8
BLACK
6
CONTINUOUS
10
138.094
20
-105.41
11
138.163
21
-105.397
0
LINE
8
BLACK
6
CONTINUOUS
10
138.163
20
-105.397
11
138.233
21
-105.41
0
LINE
8
BLACK
6
CONTINUOUS
10
163.749
20
-91.8779
11
163.856
21
-91.9396
0
LINE
8
BLACK
6
CONTINUOUS
10
163.856
20
-91.9396
11
163.935
21
-92.0341
0
LINE
8
BLACK
6
CONTINUOUS
10
163.935
20
-92.0341
11
163.977
21
-92.1501
0
LINE
8
BLACK
6
CONTINUOUS
10
163.977
20
-92.1501
11
163.977
21
-92.2735
0
LINE
8
BLACK
6
CONTINUOUS
10
163.977
20
-92.2735
11
163.935
21
-92.3895
0
LINE
8
BLACK
6
CONTINUOUS
10
163.935
20
-92.3895
11
163.856
21
-92.4841
0
LINE
8
BLACK
6
CONTINUOUS
10
163.856
20
-92.4841
11
163.749
21
-92.5458
0
LINE
8
BLACK
6
CONTINUOUS
10
163.749
20
-92.5458
11
163.627
21
-92.5672
0
LINE
8
BLACK
6
CONTINUOUS
10
163.627
20
-92.5672
11
163.506
21
-92.5458
0
LINE
8
BLACK
6
CONTINUOUS
10
163.506
20
-92.5458
11
163.399
21
-92.4841
0
LINE
8
BLACK
6
CONTINUOUS
10
163.399
20
-92.4841
11
163.32
21
-92.3895
0
LINE
8
BLACK
6
CONTINUOUS
10
163.32
20
-92.3895
11
163.277
21
-92.2735
0
LINE
8
BLACK
6
CONTINUOUS
10
163.277
20
-92.2735
11
163.277
21
-92.1501
0
LINE
8
BLACK
6
CONTINUOUS
10
163.277
20
-92.1501
11
163.32
21
-92.0341
0
LINE
8
BLACK
6
CONTINUOUS
10
163.32
20
-92.0341
11
163.399
21
-91.9396
0
LINE
8
BLACK
6
CONTINUOUS
10
163.399
20
-91.9396
11
163.506
21
-91.8779
0
LINE
8
BLACK
6
CONTINUOUS
10
163.506
20
-91.8779
11
163.627
21
-91.8564
0
LINE
8
BLACK
6
CONTINUOUS
10
163.627
20
-91.8564
11
163.749
21
-91.8779
0
LINE
8
BLACK
6
CONTINUOUS
10
163.463
20
-90.6404
11
163.57
21
-90.7021
0
LINE
8
BLACK
6
CONTINUOUS
10
163.57
20
-90.7021
11
163.65
21
-90.7967
0
LINE
8
BLACK
6
CONTINUOUS
10
163.65
20
-90.7967
11
163.692
21
-90.9127
0
LINE
8
BLACK
6
CONTINUOUS
10
163.692
20
-90.9127
11
163.692
21
-91.0361
0
LINE
8
BLACK
6
CONTINUOUS
10
163.692
20
-91.0361
11
163.65
21
-91.1521
0
LINE
8
BLACK
6
CONTINUOUS
10
163.65
20
-91.1521
11
163.57
21
-91.2466
0
LINE
8
BLACK
6
CONTINUOUS
10
163.57
20
-91.2466
11
163.463
21
-91.3083
0
LINE
8
BLACK
6
CONTINUOUS
10
163.463
20
-91.3083
11
163.342
21
-91.3298
0
LINE
8
BLACK
6
CONTINUOUS
10
163.342
20
-91.3298
11
163.22
21
-91.3083
0
LINE
8
BLACK
6
CONTINUOUS
10
163.22
20
-91.3083
11
163.113
21
-91.2466
0
LINE
8
BLACK
6
CONTINUOUS
10
163.113
20
-91.2466
11
163.034
21
-91.1521
0
LINE
8
BLACK
6
CONTINUOUS
10
163.034
20
-91.1521
11
162.992
21
-91.0361
0
LINE
8
BLACK
6
CONTINUOUS
10
162.992
20
-91.0361
11
162.992
21
-90.9127
0
LINE
8
BLACK
6
CONTINUOUS
10
162.992
20
-90.9127
11
163.034
21
-90.7967
0
LINE
8
BLACK
6
CONTINUOUS
10
163.034
20
-90.7967
11
163.113
21
-90.7021
0
LINE
8
BLACK
6
CONTINUOUS
10
163.113
20
-90.7021
11
163.22
21
-90.6404
0
LINE
8
BLACK
6
CONTINUOUS
10
163.22
20
-90.6404
11
163.342
21
-90.619
0
LINE
8
BLACK
6
CONTINUOUS
10
163.342
20
-90.619
11
163.463
21
-90.6404
0
LINE
8
BLACK
6
CONTINUOUS
10
163.178
20
-89.403
11
163.284
21
-89.4647
0
LINE
8
BLACK
6
CONTINUOUS
10
163.284
20
-89.4647
11
163.364
21
-89.5592
0
LINE
8
BLACK
6
CONTINUOUS
10
163.364
20
-89.5592
11
163.406
21
-89.6752
0
LINE
8
BLACK
6
CONTINUOUS
10
163.406
20
-89.6752
11
163.406
21
-89.7986
0
LINE
8
BLACK
6
CONTINUOUS
10
163.406
20
-89.7986
11
163.364
21
-89.9146
0
LINE
8
BLACK
6
CONTINUOUS
10
163.364
20
-89.9146
11
163.284
21
-90.0092
0
LINE
8
BLACK
6
CONTINUOUS
10
163.284
20
-90.0092
11
163.178
21
-90.0709
0
LINE
8
BLACK
6
CONTINUOUS
10
163.178
20
-90.0709
11
163.056
21
-90.0923
0
LINE
8
BLACK
6
CONTINUOUS
10
163.056
20
-90.0923
11
162.934
21
-90.0709
0
LINE
8
BLACK
6
CONTINUOUS
10
162.934
20
-90.0709
11
162.828
21
-90.0092
0
LINE
8
BLACK
6
CONTINUOUS
10
162.828
20
-90.0092
11
162.748
21
-89.9146
0
LINE
8
BLACK
6
CONTINUOUS
10
162.748
20
-89.9146
11
162.706
21
-89.7986
0
LINE
8
BLACK
6
CONTINUOUS
10
162.706
20
-89.7986
11
162.706
21
-89.6752
0
LINE
8
BLACK
6
CONTINUOUS
10
162.706
20
-89.6752
11
162.748
21
-89.5592
0
LINE
8
BLACK
6
CONTINUOUS
10
162.748
20
-89.5592
11
162.828
21
-89.4647
0
LINE
8
BLACK
6
CONTINUOUS
10
162.828
20
-89.4647
11
162.934
21
-89.403
0
LINE
8
BLACK
6
CONTINUOUS
10
162.934
20
-89.403
11
163.056
21
-89.3815
0
LINE
8
BLACK
6
CONTINUOUS
10
163.056
20
-89.3815
11
163.178
21
-89.403
0
LINE
8
BLACK
6
CONTINUOUS
10
162.892
20
-88.1655
11
162.999
21
-88.2272
0
LINE
8
BLACK
6
CONTINUOUS
10
162.999
20
-88.2272
11
163.078
21
-88.3218
0
LINE
8
BLACK
6
CONTINUOUS
10
163.078
20
-88.3218
11
163.12
21
-88.4378
0
LINE
8
BLACK
6
CONTINUOUS
10
163.12
20
-88.4378
11
163.12
21
-88.5612
0
LINE
8
BLACK
6
CONTINUOUS
10
163.12
20
-88.5612
11
163.078
21
-88.6772
0
LINE
8
BLACK
6
CONTINUOUS
10
163.078
20
-88.6772
11
162.999
21
-88.7717
0
LINE
8
BLACK
6
CONTINUOUS
10
162.999
20
-88.7717
11
162.892
21
-88.8334
0
LINE
8
BLACK
6
CONTINUOUS
10
162.892
20
-88.8334
11
162.77
21
-88.8549
0
LINE
8
BLACK
6
CONTINUOUS
10
162.77
20
-88.8549
11
162.649
21
-88.8334
0
LINE
8
BLACK
6
CONTINUOUS
10
162.649
20
-88.8334
11
162.542
21
-88.7717
0
LINE
8
BLACK
6
CONTINUOUS
10
162.542
20
-88.7717
11
162.463
21
-88.6772
0
LINE
8
BLACK
6
CONTINUOUS
10
162.463
20
-88.6772
11
162.42
21
-88.5612
0
LINE
8
BLACK
6
CONTINUOUS
10
162.42
20
-88.5612
11
162.42
21
-88.4378
0
LINE
8
BLACK
6
CONTINUOUS
10
162.42
20
-88.4378
11
162.463
21
-88.3218
0
LINE
8
BLACK
6
CONTINUOUS
10
162.463
20
-88.3218
11
162.542
21
-88.2272
0
LINE
8
BLACK
6
CONTINUOUS
10
162.542
20
-88.2272
11
162.649
21
-88.1655
0
LINE
8
BLACK
6
CONTINUOUS
10
162.649
20
-88.1655
11
162.77
21
-88.1441
0
LINE
8
BLACK
6
CONTINUOUS
10
162.77
20
-88.1441
11
162.892
21
-88.1655
0
LINE
8
BLACK
6
CONTINUOUS
10
162.606
20
-86.9281
11
162.713
21
-86.9898
0
LINE
8
BLACK
6
CONTINUOUS
10
162.713
20
-86.9898
11
162.792
21
-87.0843
0
LINE
8
BLACK
6
CONTINUOUS
10
162.792
20
-87.0843
11
162.835
21
-87.2003
0
LINE
8
BLACK
6
CONTINUOUS
10
162.835
20
-87.2003
11
162.835
21
-87.3237
0
LINE
8
BLACK
6
CONTINUOUS
10
162.835
20
-87.3237
11
162.792
21
-87.4397
0
LINE
8
BLACK
6
CONTINUOUS
10
162.792
20
-87.4397
11
162.713
21
-87.5343
0
LINE
8
BLACK
6
CONTINUOUS
10
162.713
20
-87.5343
11
162.606
21
-87.596
0
LINE
8
BLACK
6
CONTINUOUS
10
162.606
20
-87.596
11
162.485
21
-87.6174
0
LINE
8
BLACK
6
CONTINUOUS
10
162.485
20
-87.6174
11
162.363
21
-87.596
0
LINE
8
BLACK
6
CONTINUOUS
10
162.363
20
-87.596
11
162.256
21
-87.5343
0
LINE
8
BLACK
6
CONTINUOUS
10
162.256
20
-87.5343
11
162.177
21
-87.4397
0
LINE
8
BLACK
6
CONTINUOUS
10
162.177
20
-87.4397
11
162.135
21
-87.3237
0
LINE
8
BLACK
6
CONTINUOUS
10
162.135
20
-87.3237
11
162.135
21
-87.2003
0
LINE
8
BLACK
6
CONTINUOUS
10
162.135
20
-87.2003
11
162.177
21
-87.0843
0
LINE
8
BLACK
6
CONTINUOUS
10
162.177
20
-87.0843
11
162.256
21
-86.9898
0
LINE
8
BLACK
6
CONTINUOUS
10
162.256
20
-86.9898
11
162.363
21
-86.9281
0
LINE
8
BLACK
6
CONTINUOUS
10
162.363
20
-86.9281
11
162.485
21
-86.9066
0
LINE
8
BLACK
6
CONTINUOUS
10
162.485
20
-86.9066
11
162.606
21
-86.9281
0
CIRCLE
8
BLACK
10
138.163
20
-105.6
40
0.1
  0
ENDSEC
  0
EOF
